<?xml version="1.0" encoding="UTF-8" standalone="no"?>
<!-- Created with Inkscape (http://www.inkscape.org/) -->

<svg
   version="1.1"
   id="svg83"
   width="553.6748"
   height="331.81396"
   viewBox="0 0 553.6748 331.81396"
   sodipodi:docname="p1.svg"
   inkscape:version="1.2 (dc2aedaf03, 2022-05-15)"
   xml:space="preserve"
   xmlns:inkscape="http://www.inkscape.org/namespaces/inkscape"
   xmlns:sodipodi="http://sodipodi.sourceforge.net/DTD/sodipodi-0.dtd"
   xmlns="http://www.w3.org/2000/svg"
   xmlns:svg="http://www.w3.org/2000/svg"><defs
     id="defs87"><filter
       inkscape:collect="always"
       style="color-interpolation-filters:sRGB"
       id="filter2418"
       x="-0.062110244"
       y="-0.062110244"
       width="1.1242205"
       height="1.1242205"><feGaussianBlur
         inkscape:collect="always"
         stdDeviation="6.6047017"
         id="feGaussianBlur2420" /></filter></defs><sodipodi:namedview
     id="namedview85"
     pagecolor="#505050"
     bordercolor="#ffffff"
     borderopacity="1"
     inkscape:showpageshadow="0"
     inkscape:pageopacity="0"
     inkscape:pagecheckerboard="1"
     inkscape:deskcolor="#505050"
     showgrid="false"
     inkscape:zoom="1.3946675"
     inkscape:cx="304.73212"
     inkscape:cy="179.25419"
     inkscape:window-width="1920"
     inkscape:window-height="1057"
     inkscape:window-x="0"
     inkscape:window-y="0"
     inkscape:window-maximized="1"
     inkscape:current-layer="layer1" /><g
     inkscape:groupmode="layer"
     id="layer1"
     inkscape:label="additions"
     style="display:inline"
     transform="translate(1064.6228,-1455.6001)"><rect
       style="fill:#ffffff;fill-opacity:1;stroke-width:0.566929"
       id="rect3131"
       width="553.6748"
       height="331.814"
       x="-1064.6228"
       y="1455.6001" /><g
       id="g7031"><g
         aria-label="Familie"
         id="text3135"
         style="font-size:74.6667px;line-height:1.15;font-family:Bitter;-inkscape-font-specification:Bitter;fill:#4a95ab;stroke-width:2.21141"
         transform="translate(-1455.8669,130.05596)"><path
           d="m 395.23603,1387.6813 v -3.2107 l 7.24267,-1.4933 -0.82133,1.0453 v -44.8747 l 1.04533,1.344 -7.46667,-1.344 v -3.2107 l 12.46934,-0.3733 h 23.66934 l 0.0747,11.872 h -3.73333 l -1.344,-8.1386 1.26933,0.8213 h -20.98134 l 1.12,-1.12 v 21.4293 l -1.12,-1.0453 h 19.18934 v 4.5547 h -19.18934 l 1.12,-1.0454 v 21.1307 l -0.896,-1.0453 8.96,1.4933 v 3.2107 z"
           id="path3749" /><path
           d="m 464.85029,1384.3213 -0.97067,-1.344 6.86934,1.344 v 3.2853 l -10.45334,0.448 -0.896,-7.168 0.52267,0.224 q -3.28534,3.584 -7.09334,5.4507 -3.808,1.792 -7.392,1.792 -4.33067,0 -7.31734,-2.7627 -2.98667,-2.7627 -2.98667,-8.3627 0,-4.4053 1.86667,-6.72 1.86667,-2.3893 5.152,-3.36 3.28534,-0.9706 7.61601,-0.9706 h 9.78133 l -0.672,0.7466 v -7.168 q 0,-4.1066 -2.16533,-5.824 -2.16534,-1.792 -5.97334,-1.792 -2.016,0 -4.33067,0.448 -2.24,0.3734 -4.77867,1.2694 l 0.89601,-0.9707 -0.74667,6.7947 h -3.95734 l -0.59733,-9.2587 q 4.256,-1.4187 7.98934,-2.0907 3.73333,-0.7466 6.86933,-0.7466 5.97334,0 9.33334,2.688 3.43467,2.6133 3.43467,8.4373 z m -23.66935,-7.616 q 0,3.6586 1.71734,5.376 1.792,1.7173 4.48,1.7173 2.61334,0 5.74934,-1.568 3.21066,-1.6427 6.19733,-4.4053 l -0.448,1.568 v -10.0054 l 0.672,0.672 h -8.88533 q -5.30134,0 -7.39201,1.6427 -2.09067,1.568 -2.09067,5.0027 z"
           id="path3751" /><path
           d="m 510.91971,1355.0519 -0.82133,0.1494 q 3.65867,-3.808 7.76534,-5.6747 4.10666,-1.9413 7.69067,-1.9413 4.55467,0 7.616,3.0613 3.136,2.9867 3.136,9.2587 v 24.192 l -0.74667,-1.0454 6.57067,1.4187 v 3.2107 h -17.32267 v -3.2107 l 6.34667,-1.4187 -0.82133,1.12 v -22.9226 q 0,-4.6294 -2.01601,-6.7947 -1.94133,-2.1653 -5.07733,-2.1653 -2.688,0 -5.97334,1.568 -3.21067,1.568 -6.34667,4.7786 l 0.52267,-1.4186 q 0.0747,0.672 0.0747,1.2693 0.0747,0.5973 0.0747,1.1947 v 24.416 l -0.74666,-1.0454 6.19733,1.4187 v 3.2107 h -16.87467 v -3.2107 l 6.34667,-1.4187 -0.896,1.12 v -22.9226 q 0,-4.6294 -2.016,-6.7947 -1.94134,-2.1653 -5.07734,-2.1653 -2.688,0 -5.89867,1.4933 -3.21067,1.4933 -6.34667,4.6293 l 0.52267,-1.12 v 26.88 l -0.74667,-1.0453 6.19734,1.344 v 3.2107 H 475.0051 v -3.2107 l 6.72,-1.4933 -0.896,1.12 v -32.1067 l 0.896,1.12 -6.72,-1.4187 v -3.2106 l 10.45334,-0.5227 0.82133,7.3173 -0.82133,-0.2986 q 3.65867,-3.808 7.69067,-5.6 4.10667,-1.792 7.76533,-1.792 3.43467,0 6.12267,1.8666 2.68801,1.792 3.88267,5.6 z"
           id="path3753" /><path
           d="m 558.03444,1383.8733 -0.672,-0.8214 6.496,1.4187 v 3.2107 H 546.2371 v -3.2107 l 6.496,-1.4187 -0.672,0.8214 v -31.5094 l 0.59734,0.672 -6.42134,-1.344 v -3.2106 l 11.79734,-0.448 z m -3.43467,-43.904 q -1.71733,0 -2.83733,-1.12 -1.12,-1.12 -1.12,-3.0614 0,-2.016 1.12,-3.0613 1.19466,-1.12 2.912,-1.12 1.792,0 2.912,1.0453 1.12,1.0453 1.12,3.136 0,2.016 -1.19467,3.136 -1.19467,1.0454 -2.912,1.0454 z"
           id="path3755" /><path
           d="m 579.56342,1383.8733 -0.672,-0.8214 6.496,1.4187 v 3.2107 h -17.69601 v -3.2107 l 6.49601,-1.4187 -0.59734,0.8214 v -49.4294 l 0.59734,0.672 -6.49601,-1.344 v -3.2107 l 11.87201,-0.5226 z"
           id="path3757" /><path
           d="m 601.81409,1383.8733 -0.672,-0.8214 6.496,1.4187 v 3.2107 h -17.62134 v -3.2107 l 6.496,-1.4187 -0.672,0.8214 v -31.5094 l 0.59733,0.672 -6.42133,-1.344 v -3.2106 l 11.79734,-0.448 z m -3.43467,-43.904 q -1.71734,0 -2.83734,-1.12 -1.12,-1.12 -1.12,-3.0614 0,-2.016 1.12,-3.0613 1.19467,-1.12 2.912,-1.12 1.79201,0 2.91201,1.0453 1.12,1.0453 1.12,3.136 0,2.016 -1.19467,3.136 -1.19467,1.0454 -2.912,1.0454 z"
           id="path3759" /><path
           d="m 630.03812,1388.3533 q -5.00266,0 -8.88533,-2.24 -3.808,-2.3147 -5.97334,-6.72 -2.16533,-4.4054 -2.16533,-10.752 0,-6.496 2.24,-11.2 2.24,-4.704 6.34667,-7.2427 4.10667,-2.6133 9.632,-2.6133 5.22667,0 8.58667,2.24 3.43467,2.1653 5.07734,6.048 1.71733,3.8826 1.71733,8.8853 0,0.8213 -0.0747,1.6427 -0.0747,0.8213 -0.224,2.016 h -28.74668 v -4.256 h 23.52001 l -0.672,0.448 q 0.0747,-3.36 -0.82134,-6.1974 -0.896,-2.8373 -3.06133,-4.5546 -2.16534,-1.7174 -5.74934,-1.7174 -3.808,0 -6.42133,2.016 -2.61334,2.016 -3.88267,5.5254 -1.26934,3.5093 -1.26934,8.1386 0,4.928 1.41867,8.512 1.41867,3.5094 4.10667,5.4507 2.76267,1.9413 6.72,1.9413 2.76267,0 6.048,-1.0453 3.28534,-1.12 6.79467,-3.36 l 2.16534,3.36 q -4.18134,2.8373 -8.36267,4.256 -4.18134,1.4187 -8.06401,1.4187 z"
           id="path3761" /></g><g
         aria-label="Familie"
         id="text3143"
         style="font-size:74.6667px;line-height:1.15;font-family:Bitter;-inkscape-font-specification:Bitter;fill:#4a95ab;stroke-width:2.21141"
         transform="translate(-1455.8669,130.05596)"><path
           d="m 395.23603,1453.1689 v -3.2106 l 7.24267,-1.4934 -0.82133,1.0454 v -44.8747 l 1.04533,1.344 -7.46667,-1.344 v -3.2107 l 12.46934,-0.3733 h 23.66934 l 0.0747,11.872 h -3.73333 l -1.344,-8.1387 1.26933,0.8214 h -20.98134 l 1.12,-1.12 v 21.4293 l -1.12,-1.0453 h 19.18934 v 4.5546 h -19.18934 l 1.12,-1.0453 v 21.1307 l -0.896,-1.0454 8.96,1.4934 v 3.2106 z"
           id="path3779" /><path
           d="m 464.85029,1449.8089 -0.97067,-1.344 6.86934,1.344 v 3.2854 l -10.45334,0.448 -0.896,-7.168 0.52267,0.224 q -3.28534,3.584 -7.09334,5.4506 -3.808,1.792 -7.392,1.792 -4.33067,0 -7.31734,-2.7626 -2.98667,-2.7627 -2.98667,-8.3627 0,-4.4053 1.86667,-6.72 1.86667,-2.3893 5.152,-3.36 3.28534,-0.9707 7.61601,-0.9707 h 9.78133 l -0.672,0.7467 v -7.168 q 0,-4.1067 -2.16533,-5.824 -2.16534,-1.792 -5.97334,-1.792 -2.016,0 -4.33067,0.448 -2.24,0.3733 -4.77867,1.2693 l 0.89601,-0.9706 -0.74667,6.7946 h -3.95734 l -0.59733,-9.2586 q 4.256,-1.4187 7.98934,-2.0907 3.73333,-0.7467 6.86933,-0.7467 5.97334,0 9.33334,2.688 3.43467,2.6134 3.43467,8.4374 z m -23.66935,-7.616 q 0,3.6587 1.71734,5.376 1.792,1.7174 4.48,1.7174 2.61334,0 5.74934,-1.568 3.21066,-1.6427 6.19733,-4.4054 l -0.448,1.568 v -10.0053 l 0.672,0.672 h -8.88533 q -5.30134,0 -7.39201,1.6427 -2.09067,1.568 -2.09067,5.0026 z"
           id="path3781" /><path
           d="m 510.91971,1420.5396 -0.82133,0.1493 q 3.65867,-3.808 7.76534,-5.6746 4.10666,-1.9414 7.69067,-1.9414 4.55467,0 7.616,3.0614 3.136,2.9866 3.136,9.2586 v 24.192 l -0.74667,-1.0453 6.57067,1.4187 v 3.2106 h -17.32267 v -3.2106 l 6.34667,-1.4187 -0.82133,1.12 v -22.9227 q 0,-4.6293 -2.01601,-6.7946 -1.94133,-2.1654 -5.07733,-2.1654 -2.688,0 -5.97334,1.568 -3.21067,1.568 -6.34667,4.7787 l 0.52267,-1.4187 q 0.0747,0.672 0.0747,1.2694 0.0747,0.5973 0.0747,1.1946 v 24.416 l -0.74666,-1.0453 6.19733,1.4187 v 3.2106 h -16.87467 v -3.2106 l 6.34667,-1.4187 -0.896,1.12 v -22.9227 q 0,-4.6293 -2.016,-6.7946 -1.94134,-2.1654 -5.07734,-2.1654 -2.688,0 -5.89867,1.4934 -3.21067,1.4933 -6.34667,4.6293 l 0.52267,-1.12 v 26.88 l -0.74667,-1.0453 6.19734,1.344 v 3.2106 H 475.0051 v -3.2106 l 6.72,-1.4934 -0.896,1.12 v -32.1066 l 0.896,1.12 -6.72,-1.4187 v -3.2107 l 10.45334,-0.5226 0.82133,7.3173 -0.82133,-0.2987 q 3.65867,-3.808 7.69067,-5.6 4.10667,-1.792 7.76533,-1.792 3.43467,0 6.12267,1.8667 2.68801,1.792 3.88267,5.6 z"
           id="path3783" /><path
           d="m 558.03444,1449.3609 -0.672,-0.8213 6.496,1.4187 v 3.2106 H 546.2371 v -3.2106 l 6.496,-1.4187 -0.672,0.8213 v -31.5093 l 0.59734,0.672 -6.42134,-1.344 v -3.2107 l 11.79734,-0.448 z m -3.43467,-43.904 q -1.71733,0 -2.83733,-1.12 -1.12,-1.12 -1.12,-3.0613 0,-2.016 1.12,-3.0613 1.19466,-1.12 2.912,-1.12 1.792,0 2.912,1.0453 1.12,1.0453 1.12,3.136 0,2.016 -1.19467,3.136 -1.19467,1.0453 -2.912,1.0453 z"
           id="path3785" /><path
           d="m 579.56342,1449.3609 -0.672,-0.8213 6.496,1.4187 v 3.2106 h -17.69601 v -3.2106 l 6.49601,-1.4187 -0.59734,0.8213 v -49.4293 l 0.59734,0.672 -6.49601,-1.344 v -3.2107 l 11.87201,-0.5226 z"
           id="path3787" /><path
           d="m 601.81409,1449.3609 -0.672,-0.8213 6.496,1.4187 v 3.2106 h -17.62134 v -3.2106 l 6.496,-1.4187 -0.672,0.8213 v -31.5093 l 0.59733,0.672 -6.42133,-1.344 v -3.2107 l 11.79734,-0.448 z m -3.43467,-43.904 q -1.71734,0 -2.83734,-1.12 -1.12,-1.12 -1.12,-3.0613 0,-2.016 1.12,-3.0613 1.19467,-1.12 2.912,-1.12 1.79201,0 2.91201,1.0453 1.12,1.0453 1.12,3.136 0,2.016 -1.19467,3.136 -1.19467,1.0453 -2.912,1.0453 z"
           id="path3789" /><path
           d="m 630.03812,1453.8409 q -5.00266,0 -8.88533,-2.24 -3.808,-2.3146 -5.97334,-6.72 -2.16533,-4.4053 -2.16533,-10.752 0,-6.496 2.24,-11.2 2.24,-4.704 6.34667,-7.2426 4.10667,-2.6134 9.632,-2.6134 5.22667,0 8.58667,2.24 3.43467,2.1654 5.07734,6.048 1.71733,3.8827 1.71733,8.8854 0,0.8213 -0.0747,1.6426 -0.0747,0.8214 -0.224,2.016 h -28.74668 v -4.256 h 23.52001 l -0.672,0.448 q 0.0747,-3.36 -0.82134,-6.1973 -0.896,-2.8373 -3.06133,-4.5547 -2.16534,-1.7173 -5.74934,-1.7173 -3.808,0 -6.42133,2.016 -2.61334,2.016 -3.88267,5.5253 -1.26934,3.5094 -1.26934,8.1387 0,4.928 1.41867,8.512 1.41867,3.5093 4.10667,5.4507 2.76267,1.9413 6.72,1.9413 2.76267,0 6.048,-1.0453 3.28534,-1.12 6.79467,-3.36 l 2.16534,3.36 q -4.18134,2.8373 -8.36267,4.256 -4.18134,1.4186 -8.06401,1.4186 z"
           id="path3791" /></g><path
         d="m -1060.6309,1648.6582 v -3.2107 l 7.2427,-1.4933 -0.8213,1.0453 v -44.8747 l 1.0453,1.344 -7.4667,-1.344 v -3.2107 l 12.4694,-0.3733 h 23.6693 l 0.075,11.872 h -3.7333 l -1.344,-8.1387 1.2693,0.8214 h -20.9813 l 1.12,-1.12 v 21.4293 l -1.12,-1.0453 h 19.1893 v 4.5547 h -19.1893 l 1.12,-1.0454 v 21.1307 l -0.896,-1.0453 8.96,1.4933 v 3.2107 z"
         id="path3809"
         style="font-size:74.6667px;line-height:1.15;font-family:Bitter;-inkscape-font-specification:Bitter;fill:#4a95ab;stroke-width:2.21141" /><path
         d="m -991.01661,1645.2982 -0.97067,-1.344 6.86934,1.344 v 3.2853 l -10.45334,0.448 -0.896,-7.168 0.52267,0.224 q -3.28534,3.584 -7.09339,5.4507 -3.808,1.792 -7.3919,1.792 -4.3307,0 -7.3174,-2.7627 -2.9867,-2.7627 -2.9867,-8.3627 0,-4.4053 1.8667,-6.72 1.8667,-2.3893 5.152,-3.36 3.2854,-0.9706 7.616,-0.9706 h 9.78135 l -0.672,0.7466 v -7.168 q 0,-4.1066 -2.16533,-5.824 -2.16532,-1.792 -5.97332,-1.792 -2.016,0 -4.3307,0.448 -2.24,0.3734 -4.7787,1.2694 l 0.8961,-0.9707 -0.7467,6.7947 h -3.9574 l -0.5973,-9.2587 q 4.256,-1.4187 7.9894,-2.0907 3.7333,-0.7466 6.8693,-0.7466 5.97332,0 9.33332,2.688 3.43467,2.6133 3.43467,8.4373 z m -23.66939,-7.616 q 0,3.6586 1.7174,5.376 1.792,1.7173 4.48,1.7173 2.6133,0 5.7493,-1.568 3.21068,-1.6427 6.19735,-4.4053 l -0.448,1.568 v -10.0054 l 0.672,0.672 h -8.88535 q -5.3013,0 -7.392,1.6427 -2.0907,1.568 -2.0907,5.0027 z"
         id="path3811"
         style="font-size:74.6667px;line-height:1.15;font-family:Bitter;-inkscape-font-specification:Bitter;fill:#4a95ab;stroke-width:2.21141" /><path
         d="m -944.94719,1616.0288 -0.82133,0.1494 q 3.65867,-3.808 7.76534,-5.6747 4.10666,-1.9413 7.69067,-1.9413 4.55467,0 7.616,3.0613 3.136,2.9867 3.136,9.2587 v 24.192 l -0.74667,-1.0454 6.57067,1.4187 v 3.2107 h -17.32267 v -3.2107 l 6.34667,-1.4187 -0.82133,1.12 v -22.9226 q 0,-4.6294 -2.01601,-6.7947 -1.94133,-2.1653 -5.07733,-2.1653 -2.688,0 -5.97334,1.568 -3.21067,1.568 -6.34667,4.7786 l 0.52267,-1.4186 q 0.0747,0.672 0.0747,1.2693 0.0747,0.5973 0.0747,1.1947 v 24.416 l -0.74666,-1.0454 6.19733,1.4187 v 3.2107 h -16.87467 v -3.2107 l 6.34667,-1.4187 -0.896,1.12 v -22.9226 q 0,-4.6294 -2.016,-6.7947 -1.94134,-2.1653 -5.07734,-2.1653 -2.688,0 -5.89867,1.4933 -3.21067,1.4933 -6.34667,4.6293 l 0.52267,-1.12 v 26.88 l -0.74667,-1.0453 6.19734,1.344 v 3.2107 h -17.24801 v -3.2107 l 6.72,-1.4933 -0.896,1.12 v -32.1067 l 0.896,1.12 -6.72,-1.4187 v -3.2106 l 10.45334,-0.5227 0.82133,7.3173 -0.82133,-0.2986 q 3.65867,-3.808 7.69067,-5.6 4.10667,-1.792 7.76533,-1.792 3.43467,0 6.12267,1.8666 2.68801,1.792 3.88267,5.6 z"
         id="path3813"
         style="font-size:74.6667px;line-height:1.15;font-family:Bitter;-inkscape-font-specification:Bitter;fill:#4a95ab;stroke-width:2.21141" /><path
         d="m -897.83246,1644.8502 -0.672,-0.8214 6.496,1.4187 v 3.2107 h -17.62134 v -3.2107 l 6.496,-1.4187 -0.672,0.8214 v -31.5094 l 0.59734,0.672 -6.42134,-1.344 v -3.2106 l 11.79734,-0.448 z m -3.43467,-43.904 q -1.71733,0 -2.83733,-1.1201 -1.12,-1.12 -1.12,-3.0613 0,-2.016 1.12,-3.0613 1.19466,-1.12 2.912,-1.12 1.792,0 2.912,1.0453 1.12,1.0453 1.12,3.136 0,2.016 -1.19467,3.136 -1.19467,1.0454 -2.912,1.0454 z"
         id="path3815"
         style="font-size:74.6667px;line-height:1.15;font-family:Bitter;-inkscape-font-specification:Bitter;fill:#4a95ab;stroke-width:2.21141" /><path
         d="m -876.30348,1644.8502 -0.672,-0.8214 6.496,1.4187 v 3.2107 h -17.69601 v -3.2107 l 6.49601,-1.4187 -0.59734,0.8214 v -49.4294 l 0.59734,0.672 -6.49601,-1.344 v -3.2107 l 11.87201,-0.5226 z"
         id="path3817"
         style="font-size:74.6667px;line-height:1.15;font-family:Bitter;-inkscape-font-specification:Bitter;fill:#4a95ab;stroke-width:2.21141" /><path
         d="m -854.05281,1644.8502 -0.672,-0.8214 6.496,1.4187 v 3.2107 h -17.62134 v -3.2107 l 6.496,-1.4187 -0.672,0.8214 v -31.5094 l 0.59733,0.672 -6.42133,-1.344 v -3.2106 l 11.79734,-0.448 z m -3.43467,-43.904 q -1.71734,0 -2.83734,-1.1201 -1.12,-1.12 -1.12,-3.0613 0,-2.016 1.12,-3.0613 1.19467,-1.12 2.912,-1.12 1.79201,0 2.91201,1.0453 1.12,1.0453 1.12,3.136 0,2.016 -1.19467,3.136 -1.19467,1.0454 -2.912,1.0454 z"
         id="path3819"
         style="font-size:74.6667px;line-height:1.15;font-family:Bitter;-inkscape-font-specification:Bitter;fill:#4a95ab;stroke-width:2.21141" /><path
         d="m -825.82878,1649.3302 q -5.00266,0 -8.88533,-2.24 -3.808,-2.3147 -5.97334,-6.72 -2.16533,-4.4054 -2.16533,-10.752 0,-6.496 2.24,-11.2 2.24,-4.704 6.34667,-7.2427 4.10667,-2.6133 9.632,-2.6133 5.22667,0 8.58667,2.24 3.43467,2.1653 5.07734,6.048 1.71733,3.8826 1.71733,8.8853 0,0.8213 -0.0747,1.6427 -0.0747,0.8213 -0.224,2.016 h -28.74668 v -4.256 h 23.52001 l -0.672,0.448 q 0.0747,-3.36 -0.82134,-6.1974 -0.896,-2.8373 -3.06133,-4.5546 -2.16534,-1.7174 -5.74934,-1.7174 -3.808,0 -6.42133,2.016 -2.61334,2.016 -3.88267,5.5254 -1.26934,3.5093 -1.26934,8.1386 0,4.928 1.41867,8.512 1.41867,3.5094 4.10667,5.4507 2.76267,1.9413 6.72,1.9413 2.76267,0 6.048,-1.0453 3.28534,-1.12 6.79467,-3.36 l 2.16534,3.36 q -4.18134,2.8373 -8.36267,4.256 -4.18134,1.4187 -8.06401,1.4187 z"
         id="path3821"
         style="font-size:74.6667px;line-height:1.15;font-family:Bitter;-inkscape-font-specification:Bitter;fill:#4a95ab;stroke-width:2.21141" /><path
         d="m -1060.6309,1714.1458 v -3.2106 l 7.2427,-1.4934 -0.8213,1.0454 v -44.8747 l 1.0453,1.344 -7.4667,-1.344 v -3.2107 l 12.4694,-0.3733 h 23.6693 l 0.075,11.872 h -3.7333 l -1.344,-8.1387 1.2693,0.8214 h -20.9813 l 1.12,-1.12 v 21.4293 l -1.12,-1.0453 h 19.1893 v 4.5546 h -19.1893 l 1.12,-1.0453 v 21.1307 l -0.896,-1.0454 8.96,1.4934 v 3.2106 z"
         id="path3839"
         style="font-size:74.6667px;line-height:1.15;font-family:Bitter;-inkscape-font-specification:Bitter;fill:#4a95ab;stroke-width:2.21141" /><path
         d="m -991.01661,1710.7858 -0.97067,-1.344 6.86934,1.344 v 3.2854 l -10.45334,0.448 -0.896,-7.168 0.52267,0.224 q -3.28534,3.584 -7.09339,5.4506 -3.808,1.792 -7.3919,1.792 -4.3307,0 -7.3174,-2.7626 -2.9867,-2.7627 -2.9867,-8.3627 0,-4.4053 1.8667,-6.72 1.8667,-2.3893 5.152,-3.36 3.2854,-0.9707 7.616,-0.9707 h 9.78135 l -0.672,0.7467 v -7.168 q 0,-4.1067 -2.16533,-5.824 -2.16532,-1.792 -5.97332,-1.792 -2.016,0 -4.3307,0.448 -2.24,0.3733 -4.7787,1.2693 l 0.8961,-0.9706 -0.7467,6.7946 h -3.9574 l -0.5973,-9.2586 q 4.256,-1.4187 7.9894,-2.0907 3.7333,-0.7467 6.8693,-0.7467 5.97332,0 9.33332,2.688 3.43467,2.6134 3.43467,8.4374 z m -23.66939,-7.616 q 0,3.6587 1.7174,5.376 1.792,1.7174 4.48,1.7174 2.6133,0 5.7493,-1.568 3.21068,-1.6427 6.19735,-4.4054 l -0.448,1.568 v -10.0053 l 0.672,0.672 h -8.88535 q -5.3013,0 -7.392,1.6427 -2.0907,1.568 -2.0907,5.0026 z"
         id="path3841"
         style="font-size:74.6667px;line-height:1.15;font-family:Bitter;-inkscape-font-specification:Bitter;fill:#4a95ab;stroke-width:2.21141" /><path
         d="m -944.94719,1681.5165 -0.82133,0.1493 q 3.65867,-3.808 7.76534,-5.6746 4.10666,-1.9414 7.69067,-1.9414 4.55467,0 7.616,3.0614 3.136,2.9866 3.136,9.2586 v 24.192 l -0.74667,-1.0453 6.57067,1.4187 v 3.2106 h -17.32267 v -3.2106 l 6.34667,-1.4187 -0.82133,1.12 v -22.9227 q 0,-4.6293 -2.01601,-6.7946 -1.94133,-2.1654 -5.07733,-2.1654 -2.688,0 -5.97334,1.568 -3.21067,1.568 -6.34667,4.7787 l 0.52267,-1.4187 q 0.0747,0.672 0.0747,1.2694 0.0747,0.5973 0.0747,1.1946 v 24.416 l -0.74666,-1.0453 6.19733,1.4187 v 3.2106 h -16.87467 v -3.2106 l 6.34667,-1.4187 -0.896,1.12 v -22.9227 q 0,-4.6293 -2.016,-6.7946 -1.94134,-2.1654 -5.07734,-2.1654 -2.688,0 -5.89867,1.4934 -3.21067,1.4933 -6.34667,4.6293 l 0.52267,-1.12 v 26.88 l -0.74667,-1.0453 6.19734,1.344 v 3.2106 h -17.24801 v -3.2106 l 6.72,-1.4934 -0.896,1.12 v -32.1066 l 0.896,1.12 -6.72,-1.4187 v -3.2107 l 10.45334,-0.5226 0.82133,7.3173 -0.82133,-0.2987 q 3.65867,-3.808 7.69067,-5.6 4.10667,-1.792 7.76533,-1.792 3.43467,0 6.12267,1.8667 2.68801,1.792 3.88267,5.6 z"
         id="path3843"
         style="font-size:74.6667px;line-height:1.15;font-family:Bitter;-inkscape-font-specification:Bitter;fill:#4a95ab;stroke-width:2.21141" /><path
         d="m -897.83246,1710.3378 -0.672,-0.8213 6.496,1.4187 v 3.2106 h -17.62134 v -3.2106 l 6.496,-1.4187 -0.672,0.8213 v -31.5093 l 0.59734,0.672 -6.42134,-1.344 v -3.2107 l 11.79734,-0.448 z m -3.43467,-43.904 q -1.71733,0 -2.83733,-1.12 -1.12,-1.12 -1.12,-3.0613 0,-2.016 1.12,-3.0613 1.19466,-1.12 2.912,-1.12 1.792,0 2.912,1.0453 1.12,1.0453 1.12,3.136 0,2.016 -1.19467,3.136 -1.19467,1.0453 -2.912,1.0453 z"
         id="path3845"
         style="font-size:74.6667px;line-height:1.15;font-family:Bitter;-inkscape-font-specification:Bitter;fill:#4a95ab;stroke-width:2.21141" /><path
         d="m -876.30348,1710.3378 -0.672,-0.8213 6.496,1.4187 v 3.2106 h -17.69601 v -3.2106 l 6.49601,-1.4187 -0.59734,0.8213 v -49.4293 l 0.59734,0.672 -6.49601,-1.344 v -3.2107 l 11.87201,-0.5227 z"
         id="path3847"
         style="font-size:74.6667px;line-height:1.15;font-family:Bitter;-inkscape-font-specification:Bitter;fill:#4a95ab;stroke-width:2.21141" /><path
         d="m -854.05281,1710.3378 -0.672,-0.8213 6.496,1.4187 v 3.2106 h -17.62134 v -3.2106 l 6.496,-1.4187 -0.672,0.8213 v -31.5093 l 0.59733,0.672 -6.42133,-1.344 v -3.2107 l 11.79734,-0.448 z m -3.43467,-43.904 q -1.71734,0 -2.83734,-1.12 -1.12,-1.12 -1.12,-3.0613 0,-2.016 1.12,-3.0613 1.19467,-1.12 2.912,-1.12 1.79201,0 2.91201,1.0453 1.12,1.0453 1.12,3.136 0,2.016 -1.19467,3.136 -1.19467,1.0453 -2.912,1.0453 z"
         id="path3849"
         style="font-size:74.6667px;line-height:1.15;font-family:Bitter;-inkscape-font-specification:Bitter;fill:#4a95ab;stroke-width:2.21141" /><path
         d="m -825.82878,1714.8178 q -5.00266,0 -8.88533,-2.24 -3.808,-2.3146 -5.97334,-6.72 -2.16533,-4.4053 -2.16533,-10.752 0,-6.496 2.24,-11.2 2.24,-4.704 6.34667,-7.2426 4.10667,-2.6134 9.632,-2.6134 5.22667,0 8.58667,2.24 3.43467,2.1654 5.07734,6.048 1.71733,3.8827 1.71733,8.8854 0,0.8213 -0.0747,1.6426 -0.0747,0.8214 -0.224,2.016 h -28.74668 v -4.256 h 23.52001 l -0.672,0.448 q 0.0747,-3.36 -0.82134,-6.1973 -0.896,-2.8373 -3.06133,-4.5547 -2.16534,-1.7173 -5.74934,-1.7173 -3.808,0 -6.42133,2.016 -2.61334,2.016 -3.88267,5.5253 -1.26934,3.5094 -1.26934,8.1387 0,4.928 1.41867,8.512 1.41867,3.5093 4.10667,5.4507 2.76267,1.9413 6.72,1.9413 2.76267,0 6.048,-1.0453 3.28534,-1.12 6.79467,-3.36 l 2.16534,3.36 q -4.18134,2.8373 -8.36267,4.256 -4.18134,1.4186 -8.06401,1.4186 z"
         id="path3851"
         style="font-size:74.6667px;line-height:1.15;font-family:Bitter;-inkscape-font-specification:Bitter;fill:#4a95ab;stroke-width:2.21141" /><path
         d="m -1060.6309,1778.2573 v -3.2107 l 7.2427,-1.4933 -0.8213,1.0453 v -44.8747 l 1.0453,1.344 -7.4667,-1.344 v -3.2106 l 12.4694,-0.3734 h 23.6693 l 0.075,11.872 h -3.7333 l -1.344,-8.1386 1.2693,0.8213 h -20.9813 l 1.12,-1.12 v 21.4293 l -1.12,-1.0453 h 19.1893 v 4.5547 h -19.1893 l 1.12,-1.0454 v 21.1307 l -0.896,-1.0453 8.96,1.4933 v 3.2107 z"
         id="path3869"
         style="font-size:74.6667px;line-height:1.15;font-family:Bitter;-inkscape-font-specification:Bitter;fill:#4a95ab;stroke-width:2.21141" /><path
         d="m -991.01661,1774.8973 -0.97067,-1.344 6.86934,1.344 v 3.2853 l -10.45334,0.448 -0.896,-7.168 0.52267,0.224 q -3.28534,3.584 -7.09339,5.4507 -3.808,1.792 -7.3919,1.792 -4.3307,0 -7.3174,-2.7627 -2.9867,-2.7626 -2.9867,-8.3626 0,-4.4054 1.8667,-6.72 1.8667,-2.3894 5.152,-3.36 3.2854,-0.9707 7.616,-0.9707 h 9.78135 l -0.672,0.7467 v -7.1681 q 0,-4.1066 -2.16533,-5.824 -2.16532,-1.792 -5.97332,-1.792 -2.016,0 -4.3307,0.448 -2.24,0.3734 -4.7787,1.2694 l 0.8961,-0.9707 -0.7467,6.7947 h -3.9574 l -0.5973,-9.2587 q 4.256,-1.4187 7.9894,-2.0907 3.7333,-0.7466 6.8693,-0.7466 5.97332,0 9.33332,2.688 3.43467,2.6133 3.43467,8.4373 z m -23.66939,-7.616 q 0,3.6587 1.7174,5.376 1.792,1.7173 4.48,1.7173 2.6133,0 5.7493,-1.568 3.21068,-1.6426 6.19735,-4.4053 l -0.448,1.568 v -10.0053 l 0.672,0.672 h -8.88535 q -5.3013,0 -7.392,1.6426 -2.0907,1.568 -2.0907,5.0027 z"
         id="path3871"
         style="font-size:74.6667px;line-height:1.15;font-family:Bitter;-inkscape-font-specification:Bitter;fill:#4a95ab;stroke-width:2.21141" /><path
         d="m -944.94719,1745.6279 -0.82133,0.1494 q 3.65867,-3.808 7.76534,-5.6747 4.10666,-1.9413 7.69067,-1.9413 4.55467,0 7.616,3.0613 3.136,2.9867 3.136,9.2587 v 24.192 l -0.74667,-1.0453 6.57067,1.4186 v 3.2107 h -17.32267 v -3.2107 l 6.34667,-1.4186 -0.82133,1.12 v -22.9227 q 0,-4.6294 -2.01601,-6.7947 -1.94133,-2.1653 -5.07733,-2.1653 -2.688,0 -5.97334,1.568 -3.21067,1.568 -6.34667,4.7786 l 0.52267,-1.4186 q 0.0747,0.672 0.0747,1.2693 0.0747,0.5973 0.0747,1.1947 v 24.416 l -0.74666,-1.0453 6.19733,1.4186 v 3.2107 h -16.87467 v -3.2107 l 6.34667,-1.4186 -0.896,1.12 v -22.9227 q 0,-4.6294 -2.016,-6.7947 -1.94134,-2.1653 -5.07734,-2.1653 -2.688,0 -5.89867,1.4933 -3.21067,1.4933 -6.34667,4.6293 l 0.52267,-1.12 v 26.8801 l -0.74667,-1.0454 6.19734,1.344 v 3.2107 h -17.24801 v -3.2107 l 6.72,-1.4933 -0.896,1.12 v -32.1067 l 0.896,1.12 -6.72,-1.4187 v -3.2106 l 10.45334,-0.5227 0.82133,7.3173 -0.82133,-0.2986 q 3.65867,-3.808 7.69067,-5.6 4.10667,-1.792 7.76533,-1.792 3.43467,0 6.12267,1.8666 2.68801,1.792 3.88267,5.6 z"
         id="path3873"
         style="font-size:74.6667px;line-height:1.15;font-family:Bitter;-inkscape-font-specification:Bitter;fill:#4a95ab;stroke-width:2.21141" /><path
         d="m -897.83246,1774.4493 -0.672,-0.8213 6.496,1.4186 v 3.2107 h -17.62134 v -3.2107 l 6.496,-1.4186 -0.672,0.8213 v -31.5094 l 0.59734,0.672 -6.42134,-1.344 v -3.2106 l 11.79734,-0.448 z m -3.43467,-43.904 q -1.71733,0 -2.83733,-1.12 -1.12,-1.12 -1.12,-3.0614 0,-2.016 1.12,-3.0613 1.19466,-1.12 2.912,-1.12 1.792,0 2.912,1.0453 1.12,1.0454 1.12,3.136 0,2.016 -1.19467,3.136 -1.19467,1.0454 -2.912,1.0454 z"
         id="path3875"
         style="font-size:74.6667px;line-height:1.15;font-family:Bitter;-inkscape-font-specification:Bitter;fill:#4a95ab;stroke-width:2.21141" /><path
         d="m -876.30348,1774.4493 -0.672,-0.8213 6.496,1.4186 v 3.2107 h -17.69601 v -3.2107 l 6.49601,-1.4186 -0.59734,0.8213 v -49.4294 l 0.59734,0.672 -6.49601,-1.344 v -3.2106 l 11.87201,-0.5227 z"
         id="path3877"
         style="font-size:74.6667px;line-height:1.15;font-family:Bitter;-inkscape-font-specification:Bitter;fill:#4a95ab;stroke-width:2.21141" /><path
         d="m -854.05281,1774.4493 -0.672,-0.8213 6.496,1.4186 v 3.2107 h -17.62134 v -3.2107 l 6.496,-1.4186 -0.672,0.8213 v -31.5094 l 0.59733,0.672 -6.42133,-1.344 v -3.2106 l 11.79734,-0.448 z m -3.43467,-43.904 q -1.71734,0 -2.83734,-1.12 -1.12,-1.12 -1.12,-3.0614 0,-2.016 1.12,-3.0613 1.19467,-1.12 2.912,-1.12 1.79201,0 2.91201,1.0453 1.12,1.0454 1.12,3.136 0,2.016 -1.19467,3.136 -1.19467,1.0454 -2.912,1.0454 z"
         id="path3879"
         style="font-size:74.6667px;line-height:1.15;font-family:Bitter;-inkscape-font-specification:Bitter;fill:#4a95ab;stroke-width:2.21141" /><path
         d="m -825.82878,1778.9293 q -5.00266,0 -8.88533,-2.24 -3.808,-2.3147 -5.97334,-6.72 -2.16533,-4.4053 -2.16533,-10.752 0,-6.496 2.24,-11.2 2.24,-4.704 6.34667,-7.2427 4.10667,-2.6133 9.632,-2.6133 5.22667,0 8.58667,2.24 3.43467,2.1653 5.07734,6.048 1.71733,3.8826 1.71733,8.8853 0,0.8214 -0.0747,1.6427 -0.0747,0.8213 -0.224,2.016 h -28.74668 v -4.256 h 23.52001 l -0.672,0.448 q 0.0747,-3.36 -0.82134,-6.1974 -0.896,-2.8373 -3.06133,-4.5546 -2.16534,-1.7174 -5.74934,-1.7174 -3.808,0 -6.42133,2.016 -2.61334,2.016 -3.88267,5.5254 -1.26934,3.5093 -1.26934,8.1387 0,4.928 1.41867,8.512 1.41867,3.5093 4.10667,5.4506 2.76267,1.9414 6.72,1.9414 2.76267,0 6.048,-1.0454 3.28534,-1.12 6.79467,-3.36 l 2.16534,3.36 q -4.18134,2.8374 -8.36267,4.256 -4.18134,1.4187 -8.06401,1.4187 z"
         id="path3881"
         style="font-size:74.6667px;line-height:1.15;font-family:Bitter;-inkscape-font-specification:Bitter;fill:#4a95ab;stroke-width:2.21141" /></g><g
       id="g6992"
       transform="translate(-16.979995)"><g
         aria-label="Familie"
         id="text3139"
         style="font-size:74.6667px;line-height:1.15;font-family:Bitter;-inkscape-font-specification:Bitter;fill:#4a95ab;stroke-width:2.21141"
         transform="translate(-1455.8669,130.05596)"><path
           d="m 674.71677,1387.6813 v -3.2107 l 7.24267,-1.4933 -0.82133,1.0453 v -44.8747 l 1.04533,1.344 -7.46667,-1.344 v -3.2107 l 12.46934,-0.3733 h 23.66935 l 0.0747,11.872 h -3.73333 l -1.344,-8.1386 1.26933,0.8213 h -20.98134 l 1.12,-1.12 v 21.4293 l -1.12,-1.0453 h 19.18934 v 4.5547 h -19.18934 l 1.12,-1.0454 v 21.1307 l -0.896,-1.0453 8.96,1.4933 v 3.2107 z"
           id="path3764" /><path
           d="m 744.33103,1384.3213 -0.97066,-1.344 6.86933,1.344 v 3.2853 l -10.45334,0.448 -0.896,-7.168 0.52267,0.224 q -3.28533,3.584 -7.09334,5.4507 -3.808,1.792 -7.392,1.792 -4.33067,0 -7.31734,-2.7627 -2.98667,-2.7627 -2.98667,-8.3627 0,-4.4053 1.86667,-6.72 1.86667,-2.3893 5.152,-3.36 3.28534,-0.9706 7.61601,-0.9706 h 9.78134 l -0.672,0.7466 v -7.168 q 0,-4.1066 -2.16534,-5.824 -2.16533,-1.792 -5.97333,-1.792 -2.01601,0 -4.33067,0.448 -2.24,0.3734 -4.77867,1.2694 l 0.896,-0.9707 -0.74667,6.7947 h -3.95733 l -0.59734,-9.2587 q 4.256,-1.4187 7.98934,-2.0907 3.73333,-0.7466 6.86934,-0.7466 5.97333,0 9.33333,2.688 3.43467,2.6133 3.43467,8.4373 z m -23.66934,-7.616 q 0,3.6586 1.71733,5.376 1.792,1.7173 4.48,1.7173 2.61334,0 5.74934,-1.568 3.21067,-1.6427 6.19734,-4.4053 l -0.448,1.568 v -10.0054 l 0.672,0.672 h -8.88534 q -5.30134,0 -7.392,1.6427 -2.09067,1.568 -2.09067,5.0027 z"
           id="path3766" /><path
           d="m 790.40046,1355.0519 -0.82134,0.1494 q 3.65867,-3.808 7.76534,-5.6747 4.10667,-1.9413 7.69067,-1.9413 4.55467,0 7.616,3.0613 3.136,2.9867 3.136,9.2587 v 24.192 l -0.74666,-1.0454 6.57067,1.4187 v 3.2107 h -17.32268 v -3.2107 l 6.34667,-1.4187 -0.82133,1.12 v -22.9226 q 0,-4.6294 -2.016,-6.7947 -1.94134,-2.1653 -5.07734,-2.1653 -2.688,0 -5.97333,1.568 -3.21067,1.568 -6.34667,4.7786 l 0.52266,-1.4186 q 0.0747,0.672 0.0747,1.2693 0.0747,0.5973 0.0747,1.1947 v 24.416 l -0.74667,-1.0454 6.19734,1.4187 v 3.2107 h -16.87468 v -3.2107 l 6.34667,-1.4187 -0.896,1.12 v -22.9226 q 0,-4.6294 -2.016,-6.7947 -1.94134,-2.1653 -5.07734,-2.1653 -2.688,0 -5.89867,1.4933 -3.21066,1.4933 -6.34667,4.6293 l 0.52267,-1.12 v 26.88 l -0.74667,-1.0453 6.19734,1.344 v 3.2107 h -17.24801 v -3.2107 l 6.72001,-1.4933 -0.89601,1.12 v -32.1067 l 0.89601,1.12 -6.72001,-1.4187 v -3.2106 l 10.45334,-0.5227 0.82133,7.3173 -0.82133,-0.2986 q 3.65867,-3.808 7.69067,-5.6 4.10667,-1.792 7.76534,-1.792 3.43467,0 6.12267,1.8666 2.688,1.792 3.88267,5.6 z"
           id="path3768" /><path
           d="m 837.51518,1383.8733 -0.672,-0.8214 6.496,1.4187 v 3.2107 h -17.62134 v -3.2107 l 6.49601,-1.4187 -0.672,0.8214 v -31.5094 l 0.59733,0.672 -6.42134,-1.344 v -3.2106 l 11.79734,-0.448 z m -3.43467,-43.904 q -1.71733,0 -2.83733,-1.12 -1.12,-1.12 -1.12,-3.0614 0,-2.016 1.12,-3.0613 1.19467,-1.12 2.912,-1.12 1.792,0 2.912,1.0453 1.12,1.0453 1.12,3.136 0,2.016 -1.19466,3.136 -1.19467,1.0454 -2.91201,1.0454 z"
           id="path3770" /><path
           d="m 859.04416,1383.8733 -0.672,-0.8214 6.49601,1.4187 v 3.2107 h -17.69601 v -3.2107 l 6.496,-1.4187 -0.59733,0.8214 v -49.4294 l 0.59733,0.672 -6.496,-1.344 v -3.2107 l 11.872,-0.5226 z"
           id="path3772" /><path
           d="m 881.29483,1383.8733 -0.672,-0.8214 6.496,1.4187 v 3.2107 h -17.62134 v -3.2107 l 6.496,-1.4187 -0.672,0.8214 v -31.5094 l 0.59734,0.672 -6.42134,-1.344 v -3.2106 l 11.79734,-0.448 z m -3.43467,-43.904 q -1.71733,0 -2.83733,-1.12 -1.12,-1.12 -1.12,-3.0614 0,-2.016 1.12,-3.0613 1.19466,-1.12 2.912,-1.12 1.792,0 2.912,1.0453 1.12,1.0453 1.12,3.136 0,2.016 -1.19467,3.136 -1.19466,1.0454 -2.912,1.0454 z"
           id="path3774" /><path
           d="m 909.51887,1388.3533 q -5.00267,0 -8.88534,-2.24 -3.808,-2.3147 -5.97334,-6.72 -2.16533,-4.4054 -2.16533,-10.752 0,-6.496 2.24,-11.2 2.24,-4.704 6.34667,-7.2427 4.10667,-2.6133 9.63201,-2.6133 5.22666,0 8.58667,2.24 3.43466,2.1653 5.07733,6.048 1.71734,3.8826 1.71734,8.8853 0,0.8213 -0.0747,1.6427 -0.0747,0.8213 -0.224,2.016 H 897.0495 v -4.256 h 23.52001 l -0.672,0.448 q 0.0747,-3.36 -0.82133,-6.1974 -0.896,-2.8373 -3.06134,-4.5546 -2.16533,-1.7174 -5.74933,-1.7174 -3.80801,0 -6.42134,2.016 -2.61334,2.016 -3.88267,5.5254 -1.26933,3.5093 -1.26933,8.1386 0,4.928 1.41866,8.512 1.41867,3.5094 4.10667,5.4507 2.76267,1.9413 6.72001,1.9413 2.76266,0 6.048,-1.0453 3.28533,-1.12 6.79467,-3.36 l 2.16533,3.36 q -4.18133,2.8373 -8.36267,4.256 -4.18133,1.4187 -8.064,1.4187 z"
           id="path3776" /></g><g
         aria-label="Familie"
         id="text3147"
         style="font-size:74.6667px;line-height:1.15;font-family:Bitter;-inkscape-font-specification:Bitter;fill:#4a95ab;stroke-width:2.21141"
         transform="translate(-1455.8669,130.05596)"><path
           d="m 674.71677,1453.1689 v -3.2106 l 7.24267,-1.4934 -0.82133,1.0454 v -44.8747 l 1.04533,1.344 -7.46667,-1.344 v -3.2107 l 12.46934,-0.3733 h 23.66935 l 0.0747,11.872 h -3.73333 l -1.344,-8.1387 1.26933,0.8214 h -20.98134 l 1.12,-1.12 v 21.4293 l -1.12,-1.0453 h 19.18934 v 4.5546 h -19.18934 l 1.12,-1.0453 v 21.1307 l -0.896,-1.0454 8.96,1.4934 v 3.2106 z"
           id="path3794" /><path
           d="m 744.33103,1449.8089 -0.97066,-1.344 6.86933,1.344 v 3.2854 l -10.45334,0.448 -0.896,-7.168 0.52267,0.224 q -3.28533,3.584 -7.09334,5.4506 -3.808,1.792 -7.392,1.792 -4.33067,0 -7.31734,-2.7626 -2.98667,-2.7627 -2.98667,-8.3627 0,-4.4053 1.86667,-6.72 1.86667,-2.3893 5.152,-3.36 3.28534,-0.9707 7.61601,-0.9707 h 9.78134 l -0.672,0.7467 v -7.168 q 0,-4.1067 -2.16534,-5.824 -2.16533,-1.792 -5.97333,-1.792 -2.01601,0 -4.33067,0.448 -2.24,0.3733 -4.77867,1.2693 l 0.896,-0.9706 -0.74667,6.7946 h -3.95733 l -0.59734,-9.2586 q 4.256,-1.4187 7.98934,-2.0907 3.73333,-0.7467 6.86934,-0.7467 5.97333,0 9.33333,2.688 3.43467,2.6134 3.43467,8.4374 z m -23.66934,-7.616 q 0,3.6587 1.71733,5.376 1.792,1.7174 4.48,1.7174 2.61334,0 5.74934,-1.568 3.21067,-1.6427 6.19734,-4.4054 l -0.448,1.568 v -10.0053 l 0.672,0.672 h -8.88534 q -5.30134,0 -7.392,1.6427 -2.09067,1.568 -2.09067,5.0026 z"
           id="path3796" /><path
           d="m 790.40046,1420.5396 -0.82134,0.1493 q 3.65867,-3.808 7.76534,-5.6746 4.10667,-1.9414 7.69067,-1.9414 4.55467,0 7.616,3.0614 3.136,2.9866 3.136,9.2586 v 24.192 l -0.74666,-1.0453 6.57067,1.4187 v 3.2106 h -17.32268 v -3.2106 l 6.34667,-1.4187 -0.82133,1.12 v -22.9227 q 0,-4.6293 -2.016,-6.7946 -1.94134,-2.1654 -5.07734,-2.1654 -2.688,0 -5.97333,1.568 -3.21067,1.568 -6.34667,4.7787 l 0.52266,-1.4187 q 0.0747,0.672 0.0747,1.2694 0.0747,0.5973 0.0747,1.1946 v 24.416 l -0.74667,-1.0453 6.19734,1.4187 v 3.2106 h -16.87468 v -3.2106 l 6.34667,-1.4187 -0.896,1.12 v -22.9227 q 0,-4.6293 -2.016,-6.7946 -1.94134,-2.1654 -5.07734,-2.1654 -2.688,0 -5.89867,1.4934 -3.21066,1.4933 -6.34667,4.6293 l 0.52267,-1.12 v 26.88 l -0.74667,-1.0453 6.19734,1.344 v 3.2106 h -17.24801 v -3.2106 l 6.72001,-1.4934 -0.89601,1.12 v -32.1066 l 0.89601,1.12 -6.72001,-1.4187 v -3.2107 l 10.45334,-0.5226 0.82133,7.3173 -0.82133,-0.2987 q 3.65867,-3.808 7.69067,-5.6 4.10667,-1.792 7.76534,-1.792 3.43467,0 6.12267,1.8667 2.688,1.792 3.88267,5.6 z"
           id="path3798" /><path
           d="m 837.51518,1449.3609 -0.672,-0.8213 6.496,1.4187 v 3.2106 h -17.62134 v -3.2106 l 6.49601,-1.4187 -0.672,0.8213 v -31.5093 l 0.59733,0.672 -6.42134,-1.344 v -3.2107 l 11.79734,-0.448 z m -3.43467,-43.904 q -1.71733,0 -2.83733,-1.12 -1.12,-1.12 -1.12,-3.0613 0,-2.016 1.12,-3.0613 1.19467,-1.12 2.912,-1.12 1.792,0 2.912,1.0453 1.12,1.0453 1.12,3.136 0,2.016 -1.19466,3.136 -1.19467,1.0453 -2.91201,1.0453 z"
           id="path3800" /><path
           d="m 859.04416,1449.3609 -0.672,-0.8213 6.49601,1.4187 v 3.2106 h -17.69601 v -3.2106 l 6.496,-1.4187 -0.59733,0.8213 v -49.4293 l 0.59733,0.672 -6.496,-1.344 v -3.2107 l 11.872,-0.5226 z"
           id="path3802" /><path
           d="m 881.29483,1449.3609 -0.672,-0.8213 6.496,1.4187 v 3.2106 h -17.62134 v -3.2106 l 6.496,-1.4187 -0.672,0.8213 v -31.5093 l 0.59734,0.672 -6.42134,-1.344 v -3.2107 l 11.79734,-0.448 z m -3.43467,-43.904 q -1.71733,0 -2.83733,-1.12 -1.12,-1.12 -1.12,-3.0613 0,-2.016 1.12,-3.0613 1.19466,-1.12 2.912,-1.12 1.792,0 2.912,1.0453 1.12,1.0453 1.12,3.136 0,2.016 -1.19467,3.136 -1.19466,1.0453 -2.912,1.0453 z"
           id="path3804" /><path
           d="m 909.51887,1453.8409 q -5.00267,0 -8.88534,-2.24 -3.808,-2.3146 -5.97334,-6.72 -2.16533,-4.4053 -2.16533,-10.752 0,-6.496 2.24,-11.2 2.24,-4.704 6.34667,-7.2426 4.10667,-2.6134 9.63201,-2.6134 5.22666,0 8.58667,2.24 3.43466,2.1654 5.07733,6.048 1.71734,3.8827 1.71734,8.8854 0,0.8213 -0.0747,1.6426 -0.0747,0.8214 -0.224,2.016 H 897.0495 v -4.256 h 23.52001 l -0.672,0.448 q 0.0747,-3.36 -0.82133,-6.1973 -0.896,-2.8373 -3.06134,-4.5547 -2.16533,-1.7173 -5.74933,-1.7173 -3.80801,0 -6.42134,2.016 -2.61334,2.016 -3.88267,5.5253 -1.26933,3.5094 -1.26933,8.1387 0,4.928 1.41866,8.512 1.41867,3.5093 4.10667,5.4507 2.76267,1.9413 6.72001,1.9413 2.76266,0 6.048,-1.0453 3.28533,-1.12 6.79467,-3.36 l 2.16533,3.36 q -4.18133,2.8373 -8.36267,4.256 -4.18133,1.4186 -8.064,1.4186 z"
           id="path3806" /></g><path
         d="m -781.15013,1648.6582 v -3.2107 l 7.24267,-1.4933 -0.82133,1.0453 v -44.8747 l 1.04533,1.344 -7.46667,-1.344 v -3.2107 l 12.46934,-0.3733 h 23.66935 l 0.0747,11.872 h -3.73333 l -1.344,-8.1387 1.26933,0.8214 h -20.98134 l 1.12,-1.12 v 21.4293 l -1.12,-1.0453 h 19.18934 v 4.5547 h -19.18934 l 1.12,-1.0454 v 21.1307 l -0.896,-1.0453 8.96,1.4933 v 3.2107 z"
         id="path3824"
         style="font-size:74.6667px;line-height:1.15;font-family:Bitter;-inkscape-font-specification:Bitter;fill:#4a95ab;stroke-width:2.21141" /><path
         d="m -711.53587,1645.2982 -0.97066,-1.344 6.86933,1.344 v 3.2853 l -10.45334,0.448 -0.896,-7.168 0.52267,0.224 q -3.28533,3.584 -7.09334,5.4507 -3.808,1.792 -7.392,1.792 -4.33067,0 -7.31734,-2.7627 -2.98667,-2.7627 -2.98667,-8.3627 0,-4.4053 1.86667,-6.72 1.86667,-2.3893 5.152,-3.36 3.28534,-0.9706 7.61601,-0.9706 h 9.78134 l -0.672,0.7466 v -7.168 q 0,-4.1066 -2.16534,-5.824 -2.16533,-1.792 -5.97333,-1.792 -2.01601,0 -4.33067,0.448 -2.24,0.3734 -4.77867,1.2694 l 0.896,-0.9707 -0.74667,6.7947 h -3.95733 l -0.59734,-9.2587 q 4.256,-1.4187 7.98934,-2.0907 3.73333,-0.7466 6.86934,-0.7466 5.97333,0 9.33333,2.688 3.43467,2.6133 3.43467,8.4373 z m -23.66934,-7.616 q 0,3.6586 1.71733,5.376 1.792,1.7173 4.48,1.7173 2.61334,0 5.74934,-1.568 3.21067,-1.6427 6.19734,-4.4053 l -0.448,1.568 v -10.0054 l 0.672,0.672 h -8.88534 q -5.30134,0 -7.392,1.6427 -2.09067,1.568 -2.09067,5.0027 z"
         id="path3826"
         style="font-size:74.6667px;line-height:1.15;font-family:Bitter;-inkscape-font-specification:Bitter;fill:#4a95ab;stroke-width:2.21141" /><path
         d="m -665.46644,1616.0288 -0.82134,0.1494 q 3.65867,-3.808 7.76534,-5.6747 4.10667,-1.9413 7.69067,-1.9413 4.55467,0 7.616,3.0613 3.136,2.9867 3.136,9.2587 v 24.192 l -0.74666,-1.0454 6.57067,1.4187 v 3.2107 h -17.32268 v -3.2107 l 6.34667,-1.4187 -0.82133,1.12 v -22.9226 q 0,-4.6294 -2.016,-6.7947 -1.94134,-2.1653 -5.07734,-2.1653 -2.688,0 -5.97333,1.568 -3.21067,1.568 -6.34667,4.7786 l 0.52266,-1.4186 q 0.0747,0.672 0.0747,1.2693 0.0747,0.5973 0.0747,1.1947 v 24.416 l -0.74667,-1.0454 6.19734,1.4187 v 3.2107 h -16.87468 v -3.2107 l 6.34667,-1.4187 -0.896,1.12 v -22.9226 q 0,-4.6294 -2.016,-6.7947 -1.94134,-2.1653 -5.07734,-2.1653 -2.688,0 -5.89867,1.4933 -3.21066,1.4933 -6.34667,4.6293 l 0.52267,-1.12 v 26.88 l -0.74667,-1.0453 6.19734,1.344 v 3.2107 h -17.24801 v -3.2107 l 6.72001,-1.4933 -0.89601,1.12 v -32.1067 l 0.89601,1.12 -6.72001,-1.4187 v -3.2106 l 10.45334,-0.5227 0.82133,7.3173 -0.82133,-0.2986 q 3.65867,-3.808 7.69067,-5.6 4.10667,-1.792 7.76534,-1.792 3.43467,0 6.12267,1.8666 2.688,1.792 3.88267,5.6 z"
         id="path3828"
         style="font-size:74.6667px;line-height:1.15;font-family:Bitter;-inkscape-font-specification:Bitter;fill:#4a95ab;stroke-width:2.21141" /><path
         d="m -618.35172,1644.8502 -0.672,-0.8214 6.496,1.4187 v 3.2107 h -17.62134 v -3.2107 l 6.49601,-1.4187 -0.672,0.8214 v -31.5094 l 0.59733,0.672 -6.42134,-1.344 v -3.2106 l 11.79734,-0.448 z m -3.43467,-43.904 q -1.71733,0 -2.83733,-1.1201 -1.12,-1.12 -1.12,-3.0613 0,-2.016 1.12,-3.0613 1.19467,-1.12 2.912,-1.12 1.792,0 2.912,1.0453 1.12,1.0453 1.12,3.136 0,2.016 -1.19466,3.136 -1.19467,1.0454 -2.91201,1.0454 z"
         id="path3830"
         style="font-size:74.6667px;line-height:1.15;font-family:Bitter;-inkscape-font-specification:Bitter;fill:#4a95ab;stroke-width:2.21141" /><path
         d="m -596.82274,1644.8502 -0.672,-0.8214 6.49601,1.4187 v 3.2107 h -17.69601 v -3.2107 l 6.496,-1.4187 -0.59733,0.8214 v -49.4294 l 0.59733,0.672 -6.496,-1.344 v -3.2107 l 11.872,-0.5226 z"
         id="path3832"
         style="font-size:74.6667px;line-height:1.15;font-family:Bitter;-inkscape-font-specification:Bitter;fill:#4a95ab;stroke-width:2.21141" /><path
         d="m -574.57207,1644.8502 -0.672,-0.8214 6.496,1.4187 v 3.2107 h -17.62134 v -3.2107 l 6.496,-1.4187 -0.672,0.8214 v -31.5094 l 0.59734,0.672 -6.42134,-1.344 v -3.2106 l 11.79734,-0.448 z m -3.43467,-43.904 q -1.71733,0 -2.83733,-1.1201 -1.12,-1.12 -1.12,-3.0613 0,-2.016 1.12,-3.0613 1.19466,-1.12 2.912,-1.12 1.792,0 2.912,1.0453 1.12,1.0453 1.12,3.136 0,2.016 -1.19467,3.136 -1.19466,1.0454 -2.912,1.0454 z"
         id="path3834"
         style="font-size:74.6667px;line-height:1.15;font-family:Bitter;-inkscape-font-specification:Bitter;fill:#4a95ab;stroke-width:2.21141" /><path
         d="m -546.34803,1649.3302 q -5.00267,0 -8.88534,-2.24 -3.808,-2.3147 -5.97334,-6.72 -2.16533,-4.4054 -2.16533,-10.752 0,-6.496 2.24,-11.2 2.24,-4.704 6.34667,-7.2427 4.10667,-2.6133 9.63201,-2.6133 5.22666,0 8.58667,2.24 3.43466,2.1653 5.07733,6.048 1.71734,3.8826 1.71734,8.8853 0,0.8213 -0.0747,1.6427 -0.0747,0.8213 -0.224,2.016 h -28.74668 v -4.256 h 23.52001 l -0.672,0.448 q 0.0747,-3.36 -0.82133,-6.1974 -0.896,-2.8373 -3.06134,-4.5546 -2.16533,-1.7174 -5.74933,-1.7174 -3.80801,0 -6.42134,2.016 -2.61334,2.016 -3.88267,5.5254 -1.26933,3.5093 -1.26933,8.1386 0,4.928 1.41866,8.512 1.41867,3.5094 4.10667,5.4507 2.76267,1.9413 6.72001,1.9413 2.76266,0 6.048,-1.0453 3.28533,-1.12 6.79467,-3.36 l 2.16533,3.36 q -4.18133,2.8373 -8.36267,4.256 -4.18133,1.4187 -8.064,1.4187 z"
         id="path3836"
         style="font-size:74.6667px;line-height:1.15;font-family:Bitter;-inkscape-font-specification:Bitter;fill:#4a95ab;stroke-width:2.21141" /><path
         d="m -781.15013,1714.1458 v -3.2106 l 7.24267,-1.4934 -0.82133,1.0454 v -44.8747 l 1.04533,1.344 -7.46667,-1.344 v -3.2107 l 12.46934,-0.3733 h 23.66935 l 0.0747,11.872 h -3.73333 l -1.344,-8.1387 1.26933,0.8214 h -20.98134 l 1.12,-1.12 v 21.4293 l -1.12,-1.0453 h 19.18934 v 4.5546 h -19.18934 l 1.12,-1.0453 v 21.1307 l -0.896,-1.0454 8.96,1.4934 v 3.2106 z"
         id="path3854"
         style="font-size:74.6667px;line-height:1.15;font-family:Bitter;-inkscape-font-specification:Bitter;fill:#4a95ab;stroke-width:2.21141" /><path
         d="m -711.53587,1710.7858 -0.97066,-1.344 6.86933,1.344 v 3.2854 l -10.45334,0.448 -0.896,-7.168 0.52267,0.224 q -3.28533,3.584 -7.09334,5.4506 -3.808,1.792 -7.392,1.792 -4.33067,0 -7.31734,-2.7626 -2.98667,-2.7627 -2.98667,-8.3627 0,-4.4053 1.86667,-6.72 1.86667,-2.3893 5.152,-3.36 3.28534,-0.9707 7.61601,-0.9707 h 9.78134 l -0.672,0.7467 v -7.168 q 0,-4.1067 -2.16534,-5.824 -2.16533,-1.792 -5.97333,-1.792 -2.01601,0 -4.33067,0.448 -2.24,0.3733 -4.77867,1.2693 l 0.896,-0.9706 -0.74667,6.7946 h -3.95733 l -0.59734,-9.2586 q 4.256,-1.4187 7.98934,-2.0907 3.73333,-0.7467 6.86934,-0.7467 5.97333,0 9.33333,2.688 3.43467,2.6134 3.43467,8.4374 z m -23.66934,-7.616 q 0,3.6587 1.71733,5.376 1.792,1.7174 4.48,1.7174 2.61334,0 5.74934,-1.568 3.21067,-1.6427 6.19734,-4.4054 l -0.448,1.568 v -10.0053 l 0.672,0.672 h -8.88534 q -5.30134,0 -7.392,1.6427 -2.09067,1.568 -2.09067,5.0026 z"
         id="path3856"
         style="font-size:74.6667px;line-height:1.15;font-family:Bitter;-inkscape-font-specification:Bitter;fill:#4a95ab;stroke-width:2.21141" /><path
         d="m -665.46644,1681.5165 -0.82134,0.1493 q 3.65867,-3.808 7.76534,-5.6746 4.10667,-1.9414 7.69067,-1.9414 4.55467,0 7.616,3.0614 3.136,2.9866 3.136,9.2586 v 24.192 l -0.74666,-1.0453 6.57067,1.4187 v 3.2106 h -17.32268 v -3.2106 l 6.34667,-1.4187 -0.82133,1.12 v -22.9227 q 0,-4.6293 -2.016,-6.7946 -1.94134,-2.1654 -5.07734,-2.1654 -2.688,0 -5.97333,1.568 -3.21067,1.568 -6.34667,4.7787 l 0.52266,-1.4187 q 0.0747,0.672 0.0747,1.2694 0.0747,0.5973 0.0747,1.1946 v 24.416 l -0.74667,-1.0453 6.19734,1.4187 v 3.2106 h -16.87468 v -3.2106 l 6.34667,-1.4187 -0.896,1.12 v -22.9227 q 0,-4.6293 -2.016,-6.7946 -1.94134,-2.1654 -5.07734,-2.1654 -2.688,0 -5.89867,1.4934 -3.21066,1.4933 -6.34667,4.6293 l 0.52267,-1.12 v 26.88 l -0.74667,-1.0453 6.19734,1.344 v 3.2106 h -17.24801 v -3.2106 l 6.72001,-1.4934 -0.89601,1.12 v -32.1066 l 0.89601,1.12 -6.72001,-1.4187 v -3.2107 l 10.45334,-0.5226 0.82133,7.3173 -0.82133,-0.2987 q 3.65867,-3.808 7.69067,-5.6 4.10667,-1.792 7.76534,-1.792 3.43467,0 6.12267,1.8667 2.688,1.792 3.88267,5.6 z"
         id="path3858"
         style="font-size:74.6667px;line-height:1.15;font-family:Bitter;-inkscape-font-specification:Bitter;fill:#4a95ab;stroke-width:2.21141" /><path
         d="m -618.35172,1710.3378 -0.672,-0.8213 6.496,1.4187 v 3.2106 h -17.62134 v -3.2106 l 6.49601,-1.4187 -0.672,0.8213 v -31.5093 l 0.59733,0.672 -6.42134,-1.344 v -3.2107 l 11.79734,-0.448 z m -3.43467,-43.904 q -1.71733,0 -2.83733,-1.12 -1.12,-1.12 -1.12,-3.0613 0,-2.016 1.12,-3.0613 1.19467,-1.12 2.912,-1.12 1.792,0 2.912,1.0453 1.12,1.0453 1.12,3.136 0,2.016 -1.19466,3.136 -1.19467,1.0453 -2.91201,1.0453 z"
         id="path3860"
         style="font-size:74.6667px;line-height:1.15;font-family:Bitter;-inkscape-font-specification:Bitter;fill:#4a95ab;stroke-width:2.21141" /><path
         d="m -596.82274,1710.3378 -0.672,-0.8213 6.49601,1.4187 v 3.2106 h -17.69601 v -3.2106 l 6.496,-1.4187 -0.59733,0.8213 v -49.4293 l 0.59733,0.672 -6.496,-1.344 v -3.2107 l 11.872,-0.5227 z"
         id="path3862"
         style="font-size:74.6667px;line-height:1.15;font-family:Bitter;-inkscape-font-specification:Bitter;fill:#4a95ab;stroke-width:2.21141" /><path
         d="m -574.57207,1710.3378 -0.672,-0.8213 6.496,1.4187 v 3.2106 h -17.62134 v -3.2106 l 6.496,-1.4187 -0.672,0.8213 v -31.5093 l 0.59734,0.672 -6.42134,-1.344 v -3.2107 l 11.79734,-0.448 z m -3.43467,-43.904 q -1.71733,0 -2.83733,-1.12 -1.12,-1.12 -1.12,-3.0613 0,-2.016 1.12,-3.0613 1.19466,-1.12 2.912,-1.12 1.792,0 2.912,1.0453 1.12,1.0453 1.12,3.136 0,2.016 -1.19467,3.136 -1.19466,1.0453 -2.912,1.0453 z"
         id="path3864"
         style="font-size:74.6667px;line-height:1.15;font-family:Bitter;-inkscape-font-specification:Bitter;fill:#4a95ab;stroke-width:2.21141" /><path
         d="m -546.34803,1714.8178 q -5.00267,0 -8.88534,-2.24 -3.808,-2.3146 -5.97334,-6.72 -2.16533,-4.4053 -2.16533,-10.752 0,-6.496 2.24,-11.2 2.24,-4.704 6.34667,-7.2426 4.10667,-2.6134 9.63201,-2.6134 5.22666,0 8.58667,2.24 3.43466,2.1654 5.07733,6.048 1.71734,3.8827 1.71734,8.8854 0,0.8213 -0.0747,1.6426 -0.0747,0.8214 -0.224,2.016 h -28.74668 v -4.256 h 23.52001 l -0.672,0.448 q 0.0747,-3.36 -0.82133,-6.1973 -0.896,-2.8373 -3.06134,-4.5547 -2.16533,-1.7173 -5.74933,-1.7173 -3.80801,0 -6.42134,2.016 -2.61334,2.016 -3.88267,5.5253 -1.26933,3.5094 -1.26933,8.1387 0,4.928 1.41866,8.512 1.41867,3.5093 4.10667,5.4507 2.76267,1.9413 6.72001,1.9413 2.76266,0 6.048,-1.0453 3.28533,-1.12 6.79467,-3.36 l 2.16533,3.36 q -4.18133,2.8373 -8.36267,4.256 -4.18133,1.4186 -8.064,1.4186 z"
         id="path3866"
         style="font-size:74.6667px;line-height:1.15;font-family:Bitter;-inkscape-font-specification:Bitter;fill:#4a95ab;stroke-width:2.21141" /><path
         d="m -781.15013,1778.2573 v -3.2107 l 7.24267,-1.4933 -0.82133,1.0453 v -44.8747 l 1.04533,1.344 -7.46667,-1.344 v -3.2106 l 12.46934,-0.3734 h 23.66935 l 0.0747,11.872 h -3.73333 l -1.344,-8.1386 1.26933,0.8213 h -20.98134 l 1.12,-1.12 v 21.4293 l -1.12,-1.0453 h 19.18934 v 4.5547 h -19.18934 l 1.12,-1.0454 v 21.1307 l -0.896,-1.0453 8.96,1.4933 v 3.2107 z"
         id="path3884"
         style="font-size:74.6667px;line-height:1.15;font-family:Bitter;-inkscape-font-specification:Bitter;fill:#4b99b0;stroke-width:2.21141" /><path
         d="m -711.53587,1774.8973 -0.97066,-1.344 6.86933,1.344 v 3.2853 l -10.45334,0.448 -0.896,-7.168 0.52267,0.224 q -3.28533,3.584 -7.09334,5.4507 -3.808,1.792 -7.392,1.792 -4.33067,0 -7.31734,-2.7627 -2.98667,-2.7626 -2.98667,-8.3626 0,-4.4054 1.86667,-6.72 1.86667,-2.3894 5.152,-3.36 3.28534,-0.9707 7.61601,-0.9707 h 9.78134 l -0.672,0.7467 v -7.1681 q 0,-4.1066 -2.16534,-5.824 -2.16533,-1.792 -5.97333,-1.792 -2.01601,0 -4.33067,0.448 -2.24,0.3734 -4.77867,1.2694 l 0.896,-0.9707 -0.74667,6.7947 h -3.95733 l -0.59734,-9.2587 q 4.256,-1.4187 7.98934,-2.0907 3.73333,-0.7466 6.86934,-0.7466 5.97333,0 9.33333,2.688 3.43467,2.6133 3.43467,8.4373 z m -23.66934,-7.616 q 0,3.6587 1.71733,5.376 1.792,1.7173 4.48,1.7173 2.61334,0 5.74934,-1.568 3.21067,-1.6426 6.19734,-4.4053 l -0.448,1.568 v -10.0053 l 0.672,0.672 h -8.88534 q -5.30134,0 -7.392,1.6426 -2.09067,1.568 -2.09067,5.0027 z"
         id="path3886"
         style="font-size:74.6667px;line-height:1.15;font-family:Bitter;-inkscape-font-specification:Bitter;fill:#4b99b0;stroke-width:2.21141" /><path
         d="m -665.46644,1745.6279 -0.82134,0.1494 q 3.65867,-3.808 7.76534,-5.6747 4.10667,-1.9413 7.69067,-1.9413 4.55467,0 7.616,3.0613 3.136,2.9867 3.136,9.2587 v 24.192 l -0.74666,-1.0453 6.57067,1.4186 v 3.2107 h -17.32268 v -3.2107 l 6.34667,-1.4186 -0.82133,1.12 v -22.9227 q 0,-4.6294 -2.016,-6.7947 -1.94134,-2.1653 -5.07734,-2.1653 -2.688,0 -5.97333,1.568 -3.21067,1.568 -6.34667,4.7786 l 0.52266,-1.4186 q 0.0747,0.672 0.0747,1.2693 0.0747,0.5973 0.0747,1.1947 v 24.416 l -0.74667,-1.0453 6.19734,1.4186 v 3.2107 h -16.87468 v -3.2107 l 6.34667,-1.4186 -0.896,1.12 v -22.9227 q 0,-4.6294 -2.016,-6.7947 -1.94134,-2.1653 -5.07734,-2.1653 -2.688,0 -5.89867,1.4933 -3.21066,1.4933 -6.34667,4.6293 l 0.52267,-1.12 v 26.8801 l -0.74667,-1.0454 6.19734,1.344 v 3.2107 h -17.24801 v -3.2107 l 6.72001,-1.4933 -0.89601,1.12 v -32.1067 l 0.89601,1.12 -6.72001,-1.4187 v -3.2106 l 10.45334,-0.5227 0.82133,7.3173 -0.82133,-0.2986 q 3.65867,-3.808 7.69067,-5.6 4.10667,-1.792 7.76534,-1.792 3.43467,0 6.12267,1.8666 2.688,1.792 3.88267,5.6 z"
         id="path3888"
         style="font-size:74.6667px;line-height:1.15;font-family:Bitter;-inkscape-font-specification:Bitter;fill:#4b99b0;stroke-width:2.21141" /><path
         d="m -618.35172,1774.4493 -0.672,-0.8213 6.496,1.4186 v 3.2107 h -17.62134 v -3.2107 l 6.49601,-1.4186 -0.672,0.8213 v -31.5094 l 0.59733,0.672 -6.42134,-1.344 v -3.2106 l 11.79734,-0.448 z m -3.43467,-43.904 q -1.71733,0 -2.83733,-1.12 -1.12,-1.12 -1.12,-3.0614 0,-2.016 1.12,-3.0613 1.19467,-1.12 2.912,-1.12 1.792,0 2.912,1.0453 1.12,1.0454 1.12,3.136 0,2.016 -1.19466,3.136 -1.19467,1.0454 -2.91201,1.0454 z"
         id="path3890"
         style="font-size:74.6667px;line-height:1.15;font-family:Bitter;-inkscape-font-specification:Bitter;fill:#4b99b0;stroke-width:2.21141" /><path
         d="m -596.82274,1774.4493 -0.672,-0.8213 6.49601,1.4186 v 3.2107 h -17.69601 v -3.2107 l 6.496,-1.4186 -0.59733,0.8213 v -49.4294 l 0.59733,0.672 -6.496,-1.344 v -3.2106 l 11.872,-0.5227 z"
         id="path3892"
         style="font-size:74.6667px;line-height:1.15;font-family:Bitter;-inkscape-font-specification:Bitter;fill:#4b99b0;stroke-width:2.21141" /><path
         d="m -574.57207,1774.4493 -0.672,-0.8213 6.496,1.4186 v 3.2107 h -17.62134 v -3.2107 l 6.496,-1.4186 -0.672,0.8213 v -31.5094 l 0.59734,0.672 -6.42134,-1.344 v -3.2106 l 11.79734,-0.448 z m -3.43467,-43.904 q -1.71733,0 -2.83733,-1.12 -1.12,-1.12 -1.12,-3.0614 0,-2.016 1.12,-3.0613 1.19466,-1.12 2.912,-1.12 1.792,0 2.912,1.0453 1.12,1.0454 1.12,3.136 0,2.016 -1.19467,3.136 -1.19466,1.0454 -2.912,1.0454 z"
         id="path3894"
         style="font-size:74.6667px;line-height:1.15;font-family:Bitter;-inkscape-font-specification:Bitter;fill:#4b99b0;stroke-width:2.21141" /><path
         d="m -546.34803,1778.9293 q -5.00267,0 -8.88534,-2.24 -3.808,-2.3147 -5.97334,-6.72 -2.16533,-4.4053 -2.16533,-10.752 0,-6.496 2.24,-11.2 2.24,-4.704 6.34667,-7.2427 4.10667,-2.6133 9.63201,-2.6133 5.22666,0 8.58667,2.24 3.43466,2.1653 5.07733,6.048 1.71734,3.8826 1.71734,8.8853 0,0.8214 -0.0747,1.6427 -0.0747,0.8213 -0.224,2.016 h -28.74668 v -4.256 h 23.52001 l -0.672,0.448 q 0.0747,-3.36 -0.82133,-6.1974 -0.896,-2.8373 -3.06134,-4.5546 -2.16533,-1.7174 -5.74933,-1.7174 -3.80801,0 -6.42134,2.016 -2.61334,2.016 -3.88267,5.5254 -1.26933,3.5093 -1.26933,8.1387 0,4.928 1.41866,8.512 1.41867,3.5093 4.10667,5.4506 2.76267,1.9414 6.72001,1.9414 2.76266,0 6.048,-1.0454 3.28533,-1.12 6.79467,-3.36 l 2.16533,3.36 q -4.18133,2.8374 -8.36267,4.256 -4.18133,1.4187 -8.064,1.4187 z"
         id="path3896"
         style="font-size:74.6667px;line-height:1.15;font-family:Bitter;-inkscape-font-specification:Bitter;fill:#4b99b0;stroke-width:2.21141" /></g><circle
       style="opacity:0.471743;fill:#3b2722;fill-opacity:0.84853;stroke-width:0.608414;filter:url(#filter2418)"
       id="circle3177"
       cx="-824.03912"
       cy="1630.3225"
       r="127.60603" /><circle
       style="fill:#f2ece9;fill-opacity:1;stroke-width:0.608414"
       id="circle3179"
       cx="-841.33716"
       cy="1622.3191"
       r="127.60603" /><g
       id="g7107"
       transform="translate(525.00153)"><g
         aria-label="Familie"
         id="g7047"
         style="font-size:74.6667px;line-height:1.15;font-family:Bitter;-inkscape-font-specification:Bitter;fill:#4a95ab;stroke-width:2.21141"
         transform="translate(-1455.8669,130.05596)"><path
           d="m 395.23603,1387.6813 v -3.2107 l 7.24267,-1.4933 -0.82133,1.0453 v -44.8747 l 1.04533,1.344 -7.46667,-1.344 v -3.2107 l 12.46934,-0.3733 h 23.66934 l 0.0747,11.872 h -3.73333 l -1.344,-8.1386 1.26933,0.8213 h -20.98134 l 1.12,-1.12 v 21.4293 l -1.12,-1.0453 h 19.18934 v 4.5547 h -19.18934 l 1.12,-1.0454 v 21.1307 l -0.896,-1.0453 8.96,1.4933 v 3.2107 z"
           id="path7033" /><path
           d="m 464.85029,1384.3213 -0.97067,-1.344 6.86934,1.344 v 3.2853 l -10.45334,0.448 -0.896,-7.168 0.52267,0.224 q -3.28534,3.584 -7.09334,5.4507 -3.808,1.792 -7.392,1.792 -4.33067,0 -7.31734,-2.7627 -2.98667,-2.7627 -2.98667,-8.3627 0,-4.4053 1.86667,-6.72 1.86667,-2.3893 5.152,-3.36 3.28534,-0.9706 7.61601,-0.9706 h 9.78133 l -0.672,0.7466 v -7.168 q 0,-4.1066 -2.16533,-5.824 -2.16534,-1.792 -5.97334,-1.792 -2.016,0 -4.33067,0.448 -2.24,0.3734 -4.77867,1.2694 l 0.89601,-0.9707 -0.74667,6.7947 h -3.95734 l -0.59733,-9.2587 q 4.256,-1.4187 7.98934,-2.0907 3.73333,-0.7466 6.86933,-0.7466 5.97334,0 9.33334,2.688 3.43467,2.6133 3.43467,8.4373 z m -23.66935,-7.616 q 0,3.6586 1.71734,5.376 1.792,1.7173 4.48,1.7173 2.61334,0 5.74934,-1.568 3.21066,-1.6427 6.19733,-4.4053 l -0.448,1.568 v -10.0054 l 0.672,0.672 h -8.88533 q -5.30134,0 -7.39201,1.6427 -2.09067,1.568 -2.09067,5.0027 z"
           id="path7035" /><path
           d="m 510.91971,1355.0519 -0.82133,0.1494 q 3.65867,-3.808 7.76534,-5.6747 4.10666,-1.9413 7.69067,-1.9413 4.55467,0 7.616,3.0613 3.136,2.9867 3.136,9.2587 v 24.192 l -0.74667,-1.0454 6.57067,1.4187 v 3.2107 h -17.32267 v -3.2107 l 6.34667,-1.4187 -0.82133,1.12 v -22.9226 q 0,-4.6294 -2.01601,-6.7947 -1.94133,-2.1653 -5.07733,-2.1653 -2.688,0 -5.97334,1.568 -3.21067,1.568 -6.34667,4.7786 l 0.52267,-1.4186 q 0.0747,0.672 0.0747,1.2693 0.0747,0.5973 0.0747,1.1947 v 24.416 l -0.74666,-1.0454 6.19733,1.4187 v 3.2107 h -16.87467 v -3.2107 l 6.34667,-1.4187 -0.896,1.12 v -22.9226 q 0,-4.6294 -2.016,-6.7947 -1.94134,-2.1653 -5.07734,-2.1653 -2.688,0 -5.89867,1.4933 -3.21067,1.4933 -6.34667,4.6293 l 0.52267,-1.12 v 26.88 l -0.74667,-1.0453 6.19734,1.344 v 3.2107 H 475.0051 v -3.2107 l 6.72,-1.4933 -0.896,1.12 v -32.1067 l 0.896,1.12 -6.72,-1.4187 v -3.2106 l 10.45334,-0.5227 0.82133,7.3173 -0.82133,-0.2986 q 3.65867,-3.808 7.69067,-5.6 4.10667,-1.792 7.76533,-1.792 3.43467,0 6.12267,1.8666 2.68801,1.792 3.88267,5.6 z"
           id="path7037" /><path
           d="m 558.03444,1383.8733 -0.672,-0.8214 6.496,1.4187 v 3.2107 H 546.2371 v -3.2107 l 6.496,-1.4187 -0.672,0.8214 v -31.5094 l 0.59734,0.672 -6.42134,-1.344 v -3.2106 l 11.79734,-0.448 z m -3.43467,-43.904 q -1.71733,0 -2.83733,-1.12 -1.12,-1.12 -1.12,-3.0614 0,-2.016 1.12,-3.0613 1.19466,-1.12 2.912,-1.12 1.792,0 2.912,1.0453 1.12,1.0453 1.12,3.136 0,2.016 -1.19467,3.136 -1.19467,1.0454 -2.912,1.0454 z"
           id="path7039" /><path
           d="m 579.56342,1383.8733 -0.672,-0.8214 6.496,1.4187 v 3.2107 h -17.69601 v -3.2107 l 6.49601,-1.4187 -0.59734,0.8214 v -49.4294 l 0.59734,0.672 -6.49601,-1.344 v -3.2107 l 11.87201,-0.5226 z"
           id="path7041" /><path
           d="m 601.81409,1383.8733 -0.672,-0.8214 6.496,1.4187 v 3.2107 h -17.62134 v -3.2107 l 6.496,-1.4187 -0.672,0.8214 v -31.5094 l 0.59733,0.672 -6.42133,-1.344 v -3.2106 l 11.79734,-0.448 z m -3.43467,-43.904 q -1.71734,0 -2.83734,-1.12 -1.12,-1.12 -1.12,-3.0614 0,-2.016 1.12,-3.0613 1.19467,-1.12 2.912,-1.12 1.79201,0 2.91201,1.0453 1.12,1.0453 1.12,3.136 0,2.016 -1.19467,3.136 -1.19467,1.0454 -2.912,1.0454 z"
           id="path7043" /><path
           d="m 630.03812,1388.3533 q -5.00266,0 -8.88533,-2.24 -3.808,-2.3147 -5.97334,-6.72 -2.16533,-4.4054 -2.16533,-10.752 0,-6.496 2.24,-11.2 2.24,-4.704 6.34667,-7.2427 4.10667,-2.6133 9.632,-2.6133 5.22667,0 8.58667,2.24 3.43467,2.1653 5.07734,6.048 1.71733,3.8826 1.71733,8.8853 0,0.8213 -0.0747,1.6427 -0.0747,0.8213 -0.224,2.016 h -28.74668 v -4.256 h 23.52001 l -0.672,0.448 q 0.0747,-3.36 -0.82134,-6.1974 -0.896,-2.8373 -3.06133,-4.5546 -2.16534,-1.7174 -5.74934,-1.7174 -3.808,0 -6.42133,2.016 -2.61334,2.016 -3.88267,5.5254 -1.26934,3.5093 -1.26934,8.1386 0,4.928 1.41867,8.512 1.41867,3.5094 4.10667,5.4507 2.76267,1.9413 6.72,1.9413 2.76267,0 6.048,-1.0453 3.28534,-1.12 6.79467,-3.36 l 2.16534,3.36 q -4.18134,2.8373 -8.36267,4.256 -4.18134,1.4187 -8.06401,1.4187 z"
           id="path7045" /></g><g
         aria-label="Familie"
         id="g7063"
         style="font-size:74.6667px;line-height:1.15;font-family:Bitter;-inkscape-font-specification:Bitter;fill:#4a95ab;stroke-width:2.21141"
         transform="translate(-1455.8669,130.05596)"><path
           d="m 395.23603,1453.1689 v -3.2106 l 7.24267,-1.4934 -0.82133,1.0454 v -44.8747 l 1.04533,1.344 -7.46667,-1.344 v -3.2107 l 12.46934,-0.3733 h 23.66934 l 0.0747,11.872 h -3.73333 l -1.344,-8.1387 1.26933,0.8214 h -20.98134 l 1.12,-1.12 v 21.4293 l -1.12,-1.0453 h 19.18934 v 4.5546 h -19.18934 l 1.12,-1.0453 v 21.1307 l -0.896,-1.0454 8.96,1.4934 v 3.2106 z"
           id="path7049" /><path
           d="m 464.85029,1449.8089 -0.97067,-1.344 6.86934,1.344 v 3.2854 l -10.45334,0.448 -0.896,-7.168 0.52267,0.224 q -3.28534,3.584 -7.09334,5.4506 -3.808,1.792 -7.392,1.792 -4.33067,0 -7.31734,-2.7626 -2.98667,-2.7627 -2.98667,-8.3627 0,-4.4053 1.86667,-6.72 1.86667,-2.3893 5.152,-3.36 3.28534,-0.9707 7.61601,-0.9707 h 9.78133 l -0.672,0.7467 v -7.168 q 0,-4.1067 -2.16533,-5.824 -2.16534,-1.792 -5.97334,-1.792 -2.016,0 -4.33067,0.448 -2.24,0.3733 -4.77867,1.2693 l 0.89601,-0.9706 -0.74667,6.7946 h -3.95734 l -0.59733,-9.2586 q 4.256,-1.4187 7.98934,-2.0907 3.73333,-0.7467 6.86933,-0.7467 5.97334,0 9.33334,2.688 3.43467,2.6134 3.43467,8.4374 z m -23.66935,-7.616 q 0,3.6587 1.71734,5.376 1.792,1.7174 4.48,1.7174 2.61334,0 5.74934,-1.568 3.21066,-1.6427 6.19733,-4.4054 l -0.448,1.568 v -10.0053 l 0.672,0.672 h -8.88533 q -5.30134,0 -7.39201,1.6427 -2.09067,1.568 -2.09067,5.0026 z"
           id="path7051" /><path
           d="m 510.91971,1420.5396 -0.82133,0.1493 q 3.65867,-3.808 7.76534,-5.6746 4.10666,-1.9414 7.69067,-1.9414 4.55467,0 7.616,3.0614 3.136,2.9866 3.136,9.2586 v 24.192 l -0.74667,-1.0453 6.57067,1.4187 v 3.2106 h -17.32267 v -3.2106 l 6.34667,-1.4187 -0.82133,1.12 v -22.9227 q 0,-4.6293 -2.01601,-6.7946 -1.94133,-2.1654 -5.07733,-2.1654 -2.688,0 -5.97334,1.568 -3.21067,1.568 -6.34667,4.7787 l 0.52267,-1.4187 q 0.0747,0.672 0.0747,1.2694 0.0747,0.5973 0.0747,1.1946 v 24.416 l -0.74666,-1.0453 6.19733,1.4187 v 3.2106 h -16.87467 v -3.2106 l 6.34667,-1.4187 -0.896,1.12 v -22.9227 q 0,-4.6293 -2.016,-6.7946 -1.94134,-2.1654 -5.07734,-2.1654 -2.688,0 -5.89867,1.4934 -3.21067,1.4933 -6.34667,4.6293 l 0.52267,-1.12 v 26.88 l -0.74667,-1.0453 6.19734,1.344 v 3.2106 H 475.0051 v -3.2106 l 6.72,-1.4934 -0.896,1.12 v -32.1066 l 0.896,1.12 -6.72,-1.4187 v -3.2107 l 10.45334,-0.5226 0.82133,7.3173 -0.82133,-0.2987 q 3.65867,-3.808 7.69067,-5.6 4.10667,-1.792 7.76533,-1.792 3.43467,0 6.12267,1.8667 2.68801,1.792 3.88267,5.6 z"
           id="path7053" /><path
           d="m 558.03444,1449.3609 -0.672,-0.8213 6.496,1.4187 v 3.2106 H 546.2371 v -3.2106 l 6.496,-1.4187 -0.672,0.8213 v -31.5093 l 0.59734,0.672 -6.42134,-1.344 v -3.2107 l 11.79734,-0.448 z m -3.43467,-43.904 q -1.71733,0 -2.83733,-1.12 -1.12,-1.12 -1.12,-3.0613 0,-2.016 1.12,-3.0613 1.19466,-1.12 2.912,-1.12 1.792,0 2.912,1.0453 1.12,1.0453 1.12,3.136 0,2.016 -1.19467,3.136 -1.19467,1.0453 -2.912,1.0453 z"
           id="path7055" /><path
           d="m 579.56342,1449.3609 -0.672,-0.8213 6.496,1.4187 v 3.2106 h -17.69601 v -3.2106 l 6.49601,-1.4187 -0.59734,0.8213 v -49.4293 l 0.59734,0.672 -6.49601,-1.344 v -3.2107 l 11.87201,-0.5226 z"
           id="path7057" /><path
           d="m 601.81409,1449.3609 -0.672,-0.8213 6.496,1.4187 v 3.2106 h -17.62134 v -3.2106 l 6.496,-1.4187 -0.672,0.8213 v -31.5093 l 0.59733,0.672 -6.42133,-1.344 v -3.2107 l 11.79734,-0.448 z m -3.43467,-43.904 q -1.71734,0 -2.83734,-1.12 -1.12,-1.12 -1.12,-3.0613 0,-2.016 1.12,-3.0613 1.19467,-1.12 2.912,-1.12 1.79201,0 2.91201,1.0453 1.12,1.0453 1.12,3.136 0,2.016 -1.19467,3.136 -1.19467,1.0453 -2.912,1.0453 z"
           id="path7059" /><path
           d="m 630.03812,1453.8409 q -5.00266,0 -8.88533,-2.24 -3.808,-2.3146 -5.97334,-6.72 -2.16533,-4.4053 -2.16533,-10.752 0,-6.496 2.24,-11.2 2.24,-4.704 6.34667,-7.2426 4.10667,-2.6134 9.632,-2.6134 5.22667,0 8.58667,2.24 3.43467,2.1654 5.07734,6.048 1.71733,3.8827 1.71733,8.8854 0,0.8213 -0.0747,1.6426 -0.0747,0.8214 -0.224,2.016 h -28.74668 v -4.256 h 23.52001 l -0.672,0.448 q 0.0747,-3.36 -0.82134,-6.1973 -0.896,-2.8373 -3.06133,-4.5547 -2.16534,-1.7173 -5.74934,-1.7173 -3.808,0 -6.42133,2.016 -2.61334,2.016 -3.88267,5.5253 -1.26934,3.5094 -1.26934,8.1387 0,4.928 1.41867,8.512 1.41867,3.5093 4.10667,5.4507 2.76267,1.9413 6.72,1.9413 2.76267,0 6.048,-1.0453 3.28534,-1.12 6.79467,-3.36 l 2.16534,3.36 q -4.18134,2.8373 -8.36267,4.256 -4.18134,1.4186 -8.06401,1.4186 z"
           id="path7061" /></g><path
         d="m -1060.6309,1648.6582 v -3.2107 l 7.2427,-1.4933 -0.8213,1.0453 v -44.8747 l 1.0453,1.344 -7.4667,-1.344 v -3.2107 l 12.4694,-0.3733 h 23.6693 l 0.075,11.872 h -3.7333 l -1.344,-8.1387 1.2693,0.8214 h -20.9813 l 1.12,-1.12 v 21.4293 l -1.12,-1.0453 h 19.1893 v 4.5547 h -19.1893 l 1.12,-1.0454 v 21.1307 l -0.896,-1.0453 8.96,1.4933 v 3.2107 z"
         id="path7065"
         style="font-size:74.6667px;line-height:1.15;font-family:Bitter;-inkscape-font-specification:Bitter;fill:#4a95ab;stroke-width:2.21141" /><path
         d="m -991.01661,1645.2982 -0.97067,-1.344 6.86934,1.344 v 3.2853 l -10.45334,0.448 -0.896,-7.168 0.52267,0.224 q -3.28534,3.584 -7.09339,5.4507 -3.808,1.792 -7.3919,1.792 -4.3307,0 -7.3174,-2.7627 -2.9867,-2.7627 -2.9867,-8.3627 0,-4.4053 1.8667,-6.72 1.8667,-2.3893 5.152,-3.36 3.2854,-0.9706 7.616,-0.9706 h 9.78135 l -0.672,0.7466 v -7.168 q 0,-4.1066 -2.16533,-5.824 -2.16532,-1.792 -5.97332,-1.792 -2.016,0 -4.3307,0.448 -2.24,0.3734 -4.7787,1.2694 l 0.8961,-0.9707 -0.7467,6.7947 h -3.9574 l -0.5973,-9.2587 q 4.256,-1.4187 7.9894,-2.0907 3.7333,-0.7466 6.8693,-0.7466 5.97332,0 9.33332,2.688 3.43467,2.6133 3.43467,8.4373 z m -23.66939,-7.616 q 0,3.6586 1.7174,5.376 1.792,1.7173 4.48,1.7173 2.6133,0 5.7493,-1.568 3.21068,-1.6427 6.19735,-4.4053 l -0.448,1.568 v -10.0054 l 0.672,0.672 h -8.88535 q -5.3013,0 -7.392,1.6427 -2.0907,1.568 -2.0907,5.0027 z"
         id="path7067"
         style="font-size:74.6667px;line-height:1.15;font-family:Bitter;-inkscape-font-specification:Bitter;fill:#4a95ab;stroke-width:2.21141" /><path
         d="m -944.94719,1616.0288 -0.82133,0.1494 q 3.65867,-3.808 7.76534,-5.6747 4.10666,-1.9413 7.69067,-1.9413 4.55467,0 7.616,3.0613 3.136,2.9867 3.136,9.2587 v 24.192 l -0.74667,-1.0454 6.57067,1.4187 v 3.2107 h -17.32267 v -3.2107 l 6.34667,-1.4187 -0.82133,1.12 v -22.9226 q 0,-4.6294 -2.01601,-6.7947 -1.94133,-2.1653 -5.07733,-2.1653 -2.688,0 -5.97334,1.568 -3.21067,1.568 -6.34667,4.7786 l 0.52267,-1.4186 q 0.0747,0.672 0.0747,1.2693 0.0747,0.5973 0.0747,1.1947 v 24.416 l -0.74666,-1.0454 6.19733,1.4187 v 3.2107 h -16.87467 v -3.2107 l 6.34667,-1.4187 -0.896,1.12 v -22.9226 q 0,-4.6294 -2.016,-6.7947 -1.94134,-2.1653 -5.07734,-2.1653 -2.688,0 -5.89867,1.4933 -3.21067,1.4933 -6.34667,4.6293 l 0.52267,-1.12 v 26.88 l -0.74667,-1.0453 6.19734,1.344 v 3.2107 h -17.24801 v -3.2107 l 6.72,-1.4933 -0.896,1.12 v -32.1067 l 0.896,1.12 -6.72,-1.4187 v -3.2106 l 10.45334,-0.5227 0.82133,7.3173 -0.82133,-0.2986 q 3.65867,-3.808 7.69067,-5.6 4.10667,-1.792 7.76533,-1.792 3.43467,0 6.12267,1.8666 2.68801,1.792 3.88267,5.6 z"
         id="path7069"
         style="font-size:74.6667px;line-height:1.15;font-family:Bitter;-inkscape-font-specification:Bitter;fill:#4a95ab;stroke-width:2.21141" /><path
         d="m -897.83246,1644.8502 -0.672,-0.8214 6.496,1.4187 v 3.2107 h -17.62134 v -3.2107 l 6.496,-1.4187 -0.672,0.8214 v -31.5094 l 0.59734,0.672 -6.42134,-1.344 v -3.2106 l 11.79734,-0.448 z m -3.43467,-43.904 q -1.71733,0 -2.83733,-1.1201 -1.12,-1.12 -1.12,-3.0613 0,-2.016 1.12,-3.0613 1.19466,-1.12 2.912,-1.12 1.792,0 2.912,1.0453 1.12,1.0453 1.12,3.136 0,2.016 -1.19467,3.136 -1.19467,1.0454 -2.912,1.0454 z"
         id="path7071"
         style="font-size:74.6667px;line-height:1.15;font-family:Bitter;-inkscape-font-specification:Bitter;fill:#4a95ab;stroke-width:2.21141" /><path
         d="m -876.30348,1644.8502 -0.672,-0.8214 6.496,1.4187 v 3.2107 h -17.69601 v -3.2107 l 6.49601,-1.4187 -0.59734,0.8214 v -49.4294 l 0.59734,0.672 -6.49601,-1.344 v -3.2107 l 11.87201,-0.5226 z"
         id="path7073"
         style="font-size:74.6667px;line-height:1.15;font-family:Bitter;-inkscape-font-specification:Bitter;fill:#4a95ab;stroke-width:2.21141" /><path
         d="m -854.05281,1644.8502 -0.672,-0.8214 6.496,1.4187 v 3.2107 h -17.62134 v -3.2107 l 6.496,-1.4187 -0.672,0.8214 v -31.5094 l 0.59733,0.672 -6.42133,-1.344 v -3.2106 l 11.79734,-0.448 z m -3.43467,-43.904 q -1.71734,0 -2.83734,-1.1201 -1.12,-1.12 -1.12,-3.0613 0,-2.016 1.12,-3.0613 1.19467,-1.12 2.912,-1.12 1.79201,0 2.91201,1.0453 1.12,1.0453 1.12,3.136 0,2.016 -1.19467,3.136 -1.19467,1.0454 -2.912,1.0454 z"
         id="path7075"
         style="font-size:74.6667px;line-height:1.15;font-family:Bitter;-inkscape-font-specification:Bitter;fill:#4a95ab;stroke-width:2.21141" /><path
         d="m -825.82878,1649.3302 q -5.00266,0 -8.88533,-2.24 -3.808,-2.3147 -5.97334,-6.72 -2.16533,-4.4054 -2.16533,-10.752 0,-6.496 2.24,-11.2 2.24,-4.704 6.34667,-7.2427 4.10667,-2.6133 9.632,-2.6133 5.22667,0 8.58667,2.24 3.43467,2.1653 5.07734,6.048 1.71733,3.8826 1.71733,8.8853 0,0.8213 -0.0747,1.6427 -0.0747,0.8213 -0.224,2.016 h -28.74668 v -4.256 h 23.52001 l -0.672,0.448 q 0.0747,-3.36 -0.82134,-6.1974 -0.896,-2.8373 -3.06133,-4.5546 -2.16534,-1.7174 -5.74934,-1.7174 -3.808,0 -6.42133,2.016 -2.61334,2.016 -3.88267,5.5254 -1.26934,3.5093 -1.26934,8.1386 0,4.928 1.41867,8.512 1.41867,3.5094 4.10667,5.4507 2.76267,1.9413 6.72,1.9413 2.76267,0 6.048,-1.0453 3.28534,-1.12 6.79467,-3.36 l 2.16534,3.36 q -4.18134,2.8373 -8.36267,4.256 -4.18134,1.4187 -8.06401,1.4187 z"
         id="path7077"
         style="font-size:74.6667px;line-height:1.15;font-family:Bitter;-inkscape-font-specification:Bitter;fill:#4a95ab;stroke-width:2.21141" /><path
         d="m -1060.6309,1714.1458 v -3.2106 l 7.2427,-1.4934 -0.8213,1.0454 v -44.8747 l 1.0453,1.344 -7.4667,-1.344 v -3.2107 l 12.4694,-0.3733 h 23.6693 l 0.075,11.872 h -3.7333 l -1.344,-8.1387 1.2693,0.8214 h -20.9813 l 1.12,-1.12 v 21.4293 l -1.12,-1.0453 h 19.1893 v 4.5546 h -19.1893 l 1.12,-1.0453 v 21.1307 l -0.896,-1.0454 8.96,1.4934 v 3.2106 z"
         id="path7079"
         style="font-size:74.6667px;line-height:1.15;font-family:Bitter;-inkscape-font-specification:Bitter;fill:#4a95ab;stroke-width:2.21141" /><path
         d="m -991.01661,1710.7858 -0.97067,-1.344 6.86934,1.344 v 3.2854 l -10.45334,0.448 -0.896,-7.168 0.52267,0.224 q -3.28534,3.584 -7.09339,5.4506 -3.808,1.792 -7.3919,1.792 -4.3307,0 -7.3174,-2.7626 -2.9867,-2.7627 -2.9867,-8.3627 0,-4.4053 1.8667,-6.72 1.8667,-2.3893 5.152,-3.36 3.2854,-0.9707 7.616,-0.9707 h 9.78135 l -0.672,0.7467 v -7.168 q 0,-4.1067 -2.16533,-5.824 -2.16532,-1.792 -5.97332,-1.792 -2.016,0 -4.3307,0.448 -2.24,0.3733 -4.7787,1.2693 l 0.8961,-0.9706 -0.7467,6.7946 h -3.9574 l -0.5973,-9.2586 q 4.256,-1.4187 7.9894,-2.0907 3.7333,-0.7467 6.8693,-0.7467 5.97332,0 9.33332,2.688 3.43467,2.6134 3.43467,8.4374 z m -23.66939,-7.616 q 0,3.6587 1.7174,5.376 1.792,1.7174 4.48,1.7174 2.6133,0 5.7493,-1.568 3.21068,-1.6427 6.19735,-4.4054 l -0.448,1.568 v -10.0053 l 0.672,0.672 h -8.88535 q -5.3013,0 -7.392,1.6427 -2.0907,1.568 -2.0907,5.0026 z"
         id="path7081"
         style="font-size:74.6667px;line-height:1.15;font-family:Bitter;-inkscape-font-specification:Bitter;fill:#4a95ab;stroke-width:2.21141" /><path
         d="m -944.94719,1681.5165 -0.82133,0.1493 q 3.65867,-3.808 7.76534,-5.6746 4.10666,-1.9414 7.69067,-1.9414 4.55467,0 7.616,3.0614 3.136,2.9866 3.136,9.2586 v 24.192 l -0.74667,-1.0453 6.57067,1.4187 v 3.2106 h -17.32267 v -3.2106 l 6.34667,-1.4187 -0.82133,1.12 v -22.9227 q 0,-4.6293 -2.01601,-6.7946 -1.94133,-2.1654 -5.07733,-2.1654 -2.688,0 -5.97334,1.568 -3.21067,1.568 -6.34667,4.7787 l 0.52267,-1.4187 q 0.0747,0.672 0.0747,1.2694 0.0747,0.5973 0.0747,1.1946 v 24.416 l -0.74666,-1.0453 6.19733,1.4187 v 3.2106 h -16.87467 v -3.2106 l 6.34667,-1.4187 -0.896,1.12 v -22.9227 q 0,-4.6293 -2.016,-6.7946 -1.94134,-2.1654 -5.07734,-2.1654 -2.688,0 -5.89867,1.4934 -3.21067,1.4933 -6.34667,4.6293 l 0.52267,-1.12 v 26.88 l -0.74667,-1.0453 6.19734,1.344 v 3.2106 h -17.24801 v -3.2106 l 6.72,-1.4934 -0.896,1.12 v -32.1066 l 0.896,1.12 -6.72,-1.4187 v -3.2107 l 10.45334,-0.5226 0.82133,7.3173 -0.82133,-0.2987 q 3.65867,-3.808 7.69067,-5.6 4.10667,-1.792 7.76533,-1.792 3.43467,0 6.12267,1.8667 2.68801,1.792 3.88267,5.6 z"
         id="path7083"
         style="font-size:74.6667px;line-height:1.15;font-family:Bitter;-inkscape-font-specification:Bitter;fill:#4a95ab;stroke-width:2.21141" /><path
         d="m -897.83246,1710.3378 -0.672,-0.8213 6.496,1.4187 v 3.2106 h -17.62134 v -3.2106 l 6.496,-1.4187 -0.672,0.8213 v -31.5093 l 0.59734,0.672 -6.42134,-1.344 v -3.2107 l 11.79734,-0.448 z m -3.43467,-43.904 q -1.71733,0 -2.83733,-1.12 -1.12,-1.12 -1.12,-3.0613 0,-2.016 1.12,-3.0613 1.19466,-1.12 2.912,-1.12 1.792,0 2.912,1.0453 1.12,1.0453 1.12,3.136 0,2.016 -1.19467,3.136 -1.19467,1.0453 -2.912,1.0453 z"
         id="path7085"
         style="font-size:74.6667px;line-height:1.15;font-family:Bitter;-inkscape-font-specification:Bitter;fill:#4a95ab;stroke-width:2.21141" /><path
         d="m -876.30348,1710.3378 -0.672,-0.8213 6.496,1.4187 v 3.2106 h -17.69601 v -3.2106 l 6.49601,-1.4187 -0.59734,0.8213 v -49.4293 l 0.59734,0.672 -6.49601,-1.344 v -3.2107 l 11.87201,-0.5227 z"
         id="path7087"
         style="font-size:74.6667px;line-height:1.15;font-family:Bitter;-inkscape-font-specification:Bitter;fill:#4a95ab;stroke-width:2.21141" /><path
         d="m -854.05281,1710.3378 -0.672,-0.8213 6.496,1.4187 v 3.2106 h -17.62134 v -3.2106 l 6.496,-1.4187 -0.672,0.8213 v -31.5093 l 0.59733,0.672 -6.42133,-1.344 v -3.2107 l 11.79734,-0.448 z m -3.43467,-43.904 q -1.71734,0 -2.83734,-1.12 -1.12,-1.12 -1.12,-3.0613 0,-2.016 1.12,-3.0613 1.19467,-1.12 2.912,-1.12 1.79201,0 2.91201,1.0453 1.12,1.0453 1.12,3.136 0,2.016 -1.19467,3.136 -1.19467,1.0453 -2.912,1.0453 z"
         id="path7089"
         style="font-size:74.6667px;line-height:1.15;font-family:Bitter;-inkscape-font-specification:Bitter;fill:#4a95ab;stroke-width:2.21141" /><path
         d="m -825.82878,1714.8178 q -5.00266,0 -8.88533,-2.24 -3.808,-2.3146 -5.97334,-6.72 -2.16533,-4.4053 -2.16533,-10.752 0,-6.496 2.24,-11.2 2.24,-4.704 6.34667,-7.2426 4.10667,-2.6134 9.632,-2.6134 5.22667,0 8.58667,2.24 3.43467,2.1654 5.07734,6.048 1.71733,3.8827 1.71733,8.8854 0,0.8213 -0.0747,1.6426 -0.0747,0.8214 -0.224,2.016 h -28.74668 v -4.256 h 23.52001 l -0.672,0.448 q 0.0747,-3.36 -0.82134,-6.1973 -0.896,-2.8373 -3.06133,-4.5547 -2.16534,-1.7173 -5.74934,-1.7173 -3.808,0 -6.42133,2.016 -2.61334,2.016 -3.88267,5.5253 -1.26934,3.5094 -1.26934,8.1387 0,4.928 1.41867,8.512 1.41867,3.5093 4.10667,5.4507 2.76267,1.9413 6.72,1.9413 2.76267,0 6.048,-1.0453 3.28534,-1.12 6.79467,-3.36 l 2.16534,3.36 q -4.18134,2.8373 -8.36267,4.256 -4.18134,1.4186 -8.06401,1.4186 z"
         id="path7091"
         style="font-size:74.6667px;line-height:1.15;font-family:Bitter;-inkscape-font-specification:Bitter;fill:#4a95ab;stroke-width:2.21141" /><path
         d="m -1060.6309,1778.2573 v -3.2107 l 7.2427,-1.4933 -0.8213,1.0453 v -44.8747 l 1.0453,1.344 -7.4667,-1.344 v -3.2106 l 12.4694,-0.3734 h 23.6693 l 0.075,11.872 h -3.7333 l -1.344,-8.1386 1.2693,0.8213 h -20.9813 l 1.12,-1.12 v 21.4293 l -1.12,-1.0453 h 19.1893 v 4.5547 h -19.1893 l 1.12,-1.0454 v 21.1307 l -0.896,-1.0453 8.96,1.4933 v 3.2107 z"
         id="path7093"
         style="font-size:74.6667px;line-height:1.15;font-family:Bitter;-inkscape-font-specification:Bitter;fill:#4a95ab;stroke-width:2.21141" /><path
         d="m -991.01661,1774.8973 -0.97067,-1.344 6.86934,1.344 v 3.2853 l -10.45334,0.448 -0.896,-7.168 0.52267,0.224 q -3.28534,3.584 -7.09339,5.4507 -3.808,1.792 -7.3919,1.792 -4.3307,0 -7.3174,-2.7627 -2.9867,-2.7626 -2.9867,-8.3626 0,-4.4054 1.8667,-6.72 1.8667,-2.3894 5.152,-3.36 3.2854,-0.9707 7.616,-0.9707 h 9.78135 l -0.672,0.7467 v -7.1681 q 0,-4.1066 -2.16533,-5.824 -2.16532,-1.792 -5.97332,-1.792 -2.016,0 -4.3307,0.448 -2.24,0.3734 -4.7787,1.2694 l 0.8961,-0.9707 -0.7467,6.7947 h -3.9574 l -0.5973,-9.2587 q 4.256,-1.4187 7.9894,-2.0907 3.7333,-0.7466 6.8693,-0.7466 5.97332,0 9.33332,2.688 3.43467,2.6133 3.43467,8.4373 z m -23.66939,-7.616 q 0,3.6587 1.7174,5.376 1.792,1.7173 4.48,1.7173 2.6133,0 5.7493,-1.568 3.21068,-1.6426 6.19735,-4.4053 l -0.448,1.568 v -10.0053 l 0.672,0.672 h -8.88535 q -5.3013,0 -7.392,1.6426 -2.0907,1.568 -2.0907,5.0027 z"
         id="path7095"
         style="font-size:74.6667px;line-height:1.15;font-family:Bitter;-inkscape-font-specification:Bitter;fill:#4a95ab;stroke-width:2.21141" /><path
         d="m -944.94719,1745.6279 -0.82133,0.1494 q 3.65867,-3.808 7.76534,-5.6747 4.10666,-1.9413 7.69067,-1.9413 4.55467,0 7.616,3.0613 3.136,2.9867 3.136,9.2587 v 24.192 l -0.74667,-1.0453 6.57067,1.4186 v 3.2107 h -17.32267 v -3.2107 l 6.34667,-1.4186 -0.82133,1.12 v -22.9227 q 0,-4.6294 -2.01601,-6.7947 -1.94133,-2.1653 -5.07733,-2.1653 -2.688,0 -5.97334,1.568 -3.21067,1.568 -6.34667,4.7786 l 0.52267,-1.4186 q 0.0747,0.672 0.0747,1.2693 0.0747,0.5973 0.0747,1.1947 v 24.416 l -0.74666,-1.0453 6.19733,1.4186 v 3.2107 h -16.87467 v -3.2107 l 6.34667,-1.4186 -0.896,1.12 v -22.9227 q 0,-4.6294 -2.016,-6.7947 -1.94134,-2.1653 -5.07734,-2.1653 -2.688,0 -5.89867,1.4933 -3.21067,1.4933 -6.34667,4.6293 l 0.52267,-1.12 v 26.8801 l -0.74667,-1.0454 6.19734,1.344 v 3.2107 h -17.24801 v -3.2107 l 6.72,-1.4933 -0.896,1.12 v -32.1067 l 0.896,1.12 -6.72,-1.4187 v -3.2106 l 10.45334,-0.5227 0.82133,7.3173 -0.82133,-0.2986 q 3.65867,-3.808 7.69067,-5.6 4.10667,-1.792 7.76533,-1.792 3.43467,0 6.12267,1.8666 2.68801,1.792 3.88267,5.6 z"
         id="path7097"
         style="font-size:74.6667px;line-height:1.15;font-family:Bitter;-inkscape-font-specification:Bitter;fill:#4a95ab;stroke-width:2.21141" /><path
         d="m -897.83246,1774.4493 -0.672,-0.8213 6.496,1.4186 v 3.2107 h -17.62134 v -3.2107 l 6.496,-1.4186 -0.672,0.8213 v -31.5094 l 0.59734,0.672 -6.42134,-1.344 v -3.2106 l 11.79734,-0.448 z m -3.43467,-43.904 q -1.71733,0 -2.83733,-1.12 -1.12,-1.12 -1.12,-3.0614 0,-2.016 1.12,-3.0613 1.19466,-1.12 2.912,-1.12 1.792,0 2.912,1.0453 1.12,1.0454 1.12,3.136 0,2.016 -1.19467,3.136 -1.19467,1.0454 -2.912,1.0454 z"
         id="path7099"
         style="font-size:74.6667px;line-height:1.15;font-family:Bitter;-inkscape-font-specification:Bitter;fill:#4a95ab;stroke-width:2.21141" /><path
         d="m -876.30348,1774.4493 -0.672,-0.8213 6.496,1.4186 v 3.2107 h -17.69601 v -3.2107 l 6.49601,-1.4186 -0.59734,0.8213 v -49.4294 l 0.59734,0.672 -6.49601,-1.344 v -3.2106 l 11.87201,-0.5227 z"
         id="path7101"
         style="font-size:74.6667px;line-height:1.15;font-family:Bitter;-inkscape-font-specification:Bitter;fill:#4a95ab;stroke-width:2.21141" /><path
         d="m -854.05281,1774.4493 -0.672,-0.8213 6.496,1.4186 v 3.2107 h -17.62134 v -3.2107 l 6.496,-1.4186 -0.672,0.8213 v -31.5094 l 0.59733,0.672 -6.42133,-1.344 v -3.2106 l 11.79734,-0.448 z m -3.43467,-43.904 q -1.71734,0 -2.83734,-1.12 -1.12,-1.12 -1.12,-3.0614 0,-2.016 1.12,-3.0613 1.19467,-1.12 2.912,-1.12 1.79201,0 2.91201,1.0453 1.12,1.0454 1.12,3.136 0,2.016 -1.19467,3.136 -1.19467,1.0454 -2.912,1.0454 z"
         id="path7103"
         style="font-size:74.6667px;line-height:1.15;font-family:Bitter;-inkscape-font-specification:Bitter;fill:#4a95ab;stroke-width:2.21141" /><path
         d="m -825.82878,1778.9293 q -5.00266,0 -8.88533,-2.24 -3.808,-2.3147 -5.97334,-6.72 -2.16533,-4.4053 -2.16533,-10.752 0,-6.496 2.24,-11.2 2.24,-4.704 6.34667,-7.2427 4.10667,-2.6133 9.632,-2.6133 5.22667,0 8.58667,2.24 3.43467,2.1653 5.07734,6.048 1.71733,3.8826 1.71733,8.8853 0,0.8214 -0.0747,1.6427 -0.0747,0.8213 -0.224,2.016 h -28.74668 v -4.256 h 23.52001 l -0.672,0.448 q 0.0747,-3.36 -0.82134,-6.1974 -0.896,-2.8373 -3.06133,-4.5546 -2.16534,-1.7174 -5.74934,-1.7174 -3.808,0 -6.42133,2.016 -2.61334,2.016 -3.88267,5.5254 -1.26934,3.5093 -1.26934,8.1387 0,4.928 1.41867,8.512 1.41867,3.5093 4.10667,5.4506 2.76267,1.9414 6.72,1.9414 2.76267,0 6.048,-1.0454 3.28534,-1.12 6.79467,-3.36 l 2.16534,3.36 q -4.18134,2.8374 -8.36267,4.256 -4.18134,1.4187 -8.06401,1.4187 z"
         id="path7105"
         style="font-size:74.6667px;line-height:1.15;font-family:Bitter;-inkscape-font-specification:Bitter;fill:#4a95ab;stroke-width:2.21141" /></g></g></svg>
