<?xml version="1.0" encoding="UTF-8" standalone="no"?>
<!-- Created with Inkscape (http://www.inkscape.org/) -->

<svg
   version="1.1"
   id="svg83"
   width="553.6748"
   height="332.56616"
   viewBox="0 0 553.6748 332.56616"
   sodipodi:docname="p4.svg"
   inkscape:version="1.2 (dc2aedaf03, 2022-05-15)"
   xml:space="preserve"
   xmlns:inkscape="http://www.inkscape.org/namespaces/inkscape"
   xmlns:sodipodi="http://sodipodi.sourceforge.net/DTD/sodipodi-0.dtd"
   xmlns="http://www.w3.org/2000/svg"
   xmlns:svg="http://www.w3.org/2000/svg"><defs
     id="defs87"><filter
       inkscape:collect="always"
       style="color-interpolation-filters:sRGB"
       id="filter2418-3-6"
       x="-0.062110244"
       y="-0.062110244"
       width="1.1242205"
       height="1.1242205"><feGaussianBlur
         inkscape:collect="always"
         stdDeviation="6.6047017"
         id="feGaussianBlur2420-6-1" /></filter></defs><sodipodi:namedview
     id="namedview85"
     pagecolor="#505050"
     bordercolor="#ffffff"
     borderopacity="1"
     inkscape:showpageshadow="0"
     inkscape:pageopacity="0"
     inkscape:pagecheckerboard="1"
     inkscape:deskcolor="#505050"
     showgrid="false"
     inkscape:zoom="1.8117576"
     inkscape:cx="289.77387"
     inkscape:cy="150.13046"
     inkscape:window-width="1920"
     inkscape:window-height="1057"
     inkscape:window-x="0"
     inkscape:window-y="0"
     inkscape:window-maximized="1"
     inkscape:current-layer="layer1" /><g
     inkscape:groupmode="layer"
     id="layer1"
     inkscape:label="additions"
     style="display:inline"
     transform="translate(1726.6095,-2269.9729)"><rect
       style="display:inline;fill:#ffffff;fill-opacity:1;stroke-width:0.567571"
       id="rect41868-5-2"
       width="553.6748"
       height="332.56622"
       x="-1726.6095"
       y="2269.9729"
       inkscape:export-filename="../../../../../../git/tok/plated/source/data/ess.png"
       inkscape:export-xdpi="96"
       inkscape:export-ydpi="96" /><g
       id="g5977"
       transform="translate(-6.570512)"><g
         aria-label="Essen"
         id="text32300"
         style="font-size:74.6667px;line-height:1.15;font-family:Bitter;-inkscape-font-specification:Bitter;fill:#cc965c;fill-opacity:1;stroke-width:2.21141"
         transform="translate(-2704.1151,317.20844)"><path
           d="m 1023.5585,2003.6004 h 3.7334 v 12.2453 h -37.70672 v -3.2107 l 7.39201,-1.568 -0.97067,1.344 v -45.0987 l 0.97067,1.344 -7.39201,-1.344 v -3.2106 l 12.46932,-0.3734 h 24.3414 v 11.7974 h -3.7334 l -1.344,-8.2134 1.2694,0.9707 h -21.5787 l 1.12,-1.12 v 20.9067 l -1.12,-1.12 h 19.936 v 4.48 h -19.936 l 1.12,-1.2693 v 22.2506 l -1.12,-1.12 h 22.5493 l -1.344,1.12 z"
           id="path1911" /><path
           d="m 1041.3043,1985.979 q 0,2.3894 1.568,3.7334 1.568,1.344 4.032,2.24 2.464,0.8213 5.2267,1.6426 2.7627,0.8214 5.2267,2.016 2.464,1.1947 4.032,3.2854 1.568,2.0906 1.568,5.5253 0,3.9573 -2.1654,6.6453 -2.1653,2.688 -5.8986,4.1067 -3.6587,1.344 -8.2134,1.344 -2.7626,0 -5.6746,-0.448 -2.912,-0.448 -5.9734,-1.2693 l 0.5227,-10.0054 h 3.808 l 0.7467,7.3174 -0.672,-0.8214 q 1.7173,0.448 3.7333,0.7467 2.016,0.2987 3.7333,0.2987 2.688,0 4.928,-0.7467 2.3147,-0.8213 3.7334,-2.3147 1.4186,-1.568 1.4186,-3.8826 0,-2.464 -1.568,-3.8827 -1.4933,-1.4187 -3.9573,-2.3147 -2.464,-0.896 -5.2267,-1.6426 -2.688,-0.8214 -5.152,-2.016 -2.464,-1.2694 -4.032,-3.2854 -1.568,-2.016 -1.568,-5.5253 0,-3.808 1.9414,-6.1973 2.016,-2.464 5.2266,-3.584 3.2854,-1.1947 7.0187,-1.1947 2.5387,0 5.6,0.5227 3.0613,0.5226 6.272,1.568 l -0.3733,8.4373 h -3.808 l -1.12,-6.1973 0.896,1.0453 q -3.8827,-1.12 -7.3174,-1.12 -3.6586,0 -6.1226,1.568 -2.3894,1.4933 -2.3894,4.4053 z"
           id="path1913" /><path
           d="m 1076.9951,1985.979 q 0,2.3894 1.568,3.7334 1.568,1.344 4.032,2.24 2.464,0.8213 5.2266,1.6426 2.7627,0.8214 5.2267,2.016 2.464,1.1947 4.032,3.2854 1.568,2.0906 1.568,5.5253 0,3.9573 -2.1653,6.6453 -2.1654,2.688 -5.8987,4.1067 -3.6587,1.344 -8.2133,1.344 -2.7627,0 -5.6747,-0.448 -2.912,-0.448 -5.9733,-1.2693 l 0.5226,-10.0054 h 3.808 l 0.7467,7.3174 -0.672,-0.8214 q 1.7173,0.448 3.7333,0.7467 2.016,0.2987 3.7334,0.2987 2.688,0 4.928,-0.7467 2.3146,-0.8213 3.7333,-2.3147 1.4187,-1.568 1.4187,-3.8826 0,-2.464 -1.568,-3.8827 -1.4934,-1.4187 -3.9574,-2.3147 -2.464,-0.896 -5.2266,-1.6426 -2.688,-0.8214 -5.152,-2.016 -2.464,-1.2694 -4.032,-3.2854 -1.568,-2.016 -1.568,-5.5253 0,-3.808 1.9413,-6.1973 2.016,-2.464 5.2267,-3.584 3.2853,-1.1947 7.0186,-1.1947 2.5387,0 5.6,0.5227 3.0614,0.5226 6.272,1.568 l -0.3733,8.4373 h -3.808 l -1.12,-6.1973 0.896,1.0453 q -3.8827,-1.12 -7.3173,-1.12 -3.6587,0 -6.1227,1.568 -2.3893,1.4933 -2.3893,4.4053 z"
           id="path1915" /><path
           d="m 1122.9151,2016.5177 q -5.0026,0 -8.8853,-2.24 -3.808,-2.3147 -5.9733,-6.72 -2.1654,-4.4053 -2.1654,-10.752 0,-6.496 2.24,-11.2 2.24,-4.704 6.3467,-7.2427 4.1067,-2.6133 9.632,-2.6133 5.2267,0 8.5867,2.24 3.4346,2.1653 5.0773,6.048 1.7173,3.8827 1.7173,8.8853 0,0.8214 -0.075,1.6427 -0.075,0.8213 -0.224,2.016 h -28.7467 v -4.256 h 23.52 l -0.672,0.448 q 0.075,-3.36 -0.8213,-6.1973 -0.896,-2.8374 -3.0614,-4.5547 -2.1653,-1.7173 -5.7493,-1.7173 -3.808,0 -6.4213,2.016 -2.6134,2.016 -3.8827,5.5253 -1.2693,3.5093 -1.2693,8.1387 0,4.928 1.4186,8.512 1.4187,3.5093 4.1067,5.4506 2.7627,1.9414 6.72,1.9414 2.7627,0 6.048,-1.0454 3.2853,-1.12 6.7947,-3.36 l 2.1653,3.36 q -4.1813,2.8374 -8.3627,4.256 -4.1813,1.4187 -8.064,1.4187 z"
           id="path1917" /><path
           d="m 1145.9872,2015.8457 v -3.2107 l 6.72,-1.4933 -0.896,1.12 v -32.1067 l 0.896,1.12 -6.72,-1.4186 v -3.2107 l 10.4533,-0.5227 0.8214,7.3174 -0.8214,-0.2987 q 3.7334,-3.808 7.7654,-5.6 4.1067,-1.792 7.7653,-1.792 4.928,0 8.1387,3.0613 3.2853,2.9867 3.2107,9.3334 v 24.1173 l -0.7467,-1.0453 6.5707,1.4186 v 3.2107 h -17.3974 v -3.2107 l 6.496,-1.4186 -0.896,1.12 v -22.9227 q 0,-4.6293 -2.0906,-6.7947 -2.0907,-2.1653 -5.6,-2.1653 -2.7627,0 -6.0481,1.4933 -3.2106,1.4934 -6.3466,4.6294 l 0.5226,-1.1947 v 26.9547 l -0.7466,-1.0454 6.3466,1.344 v 3.2107 z"
           id="path1919" /></g><g
         aria-label="Essen"
         id="text32308"
         style="font-size:74.6667px;line-height:1.15;font-family:Bitter;-inkscape-font-specification:Bitter;fill:#cc965c;fill-opacity:1;stroke-width:2.21141"
         transform="translate(-2704.1151,317.20844)"><path
           d="m 1023.5585,2069.0879 h 3.7334 v 12.2454 h -37.70672 v -3.2107 l 7.39201,-1.568 -0.97067,1.344 v -45.0987 l 0.97067,1.344 -7.39201,-1.344 v -3.2107 l 12.46932,-0.3733 h 24.3414 v 11.7973 h -3.7334 l -1.344,-8.2133 1.2694,0.9707 h -21.5787 l 1.12,-1.12 v 20.9066 l -1.12,-1.12 h 19.936 v 4.48 h -19.936 l 1.12,-1.2693 v 22.2507 l -1.12,-1.12 h 22.5493 l -1.344,1.12 z"
           id="path1933" /><path
           d="m 1041.3043,2051.4666 q 0,2.3893 1.568,3.7333 1.568,1.344 4.032,2.24 2.464,0.8213 5.2267,1.6427 2.7627,0.8213 5.2267,2.016 2.464,1.1946 4.032,3.2853 1.568,2.0907 1.568,5.5253 0,3.9574 -2.1654,6.6454 -2.1653,2.688 -5.8986,4.1067 -3.6587,1.344 -8.2134,1.344 -2.7626,0 -5.6746,-0.448 -2.912,-0.448 -5.9734,-1.2694 l 0.5227,-10.0053 h 3.808 l 0.7467,7.3173 -0.672,-0.8213 q 1.7173,0.448 3.7333,0.7467 2.016,0.2986 3.7333,0.2986 2.688,0 4.928,-0.7467 2.3147,-0.8213 3.7334,-2.3146 1.4186,-1.568 1.4186,-3.8827 0,-2.464 -1.568,-3.8827 -1.4933,-1.4186 -3.9573,-2.3146 -2.464,-0.896 -5.2267,-1.6427 -2.688,-0.8213 -5.152,-2.016 -2.464,-1.2693 -4.032,-3.2853 -1.568,-2.016 -1.568,-5.5254 0,-3.808 1.9414,-6.1973 2.016,-2.464 5.2266,-3.584 3.2854,-1.1947 7.0187,-1.1947 2.5387,0 5.6,0.5227 3.0613,0.5227 6.272,1.568 l -0.3733,8.4373 h -3.808 l -1.12,-6.1973 0.896,1.0453 q -3.8827,-1.12 -7.3174,-1.12 -3.6586,0 -6.1226,1.568 -2.3894,1.4934 -2.3894,4.4054 z"
           id="path1935" /><path
           d="m 1076.9951,2051.4666 q 0,2.3893 1.568,3.7333 1.568,1.344 4.032,2.24 2.464,0.8213 5.2266,1.6427 2.7627,0.8213 5.2267,2.016 2.464,1.1946 4.032,3.2853 1.568,2.0907 1.568,5.5253 0,3.9574 -2.1653,6.6454 -2.1654,2.688 -5.8987,4.1067 -3.6587,1.344 -8.2133,1.344 -2.7627,0 -5.6747,-0.448 -2.912,-0.448 -5.9733,-1.2694 l 0.5226,-10.0053 h 3.808 l 0.7467,7.3173 -0.672,-0.8213 q 1.7173,0.448 3.7333,0.7467 2.016,0.2986 3.7334,0.2986 2.688,0 4.928,-0.7467 2.3146,-0.8213 3.7333,-2.3146 1.4187,-1.568 1.4187,-3.8827 0,-2.464 -1.568,-3.8827 -1.4934,-1.4186 -3.9574,-2.3146 -2.464,-0.896 -5.2266,-1.6427 -2.688,-0.8213 -5.152,-2.016 -2.464,-1.2693 -4.032,-3.2853 -1.568,-2.016 -1.568,-5.5254 0,-3.808 1.9413,-6.1973 2.016,-2.464 5.2267,-3.584 3.2853,-1.1947 7.0186,-1.1947 2.5387,0 5.6,0.5227 3.0614,0.5227 6.272,1.568 l -0.3733,8.4373 h -3.808 l -1.12,-6.1973 0.896,1.0453 q -3.8827,-1.12 -7.3173,-1.12 -3.6587,0 -6.1227,1.568 -2.3893,1.4934 -2.3893,4.4054 z"
           id="path1937" /><path
           d="m 1122.9151,2082.0053 q -5.0026,0 -8.8853,-2.24 -3.808,-2.3147 -5.9733,-6.7201 -2.1654,-4.4053 -2.1654,-10.752 0,-6.496 2.24,-11.2 2.24,-4.704 6.3467,-7.2426 4.1067,-2.6134 9.632,-2.6134 5.2267,0 8.5867,2.24 3.4346,2.1654 5.0773,6.048 1.7173,3.8827 1.7173,8.8854 0,0.8213 -0.075,1.6426 -0.075,0.8214 -0.224,2.016 h -28.7467 v -4.256 h 23.52 l -0.672,0.448 q 0.075,-3.36 -0.8213,-6.1973 -0.896,-2.8373 -3.0614,-4.5547 -2.1653,-1.7173 -5.7493,-1.7173 -3.808,0 -6.4213,2.016 -2.6134,2.016 -3.8827,5.5253 -1.2693,3.5094 -1.2693,8.1387 0,4.928 1.4186,8.512 1.4187,3.5093 4.1067,5.4507 2.7627,1.9413 6.72,1.9413 2.7627,0 6.048,-1.0453 3.2853,-1.12 6.7947,-3.36 l 2.1653,3.36 q -4.1813,2.8373 -8.3627,4.256 -4.1813,1.4187 -8.064,1.4187 z"
           id="path1939" /><path
           d="m 1145.9872,2081.3333 v -3.2107 l 6.72,-1.4934 -0.896,1.1201 v -32.1067 l 0.896,1.12 -6.72,-1.4187 v -3.2107 l 10.4533,-0.5226 0.8214,7.3173 -0.8214,-0.2987 q 3.7334,-3.808 7.7654,-5.6 4.1067,-1.792 7.7653,-1.792 4.928,0 8.1387,3.0614 3.2853,2.9866 3.2107,9.3333 v 24.1174 l -0.7467,-1.0454 6.5707,1.4187 v 3.2107 h -17.3974 v -3.2107 l 6.496,-1.4187 -0.896,1.12 v -22.9227 q 0,-4.6293 -2.0906,-6.7946 -2.0907,-2.1654 -5.6,-2.1654 -2.7627,0 -6.0481,1.4934 -3.2106,1.4933 -6.3466,4.6293 l 0.5226,-1.1947 v 26.9547 l -0.7466,-1.0453 6.3466,1.344 v 3.2107 z"
           id="path1941" /></g><g
         aria-label="Essen"
         id="text32316"
         style="font-size:74.6667px;line-height:1.15;font-family:Bitter;-inkscape-font-specification:Bitter;fill:#cc965c;fill-opacity:1;stroke-width:2.21141"
         transform="translate(-2704.1151,317.20844)"><path
           d="m 1023.5585,2134.5213 h 3.7334 v 12.2453 h -37.70672 v -3.2107 l 7.39201,-1.568 -0.97067,1.344 v -45.0987 l 0.97067,1.344 -7.39201,-1.344 v -3.2106 l 12.46932,-0.3734 h 24.3414 v 11.7974 h -3.7334 l -1.344,-8.2134 1.2694,0.9707 h -21.5787 l 1.12,-1.12 v 20.9067 l -1.12,-1.12 h 19.936 v 4.48 h -19.936 l 1.12,-1.2693 v 22.2506 l -1.12,-1.12 h 22.5493 l -1.344,1.12 z"
           id="path1955" /><path
           d="m 1041.3043,2116.8999 q 0,2.3894 1.568,3.7334 1.568,1.344 4.032,2.24 2.464,0.8213 5.2267,1.6426 2.7627,0.8214 5.2267,2.016 2.464,1.1947 4.032,3.2854 1.568,2.0906 1.568,5.5253 0,3.9573 -2.1654,6.6453 -2.1653,2.688 -5.8986,4.1067 -3.6587,1.344 -8.2134,1.344 -2.7626,0 -5.6746,-0.448 -2.912,-0.448 -5.9734,-1.2693 l 0.5227,-10.0054 h 3.808 l 0.7467,7.3174 -0.672,-0.8214 q 1.7173,0.448 3.7333,0.7467 2.016,0.2987 3.7333,0.2987 2.688,0 4.928,-0.7467 2.3147,-0.8213 3.7334,-2.3147 1.4186,-1.568 1.4186,-3.8826 0,-2.464 -1.568,-3.8827 -1.4933,-1.4187 -3.9573,-2.3147 -2.464,-0.896 -5.2267,-1.6426 -2.688,-0.8214 -5.152,-2.016 -2.464,-1.2694 -4.032,-3.2854 -1.568,-2.016 -1.568,-5.5253 0,-3.808 1.9414,-6.1973 2.016,-2.464 5.2266,-3.5841 3.2854,-1.1946 7.0187,-1.1946 2.5387,0 5.6,0.5226 3.0613,0.5227 6.272,1.5681 l -0.3733,8.4373 h -3.808 l -1.12,-6.1973 0.896,1.0453 q -3.8827,-1.12 -7.3174,-1.12 -3.6586,0 -6.1226,1.568 -2.3894,1.4933 -2.3894,4.4053 z"
           id="path1957" /><path
           d="m 1076.9951,2116.8999 q 0,2.3894 1.568,3.7334 1.568,1.344 4.032,2.24 2.464,0.8213 5.2266,1.6426 2.7627,0.8214 5.2267,2.016 2.464,1.1947 4.032,3.2854 1.568,2.0906 1.568,5.5253 0,3.9573 -2.1653,6.6453 -2.1654,2.688 -5.8987,4.1067 -3.6587,1.344 -8.2133,1.344 -2.7627,0 -5.6747,-0.448 -2.912,-0.448 -5.9733,-1.2693 l 0.5226,-10.0054 h 3.808 l 0.7467,7.3174 -0.672,-0.8214 q 1.7173,0.448 3.7333,0.7467 2.016,0.2987 3.7334,0.2987 2.688,0 4.928,-0.7467 2.3146,-0.8213 3.7333,-2.3147 1.4187,-1.568 1.4187,-3.8826 0,-2.464 -1.568,-3.8827 -1.4934,-1.4187 -3.9574,-2.3147 -2.464,-0.896 -5.2266,-1.6426 -2.688,-0.8214 -5.152,-2.016 -2.464,-1.2694 -4.032,-3.2854 -1.568,-2.016 -1.568,-5.5253 0,-3.808 1.9413,-6.1973 2.016,-2.464 5.2267,-3.5841 3.2853,-1.1946 7.0186,-1.1946 2.5387,0 5.6,0.5226 3.0614,0.5227 6.272,1.5681 l -0.3733,8.4373 h -3.808 l -1.12,-6.1973 0.896,1.0453 q -3.8827,-1.12 -7.3173,-1.12 -3.6587,0 -6.1227,1.568 -2.3893,1.4933 -2.3893,4.4053 z"
           id="path1959" /><path
           d="m 1122.9151,2147.4386 q -5.0026,0 -8.8853,-2.24 -3.808,-2.3147 -5.9733,-6.72 -2.1654,-4.4053 -2.1654,-10.752 0,-6.496 2.24,-11.2 2.24,-4.704 6.3467,-7.2427 4.1067,-2.6133 9.632,-2.6133 5.2267,0 8.5867,2.24 3.4346,2.1653 5.0773,6.048 1.7173,3.8827 1.7173,8.8853 0,0.8214 -0.075,1.6427 -0.075,0.8213 -0.224,2.016 h -28.7467 v -4.256 h 23.52 l -0.672,0.448 q 0.075,-3.36 -0.8213,-6.1973 -0.896,-2.8374 -3.0614,-4.5547 -2.1653,-1.7173 -5.7493,-1.7173 -3.808,0 -6.4213,2.016 -2.6134,2.016 -3.8827,5.5253 -1.2693,3.5093 -1.2693,8.1387 0,4.928 1.4186,8.512 1.4187,3.5093 4.1067,5.4506 2.7627,1.9414 6.72,1.9414 2.7627,0 6.048,-1.0454 3.2853,-1.12 6.7947,-3.36 l 2.1653,3.36 q -4.1813,2.8374 -8.3627,4.256 -4.1813,1.4187 -8.064,1.4187 z"
           id="path1961" /><path
           d="m 1145.9872,2146.7666 v -3.2107 l 6.72,-1.4933 -0.896,1.12 v -32.1067 l 0.896,1.12 -6.72,-1.4186 v -3.2107 l 10.4533,-0.5227 0.8214,7.3174 -0.8214,-0.2987 q 3.7334,-3.808 7.7654,-5.6 4.1067,-1.792 7.7653,-1.792 4.928,0 8.1387,3.0613 3.2853,2.9867 3.2107,9.3334 v 24.1173 l -0.7467,-1.0453 6.5707,1.4186 v 3.2107 h -17.3974 v -3.2107 l 6.496,-1.4186 -0.896,1.12 v -22.9227 q 0,-4.6293 -2.0906,-6.7947 -2.0907,-2.1653 -5.6,-2.1653 -2.7627,0 -6.0481,1.4933 -3.2106,1.4934 -6.3466,4.6294 l 0.5226,-1.1947 v 26.9547 l -0.7466,-1.0454 6.3466,1.344 v 3.2107 z"
           id="path1963" /></g><g
         aria-label="Essen"
         id="text32324"
         style="font-size:74.6667px;line-height:1.15;font-family:Bitter;-inkscape-font-specification:Bitter;fill:#cc965c;fill-opacity:1;stroke-width:2.21141"
         transform="translate(-2704.1151,317.20844)"><path
           d="m 1023.5585,2200.0088 h 3.7334 v 12.2454 h -37.70672 v -3.2107 l 7.39201,-1.568 -0.97067,1.344 v -45.0987 l 0.97067,1.344 -7.39201,-1.344 v -3.2107 l 12.46932,-0.3733 h 24.3414 v 11.7973 h -3.7334 l -1.344,-8.2133 1.2694,0.9707 h -21.5787 l 1.12,-1.12 v 20.9066 l -1.12,-1.12 h 19.936 v 4.48 h -19.936 l 1.12,-1.2693 v 22.2507 l -1.12,-1.12 h 22.5493 l -1.344,1.12 z"
           id="path1977" /><path
           d="m 1041.3043,2182.3875 q 0,2.3893 1.568,3.7333 1.568,1.344 4.032,2.24 2.464,0.8213 5.2267,1.6427 2.7627,0.8213 5.2267,2.016 2.464,1.1946 4.032,3.2853 1.568,2.0907 1.568,5.5253 0,3.9574 -2.1654,6.6454 -2.1653,2.688 -5.8986,4.1067 -3.6587,1.344 -8.2134,1.344 -2.7626,0 -5.6746,-0.448 -2.912,-0.448 -5.9734,-1.2694 l 0.5227,-10.0053 h 3.808 l 0.7467,7.3173 -0.672,-0.8213 q 1.7173,0.448 3.7333,0.7466 2.016,0.2987 3.7333,0.2987 2.688,0 4.928,-0.7467 2.3147,-0.8213 3.7334,-2.3146 1.4186,-1.568 1.4186,-3.8827 0,-2.464 -1.568,-3.8827 -1.4933,-1.4186 -3.9573,-2.3146 -2.464,-0.896 -5.2267,-1.6427 -2.688,-0.8213 -5.152,-2.016 -2.464,-1.2693 -4.032,-3.2853 -1.568,-2.016 -1.568,-5.5254 0,-3.808 1.9414,-6.1973 2.016,-2.464 5.2266,-3.584 3.2854,-1.1947 7.0187,-1.1947 2.5387,0 5.6,0.5227 3.0613,0.5227 6.272,1.568 l -0.3733,8.4373 h -3.808 l -1.12,-6.1973 0.896,1.0453 q -3.8827,-1.12 -7.3174,-1.12 -3.6586,0 -6.1226,1.568 -2.3894,1.4934 -2.3894,4.4054 z"
           id="path1979" /><path
           d="m 1076.9951,2182.3875 q 0,2.3893 1.568,3.7333 1.568,1.344 4.032,2.24 2.464,0.8213 5.2266,1.6427 2.7627,0.8213 5.2267,2.016 2.464,1.1946 4.032,3.2853 1.568,2.0907 1.568,5.5253 0,3.9574 -2.1653,6.6454 -2.1654,2.688 -5.8987,4.1067 -3.6587,1.344 -8.2133,1.344 -2.7627,0 -5.6747,-0.448 -2.912,-0.448 -5.9733,-1.2694 l 0.5226,-10.0053 h 3.808 l 0.7467,7.3173 -0.672,-0.8213 q 1.7173,0.448 3.7333,0.7466 2.016,0.2987 3.7334,0.2987 2.688,0 4.928,-0.7467 2.3146,-0.8213 3.7333,-2.3146 1.4187,-1.568 1.4187,-3.8827 0,-2.464 -1.568,-3.8827 -1.4934,-1.4186 -3.9574,-2.3146 -2.464,-0.896 -5.2266,-1.6427 -2.688,-0.8213 -5.152,-2.016 -2.464,-1.2693 -4.032,-3.2853 -1.568,-2.016 -1.568,-5.5254 0,-3.808 1.9413,-6.1973 2.016,-2.464 5.2267,-3.584 3.2853,-1.1947 7.0186,-1.1947 2.5387,0 5.6,0.5227 3.0614,0.5227 6.272,1.568 l -0.3733,8.4373 h -3.808 l -1.12,-6.1973 0.896,1.0453 q -3.8827,-1.12 -7.3173,-1.12 -3.6587,0 -6.1227,1.568 -2.3893,1.4934 -2.3893,4.4054 z"
           id="path1981" /><path
           d="m 1122.9151,2212.9262 q -5.0026,0 -8.8853,-2.2401 -3.808,-2.3146 -5.9733,-6.72 -2.1654,-4.4053 -2.1654,-10.752 0,-6.496 2.24,-11.2 2.24,-4.704 6.3467,-7.2426 4.1067,-2.6134 9.632,-2.6134 5.2267,0 8.5867,2.24 3.4346,2.1654 5.0773,6.048 1.7173,3.8827 1.7173,8.8854 0,0.8213 -0.075,1.6426 -0.075,0.8214 -0.224,2.016 h -28.7467 v -4.256 h 23.52 l -0.672,0.448 q 0.075,-3.36 -0.8213,-6.1973 -0.896,-2.8373 -3.0614,-4.5547 -2.1653,-1.7173 -5.7493,-1.7173 -3.808,0 -6.4213,2.016 -2.6134,2.016 -3.8827,5.5253 -1.2693,3.5094 -1.2693,8.1387 0,4.928 1.4186,8.512 1.4187,3.5093 4.1067,5.4507 2.7627,1.9413 6.72,1.9413 2.7627,0 6.048,-1.0453 3.2853,-1.12 6.7947,-3.36 l 2.1653,3.36 q -4.1813,2.8373 -8.3627,4.256 -4.1813,1.4187 -8.064,1.4187 z"
           id="path1983" /><path
           d="m 1145.9872,2212.2542 v -3.2107 l 6.72,-1.4934 -0.896,1.12 v -32.1066 l 0.896,1.12 -6.72,-1.4187 v -3.2107 l 10.4533,-0.5226 0.8214,7.3173 -0.8214,-0.2987 q 3.7334,-3.808 7.7654,-5.6 4.1067,-1.792 7.7653,-1.792 4.928,0 8.1387,3.0614 3.2853,2.9866 3.2107,9.3333 v 24.1173 l -0.7467,-1.0453 6.5707,1.4187 v 3.2107 h -17.3974 v -3.2107 l 6.496,-1.4187 -0.896,1.12 v -22.9227 q 0,-4.6293 -2.0906,-6.7946 -2.0907,-2.1654 -5.6,-2.1654 -2.7627,0 -6.0481,1.4934 -3.2106,1.4933 -6.3466,4.6293 l 0.5226,-1.1947 v 26.9547 l -0.7466,-1.0453 6.3466,1.344 v 3.2107 z"
           id="path1985" /></g><g
         aria-label="Essen"
         id="text32332"
         style="font-size:74.6667px;line-height:1.15;font-family:Bitter;-inkscape-font-specification:Bitter;fill:#cc965c;fill-opacity:1;stroke-width:2.21141"
         transform="translate(-2704.1151,317.20844)"><path
           d="m 1023.5585,2264.1204 h 3.7334 v 12.2453 h -37.70672 v -3.2106 l 7.39201,-1.568 -0.97067,1.344 v -45.0987 l 0.97067,1.344 -7.39201,-1.344 v -3.2107 l 12.46932,-0.3733 h 24.3414 v 11.7973 h -3.7334 l -1.344,-8.2133 1.2694,0.9706 h -21.5787 l 1.12,-1.12 v 20.9067 l -1.12,-1.12 h 19.936 v 4.48 h -19.936 l 1.12,-1.2693 v 22.2507 l -1.12,-1.12 h 22.5493 l -1.344,1.12 z"
           id="path1999" /><path
           d="m 1041.3043,2246.499 q 0,2.3894 1.568,3.7334 1.568,1.344 4.032,2.24 2.464,0.8213 5.2267,1.6426 2.7627,0.8214 5.2267,2.016 2.464,1.1947 4.032,3.2854 1.568,2.0906 1.568,5.5253 0,3.9574 -2.1654,6.6454 -2.1653,2.688 -5.8986,4.1066 -3.6587,1.344 -8.2134,1.344 -2.7626,0 -5.6746,-0.448 -2.912,-0.448 -5.9734,-1.2693 l 0.5227,-10.0053 h 3.808 l 0.7467,7.3173 -0.672,-0.8213 q 1.7173,0.448 3.7333,0.7466 2.016,0.2987 3.7333,0.2987 2.688,0 4.928,-0.7467 2.3147,-0.8213 3.7334,-2.3146 1.4186,-1.568 1.4186,-3.8827 0,-2.464 -1.568,-3.8827 -1.4933,-1.4187 -3.9573,-2.3147 -2.464,-0.896 -5.2267,-1.6426 -2.688,-0.8214 -5.152,-2.016 -2.464,-1.2694 -4.032,-3.2854 -1.568,-2.016 -1.568,-5.5253 0,-3.808 1.9414,-6.1973 2.016,-2.464 5.2266,-3.584 3.2854,-1.1947 7.0187,-1.1947 2.5387,0 5.6,0.5227 3.0613,0.5226 6.272,1.568 l -0.3733,8.4373 h -3.808 l -1.12,-6.1973 0.896,1.0453 q -3.8827,-1.12 -7.3174,-1.12 -3.6586,0 -6.1226,1.568 -2.3894,1.4933 -2.3894,4.4053 z"
           id="path2001" /><path
           d="m 1076.9951,2246.499 q 0,2.3894 1.568,3.7334 1.568,1.344 4.032,2.24 2.464,0.8213 5.2266,1.6426 2.7627,0.8214 5.2267,2.016 2.464,1.1947 4.032,3.2854 1.568,2.0906 1.568,5.5253 0,3.9574 -2.1653,6.6454 -2.1654,2.688 -5.8987,4.1066 -3.6587,1.344 -8.2133,1.344 -2.7627,0 -5.6747,-0.448 -2.912,-0.448 -5.9733,-1.2693 l 0.5226,-10.0053 h 3.808 l 0.7467,7.3173 -0.672,-0.8213 q 1.7173,0.448 3.7333,0.7466 2.016,0.2987 3.7334,0.2987 2.688,0 4.928,-0.7467 2.3146,-0.8213 3.7333,-2.3146 1.4187,-1.568 1.4187,-3.8827 0,-2.464 -1.568,-3.8827 -1.4934,-1.4187 -3.9574,-2.3147 -2.464,-0.896 -5.2266,-1.6426 -2.688,-0.8214 -5.152,-2.016 -2.464,-1.2694 -4.032,-3.2854 -1.568,-2.016 -1.568,-5.5253 0,-3.808 1.9413,-6.1973 2.016,-2.464 5.2267,-3.584 3.2853,-1.1947 7.0186,-1.1947 2.5387,0 5.6,0.5227 3.0614,0.5226 6.272,1.568 l -0.3733,8.4373 h -3.808 l -1.12,-6.1973 0.896,1.0453 q -3.8827,-1.12 -7.3173,-1.12 -3.6587,0 -6.1227,1.568 -2.3893,1.4933 -2.3893,4.4053 z"
           id="path2003" /><path
           d="m 1122.9151,2277.0377 q -5.0026,0 -8.8853,-2.24 -3.808,-2.3146 -5.9733,-6.72 -2.1654,-4.4053 -2.1654,-10.752 0,-6.496 2.24,-11.2 2.24,-4.704 6.3467,-7.2427 4.1067,-2.6133 9.632,-2.6133 5.2267,0 8.5867,2.24 3.4346,2.1653 5.0773,6.048 1.7173,3.8827 1.7173,8.8853 0,0.8214 -0.075,1.6427 -0.075,0.8213 -0.224,2.016 h -28.7467 v -4.256 h 23.52 l -0.672,0.448 q 0.075,-3.36 -0.8213,-6.1973 -0.896,-2.8374 -3.0614,-4.5547 -2.1653,-1.7173 -5.7493,-1.7173 -3.808,0 -6.4213,2.016 -2.6134,2.016 -3.8827,5.5253 -1.2693,3.5093 -1.2693,8.1387 0,4.928 1.4186,8.512 1.4187,3.5093 4.1067,5.4507 2.7627,1.9413 6.72,1.9413 2.7627,0 6.048,-1.0453 3.2853,-1.12 6.7947,-3.36 l 2.1653,3.36 q -4.1813,2.8373 -8.3627,4.256 -4.1813,1.4186 -8.064,1.4186 z"
           id="path2005" /><path
           d="m 1145.9872,2276.3657 v -3.2106 l 6.72,-1.4934 -0.896,1.12 v -32.1067 l 0.896,1.12 -6.72,-1.4186 v -3.2107 l 10.4533,-0.5227 0.8214,7.3174 -0.8214,-0.2987 q 3.7334,-3.808 7.7654,-5.6 4.1067,-1.792 7.7653,-1.792 4.928,0 8.1387,3.0613 3.2853,2.9867 3.2107,9.3334 v 24.1173 l -0.7467,-1.0453 6.5707,1.4187 v 3.2106 h -17.3974 v -3.2106 l 6.496,-1.4187 -0.896,1.12 v -22.9227 q 0,-4.6293 -2.0906,-6.7947 -2.0907,-2.1653 -5.6,-2.1653 -2.7627,0 -6.0481,1.4933 -3.2106,1.4934 -6.3466,4.6294 l 0.5226,-1.1947 v 26.9547 l -0.7466,-1.0453 6.3466,1.344 v 3.2106 z"
           id="path2007" /></g></g><g
       id="g5945"
       transform="translate(-7.341772)"><g
         aria-label="Essen"
         id="text32304"
         style="font-size:74.6667px;line-height:1.15;font-family:Bitter;-inkscape-font-specification:Bitter;fill:#cc965c;fill-opacity:1;stroke-width:2.21141"
         transform="translate(-2704.1151,317.20844)"><path
           d="m 1233.2534,2003.6004 h 3.7333 v 12.2453 H 1199.28 v -3.2107 l 7.392,-1.568 -0.9707,1.344 v -45.0987 l 0.9707,1.344 -7.392,-1.344 v -3.2106 l 12.4693,-0.3734 h 24.3414 v 11.7974 h -3.7333 l -1.344,-8.2134 1.2693,0.9707 h -21.5787 l 1.12,-1.12 v 20.9067 l -1.12,-1.12 h 19.936 v 4.48 h -19.936 l 1.12,-1.2693 v 22.2506 l -1.12,-1.12 h 22.5494 l -1.344,1.12 z"
           id="path1922" /><path
           d="m 1250.9992,1985.979 q 0,2.3894 1.568,3.7334 1.568,1.344 4.032,2.24 2.464,0.8213 5.2266,1.6426 2.7627,0.8214 5.2267,2.016 2.464,1.1947 4.032,3.2854 1.568,2.0906 1.568,5.5253 0,3.9573 -2.1653,6.6453 -2.1654,2.688 -5.8987,4.1067 -3.6587,1.344 -8.2133,1.344 -2.7627,0 -5.6747,-0.448 -2.912,-0.448 -5.9733,-1.2693 l 0.5226,-10.0054 h 3.808 l 0.7467,7.3174 -0.672,-0.8214 q 1.7173,0.448 3.7333,0.7467 2.016,0.2987 3.7334,0.2987 2.688,0 4.928,-0.7467 2.3146,-0.8213 3.7333,-2.3147 1.4187,-1.568 1.4187,-3.8826 0,-2.464 -1.568,-3.8827 -1.4934,-1.4187 -3.9574,-2.3147 -2.464,-0.896 -5.2266,-1.6426 -2.688,-0.8214 -5.152,-2.016 -2.464,-1.2694 -4.032,-3.2854 -1.568,-2.016 -1.568,-5.5253 0,-3.808 1.9413,-6.1973 2.016,-2.464 5.2267,-3.584 3.2853,-1.1947 7.0186,-1.1947 2.5387,0 5.6,0.5227 3.0614,0.5226 6.272,1.568 l -0.3733,8.4373 h -3.808 l -1.12,-6.1973 0.896,1.0453 q -3.8827,-1.12 -7.3173,-1.12 -3.6587,0 -6.1227,1.568 -2.3893,1.4933 -2.3893,4.4053 z"
           id="path1924" /><path
           d="m 1286.6899,1985.979 q 0,2.3894 1.568,3.7334 1.568,1.344 4.032,2.24 2.464,0.8213 5.2267,1.6426 2.7626,0.8214 5.2266,2.016 2.464,1.1947 4.032,3.2854 1.568,2.0906 1.568,5.5253 0,3.9573 -2.1653,6.6453 -2.1653,2.688 -5.8987,4.1067 -3.6586,1.344 -8.2133,1.344 -2.7627,0 -5.6747,-0.448 -2.912,-0.448 -5.9733,-1.2693 l 0.5227,-10.0054 h 3.808 l 0.7466,7.3174 -0.672,-0.8214 q 1.7174,0.448 3.7334,0.7467 2.016,0.2987 3.7333,0.2987 2.688,0 4.928,-0.7467 2.3147,-0.8213 3.7333,-2.3147 1.4187,-1.568 1.4187,-3.8826 0,-2.464 -1.568,-3.8827 -1.4933,-1.4187 -3.9573,-2.3147 -2.464,-0.896 -5.2267,-1.6426 -2.688,-0.8214 -5.152,-2.016 -2.464,-1.2694 -4.032,-3.2854 -1.568,-2.016 -1.568,-5.5253 0,-3.808 1.9413,-6.1973 2.016,-2.464 5.2267,-3.584 3.2853,-1.1947 7.0187,-1.1947 2.5386,0 5.6,0.5227 3.0613,0.5226 6.272,1.568 l -0.3734,8.4373 h -3.808 l -1.12,-6.1973 0.896,1.0453 q -3.8826,-1.12 -7.3173,-1.12 -3.6587,0 -6.1227,1.568 -2.3893,1.4933 -2.3893,4.4053 z"
           id="path1926" /><path
           d="m 1332.61,2016.5177 q -5.0027,0 -8.8854,-2.24 -3.808,-2.3147 -5.9733,-6.72 -2.1654,-4.4053 -2.1654,-10.752 0,-6.496 2.24,-11.2 2.24,-4.704 6.3467,-7.2427 4.1067,-2.6133 9.632,-2.6133 5.2267,0 8.5867,2.24 3.4347,2.1653 5.0773,6.048 1.7174,3.8827 1.7174,8.8853 0,0.8214 -0.075,1.6427 -0.075,0.8213 -0.224,2.016 h -28.7467 v -4.256 h 23.52 l -0.672,0.448 q 0.075,-3.36 -0.8213,-6.1973 -0.896,-2.8374 -3.0613,-4.5547 -2.1654,-1.7173 -5.7494,-1.7173 -3.808,0 -6.4213,2.016 -2.6133,2.016 -3.8827,5.5253 -1.2693,3.5093 -1.2693,8.1387 0,4.928 1.4187,8.512 1.4186,3.5093 4.1066,5.4506 2.7627,1.9414 6.72,1.9414 2.7627,0 6.048,-1.0454 3.2854,-1.12 6.7947,-3.36 l 2.1653,3.36 q -4.1813,2.8374 -8.3626,4.256 -4.1814,1.4187 -8.064,1.4187 z"
           id="path1928" /><path
           d="m 1355.682,2015.8457 v -3.2107 l 6.72,-1.4933 -0.896,1.12 v -32.1067 l 0.896,1.12 -6.72,-1.4186 v -3.2107 l 10.4534,-0.5227 0.8213,7.3174 -0.8213,-0.2987 q 3.7333,-3.808 7.7653,-5.6 4.1067,-1.792 7.7653,-1.792 4.928,0 8.1387,3.0613 3.2853,2.9867 3.2107,9.3334 v 24.1173 l -0.7467,-1.0453 6.5707,1.4186 v 3.2107 h -17.3974 v -3.2107 l 6.496,-1.4186 -0.896,1.12 v -22.9227 q 0,-4.6293 -2.0906,-6.7947 -2.0907,-2.1653 -5.6,-2.1653 -2.7627,0 -6.048,1.4933 -3.2107,1.4934 -6.3467,4.6294 l 0.5227,-1.1947 v 26.9547 l -0.7467,-1.0454 6.3467,1.344 v 3.2107 z"
           id="path1930" /></g><g
         aria-label="Essen"
         id="text32312"
         style="font-size:74.6667px;line-height:1.15;font-family:Bitter;-inkscape-font-specification:Bitter;fill:#cc965c;fill-opacity:1;stroke-width:2.21141"
         transform="translate(-2704.1151,317.20844)"><path
           d="m 1233.2534,2069.0879 h 3.7333 v 12.2454 H 1199.28 v -3.2107 l 7.392,-1.568 -0.9707,1.344 v -45.0987 l 0.9707,1.344 -7.392,-1.344 v -3.2107 l 12.4693,-0.3733 h 24.3414 v 11.7973 h -3.7333 l -1.344,-8.2133 1.2693,0.9707 h -21.5787 l 1.12,-1.12 v 20.9066 l -1.12,-1.12 h 19.936 v 4.48 h -19.936 l 1.12,-1.2693 v 22.2507 l -1.12,-1.12 h 22.5494 l -1.344,1.12 z"
           id="path1944" /><path
           d="m 1250.9992,2051.4666 q 0,2.3893 1.568,3.7333 1.568,1.344 4.032,2.24 2.464,0.8213 5.2266,1.6427 2.7627,0.8213 5.2267,2.016 2.464,1.1946 4.032,3.2853 1.568,2.0907 1.568,5.5253 0,3.9574 -2.1653,6.6454 -2.1654,2.688 -5.8987,4.1067 -3.6587,1.344 -8.2133,1.344 -2.7627,0 -5.6747,-0.448 -2.912,-0.448 -5.9733,-1.2694 l 0.5226,-10.0053 h 3.808 l 0.7467,7.3173 -0.672,-0.8213 q 1.7173,0.448 3.7333,0.7467 2.016,0.2986 3.7334,0.2986 2.688,0 4.928,-0.7467 2.3146,-0.8213 3.7333,-2.3146 1.4187,-1.568 1.4187,-3.8827 0,-2.464 -1.568,-3.8827 -1.4934,-1.4186 -3.9574,-2.3146 -2.464,-0.896 -5.2266,-1.6427 -2.688,-0.8213 -5.152,-2.016 -2.464,-1.2693 -4.032,-3.2853 -1.568,-2.016 -1.568,-5.5254 0,-3.808 1.9413,-6.1973 2.016,-2.464 5.2267,-3.584 3.2853,-1.1947 7.0186,-1.1947 2.5387,0 5.6,0.5227 3.0614,0.5227 6.272,1.568 l -0.3733,8.4373 h -3.808 l -1.12,-6.1973 0.896,1.0453 q -3.8827,-1.12 -7.3173,-1.12 -3.6587,0 -6.1227,1.568 -2.3893,1.4934 -2.3893,4.4054 z"
           id="path1946" /><path
           d="m 1286.6899,2051.4666 q 0,2.3893 1.568,3.7333 1.568,1.344 4.032,2.24 2.464,0.8213 5.2267,1.6427 2.7626,0.8213 5.2266,2.016 2.464,1.1946 4.032,3.2853 1.568,2.0907 1.568,5.5253 0,3.9574 -2.1653,6.6454 -2.1653,2.688 -5.8987,4.1067 -3.6586,1.344 -8.2133,1.344 -2.7627,0 -5.6747,-0.448 -2.912,-0.448 -5.9733,-1.2694 l 0.5227,-10.0053 h 3.808 l 0.7466,7.3173 -0.672,-0.8213 q 1.7174,0.448 3.7334,0.7467 2.016,0.2986 3.7333,0.2986 2.688,0 4.928,-0.7467 2.3147,-0.8213 3.7333,-2.3146 1.4187,-1.568 1.4187,-3.8827 0,-2.464 -1.568,-3.8827 -1.4933,-1.4186 -3.9573,-2.3146 -2.464,-0.896 -5.2267,-1.6427 -2.688,-0.8213 -5.152,-2.016 -2.464,-1.2693 -4.032,-3.2853 -1.568,-2.016 -1.568,-5.5254 0,-3.808 1.9413,-6.1973 2.016,-2.464 5.2267,-3.584 3.2853,-1.1947 7.0187,-1.1947 2.5386,0 5.6,0.5227 3.0613,0.5227 6.272,1.568 l -0.3734,8.4373 h -3.808 l -1.12,-6.1973 0.896,1.0453 q -3.8826,-1.12 -7.3173,-1.12 -3.6587,0 -6.1227,1.568 -2.3893,1.4934 -2.3893,4.4054 z"
           id="path1948" /><path
           d="m 1332.61,2082.0053 q -5.0027,0 -8.8854,-2.24 -3.808,-2.3147 -5.9733,-6.7201 -2.1654,-4.4053 -2.1654,-10.752 0,-6.496 2.24,-11.2 2.24,-4.704 6.3467,-7.2426 4.1067,-2.6134 9.632,-2.6134 5.2267,0 8.5867,2.24 3.4347,2.1654 5.0773,6.048 1.7174,3.8827 1.7174,8.8854 0,0.8213 -0.075,1.6426 -0.075,0.8214 -0.224,2.016 h -28.7467 v -4.256 h 23.52 l -0.672,0.448 q 0.075,-3.36 -0.8213,-6.1973 -0.896,-2.8373 -3.0613,-4.5547 -2.1654,-1.7173 -5.7494,-1.7173 -3.808,0 -6.4213,2.016 -2.6133,2.016 -3.8827,5.5253 -1.2693,3.5094 -1.2693,8.1387 0,4.928 1.4187,8.512 1.4186,3.5093 4.1066,5.4507 2.7627,1.9413 6.72,1.9413 2.7627,0 6.048,-1.0453 3.2854,-1.12 6.7947,-3.36 l 2.1653,3.36 q -4.1813,2.8373 -8.3626,4.256 -4.1814,1.4187 -8.064,1.4187 z"
           id="path1950" /><path
           d="m 1355.682,2081.3333 v -3.2107 l 6.72,-1.4934 -0.896,1.1201 v -32.1067 l 0.896,1.12 -6.72,-1.4187 v -3.2107 l 10.4534,-0.5226 0.8213,7.3173 -0.8213,-0.2987 q 3.7333,-3.808 7.7653,-5.6 4.1067,-1.792 7.7653,-1.792 4.928,0 8.1387,3.0614 3.2853,2.9866 3.2107,9.3333 v 24.1174 l -0.7467,-1.0454 6.5707,1.4187 v 3.2107 h -17.3974 v -3.2107 l 6.496,-1.4187 -0.896,1.12 v -22.9227 q 0,-4.6293 -2.0906,-6.7946 -2.0907,-2.1654 -5.6,-2.1654 -2.7627,0 -6.048,1.4934 -3.2107,1.4933 -6.3467,4.6293 l 0.5227,-1.1947 v 26.9547 l -0.7467,-1.0453 6.3467,1.344 v 3.2107 z"
           id="path1952" /></g><g
         aria-label="Essen"
         id="text32320"
         style="font-size:74.6667px;line-height:1.15;font-family:Bitter;-inkscape-font-specification:Bitter;fill:#cc965c;fill-opacity:1;stroke-width:2.21141"
         transform="translate(-2704.1151,317.20844)"><path
           d="m 1233.2534,2134.5213 h 3.7333 v 12.2453 H 1199.28 v -3.2107 l 7.392,-1.568 -0.9707,1.344 v -45.0987 l 0.9707,1.344 -7.392,-1.344 v -3.2106 l 12.4693,-0.3734 h 24.3414 v 11.7974 h -3.7333 l -1.344,-8.2134 1.2693,0.9707 h -21.5787 l 1.12,-1.12 v 20.9067 l -1.12,-1.12 h 19.936 v 4.48 h -19.936 l 1.12,-1.2693 v 22.2506 l -1.12,-1.12 h 22.5494 l -1.344,1.12 z"
           id="path1966" /><path
           d="m 1250.9992,2116.8999 q 0,2.3894 1.568,3.7334 1.568,1.344 4.032,2.24 2.464,0.8213 5.2266,1.6426 2.7627,0.8214 5.2267,2.016 2.464,1.1947 4.032,3.2854 1.568,2.0906 1.568,5.5253 0,3.9573 -2.1653,6.6453 -2.1654,2.688 -5.8987,4.1067 -3.6587,1.344 -8.2133,1.344 -2.7627,0 -5.6747,-0.448 -2.912,-0.448 -5.9733,-1.2693 l 0.5226,-10.0054 h 3.808 l 0.7467,7.3174 -0.672,-0.8214 q 1.7173,0.448 3.7333,0.7467 2.016,0.2987 3.7334,0.2987 2.688,0 4.928,-0.7467 2.3146,-0.8213 3.7333,-2.3147 1.4187,-1.568 1.4187,-3.8826 0,-2.464 -1.568,-3.8827 -1.4934,-1.4187 -3.9574,-2.3147 -2.464,-0.896 -5.2266,-1.6426 -2.688,-0.8214 -5.152,-2.016 -2.464,-1.2694 -4.032,-3.2854 -1.568,-2.016 -1.568,-5.5253 0,-3.808 1.9413,-6.1973 2.016,-2.464 5.2267,-3.5841 3.2853,-1.1946 7.0186,-1.1946 2.5387,0 5.6,0.5226 3.0614,0.5227 6.272,1.5681 l -0.3733,8.4373 h -3.808 l -1.12,-6.1973 0.896,1.0453 q -3.8827,-1.12 -7.3173,-1.12 -3.6587,0 -6.1227,1.568 -2.3893,1.4933 -2.3893,4.4053 z"
           id="path1968" /><path
           d="m 1286.6899,2116.8999 q 0,2.3894 1.568,3.7334 1.568,1.344 4.032,2.24 2.464,0.8213 5.2267,1.6426 2.7626,0.8214 5.2266,2.016 2.464,1.1947 4.032,3.2854 1.568,2.0906 1.568,5.5253 0,3.9573 -2.1653,6.6453 -2.1653,2.688 -5.8987,4.1067 -3.6586,1.344 -8.2133,1.344 -2.7627,0 -5.6747,-0.448 -2.912,-0.448 -5.9733,-1.2693 l 0.5227,-10.0054 h 3.808 l 0.7466,7.3174 -0.672,-0.8214 q 1.7174,0.448 3.7334,0.7467 2.016,0.2987 3.7333,0.2987 2.688,0 4.928,-0.7467 2.3147,-0.8213 3.7333,-2.3147 1.4187,-1.568 1.4187,-3.8826 0,-2.464 -1.568,-3.8827 -1.4933,-1.4187 -3.9573,-2.3147 -2.464,-0.896 -5.2267,-1.6426 -2.688,-0.8214 -5.152,-2.016 -2.464,-1.2694 -4.032,-3.2854 -1.568,-2.016 -1.568,-5.5253 0,-3.808 1.9413,-6.1973 2.016,-2.464 5.2267,-3.5841 3.2853,-1.1946 7.0187,-1.1946 2.5386,0 5.6,0.5226 3.0613,0.5227 6.272,1.5681 l -0.3734,8.4373 h -3.808 l -1.12,-6.1973 0.896,1.0453 q -3.8826,-1.12 -7.3173,-1.12 -3.6587,0 -6.1227,1.568 -2.3893,1.4933 -2.3893,4.4053 z"
           id="path1970" /><path
           d="m 1332.61,2147.4386 q -5.0027,0 -8.8854,-2.24 -3.808,-2.3147 -5.9733,-6.72 -2.1654,-4.4053 -2.1654,-10.752 0,-6.496 2.24,-11.2 2.24,-4.704 6.3467,-7.2427 4.1067,-2.6133 9.632,-2.6133 5.2267,0 8.5867,2.24 3.4347,2.1653 5.0773,6.048 1.7174,3.8827 1.7174,8.8853 0,0.8214 -0.075,1.6427 -0.075,0.8213 -0.224,2.016 h -28.7467 v -4.256 h 23.52 l -0.672,0.448 q 0.075,-3.36 -0.8213,-6.1973 -0.896,-2.8374 -3.0613,-4.5547 -2.1654,-1.7173 -5.7494,-1.7173 -3.808,0 -6.4213,2.016 -2.6133,2.016 -3.8827,5.5253 -1.2693,3.5093 -1.2693,8.1387 0,4.928 1.4187,8.512 1.4186,3.5093 4.1066,5.4506 2.7627,1.9414 6.72,1.9414 2.7627,0 6.048,-1.0454 3.2854,-1.12 6.7947,-3.36 l 2.1653,3.36 q -4.1813,2.8374 -8.3626,4.256 -4.1814,1.4187 -8.064,1.4187 z"
           id="path1972" /><path
           d="m 1355.682,2146.7666 v -3.2107 l 6.72,-1.4933 -0.896,1.12 v -32.1067 l 0.896,1.12 -6.72,-1.4186 v -3.2107 l 10.4534,-0.5227 0.8213,7.3174 -0.8213,-0.2987 q 3.7333,-3.808 7.7653,-5.6 4.1067,-1.792 7.7653,-1.792 4.928,0 8.1387,3.0613 3.2853,2.9867 3.2107,9.3334 v 24.1173 l -0.7467,-1.0453 6.5707,1.4186 v 3.2107 h -17.3974 v -3.2107 l 6.496,-1.4186 -0.896,1.12 v -22.9227 q 0,-4.6293 -2.0906,-6.7947 -2.0907,-2.1653 -5.6,-2.1653 -2.7627,0 -6.048,1.4933 -3.2107,1.4934 -6.3467,4.6294 l 0.5227,-1.1947 v 26.9547 l -0.7467,-1.0454 6.3467,1.344 v 3.2107 z"
           id="path1974" /></g><g
         aria-label="Essen"
         id="text32328"
         style="font-size:74.6667px;line-height:1.15;font-family:Bitter;-inkscape-font-specification:Bitter;fill:#cc965c;fill-opacity:1;stroke-width:2.21141"
         transform="translate(-2704.1151,317.20844)"><path
           d="m 1233.2534,2200.0088 h 3.7333 v 12.2454 H 1199.28 v -3.2107 l 7.392,-1.568 -0.9707,1.344 v -45.0987 l 0.9707,1.344 -7.392,-1.344 v -3.2107 l 12.4693,-0.3733 h 24.3414 v 11.7973 h -3.7333 l -1.344,-8.2133 1.2693,0.9707 h -21.5787 l 1.12,-1.12 v 20.9066 l -1.12,-1.12 h 19.936 v 4.48 h -19.936 l 1.12,-1.2693 v 22.2507 l -1.12,-1.12 h 22.5494 l -1.344,1.12 z"
           id="path1988" /><path
           d="m 1250.9992,2182.3875 q 0,2.3893 1.568,3.7333 1.568,1.344 4.032,2.24 2.464,0.8213 5.2266,1.6427 2.7627,0.8213 5.2267,2.016 2.464,1.1946 4.032,3.2853 1.568,2.0907 1.568,5.5253 0,3.9574 -2.1653,6.6454 -2.1654,2.688 -5.8987,4.1067 -3.6587,1.344 -8.2133,1.344 -2.7627,0 -5.6747,-0.448 -2.912,-0.448 -5.9733,-1.2694 l 0.5226,-10.0053 h 3.808 l 0.7467,7.3173 -0.672,-0.8213 q 1.7173,0.448 3.7333,0.7466 2.016,0.2987 3.7334,0.2987 2.688,0 4.928,-0.7467 2.3146,-0.8213 3.7333,-2.3146 1.4187,-1.568 1.4187,-3.8827 0,-2.464 -1.568,-3.8827 -1.4934,-1.4186 -3.9574,-2.3146 -2.464,-0.896 -5.2266,-1.6427 -2.688,-0.8213 -5.152,-2.016 -2.464,-1.2693 -4.032,-3.2853 -1.568,-2.016 -1.568,-5.5254 0,-3.808 1.9413,-6.1973 2.016,-2.464 5.2267,-3.584 3.2853,-1.1947 7.0186,-1.1947 2.5387,0 5.6,0.5227 3.0614,0.5227 6.272,1.568 l -0.3733,8.4373 h -3.808 l -1.12,-6.1973 0.896,1.0453 q -3.8827,-1.12 -7.3173,-1.12 -3.6587,0 -6.1227,1.568 -2.3893,1.4934 -2.3893,4.4054 z"
           id="path1990" /><path
           d="m 1286.6899,2182.3875 q 0,2.3893 1.568,3.7333 1.568,1.344 4.032,2.24 2.464,0.8213 5.2267,1.6427 2.7626,0.8213 5.2266,2.016 2.464,1.1946 4.032,3.2853 1.568,2.0907 1.568,5.5253 0,3.9574 -2.1653,6.6454 -2.1653,2.688 -5.8987,4.1067 -3.6586,1.344 -8.2133,1.344 -2.7627,0 -5.6747,-0.448 -2.912,-0.448 -5.9733,-1.2694 l 0.5227,-10.0053 h 3.808 l 0.7466,7.3173 -0.672,-0.8213 q 1.7174,0.448 3.7334,0.7466 2.016,0.2987 3.7333,0.2987 2.688,0 4.928,-0.7467 2.3147,-0.8213 3.7333,-2.3146 1.4187,-1.568 1.4187,-3.8827 0,-2.464 -1.568,-3.8827 -1.4933,-1.4186 -3.9573,-2.3146 -2.464,-0.896 -5.2267,-1.6427 -2.688,-0.8213 -5.152,-2.016 -2.464,-1.2693 -4.032,-3.2853 -1.568,-2.016 -1.568,-5.5254 0,-3.808 1.9413,-6.1973 2.016,-2.464 5.2267,-3.584 3.2853,-1.1947 7.0187,-1.1947 2.5386,0 5.6,0.5227 3.0613,0.5227 6.272,1.568 l -0.3734,8.4373 h -3.808 l -1.12,-6.1973 0.896,1.0453 q -3.8826,-1.12 -7.3173,-1.12 -3.6587,0 -6.1227,1.568 -2.3893,1.4934 -2.3893,4.4054 z"
           id="path1992" /><path
           d="m 1332.61,2212.9262 q -5.0027,0 -8.8854,-2.2401 -3.808,-2.3146 -5.9733,-6.72 -2.1654,-4.4053 -2.1654,-10.752 0,-6.496 2.24,-11.2 2.24,-4.704 6.3467,-7.2426 4.1067,-2.6134 9.632,-2.6134 5.2267,0 8.5867,2.24 3.4347,2.1654 5.0773,6.048 1.7174,3.8827 1.7174,8.8854 0,0.8213 -0.075,1.6426 -0.075,0.8214 -0.224,2.016 h -28.7467 v -4.256 h 23.52 l -0.672,0.448 q 0.075,-3.36 -0.8213,-6.1973 -0.896,-2.8373 -3.0613,-4.5547 -2.1654,-1.7173 -5.7494,-1.7173 -3.808,0 -6.4213,2.016 -2.6133,2.016 -3.8827,5.5253 -1.2693,3.5094 -1.2693,8.1387 0,4.928 1.4187,8.512 1.4186,3.5093 4.1066,5.4507 2.7627,1.9413 6.72,1.9413 2.7627,0 6.048,-1.0453 3.2854,-1.12 6.7947,-3.36 l 2.1653,3.36 q -4.1813,2.8373 -8.3626,4.256 -4.1814,1.4187 -8.064,1.4187 z"
           id="path1994" /><path
           d="m 1355.682,2212.2542 v -3.2107 l 6.72,-1.4934 -0.896,1.12 v -32.1066 l 0.896,1.12 -6.72,-1.4187 v -3.2107 l 10.4534,-0.5226 0.8213,7.3173 -0.8213,-0.2987 q 3.7333,-3.808 7.7653,-5.6 4.1067,-1.792 7.7653,-1.792 4.928,0 8.1387,3.0614 3.2853,2.9866 3.2107,9.3333 v 24.1173 l -0.7467,-1.0453 6.5707,1.4187 v 3.2107 h -17.3974 v -3.2107 l 6.496,-1.4187 -0.896,1.12 v -22.9227 q 0,-4.6293 -2.0906,-6.7946 -2.0907,-2.1654 -5.6,-2.1654 -2.7627,0 -6.048,1.4934 -3.2107,1.4933 -6.3467,4.6293 l 0.5227,-1.1947 v 26.9547 l -0.7467,-1.0453 6.3467,1.344 v 3.2107 z"
           id="path1996" /></g><g
         aria-label="Essen"
         id="text32336"
         style="font-size:74.6667px;line-height:1.15;font-family:Bitter;-inkscape-font-specification:Bitter;fill:#cc965c;fill-opacity:1;stroke-width:2.21141"
         transform="translate(-2704.1151,317.20844)"><path
           d="m 1233.2534,2264.1204 h 3.7333 v 12.2453 H 1199.28 v -3.2106 l 7.392,-1.568 -0.9707,1.344 v -45.0987 l 0.9707,1.344 -7.392,-1.344 v -3.2107 l 12.4693,-0.3733 h 24.3414 v 11.7973 h -3.7333 l -1.344,-8.2133 1.2693,0.9706 h -21.5787 l 1.12,-1.12 v 20.9067 l -1.12,-1.12 h 19.936 v 4.48 h -19.936 l 1.12,-1.2693 v 22.2507 l -1.12,-1.12 h 22.5494 l -1.344,1.12 z"
           id="path2010" /><path
           d="m 1250.9992,2246.499 q 0,2.3894 1.568,3.7334 1.568,1.344 4.032,2.24 2.464,0.8213 5.2266,1.6426 2.7627,0.8214 5.2267,2.016 2.464,1.1947 4.032,3.2854 1.568,2.0906 1.568,5.5253 0,3.9574 -2.1653,6.6454 -2.1654,2.688 -5.8987,4.1066 -3.6587,1.344 -8.2133,1.344 -2.7627,0 -5.6747,-0.448 -2.912,-0.448 -5.9733,-1.2693 l 0.5226,-10.0053 h 3.808 l 0.7467,7.3173 -0.672,-0.8213 q 1.7173,0.448 3.7333,0.7466 2.016,0.2987 3.7334,0.2987 2.688,0 4.928,-0.7467 2.3146,-0.8213 3.7333,-2.3146 1.4187,-1.568 1.4187,-3.8827 0,-2.464 -1.568,-3.8827 -1.4934,-1.4187 -3.9574,-2.3147 -2.464,-0.896 -5.2266,-1.6426 -2.688,-0.8214 -5.152,-2.016 -2.464,-1.2694 -4.032,-3.2854 -1.568,-2.016 -1.568,-5.5253 0,-3.808 1.9413,-6.1973 2.016,-2.464 5.2267,-3.584 3.2853,-1.1947 7.0186,-1.1947 2.5387,0 5.6,0.5227 3.0614,0.5226 6.272,1.568 l -0.3733,8.4373 h -3.808 l -1.12,-6.1973 0.896,1.0453 q -3.8827,-1.12 -7.3173,-1.12 -3.6587,0 -6.1227,1.568 -2.3893,1.4933 -2.3893,4.4053 z"
           id="path2012" /><path
           d="m 1286.6899,2246.499 q 0,2.3894 1.568,3.7334 1.568,1.344 4.032,2.24 2.464,0.8213 5.2267,1.6426 2.7626,0.8214 5.2266,2.016 2.464,1.1947 4.032,3.2854 1.568,2.0906 1.568,5.5253 0,3.9574 -2.1653,6.6454 -2.1653,2.688 -5.8987,4.1066 -3.6586,1.344 -8.2133,1.344 -2.7627,0 -5.6747,-0.448 -2.912,-0.448 -5.9733,-1.2693 l 0.5227,-10.0053 h 3.808 l 0.7466,7.3173 -0.672,-0.8213 q 1.7174,0.448 3.7334,0.7466 2.016,0.2987 3.7333,0.2987 2.688,0 4.928,-0.7467 2.3147,-0.8213 3.7333,-2.3146 1.4187,-1.568 1.4187,-3.8827 0,-2.464 -1.568,-3.8827 -1.4933,-1.4187 -3.9573,-2.3147 -2.464,-0.896 -5.2267,-1.6426 -2.688,-0.8214 -5.152,-2.016 -2.464,-1.2694 -4.032,-3.2854 -1.568,-2.016 -1.568,-5.5253 0,-3.808 1.9413,-6.1973 2.016,-2.464 5.2267,-3.584 3.2853,-1.1947 7.0187,-1.1947 2.5386,0 5.6,0.5227 3.0613,0.5226 6.272,1.568 l -0.3734,8.4373 h -3.808 l -1.12,-6.1973 0.896,1.0453 q -3.8826,-1.12 -7.3173,-1.12 -3.6587,0 -6.1227,1.568 -2.3893,1.4933 -2.3893,4.4053 z"
           id="path2014" /><path
           d="m 1332.61,2277.0377 q -5.0027,0 -8.8854,-2.24 -3.808,-2.3146 -5.9733,-6.72 -2.1654,-4.4053 -2.1654,-10.752 0,-6.496 2.24,-11.2 2.24,-4.704 6.3467,-7.2427 4.1067,-2.6133 9.632,-2.6133 5.2267,0 8.5867,2.24 3.4347,2.1653 5.0773,6.048 1.7174,3.8827 1.7174,8.8853 0,0.8214 -0.075,1.6427 -0.075,0.8213 -0.224,2.016 h -28.7467 v -4.256 h 23.52 l -0.672,0.448 q 0.075,-3.36 -0.8213,-6.1973 -0.896,-2.8374 -3.0613,-4.5547 -2.1654,-1.7173 -5.7494,-1.7173 -3.808,0 -6.4213,2.016 -2.6133,2.016 -3.8827,5.5253 -1.2693,3.5093 -1.2693,8.1387 0,4.928 1.4187,8.512 1.4186,3.5093 4.1066,5.4507 2.7627,1.9413 6.72,1.9413 2.7627,0 6.048,-1.0453 3.2854,-1.12 6.7947,-3.36 l 2.1653,3.36 q -4.1813,2.8373 -8.3626,4.256 -4.1814,1.4186 -8.064,1.4186 z"
           id="path2016" /><path
           d="m 1355.682,2276.3657 v -3.2106 l 6.72,-1.4934 -0.896,1.12 v -32.1067 l 0.896,1.12 -6.72,-1.4186 v -3.2107 l 10.4534,-0.5227 0.8213,7.3174 -0.8213,-0.2987 q 3.7333,-3.808 7.7653,-5.6 4.1067,-1.792 7.7653,-1.792 4.928,0 8.1387,3.0613 3.2853,2.9867 3.2107,9.3334 v 24.1173 l -0.7467,-1.0453 6.5707,1.4187 v 3.2106 h -17.3974 v -3.2106 l 6.496,-1.4187 -0.896,1.12 v -22.9227 q 0,-4.6293 -2.0906,-6.7947 -2.0907,-2.1653 -5.6,-2.1653 -2.7627,0 -6.048,1.4933 -3.2107,1.4934 -6.3467,4.6294 l 0.5227,-1.1947 v 26.9547 l -0.7467,-1.0453 6.3467,1.344 v 3.2106 z"
           id="path2018" /></g></g><circle
       style="display:inline;opacity:0.471743;fill:#3b2722;fill-opacity:0.84853;stroke-width:0.608414;filter:url(#filter2418-3-6)"
       id="circle41932-7-5"
       cx="-1486.026"
       cy="2445.4475"
       r="127.60603" /><circle
       style="display:inline;fill:#f2ece9;fill-opacity:1;stroke-width:0.608414"
       id="circle41934-3-2"
       cx="-1503.324"
       cy="2437.4441"
       r="127.60603" /><g
       id="g5913"
       transform="translate(-6.570512)"><g
         aria-label="Essen"
         id="g5833"
         style="font-size:74.6667px;line-height:1.15;font-family:Bitter;-inkscape-font-specification:Bitter;fill:#cc965c;fill-opacity:1;stroke-width:2.21141"
         transform="translate(-2286.268,317.20844)"><path
           d="m 1023.5585,2003.6004 h 3.7334 v 12.2453 h -37.70672 v -3.2107 l 7.39201,-1.568 -0.97067,1.344 v -45.0987 l 0.97067,1.344 -7.39201,-1.344 v -3.2106 l 12.46932,-0.3734 h 24.3414 v 11.7974 h -3.7334 l -1.344,-8.2134 1.2694,0.9707 h -21.5787 l 1.12,-1.12 v 20.9067 l -1.12,-1.12 h 19.936 v 4.48 h -19.936 l 1.12,-1.2693 v 22.2506 l -1.12,-1.12 h 22.5493 l -1.344,1.12 z"
           id="path5823" /><path
           d="m 1041.3043,1985.979 q 0,2.3894 1.568,3.7334 1.568,1.344 4.032,2.24 2.464,0.8213 5.2267,1.6426 2.7627,0.8214 5.2267,2.016 2.464,1.1947 4.032,3.2854 1.568,2.0906 1.568,5.5253 0,3.9573 -2.1654,6.6453 -2.1653,2.688 -5.8986,4.1067 -3.6587,1.344 -8.2134,1.344 -2.7626,0 -5.6746,-0.448 -2.912,-0.448 -5.9734,-1.2693 l 0.5227,-10.0054 h 3.808 l 0.7467,7.3174 -0.672,-0.8214 q 1.7173,0.448 3.7333,0.7467 2.016,0.2987 3.7333,0.2987 2.688,0 4.928,-0.7467 2.3147,-0.8213 3.7334,-2.3147 1.4186,-1.568 1.4186,-3.8826 0,-2.464 -1.568,-3.8827 -1.4933,-1.4187 -3.9573,-2.3147 -2.464,-0.896 -5.2267,-1.6426 -2.688,-0.8214 -5.152,-2.016 -2.464,-1.2694 -4.032,-3.2854 -1.568,-2.016 -1.568,-5.5253 0,-3.808 1.9414,-6.1973 2.016,-2.464 5.2266,-3.584 3.2854,-1.1947 7.0187,-1.1947 2.5387,0 5.6,0.5227 3.0613,0.5226 6.272,1.568 l -0.3733,8.4373 h -3.808 l -1.12,-6.1973 0.896,1.0453 q -3.8827,-1.12 -7.3174,-1.12 -3.6586,0 -6.1226,1.568 -2.3894,1.4933 -2.3894,4.4053 z"
           id="path5825" /><path
           d="m 1076.9951,1985.979 q 0,2.3894 1.568,3.7334 1.568,1.344 4.032,2.24 2.464,0.8213 5.2266,1.6426 2.7627,0.8214 5.2267,2.016 2.464,1.1947 4.032,3.2854 1.568,2.0906 1.568,5.5253 0,3.9573 -2.1653,6.6453 -2.1654,2.688 -5.8987,4.1067 -3.6587,1.344 -8.2133,1.344 -2.7627,0 -5.6747,-0.448 -2.912,-0.448 -5.9733,-1.2693 l 0.5226,-10.0054 h 3.808 l 0.7467,7.3174 -0.672,-0.8214 q 1.7173,0.448 3.7333,0.7467 2.016,0.2987 3.7334,0.2987 2.688,0 4.928,-0.7467 2.3146,-0.8213 3.7333,-2.3147 1.4187,-1.568 1.4187,-3.8826 0,-2.464 -1.568,-3.8827 -1.4934,-1.4187 -3.9574,-2.3147 -2.464,-0.896 -5.2266,-1.6426 -2.688,-0.8214 -5.152,-2.016 -2.464,-1.2694 -4.032,-3.2854 -1.568,-2.016 -1.568,-5.5253 0,-3.808 1.9413,-6.1973 2.016,-2.464 5.2267,-3.584 3.2853,-1.1947 7.0186,-1.1947 2.5387,0 5.6,0.5227 3.0614,0.5226 6.272,1.568 l -0.3733,8.4373 h -3.808 l -1.12,-6.1973 0.896,1.0453 q -3.8827,-1.12 -7.3173,-1.12 -3.6587,0 -6.1227,1.568 -2.3893,1.4933 -2.3893,4.4053 z"
           id="path5827" /><path
           d="m 1122.9151,2016.5177 q -5.0026,0 -8.8853,-2.24 -3.808,-2.3147 -5.9733,-6.72 -2.1654,-4.4053 -2.1654,-10.752 0,-6.496 2.24,-11.2 2.24,-4.704 6.3467,-7.2427 4.1067,-2.6133 9.632,-2.6133 5.2267,0 8.5867,2.24 3.4346,2.1653 5.0773,6.048 1.7173,3.8827 1.7173,8.8853 0,0.8214 -0.075,1.6427 -0.075,0.8213 -0.224,2.016 h -28.7467 v -4.256 h 23.52 l -0.672,0.448 q 0.075,-3.36 -0.8213,-6.1973 -0.896,-2.8374 -3.0614,-4.5547 -2.1653,-1.7173 -5.7493,-1.7173 -3.808,0 -6.4213,2.016 -2.6134,2.016 -3.8827,5.5253 -1.2693,3.5093 -1.2693,8.1387 0,4.928 1.4186,8.512 1.4187,3.5093 4.1067,5.4506 2.7627,1.9414 6.72,1.9414 2.7627,0 6.048,-1.0454 3.2853,-1.12 6.7947,-3.36 l 2.1653,3.36 q -4.1813,2.8374 -8.3627,4.256 -4.1813,1.4187 -8.064,1.4187 z"
           id="path5829" /><path
           d="m 1145.9872,2015.8457 v -3.2107 l 6.72,-1.4933 -0.896,1.12 v -32.1067 l 0.896,1.12 -6.72,-1.4186 v -3.2107 l 10.4533,-0.5227 0.8214,7.3174 -0.8214,-0.2987 q 3.7334,-3.808 7.7654,-5.6 4.1067,-1.792 7.7653,-1.792 4.928,0 8.1387,3.0613 3.2853,2.9867 3.2107,9.3334 v 24.1173 l -0.7467,-1.0453 6.5707,1.4186 v 3.2107 h -17.3974 v -3.2107 l 6.496,-1.4186 -0.896,1.12 v -22.9227 q 0,-4.6293 -2.0906,-6.7947 -2.0907,-2.1653 -5.6,-2.1653 -2.7627,0 -6.0481,1.4933 -3.2106,1.4934 -6.3466,4.6294 l 0.5226,-1.1947 v 26.9547 l -0.7466,-1.0454 6.3466,1.344 v 3.2107 z"
           id="path5831" /></g><g
         aria-label="Essen"
         id="g5845"
         style="font-size:74.6667px;line-height:1.15;font-family:Bitter;-inkscape-font-specification:Bitter;fill:#cc965c;fill-opacity:1;stroke-width:2.21141"
         transform="translate(-2286.268,317.20844)"><path
           d="m 1023.5585,2069.0879 h 3.7334 v 12.2454 h -37.70672 v -3.2107 l 7.39201,-1.568 -0.97067,1.344 v -45.0987 l 0.97067,1.344 -7.39201,-1.344 v -3.2107 l 12.46932,-0.3733 h 24.3414 v 11.7973 h -3.7334 l -1.344,-8.2133 1.2694,0.9707 h -21.5787 l 1.12,-1.12 v 20.9066 l -1.12,-1.12 h 19.936 v 4.48 h -19.936 l 1.12,-1.2693 v 22.2507 l -1.12,-1.12 h 22.5493 l -1.344,1.12 z"
           id="path5835" /><path
           d="m 1041.3043,2051.4666 q 0,2.3893 1.568,3.7333 1.568,1.344 4.032,2.24 2.464,0.8213 5.2267,1.6427 2.7627,0.8213 5.2267,2.016 2.464,1.1946 4.032,3.2853 1.568,2.0907 1.568,5.5253 0,3.9574 -2.1654,6.6454 -2.1653,2.688 -5.8986,4.1067 -3.6587,1.344 -8.2134,1.344 -2.7626,0 -5.6746,-0.448 -2.912,-0.448 -5.9734,-1.2694 l 0.5227,-10.0053 h 3.808 l 0.7467,7.3173 -0.672,-0.8213 q 1.7173,0.448 3.7333,0.7467 2.016,0.2986 3.7333,0.2986 2.688,0 4.928,-0.7467 2.3147,-0.8213 3.7334,-2.3146 1.4186,-1.568 1.4186,-3.8827 0,-2.464 -1.568,-3.8827 -1.4933,-1.4186 -3.9573,-2.3146 -2.464,-0.896 -5.2267,-1.6427 -2.688,-0.8213 -5.152,-2.016 -2.464,-1.2693 -4.032,-3.2853 -1.568,-2.016 -1.568,-5.5254 0,-3.808 1.9414,-6.1973 2.016,-2.464 5.2266,-3.584 3.2854,-1.1947 7.0187,-1.1947 2.5387,0 5.6,0.5227 3.0613,0.5227 6.272,1.568 l -0.3733,8.4373 h -3.808 l -1.12,-6.1973 0.896,1.0453 q -3.8827,-1.12 -7.3174,-1.12 -3.6586,0 -6.1226,1.568 -2.3894,1.4934 -2.3894,4.4054 z"
           id="path5837" /><path
           d="m 1076.9951,2051.4666 q 0,2.3893 1.568,3.7333 1.568,1.344 4.032,2.24 2.464,0.8213 5.2266,1.6427 2.7627,0.8213 5.2267,2.016 2.464,1.1946 4.032,3.2853 1.568,2.0907 1.568,5.5253 0,3.9574 -2.1653,6.6454 -2.1654,2.688 -5.8987,4.1067 -3.6587,1.344 -8.2133,1.344 -2.7627,0 -5.6747,-0.448 -2.912,-0.448 -5.9733,-1.2694 l 0.5226,-10.0053 h 3.808 l 0.7467,7.3173 -0.672,-0.8213 q 1.7173,0.448 3.7333,0.7467 2.016,0.2986 3.7334,0.2986 2.688,0 4.928,-0.7467 2.3146,-0.8213 3.7333,-2.3146 1.4187,-1.568 1.4187,-3.8827 0,-2.464 -1.568,-3.8827 -1.4934,-1.4186 -3.9574,-2.3146 -2.464,-0.896 -5.2266,-1.6427 -2.688,-0.8213 -5.152,-2.016 -2.464,-1.2693 -4.032,-3.2853 -1.568,-2.016 -1.568,-5.5254 0,-3.808 1.9413,-6.1973 2.016,-2.464 5.2267,-3.584 3.2853,-1.1947 7.0186,-1.1947 2.5387,0 5.6,0.5227 3.0614,0.5227 6.272,1.568 l -0.3733,8.4373 h -3.808 l -1.12,-6.1973 0.896,1.0453 q -3.8827,-1.12 -7.3173,-1.12 -3.6587,0 -6.1227,1.568 -2.3893,1.4934 -2.3893,4.4054 z"
           id="path5839" /><path
           d="m 1122.9151,2082.0053 q -5.0026,0 -8.8853,-2.24 -3.808,-2.3147 -5.9733,-6.7201 -2.1654,-4.4053 -2.1654,-10.752 0,-6.496 2.24,-11.2 2.24,-4.704 6.3467,-7.2426 4.1067,-2.6134 9.632,-2.6134 5.2267,0 8.5867,2.24 3.4346,2.1654 5.0773,6.048 1.7173,3.8827 1.7173,8.8854 0,0.8213 -0.075,1.6426 -0.075,0.8214 -0.224,2.016 h -28.7467 v -4.256 h 23.52 l -0.672,0.448 q 0.075,-3.36 -0.8213,-6.1973 -0.896,-2.8373 -3.0614,-4.5547 -2.1653,-1.7173 -5.7493,-1.7173 -3.808,0 -6.4213,2.016 -2.6134,2.016 -3.8827,5.5253 -1.2693,3.5094 -1.2693,8.1387 0,4.928 1.4186,8.512 1.4187,3.5093 4.1067,5.4507 2.7627,1.9413 6.72,1.9413 2.7627,0 6.048,-1.0453 3.2853,-1.12 6.7947,-3.36 l 2.1653,3.36 q -4.1813,2.8373 -8.3627,4.256 -4.1813,1.4187 -8.064,1.4187 z"
           id="path5841" /><path
           d="m 1145.9872,2081.3333 v -3.2107 l 6.72,-1.4934 -0.896,1.1201 v -32.1067 l 0.896,1.12 -6.72,-1.4187 v -3.2107 l 10.4533,-0.5226 0.8214,7.3173 -0.8214,-0.2987 q 3.7334,-3.808 7.7654,-5.6 4.1067,-1.792 7.7653,-1.792 4.928,0 8.1387,3.0614 3.2853,2.9866 3.2107,9.3333 v 24.1174 l -0.7467,-1.0454 6.5707,1.4187 v 3.2107 h -17.3974 v -3.2107 l 6.496,-1.4187 -0.896,1.12 v -22.9227 q 0,-4.6293 -2.0906,-6.7946 -2.0907,-2.1654 -5.6,-2.1654 -2.7627,0 -6.0481,1.4934 -3.2106,1.4933 -6.3466,4.6293 l 0.5226,-1.1947 v 26.9547 l -0.7466,-1.0453 6.3466,1.344 v 3.2107 z"
           id="path5843" /></g><g
         aria-label="Essen"
         id="g5857"
         style="font-size:74.6667px;line-height:1.15;font-family:Bitter;-inkscape-font-specification:Bitter;fill:#cc965c;fill-opacity:1;stroke-width:2.21141"
         transform="translate(-2286.268,317.20844)"><path
           d="m 1023.5585,2134.5213 h 3.7334 v 12.2453 h -37.70672 v -3.2107 l 7.39201,-1.568 -0.97067,1.344 v -45.0987 l 0.97067,1.344 -7.39201,-1.344 v -3.2106 l 12.46932,-0.3734 h 24.3414 v 11.7974 h -3.7334 l -1.344,-8.2134 1.2694,0.9707 h -21.5787 l 1.12,-1.12 v 20.9067 l -1.12,-1.12 h 19.936 v 4.48 h -19.936 l 1.12,-1.2693 v 22.2506 l -1.12,-1.12 h 22.5493 l -1.344,1.12 z"
           id="path5847" /><path
           d="m 1041.3043,2116.8999 q 0,2.3894 1.568,3.7334 1.568,1.344 4.032,2.24 2.464,0.8213 5.2267,1.6426 2.7627,0.8214 5.2267,2.016 2.464,1.1947 4.032,3.2854 1.568,2.0906 1.568,5.5253 0,3.9573 -2.1654,6.6453 -2.1653,2.688 -5.8986,4.1067 -3.6587,1.344 -8.2134,1.344 -2.7626,0 -5.6746,-0.448 -2.912,-0.448 -5.9734,-1.2693 l 0.5227,-10.0054 h 3.808 l 0.7467,7.3174 -0.672,-0.8214 q 1.7173,0.448 3.7333,0.7467 2.016,0.2987 3.7333,0.2987 2.688,0 4.928,-0.7467 2.3147,-0.8213 3.7334,-2.3147 1.4186,-1.568 1.4186,-3.8826 0,-2.464 -1.568,-3.8827 -1.4933,-1.4187 -3.9573,-2.3147 -2.464,-0.896 -5.2267,-1.6426 -2.688,-0.8214 -5.152,-2.016 -2.464,-1.2694 -4.032,-3.2854 -1.568,-2.016 -1.568,-5.5253 0,-3.808 1.9414,-6.1973 2.016,-2.464 5.2266,-3.5841 3.2854,-1.1946 7.0187,-1.1946 2.5387,0 5.6,0.5226 3.0613,0.5227 6.272,1.5681 l -0.3733,8.4373 h -3.808 l -1.12,-6.1973 0.896,1.0453 q -3.8827,-1.12 -7.3174,-1.12 -3.6586,0 -6.1226,1.568 -2.3894,1.4933 -2.3894,4.4053 z"
           id="path5849" /><path
           d="m 1076.9951,2116.8999 q 0,2.3894 1.568,3.7334 1.568,1.344 4.032,2.24 2.464,0.8213 5.2266,1.6426 2.7627,0.8214 5.2267,2.016 2.464,1.1947 4.032,3.2854 1.568,2.0906 1.568,5.5253 0,3.9573 -2.1653,6.6453 -2.1654,2.688 -5.8987,4.1067 -3.6587,1.344 -8.2133,1.344 -2.7627,0 -5.6747,-0.448 -2.912,-0.448 -5.9733,-1.2693 l 0.5226,-10.0054 h 3.808 l 0.7467,7.3174 -0.672,-0.8214 q 1.7173,0.448 3.7333,0.7467 2.016,0.2987 3.7334,0.2987 2.688,0 4.928,-0.7467 2.3146,-0.8213 3.7333,-2.3147 1.4187,-1.568 1.4187,-3.8826 0,-2.464 -1.568,-3.8827 -1.4934,-1.4187 -3.9574,-2.3147 -2.464,-0.896 -5.2266,-1.6426 -2.688,-0.8214 -5.152,-2.016 -2.464,-1.2694 -4.032,-3.2854 -1.568,-2.016 -1.568,-5.5253 0,-3.808 1.9413,-6.1973 2.016,-2.464 5.2267,-3.5841 3.2853,-1.1946 7.0186,-1.1946 2.5387,0 5.6,0.5226 3.0614,0.5227 6.272,1.5681 l -0.3733,8.4373 h -3.808 l -1.12,-6.1973 0.896,1.0453 q -3.8827,-1.12 -7.3173,-1.12 -3.6587,0 -6.1227,1.568 -2.3893,1.4933 -2.3893,4.4053 z"
           id="path5851" /><path
           d="m 1122.9151,2147.4386 q -5.0026,0 -8.8853,-2.24 -3.808,-2.3147 -5.9733,-6.72 -2.1654,-4.4053 -2.1654,-10.752 0,-6.496 2.24,-11.2 2.24,-4.704 6.3467,-7.2427 4.1067,-2.6133 9.632,-2.6133 5.2267,0 8.5867,2.24 3.4346,2.1653 5.0773,6.048 1.7173,3.8827 1.7173,8.8853 0,0.8214 -0.075,1.6427 -0.075,0.8213 -0.224,2.016 h -28.7467 v -4.256 h 23.52 l -0.672,0.448 q 0.075,-3.36 -0.8213,-6.1973 -0.896,-2.8374 -3.0614,-4.5547 -2.1653,-1.7173 -5.7493,-1.7173 -3.808,0 -6.4213,2.016 -2.6134,2.016 -3.8827,5.5253 -1.2693,3.5093 -1.2693,8.1387 0,4.928 1.4186,8.512 1.4187,3.5093 4.1067,5.4506 2.7627,1.9414 6.72,1.9414 2.7627,0 6.048,-1.0454 3.2853,-1.12 6.7947,-3.36 l 2.1653,3.36 q -4.1813,2.8374 -8.3627,4.256 -4.1813,1.4187 -8.064,1.4187 z"
           id="path5853" /><path
           d="m 1145.9872,2146.7666 v -3.2107 l 6.72,-1.4933 -0.896,1.12 v -32.1067 l 0.896,1.12 -6.72,-1.4186 v -3.2107 l 10.4533,-0.5227 0.8214,7.3174 -0.8214,-0.2987 q 3.7334,-3.808 7.7654,-5.6 4.1067,-1.792 7.7653,-1.792 4.928,0 8.1387,3.0613 3.2853,2.9867 3.2107,9.3334 v 24.1173 l -0.7467,-1.0453 6.5707,1.4186 v 3.2107 h -17.3974 v -3.2107 l 6.496,-1.4186 -0.896,1.12 v -22.9227 q 0,-4.6293 -2.0906,-6.7947 -2.0907,-2.1653 -5.6,-2.1653 -2.7627,0 -6.0481,1.4933 -3.2106,1.4934 -6.3466,4.6294 l 0.5226,-1.1947 v 26.9547 l -0.7466,-1.0454 6.3466,1.344 v 3.2107 z"
           id="path5855" /></g><g
         aria-label="Essen"
         id="g5869"
         style="font-size:74.6667px;line-height:1.15;font-family:Bitter;-inkscape-font-specification:Bitter;fill:#cc965c;fill-opacity:1;stroke-width:2.21141"
         transform="translate(-2286.268,317.20844)"><path
           d="m 1023.5585,2200.0088 h 3.7334 v 12.2454 h -37.70672 v -3.2107 l 7.39201,-1.568 -0.97067,1.344 v -45.0987 l 0.97067,1.344 -7.39201,-1.344 v -3.2107 l 12.46932,-0.3733 h 24.3414 v 11.7973 h -3.7334 l -1.344,-8.2133 1.2694,0.9707 h -21.5787 l 1.12,-1.12 v 20.9066 l -1.12,-1.12 h 19.936 v 4.48 h -19.936 l 1.12,-1.2693 v 22.2507 l -1.12,-1.12 h 22.5493 l -1.344,1.12 z"
           id="path5859" /><path
           d="m 1041.3043,2182.3875 q 0,2.3893 1.568,3.7333 1.568,1.344 4.032,2.24 2.464,0.8213 5.2267,1.6427 2.7627,0.8213 5.2267,2.016 2.464,1.1946 4.032,3.2853 1.568,2.0907 1.568,5.5253 0,3.9574 -2.1654,6.6454 -2.1653,2.688 -5.8986,4.1067 -3.6587,1.344 -8.2134,1.344 -2.7626,0 -5.6746,-0.448 -2.912,-0.448 -5.9734,-1.2694 l 0.5227,-10.0053 h 3.808 l 0.7467,7.3173 -0.672,-0.8213 q 1.7173,0.448 3.7333,0.7466 2.016,0.2987 3.7333,0.2987 2.688,0 4.928,-0.7467 2.3147,-0.8213 3.7334,-2.3146 1.4186,-1.568 1.4186,-3.8827 0,-2.464 -1.568,-3.8827 -1.4933,-1.4186 -3.9573,-2.3146 -2.464,-0.896 -5.2267,-1.6427 -2.688,-0.8213 -5.152,-2.016 -2.464,-1.2693 -4.032,-3.2853 -1.568,-2.016 -1.568,-5.5254 0,-3.808 1.9414,-6.1973 2.016,-2.464 5.2266,-3.584 3.2854,-1.1947 7.0187,-1.1947 2.5387,0 5.6,0.5227 3.0613,0.5227 6.272,1.568 l -0.3733,8.4373 h -3.808 l -1.12,-6.1973 0.896,1.0453 q -3.8827,-1.12 -7.3174,-1.12 -3.6586,0 -6.1226,1.568 -2.3894,1.4934 -2.3894,4.4054 z"
           id="path5861" /><path
           d="m 1076.9951,2182.3875 q 0,2.3893 1.568,3.7333 1.568,1.344 4.032,2.24 2.464,0.8213 5.2266,1.6427 2.7627,0.8213 5.2267,2.016 2.464,1.1946 4.032,3.2853 1.568,2.0907 1.568,5.5253 0,3.9574 -2.1653,6.6454 -2.1654,2.688 -5.8987,4.1067 -3.6587,1.344 -8.2133,1.344 -2.7627,0 -5.6747,-0.448 -2.912,-0.448 -5.9733,-1.2694 l 0.5226,-10.0053 h 3.808 l 0.7467,7.3173 -0.672,-0.8213 q 1.7173,0.448 3.7333,0.7466 2.016,0.2987 3.7334,0.2987 2.688,0 4.928,-0.7467 2.3146,-0.8213 3.7333,-2.3146 1.4187,-1.568 1.4187,-3.8827 0,-2.464 -1.568,-3.8827 -1.4934,-1.4186 -3.9574,-2.3146 -2.464,-0.896 -5.2266,-1.6427 -2.688,-0.8213 -5.152,-2.016 -2.464,-1.2693 -4.032,-3.2853 -1.568,-2.016 -1.568,-5.5254 0,-3.808 1.9413,-6.1973 2.016,-2.464 5.2267,-3.584 3.2853,-1.1947 7.0186,-1.1947 2.5387,0 5.6,0.5227 3.0614,0.5227 6.272,1.568 l -0.3733,8.4373 h -3.808 l -1.12,-6.1973 0.896,1.0453 q -3.8827,-1.12 -7.3173,-1.12 -3.6587,0 -6.1227,1.568 -2.3893,1.4934 -2.3893,4.4054 z"
           id="path5863" /><path
           d="m 1122.9151,2212.9262 q -5.0026,0 -8.8853,-2.2401 -3.808,-2.3146 -5.9733,-6.72 -2.1654,-4.4053 -2.1654,-10.752 0,-6.496 2.24,-11.2 2.24,-4.704 6.3467,-7.2426 4.1067,-2.6134 9.632,-2.6134 5.2267,0 8.5867,2.24 3.4346,2.1654 5.0773,6.048 1.7173,3.8827 1.7173,8.8854 0,0.8213 -0.075,1.6426 -0.075,0.8214 -0.224,2.016 h -28.7467 v -4.256 h 23.52 l -0.672,0.448 q 0.075,-3.36 -0.8213,-6.1973 -0.896,-2.8373 -3.0614,-4.5547 -2.1653,-1.7173 -5.7493,-1.7173 -3.808,0 -6.4213,2.016 -2.6134,2.016 -3.8827,5.5253 -1.2693,3.5094 -1.2693,8.1387 0,4.928 1.4186,8.512 1.4187,3.5093 4.1067,5.4507 2.7627,1.9413 6.72,1.9413 2.7627,0 6.048,-1.0453 3.2853,-1.12 6.7947,-3.36 l 2.1653,3.36 q -4.1813,2.8373 -8.3627,4.256 -4.1813,1.4187 -8.064,1.4187 z"
           id="path5865" /><path
           d="m 1145.9872,2212.2542 v -3.2107 l 6.72,-1.4934 -0.896,1.12 v -32.1066 l 0.896,1.12 -6.72,-1.4187 v -3.2107 l 10.4533,-0.5226 0.8214,7.3173 -0.8214,-0.2987 q 3.7334,-3.808 7.7654,-5.6 4.1067,-1.792 7.7653,-1.792 4.928,0 8.1387,3.0614 3.2853,2.9866 3.2107,9.3333 v 24.1173 l -0.7467,-1.0453 6.5707,1.4187 v 3.2107 h -17.3974 v -3.2107 l 6.496,-1.4187 -0.896,1.12 v -22.9227 q 0,-4.6293 -2.0906,-6.7946 -2.0907,-2.1654 -5.6,-2.1654 -2.7627,0 -6.0481,1.4934 -3.2106,1.4933 -6.3466,4.6293 l 0.5226,-1.1947 v 26.9547 l -0.7466,-1.0453 6.3466,1.344 v 3.2107 z"
           id="path5867" /></g><g
         aria-label="Essen"
         id="g5881"
         style="font-size:74.6667px;line-height:1.15;font-family:Bitter;-inkscape-font-specification:Bitter;fill:#cc965c;fill-opacity:1;stroke-width:2.21141"
         transform="translate(-2286.268,317.20844)"><path
           d="m 1023.5585,2264.1204 h 3.7334 v 12.2453 h -37.70672 v -3.2106 l 7.39201,-1.568 -0.97067,1.344 v -45.0987 l 0.97067,1.344 -7.39201,-1.344 v -3.2107 l 12.46932,-0.3733 h 24.3414 v 11.7973 h -3.7334 l -1.344,-8.2133 1.2694,0.9706 h -21.5787 l 1.12,-1.12 v 20.9067 l -1.12,-1.12 h 19.936 v 4.48 h -19.936 l 1.12,-1.2693 v 22.2507 l -1.12,-1.12 h 22.5493 l -1.344,1.12 z"
           id="path5871" /><path
           d="m 1041.3043,2246.499 q 0,2.3894 1.568,3.7334 1.568,1.344 4.032,2.24 2.464,0.8213 5.2267,1.6426 2.7627,0.8214 5.2267,2.016 2.464,1.1947 4.032,3.2854 1.568,2.0906 1.568,5.5253 0,3.9574 -2.1654,6.6454 -2.1653,2.688 -5.8986,4.1066 -3.6587,1.344 -8.2134,1.344 -2.7626,0 -5.6746,-0.448 -2.912,-0.448 -5.9734,-1.2693 l 0.5227,-10.0053 h 3.808 l 0.7467,7.3173 -0.672,-0.8213 q 1.7173,0.448 3.7333,0.7466 2.016,0.2987 3.7333,0.2987 2.688,0 4.928,-0.7467 2.3147,-0.8213 3.7334,-2.3146 1.4186,-1.568 1.4186,-3.8827 0,-2.464 -1.568,-3.8827 -1.4933,-1.4187 -3.9573,-2.3147 -2.464,-0.896 -5.2267,-1.6426 -2.688,-0.8214 -5.152,-2.016 -2.464,-1.2694 -4.032,-3.2854 -1.568,-2.016 -1.568,-5.5253 0,-3.808 1.9414,-6.1973 2.016,-2.464 5.2266,-3.584 3.2854,-1.1947 7.0187,-1.1947 2.5387,0 5.6,0.5227 3.0613,0.5226 6.272,1.568 l -0.3733,8.4373 h -3.808 l -1.12,-6.1973 0.896,1.0453 q -3.8827,-1.12 -7.3174,-1.12 -3.6586,0 -6.1226,1.568 -2.3894,1.4933 -2.3894,4.4053 z"
           id="path5873" /><path
           d="m 1076.9951,2246.499 q 0,2.3894 1.568,3.7334 1.568,1.344 4.032,2.24 2.464,0.8213 5.2266,1.6426 2.7627,0.8214 5.2267,2.016 2.464,1.1947 4.032,3.2854 1.568,2.0906 1.568,5.5253 0,3.9574 -2.1653,6.6454 -2.1654,2.688 -5.8987,4.1066 -3.6587,1.344 -8.2133,1.344 -2.7627,0 -5.6747,-0.448 -2.912,-0.448 -5.9733,-1.2693 l 0.5226,-10.0053 h 3.808 l 0.7467,7.3173 -0.672,-0.8213 q 1.7173,0.448 3.7333,0.7466 2.016,0.2987 3.7334,0.2987 2.688,0 4.928,-0.7467 2.3146,-0.8213 3.7333,-2.3146 1.4187,-1.568 1.4187,-3.8827 0,-2.464 -1.568,-3.8827 -1.4934,-1.4187 -3.9574,-2.3147 -2.464,-0.896 -5.2266,-1.6426 -2.688,-0.8214 -5.152,-2.016 -2.464,-1.2694 -4.032,-3.2854 -1.568,-2.016 -1.568,-5.5253 0,-3.808 1.9413,-6.1973 2.016,-2.464 5.2267,-3.584 3.2853,-1.1947 7.0186,-1.1947 2.5387,0 5.6,0.5227 3.0614,0.5226 6.272,1.568 l -0.3733,8.4373 h -3.808 l -1.12,-6.1973 0.896,1.0453 q -3.8827,-1.12 -7.3173,-1.12 -3.6587,0 -6.1227,1.568 -2.3893,1.4933 -2.3893,4.4053 z"
           id="path5875" /><path
           d="m 1122.9151,2277.0377 q -5.0026,0 -8.8853,-2.24 -3.808,-2.3146 -5.9733,-6.72 -2.1654,-4.4053 -2.1654,-10.752 0,-6.496 2.24,-11.2 2.24,-4.704 6.3467,-7.2427 4.1067,-2.6133 9.632,-2.6133 5.2267,0 8.5867,2.24 3.4346,2.1653 5.0773,6.048 1.7173,3.8827 1.7173,8.8853 0,0.8214 -0.075,1.6427 -0.075,0.8213 -0.224,2.016 h -28.7467 v -4.256 h 23.52 l -0.672,0.448 q 0.075,-3.36 -0.8213,-6.1973 -0.896,-2.8374 -3.0614,-4.5547 -2.1653,-1.7173 -5.7493,-1.7173 -3.808,0 -6.4213,2.016 -2.6134,2.016 -3.8827,5.5253 -1.2693,3.5093 -1.2693,8.1387 0,4.928 1.4186,8.512 1.4187,3.5093 4.1067,5.4507 2.7627,1.9413 6.72,1.9413 2.7627,0 6.048,-1.0453 3.2853,-1.12 6.7947,-3.36 l 2.1653,3.36 q -4.1813,2.8373 -8.3627,4.256 -4.1813,1.4186 -8.064,1.4186 z"
           id="path5877" /><path
           d="m 1145.9872,2276.3657 v -3.2106 l 6.72,-1.4934 -0.896,1.12 v -32.1067 l 0.896,1.12 -6.72,-1.4186 v -3.2107 l 10.4533,-0.5227 0.8214,7.3174 -0.8214,-0.2987 q 3.7334,-3.808 7.7654,-5.6 4.1067,-1.792 7.7653,-1.792 4.928,0 8.1387,3.0613 3.2853,2.9867 3.2107,9.3334 v 24.1173 l -0.7467,-1.0453 6.5707,1.4187 v 3.2106 h -17.3974 v -3.2106 l 6.496,-1.4187 -0.896,1.12 v -22.9227 q 0,-4.6293 -2.0906,-6.7947 -2.0907,-2.1653 -5.6,-2.1653 -2.7627,0 -6.0481,1.4933 -3.2106,1.4934 -6.3466,4.6294 l 0.5226,-1.1947 v 26.9547 l -0.7466,-1.0453 6.3466,1.344 v 3.2106 z"
           id="path5879" /></g></g></g></svg>
