<?xml version="1.0" encoding="UTF-8" standalone="no"?>
<!-- Created with Inkscape (http://www.inkscape.org/) -->

<svg
   version="1.1"
   id="svg83"
   width="68.765869"
   height="50.962158"
   viewBox="0 0 68.765869 50.962157"
   sodipodi:docname="landing.svg"
   inkscape:version="1.2.1 (9c6d41e410, 2022-07-14, custom)"
   xml:space="preserve"
   xmlns:inkscape="http://www.inkscape.org/namespaces/inkscape"
   xmlns:sodipodi="http://sodipodi.sourceforge.net/DTD/sodipodi-0.dtd"
   xmlns="http://www.w3.org/2000/svg"
   xmlns:svg="http://www.w3.org/2000/svg"><defs
     id="defs87" /><sodipodi:namedview
     id="namedview85"
     pagecolor="#505050"
     bordercolor="#ffffff"
     borderopacity="1"
     inkscape:showpageshadow="0"
     inkscape:pageopacity="0"
     inkscape:pagecheckerboard="1"
     inkscape:deskcolor="#505050"
     showgrid="false"
     inkscape:zoom="7.4780237"
     inkscape:cx="-2091.1942"
     inkscape:cy="3114.7267"
     inkscape:window-width="1920"
     inkscape:window-height="1057"
     inkscape:window-x="0"
     inkscape:window-y="0"
     inkscape:window-maximized="1"
     inkscape:current-layer="layer1" /><g
     inkscape:groupmode="layer"
     id="layer1"
     inkscape:label="additions"
     style="display:inline"
     transform="translate(2122.5176,-3124.7864)"><g
       id="g20518"
       transform="matrix(0.90449919,0,0,0.90449919,-197.677,307.51307)"
       inkscape:export-filename="../../../../../../git/tok/plated/source/data/post_icon.svg"
       inkscape:export-xdpi="96"
       inkscape:export-ydpi="96"><path
         id="path18839"
         style="fill:none;fill-opacity:1;stroke:#ffffff;stroke-width:2;stroke-linecap:round;stroke-linejoin:round;stroke-dasharray:none"
         d="m -2073.0469,3130.2312 a 20,18.790905 0 0 0 -20,18.791 20,18.790905 0 0 0 20,18.789 20,18.790905 0 0 0 7.7364,-1.498 c 2.3513,1.6451 7.2806,4.7766 9,3.4336 1.5921,-1.2437 -0.181,-5.9381 -1.4102,-8.6875 a 20,18.790905 0 0 0 4.6738,-12.0371 20,18.790905 0 0 0 -20,-18.791 z" /><g
         id="g18847"
         transform="translate(-0.47927305,49.329399)"><circle
           style="fill:#ffffff;fill-opacity:1;stroke:none;stroke-width:5.47958;stroke-linecap:round;stroke-linejoin:round;stroke-dasharray:none"
           id="circle18841"
           cx="-2081.9509"
           cy="3100.0916"
           r="3.0569067" /><circle
           style="fill:#ffffff;fill-opacity:1;stroke:none;stroke-width:5.47958;stroke-linecap:round;stroke-linejoin:round;stroke-dasharray:none"
           id="circle18843"
           cx="-2072.5676"
           cy="3100.0916"
           r="3.0569067" /><circle
           style="fill:#ffffff;fill-opacity:1;stroke:none;stroke-width:5.47958;stroke-linecap:round;stroke-linejoin:round;stroke-dasharray:none"
           id="circle18845"
           cx="-2063.1843"
           cy="3100.0916"
           r="3.0569067" /></g></g><path
       id="path9568"
       style="fill:#ffffff;fill-opacity:1;stroke:none;stroke-width:2;stroke-linecap:round;stroke-linejoin:round;stroke-dasharray:none"
       d="m -2102.5176,3124.7864 a 20,18.790905 0 0 0 -20,18.791 20,18.790905 0 0 0 4.6738,12.0371 c -1.2292,2.7494 -3.0022,7.4438 -1.4101,8.6875 1.7194,1.343 6.6487,-1.7885 9,-3.4336 a 20,18.790905 0 0 0 7.7363,1.4981 20,18.790905 0 0 0 20,-18.7891 20,18.790905 0 0 0 -20,-18.791 z m 0.027,8.7734 v 0 c 1.4092,0 2.6475,0.3242 3.6465,1.0098 1.0763,0.7261 1.6367,1.9609 1.6367,3.3945 0,1.5822 -0.6513,3.0343 -1.8515,4.2149 -0.466,0.4481 -0.9224,0.8781 -1.3711,1.291 -1.0108,0.9279 -1.3828,1.6795 -1.3828,2.1406 0,0.3023 0.044,0.6655 0.1406,1.084 l 0.1055,0.4551 -0.3614,0.2949 c -0.4989,0.4081 -1.1041,0.6504 -1.7285,0.6504 -0.6345,0 -1.2692,-0.3032 -1.6445,-0.8125 v -0.01 l -0.01,-0.01 c -0.3634,-0.5191 -0.5098,-1.1636 -0.5098,-1.8711 0,-0.7368 0.2006,-1.4591 0.5762,-2.127 0.3769,-0.6545 0.842,-1.2221 1.3906,-1.6894 l 1.4375,-1.2246 c 1.0185,-0.876 1.4434,-1.7424 1.4434,-2.7364 0,-0.4365 -0.1103,-0.6648 -0.4141,-0.9101 l -0.012,-0.01 -0.014,-0.01 c -0.3141,-0.2764 -0.6385,-0.4003 -1.1036,-0.4003 -0.5222,0 -0.8781,0.1036 -1.1172,0.2558 -0.205,0.1269 -0.205,0.1417 -0.205,0.3223 0,0.2784 0.066,0.5298 0.2207,0.8008 l 0.2285,0.4004 -0.252,0.3828 c -0.4662,0.7104 -1.2045,1.1933 -2.0136,1.1933 -0.6079,0 -1.2097,-0.1893 -1.6133,-0.6308 -0.4035,-0.4416 -0.5508,-1.0365 -0.5508,-1.666 0,-1.2424 0.6207,-2.3369 1.6855,-2.9454 1.0247,-0.5737 2.2528,-0.8418 3.6465,-0.8418 z m -1.1211,16.6875 c 0.5837,0 1.1638,0.2397 1.5528,0.67 0.3906,0.4011 0.6113,0.9563 0.6113,1.5195 0,0.5668 -0.2149,1.1248 -0.5977,1.5391 -0.3888,0.4377 -0.9775,0.6777 -1.5664,0.6777 -0.5933,0 -1.1894,-0.2395 -1.5781,-0.6836 -0.3661,-0.4185 -0.5586,-0.9721 -0.5586,-1.5332 0,-0.5612 0.1968,-1.119 0.5762,-1.5254 0.3975,-0.4238 0.9778,-0.6621 1.5605,-0.6621 z" /></g></svg>
