<?xml version="1.0" encoding="UTF-8" standalone="no"?>
<!-- Created with Inkscape (http://www.inkscape.org/) -->

<svg
   version="1.1"
   id="svg83"
   width="68.765869"
   height="50.962158"
   viewBox="0 0 68.765869 50.962157"
   sodipodi:docname="landing.svg"
   inkscape:version="1.2 (dc2aedaf03, 2022-05-15)"
   xml:space="preserve"
   xmlns:inkscape="http://www.inkscape.org/namespaces/inkscape"
   xmlns:sodipodi="http://sodipodi.sourceforge.net/DTD/sodipodi-0.dtd"
   xmlns="http://www.w3.org/2000/svg"
   xmlns:svg="http://www.w3.org/2000/svg"><defs
     id="defs87" /><sodipodi:namedview
     id="namedview85"
     pagecolor="#505050"
     bordercolor="#ffffff"
     borderopacity="1"
     inkscape:showpageshadow="0"
     inkscape:pageopacity="0"
     inkscape:pagecheckerboard="1"
     inkscape:deskcolor="#505050"
     showgrid="false"
     inkscape:zoom="9.4466117"
     inkscape:cx="-2097.0482"
     inkscape:cy="3136.1509"
     inkscape:window-width="1920"
     inkscape:window-height="1057"
     inkscape:window-x="0"
     inkscape:window-y="0"
     inkscape:window-maximized="1"
     inkscape:current-layer="layer1" /><g
     inkscape:groupmode="layer"
     id="layer1"
     inkscape:label="additions"
     style="display:inline"
     transform="translate(2122.5176,-3124.7864)"><g
       id="g20518"
       transform="matrix(0.90449919,0,0,0.90449919,-197.677,307.51307)"
       inkscape:export-filename="../../../../../../git/tok/plated/source/data/post_icon.svg"
       inkscape:export-xdpi="96"
       inkscape:export-ydpi="96"><path
         id="path18839"
         style="fill:none;fill-opacity:1;stroke:#ffffff;stroke-width:2;stroke-linecap:round;stroke-linejoin:round;stroke-dasharray:none"
         d="m -2073.0469,3130.2312 a 20,18.790905 0 0 0 -20,18.791 20,18.790905 0 0 0 20,18.789 20,18.790905 0 0 0 7.7364,-1.498 c 2.3513,1.6451 7.2806,4.7766 9,3.4336 1.5921,-1.2437 -0.181,-5.9381 -1.4102,-8.6875 a 20,18.790905 0 0 0 4.6738,-12.0371 20,18.790905 0 0 0 -20,-18.791 z" /><g
         id="g18847"
         transform="translate(-0.47927305,49.329399)"><circle
           style="fill:#ffffff;fill-opacity:1;stroke:none;stroke-width:5.47958;stroke-linecap:round;stroke-linejoin:round;stroke-dasharray:none"
           id="circle18841"
           cx="-2081.9509"
           cy="3100.0916"
           r="3.0569067" /><circle
           style="fill:#ffffff;fill-opacity:1;stroke:none;stroke-width:5.47958;stroke-linecap:round;stroke-linejoin:round;stroke-dasharray:none"
           id="circle18843"
           cx="-2072.5676"
           cy="3100.0916"
           r="3.0569067" /><circle
           style="fill:#ffffff;fill-opacity:1;stroke:none;stroke-width:5.47958;stroke-linecap:round;stroke-linejoin:round;stroke-dasharray:none"
           id="circle18845"
           cx="-2063.1843"
           cy="3100.0916"
           r="3.0569067" /></g></g><path
       id="path18849"
       style="fill:#ffffff;fill-opacity:1;stroke:none;stroke-width:2;stroke-linecap:round;stroke-linejoin:round;stroke-dasharray:none"
       d="m -2102.5176,3124.7864 a 20,18.790905 0 0 0 -20,18.791 20,18.790905 0 0 0 4.6738,12.0371 c -1.2292,2.7494 -3.0022,7.4438 -1.4101,8.6875 1.7194,1.343 6.6487,-1.7885 9,-3.4336 a 20,18.790905 0 0 0 7.7363,1.4981 20,18.790905 0 0 0 20,-18.7891 20,18.790905 0 0 0 -20,-18.791 z m 0.025,10.6953 c 1.2978,0 2.3732,0.2942 3.2265,0.8808 0.8711,0.5867 1.3067,1.5113 1.3067,2.7735 0,1.3866 -0.5406,2.613 -1.625,3.6797 -0.4623,0.4444 -0.917,0.8704 -1.3613,1.2793 -1.0845,0.9956 -1.627,1.8933 -1.627,2.6933 0,0.3734 0.053,0.7917 0.1602,1.2539 -0.3912,0.32 -0.8076,0.4805 -1.252,0.4805 -0.4445,0 -0.7921,-0.1681 -1.041,-0.5059 -0.2489,-0.3555 -0.3731,-0.8369 -0.3731,-1.4414 0,-0.6044 0.1605,-1.1908 0.4805,-1.7597 0.3378,-0.5867 0.7466,-1.0833 1.2266,-1.4922 0.48,-0.4089 0.9594,-0.8196 1.4394,-1.2285 1.1378,-0.9778 1.7071,-2.08 1.7071,-3.3067 0,-0.6222 -0.2311,-1.1188 -0.6934,-1.4922 -0.4444,-0.3911 -0.9773,-0.5878 -1.5996,-0.5878 -0.6222,0 -1.1304,0.126 -1.5215,0.375 -0.3733,0.231 -0.5586,0.55 -0.5586,0.9589 0,0.4089 0.107,0.8005 0.3203,1.1739 -0.3733,0.5688 -0.8356,0.8535 -1.3867,0.8535 -0.9423,0 -1.4141,-0.5158 -1.4141,-1.5469 0,-1.0311 0.4355,-1.7952 1.3067,-2.293 0.8888,-0.4977 1.9815,-0.748 3.2793,-0.748 z m -1.1192,15.5469 c 0.4267,0 0.7648,0.1433 1.0137,0.4277 0.2667,0.2667 0.3984,0.6047 0.3984,1.0137 0,0.4088 -0.1317,0.7546 -0.3984,1.039 -0.2489,0.2844 -0.587,0.4278 -1.0137,0.4278 -0.4266,0 -0.7648,-0.1434 -1.0136,-0.4278 -0.249,-0.2844 -0.3731,-0.6302 -0.3731,-1.039 0,-0.409 0.1241,-0.747 0.3731,-1.0137 0.2666,-0.2844 0.6048,-0.4277 1.0136,-0.4277 z" /></g></svg>
