<?xml version="1.0" encoding="UTF-8" standalone="no"?>
<!-- Generator: Adobe Illustrator 24.3.0, SVG Export Plug-In . SVG Version: 6.00 Build 0)  -->

<svg
   version="1.1"
   id="Ebene_1"
   x="0px"
   y="0px"
   width="115.764"
   height="115.764"
   viewBox="0 0 115.764 115.764"
   xml:space="preserve"
   sodipodi:docname="logo_ubersee.svg"
   xmlns:inkscape="http://www.inkscape.org/namespaces/inkscape"
   xmlns:sodipodi="http://sodipodi.sourceforge.net/DTD/sodipodi-0.dtd"
   xmlns="http://www.w3.org/2000/svg"
   xmlns:svg="http://www.w3.org/2000/svg"><defs
   id="defs67159" /><sodipodi:namedview
   id="namedview67157"
   pagecolor="#505050"
   bordercolor="#ffffff"
   borderopacity="1"
   inkscape:showpageshadow="0"
   inkscape:pageopacity="0"
   inkscape:pagecheckerboard="1"
   inkscape:deskcolor="#505050"
   showgrid="false" />
<style
   type="text/css"
   id="style67146">
	.st0{fill:#1D1D1B;}
	.st1{fill:#FFFFFF;}
	.st2{fill:#CD1719;}
</style>


<rect
   class="st2"
   width="115.764"
   height="115.764"
   id="rect67152"
   inkscape:export-filename="../git/tok/plated/source/data/logo_ubersee.svg"
   inkscape:export-xdpi="96"
   inkscape:export-ydpi="96"
   x="0"
   y="0" />
<path
   class="st1"
   d="m 73.373,24.504 v 19.249 c 0,3.847 -1.11,7.269 -3.772,9.834 -2.88,2.565 -6.87,3.848 -11.749,3.848 -0.004,0 -0.017,0 -0.021,0 -4.879,0 -8.869,-1.283 -11.749,-3.848 C 43.42,51.022 42.31,47.601 42.31,43.753 V 24.504 h 13.116 v 18.485 h 0.003 c 0.037,1.485 1.106,2.677 2.423,2.677 1.317,0 2.386,-1.192 2.423,-2.677 h 0.004 V 24.504 Z m -45.879,6.579 c 0,3.634 2.946,6.58 6.58,6.58 3.634,0 6.58,-2.946 6.58,-6.58 0,-3.634 -2.946,-6.58 -6.58,-6.58 -3.634,0 -6.58,2.946 -6.58,6.58 z M 77.99,62.659 c -2.571,-2.329 -5.992,-3.379 -9.845,-3.39 -5.002,-0.015 -10.27,3.719 -10.318,3.761 -0.048,-0.042 -5.316,-3.775 -10.318,-3.761 -3.852,0.011 -7.274,1.061 -9.845,3.39 -2.568,2.329 -3.853,5.297 -3.853,9.113 V 91.26 H 46.342 V 72.923 h 0.003 c 0.037,-1.472 1.117,-2.653 2.447,-2.653 1.33,0 2.409,1.181 2.446,2.653 h 0.004 V 91.26 H 64.408 V 72.933 h 0.003 c 0.037,-1.472 1.117,-2.653 2.447,-2.653 1.33,0 2.409,1.181 2.446,2.653 h 0.004 V 91.26 H 81.845 V 71.771 C 81.843,67.955 80.557,64.988 77.99,62.659 Z M 75.109,31.083 c 0,3.634 2.946,6.58 6.58,6.58 3.634,0 6.58,-2.946 6.58,-6.58 0,-3.634 -2.946,-6.58 -6.58,-6.58 -3.634,0 -6.58,2.946 -6.58,6.58 z"
   id="path67154" />
</svg>
