<?xml version="1.0" encoding="UTF-8" standalone="no"?>
<!-- Created with Inkscape (http://www.inkscape.org/) -->

<svg
   version="1.1"
   id="svg83"
   width="553.6748"
   height="331.81396"
   viewBox="0 0 553.6748 331.81396"
   sodipodi:docname="spi.svg"
   inkscape:version="1.2 (dc2aedaf03, 2022-05-15)"
   xml:space="preserve"
   xmlns:inkscape="http://www.inkscape.org/namespaces/inkscape"
   xmlns:sodipodi="http://sodipodi.sourceforge.net/DTD/sodipodi-0.dtd"
   xmlns="http://www.w3.org/2000/svg"
   xmlns:svg="http://www.w3.org/2000/svg"><defs
     id="defs87"><filter
       inkscape:collect="always"
       style="color-interpolation-filters:sRGB"
       id="filter2418"
       x="-0.062110244"
       y="-0.062110244"
       width="1.1242205"
       height="1.1242205"><feGaussianBlur
         inkscape:collect="always"
         stdDeviation="6.6047017"
         id="feGaussianBlur2420" /></filter></defs><sodipodi:namedview
     id="namedview85"
     pagecolor="#505050"
     bordercolor="#ffffff"
     borderopacity="1"
     inkscape:showpageshadow="0"
     inkscape:pageopacity="0"
     inkscape:pagecheckerboard="1"
     inkscape:deskcolor="#505050"
     showgrid="false"
     inkscape:zoom="1.6850061"
     inkscape:cx="423.73734"
     inkscape:cy="219.58378"
     inkscape:window-width="1920"
     inkscape:window-height="1057"
     inkscape:window-x="0"
     inkscape:window-y="0"
     inkscape:window-maximized="1"
     inkscape:current-layer="layer1" /><g
     inkscape:groupmode="layer"
     id="layer1"
     inkscape:label="additions"
     style="display:inline"
     transform="translate(2074.7864,-2634.1853)"><rect
       style="fill:#ffffff;fill-opacity:1;stroke-width:0.566929"
       id="rect38192"
       width="553.6748"
       height="331.814"
       x="-2074.7864"
       y="2634.1853"
       inkscape:export-filename="../../../../../../git/tok/plated/source/data/spi.svg"
       inkscape:export-xdpi="96"
       inkscape:export-ydpi="96" /><g
       id="g38216"
       transform="translate(-2464.6538,1311.3802)"
       style="display:inline;fill:#5e8c51;fill-opacity:1"><g
         id="g38202"
         style="fill:#5e8c51;fill-opacity:1"><g
           aria-label="Spiritualität"
           id="text38196"
           style="font-size:74.6667px;line-height:1.15;font-family:Bitter;-inkscape-font-specification:Bitter;stroke-width:2.21141"><path
             d="m 403.44937,1348.2573 q 0,2.8373 1.49333,4.6293 1.49334,1.792 3.95734,2.9867 2.53866,1.12 5.52533,2.016 2.98667,0.896 5.97334,2.016 2.98667,1.0453 5.45067,2.688 2.464,1.568 3.95733,4.1813 1.568,2.5387 1.568,6.4213 0,5.2267 -2.688,8.5867 -2.61333,3.36 -7.01867,5.0027 -4.40533,1.568 -9.632,1.568 -3.73334,0 -7.61601,-0.7467 -3.88266,-0.8213 -7.616,-2.3893 l 0.448,-12.2454 h 3.65867 l 1.26933,9.5574 -0.74666,-1.2694 q 2.61333,1.1947 5.45067,1.792 2.83733,0.5974 5.52533,0.5974 3.50934,0 6.42134,-1.0454 2.912,-1.12 4.704,-3.2106 1.792,-2.1654 1.792,-5.376 0,-2.9867 -1.568,-4.7787 -1.49333,-1.8667 -3.95733,-3.0613 -2.46401,-1.1947 -5.45067,-2.0907 -2.98667,-0.896 -5.97334,-1.8667 -2.98667,-1.0453 -5.45067,-2.6133 -2.464,-1.568 -4.032,-4.032 -1.49334,-2.5387 -1.49334,-6.4213 0,-4.7787 2.31467,-7.9147 2.38934,-3.2107 6.42134,-4.7787 4.10667,-1.568 9.10934,-1.568 3.50933,0 7.31733,0.7467 3.80801,0.7466 7.46667,2.3147 l -0.59733,11.7226 h -3.73334 l -1.12,-8.96 0.896,0.896 q -2.24,-0.9706 -4.85333,-1.4933 -2.61334,-0.5227 -5.22667,-0.5227 -3.06133,0 -5.824,0.896 -2.76267,0.8214 -4.48,2.7627 -1.64267,1.8667 -1.64267,5.0027 z"
             id="path534" /><path
             d="m 436.02889,1404.8546 v -3.2107 l 6.79467,-1.568 -0.97067,1.12 v -49.056 l 0.896,0.9707 -6.72,-1.4187 v -3.2106 l 10.45334,-0.5227 0.74667,6.496 -0.672,-0.448 q 3.43466,-3.2107 6.86933,-4.7787 3.43467,-1.6426 6.79467,-1.6426 4.18134,0 7.46667,2.3146 3.36,2.3147 5.30134,6.72 1.94133,4.3307 1.94133,10.6774 0,6.8693 -2.38933,11.5733 -2.31467,4.704 -6.57067,7.168 -4.256,2.3893 -10.00534,2.3893 -2.09067,0 -4.33067,-0.3733 -2.24,-0.3733 -4.704,-0.9707 l 0.896,-0.8213 v 14.9333 l -0.82133,-1.0453 7.69067,1.4933 v 3.2107 z m 19.26401,-20.9067 q 6.57067,0 10.00534,-4.256 3.43467,-4.256 3.43467,-11.7973 0,-4.928 -1.41867,-8.4373 -1.344,-3.5094 -3.73334,-5.376 -2.38933,-1.9414 -5.45067,-1.9414 -2.61333,0 -5.45066,1.4187 -2.76267,1.344 -5.60001,4.1813 l 0.74667,-1.8666 v 28 l -0.82133,-1.344 q 4.55466,1.4186 8.288,1.4186 z"
             id="path536" /><path
             d="m 493.14897,1383.8733 -0.672,-0.8214 6.496,1.4187 v 3.2107 h -17.62134 v -3.2107 l 6.49601,-1.4187 -0.67201,0.8214 v -31.5094 l 0.59734,0.672 -6.42134,-1.344 v -3.2106 l 11.79734,-0.448 z m -3.43467,-43.904 q -1.71733,0 -2.83733,-1.12 -1.12,-1.12 -1.12,-3.0614 0,-2.016 1.12,-3.0613 1.19467,-1.12 2.912,-1.12 1.792,0 2.912,1.0453 1.12,1.0453 1.12,3.136 0,2.016 -1.19467,3.136 -1.19466,1.0454 -2.912,1.0454 z"
             id="path538" /><path
             d="m 503.60233,1387.6813 v -3.2107 l 6.57067,-1.4187 -0.74666,1.12 v -32.1813 l 0.82133,1.12 -6.64534,-1.4187 v -3.2106 l 10.45334,-0.5227 0.82134,7.3173 -0.82134,-0.2986 q 3.36,-3.5094 6.57067,-5.4507 3.21067,-1.9413 7.01867,-1.9413 2.38934,0 5.00267,0.7466 l -0.448,10.9014 h -3.73333 l -0.896,-7.84 0.672,1.344 q -0.52267,-0.1494 -1.12,-0.224 -0.59734,-0.075 -1.19467,-0.075 -2.98667,0 -5.824,1.792 -2.76267,1.792 -5.30134,4.6293 l 0.59733,-1.792 v 27.104 l -0.896,-1.12 8.13867,1.4187 v 3.2107 z"
             id="path540" /><path
             d="m 547.40668,1383.8733 -0.672,-0.8214 6.496,1.4187 v 3.2107 h -17.62134 v -3.2107 l 6.496,-1.4187 -0.672,0.8214 v -31.5094 l 0.59733,0.672 -6.42133,-1.344 v -3.2106 l 11.79734,-0.448 z m -3.43467,-43.904 q -1.71734,0 -2.83734,-1.12 -1.12,-1.12 -1.12,-3.0614 0,-2.016 1.12,-3.0613 1.19467,-1.12 2.91201,-1.12 1.792,0 2.912,1.0453 1.12,1.0453 1.12,3.136 0,2.016 -1.19467,3.136 -1.19467,1.0454 -2.912,1.0454 z"
             id="path542" /><path
             d="m 571.07605,1388.3533 q -3.88267,0 -6.12267,-2.3894 -2.24,-2.464 -2.24,-7.392 v -27.104 l 0.97066,0.9707 h -7.69067 v -3.2853 l 7.76534,-1.12 -1.04533,1.1946 v -9.856 l 5.97333,-0.9706 v 10.8266 l -0.82133,-0.9706 h 11.72267 l -0.224,4.1813 h -11.49867 l 0.82133,-0.9707 v 26.2827 q 0,3.136 1.19467,4.5547 1.26933,1.4186 3.50933,1.4186 1.344,0 2.91201,-0.448 1.568,-0.448 3.36,-1.2693 l 1.26933,3.4347 q -5.30134,2.912 -9.856,2.912 z"
             id="path544" /><path
             d="m 600.49469,1388.3533 q -4.928,0 -8.13867,-3.0614 -3.21067,-3.0613 -3.21067,-9.408 v -23.8186 l 0.74667,1.0453 -6.64534,-1.4187 v -3.2106 l 11.87201,-0.448 v 26.8053 q 0,4.48 2.09067,6.6453 2.09067,2.1654 5.6,2.1654 2.76267,0 5.97334,-1.4934 3.21066,-1.4933 6.34667,-4.6293 l -0.448,1.344 v -26.9547 l 0.74666,1.1947 -6.64533,-1.4187 v -3.2106 l 11.872,-0.5227 v 36.064 l -0.896,-0.9707 6.72001,1.2694 v 3.2853 l -10.45334,0.448 -0.896,-7.392 0.82133,0.2987 q -3.65867,3.808 -7.76534,5.6 -4.032,1.792 -7.69067,1.792 z"
             id="path546" /><path
             d="m 661.87079,1384.3213 -0.97066,-1.344 6.86933,1.344 v 3.2853 l -10.45334,0.448 -0.896,-7.168 0.52267,0.224 q -3.28533,3.584 -7.09334,5.4507 -3.808,1.792 -7.392,1.792 -4.33067,0 -7.31734,-2.7627 -2.98666,-2.7627 -2.98666,-8.3627 0,-4.4053 1.86666,-6.72 1.86667,-2.3893 5.15201,-3.36 3.28533,-0.9706 7.616,-0.9706 h 9.78134 l -0.672,0.7466 v -7.168 q 0,-4.1066 -2.16534,-5.824 -2.16533,-1.792 -5.97333,-1.792 -2.016,0 -4.33067,0.448 -2.24,0.3734 -4.77867,1.2694 l 0.896,-0.9707 -0.74667,6.7947 h -3.95733 l -0.59734,-9.2587 q 4.25601,-1.4187 7.98934,-2.0907 3.73334,-0.7466 6.86934,-0.7466 5.97333,0 9.33333,2.688 3.43467,2.6133 3.43467,8.4373 z m -23.66934,-7.616 q 0,3.6586 1.71733,5.376 1.792,1.7173 4.48,1.7173 2.61334,0 5.74934,-1.568 3.21067,-1.6427 6.19734,-4.4053 l -0.448,1.568 v -10.0054 l 0.672,0.672 h -8.88534 q -5.30134,0 -7.392,1.6427 -2.09067,1.568 -2.09067,5.0027 z"
             id="path548" /><path
             d="m 682.85221,1383.8733 -0.672,-0.8214 6.496,1.4187 v 3.2107 H 670.9802 v -3.2107 l 6.49601,-1.4187 -0.59734,0.8214 v -49.4294 l 0.59734,0.672 -6.49601,-1.344 v -3.2107 l 11.87201,-0.5226 z"
             id="path550" /><path
             d="m 705.10287,1383.8733 -0.672,-0.8214 6.49601,1.4187 v 3.2107 h -17.62134 v -3.2107 l 6.496,-1.4187 -0.672,0.8214 v -31.5094 l 0.59733,0.672 -6.42133,-1.344 v -3.2106 l 11.79733,-0.448 z m -3.43466,-43.904 q -1.71734,0 -2.83734,-1.12 -1.12,-1.12 -1.12,-3.0614 0,-2.016 1.12,-3.0613 1.19467,-1.12 2.912,-1.12 1.792,0 2.912,1.0453 1.12,1.0453 1.12,3.136 0,2.016 -1.19466,3.136 -1.19467,1.0454 -2.912,1.0454 z"
             id="path552" /><path
             d="m 728.77224,1388.3533 q -3.88266,0 -6.12267,-2.3894 -2.24,-2.464 -2.24,-7.392 v -27.104 l 0.97067,0.9707 h -7.69067 v -3.2853 l 7.76534,-1.12 -1.04534,1.1946 v -9.856 l 5.97334,-0.9706 v 10.8266 l -0.82133,-0.9706 h 11.72267 l -0.224,4.1813 h -11.49867 l 0.82133,-0.9707 v 26.2827 q 0,3.136 1.19467,4.5547 1.26933,1.4186 3.50933,1.4186 1.344,0 2.912,-0.448 1.568,-0.448 3.36,-1.2693 l 1.26934,3.4347 q -5.30134,2.912 -9.85601,2.912 z"
             id="path554" /><path
             d="m 772.52688,1384.3213 -0.97067,-1.344 6.86933,1.344 v 3.2853 l -10.45333,0.448 -0.896,-7.168 0.52266,0.224 q -3.28533,3.584 -7.09333,5.4507 -3.80801,1.792 -7.39201,1.792 -4.33067,0 -7.31733,-2.7627 -2.98667,-2.7627 -2.98667,-8.3627 0,-4.4053 1.86667,-6.72 1.86666,-2.3893 5.152,-3.36 3.28533,-0.9706 7.616,-0.9706 h 9.78134 l -0.672,0.7466 v -7.168 q 0,-4.1066 -2.16534,-5.824 -2.16533,-1.792 -5.97333,-1.792 -2.016,0 -4.33067,0.448 -2.24,0.3734 -4.77867,1.2694 l 0.896,-0.9707 -0.74667,6.7947 h -3.95733 l -0.59733,-9.2587 q 4.256,-1.4187 7.98933,-2.0907 3.73334,-0.7466 6.86934,-0.7466 5.97334,0 9.33334,2.688 3.43467,2.6133 3.43467,8.4373 z m -23.66935,-7.616 q 0,3.6586 1.71733,5.376 1.79201,1.7173 4.48001,1.7173 2.61333,0 5.74933,-1.568 3.21067,-1.6427 6.19734,-4.4053 l -0.448,1.568 v -10.0054 l 0.672,0.672 h -8.88534 q -5.30133,0 -7.392,1.6427 -2.09067,1.568 -2.09067,5.0027 z m 17.62134,-37.0347 q -1.64267,0 -2.61333,-1.0453 -0.896,-1.0454 -0.97067,-2.8374 0,-1.792 1.04533,-2.8373 1.04534,-1.0454 2.53867,-1.0454 1.64267,0 2.53867,1.0454 0.97067,1.0453 0.97067,2.8373 0,1.792 -1.04534,2.8374 -1.04533,1.0453 -2.464,1.0453 z m -14.85867,0 q -1.64267,0 -2.61334,-1.0453 -0.896,-1.0454 -0.896,-2.8374 0,-1.792 0.97067,-2.8373 1.04533,-1.0454 2.53867,-1.0454 1.64267,0 2.61333,1.0454 0.97067,1.0453 0.97067,2.8373 0,1.792 -1.04533,2.8374 -1.04534,1.0453 -2.53867,1.0453 z"
             id="path556" /><path
             d="m 795.97223,1388.3533 q -3.88267,0 -6.12267,-2.3894 -2.24001,-2.464 -2.24001,-7.392 v -27.104 l 0.97067,0.9707 h -7.69067 v -3.2853 l 7.76534,-1.12 -1.04534,1.1946 v -9.856 l 5.97334,-0.9706 v 10.8266 l -0.82133,-0.9706 h 11.72267 l -0.224,4.1813 h -11.49867 l 0.82133,-0.9707 v 26.2827 q 0,3.136 1.19467,4.5547 1.26933,1.4186 3.50933,1.4186 1.344,0 2.912,-0.448 1.56801,-0.448 3.36001,-1.2693 l 1.26933,3.4347 q -5.30134,2.912 -9.856,2.912 z"
             id="path558" /></g><g
           aria-label="Spiritualität"
           id="text38200"
           style="font-size:74.6667px;line-height:1.15;font-family:Bitter;-inkscape-font-specification:Bitter;stroke-width:2.21141"><path
             d="m 403.44937,1413.7449 q 0,2.8374 1.49333,4.6294 1.49334,1.792 3.95734,2.9866 2.53866,1.12 5.52533,2.016 2.98667,0.896 5.97334,2.016 2.98667,1.0454 5.45067,2.688 2.464,1.568 3.95733,4.1814 1.568,2.5386 1.568,6.4213 0,5.2267 -2.688,8.5867 -2.61333,3.36 -7.01867,5.0026 -4.40533,1.568 -9.632,1.568 -3.73334,0 -7.61601,-0.7466 -3.88266,-0.8214 -7.616,-2.3894 l 0.448,-12.2453 h 3.65867 l 1.26933,9.5573 -0.74666,-1.2693 q 2.61333,1.1947 5.45067,1.792 2.83733,0.5973 5.52533,0.5973 3.50934,0 6.42134,-1.0453 2.912,-1.12 4.704,-3.2107 1.792,-2.1653 1.792,-5.376 0,-2.9866 -1.568,-4.7786 -1.49333,-1.8667 -3.95733,-3.0614 -2.46401,-1.1946 -5.45067,-2.0906 -2.98667,-0.896 -5.97334,-1.8667 -2.98667,-1.0453 -5.45067,-2.6133 -2.464,-1.568 -4.032,-4.032 -1.49334,-2.5387 -1.49334,-6.4214 0,-4.7786 2.31467,-7.9146 2.38934,-3.2107 6.42134,-4.7787 4.10667,-1.568 9.10934,-1.568 3.50933,0 7.31733,0.7467 3.80801,0.7466 7.46667,2.3146 l -0.59733,11.7227 h -3.73334 l -1.12,-8.96 0.896,0.896 q -2.24,-0.9707 -4.85333,-1.4933 -2.61334,-0.5227 -5.22667,-0.5227 -3.06133,0 -5.824,0.896 -2.76267,0.8213 -4.48,2.7627 -1.64267,1.8666 -1.64267,5.0026 z"
             id="path561" /><path
             d="m 436.02889,1470.3423 v -3.2107 l 6.79467,-1.568 -0.97067,1.12 v -49.056 l 0.896,0.9707 -6.72,-1.4187 v -3.2107 l 10.45334,-0.5226 0.74667,6.496 -0.672,-0.448 q 3.43466,-3.2107 6.86933,-4.7787 3.43467,-1.6427 6.79467,-1.6427 4.18134,0 7.46667,2.3147 3.36,2.3147 5.30134,6.72 1.94133,4.3307 1.94133,10.6773 0,6.8694 -2.38933,11.5734 -2.31467,4.704 -6.57067,7.168 -4.256,2.3893 -10.00534,2.3893 -2.09067,0 -4.33067,-0.3733 -2.24,-0.3734 -4.704,-0.9707 l 0.896,-0.8213 v 14.9333 l -0.82133,-1.0453 7.69067,1.4933 v 3.2107 z m 19.26401,-20.9067 q 6.57067,0 10.00534,-4.256 3.43467,-4.256 3.43467,-11.7973 0,-4.928 -1.41867,-8.4374 -1.344,-3.5093 -3.73334,-5.376 -2.38933,-1.9413 -5.45067,-1.9413 -2.61333,0 -5.45066,1.4187 -2.76267,1.344 -5.60001,4.1813 l 0.74667,-1.8667 v 28 l -0.82133,-1.344 q 4.55466,1.4187 8.288,1.4187 z"
             id="path563" /><path
             d="m 493.14897,1449.3609 -0.672,-0.8213 6.496,1.4187 v 3.2106 h -17.62134 v -3.2106 l 6.49601,-1.4187 -0.67201,0.8213 v -31.5093 l 0.59734,0.672 -6.42134,-1.344 v -3.2107 l 11.79734,-0.448 z m -3.43467,-43.904 q -1.71733,0 -2.83733,-1.12 -1.12,-1.12 -1.12,-3.0613 0,-2.016 1.12,-3.0613 1.19467,-1.12 2.912,-1.12 1.792,0 2.912,1.0453 1.12,1.0453 1.12,3.136 0,2.016 -1.19467,3.136 -1.19466,1.0453 -2.912,1.0453 z"
             id="path565" /><path
             d="m 503.60233,1453.1689 v -3.2106 l 6.57067,-1.4187 -0.74666,1.12 v -32.1813 l 0.82133,1.12 -6.64534,-1.4187 v -3.2107 l 10.45334,-0.5226 0.82134,7.3173 -0.82134,-0.2987 q 3.36,-3.5093 6.57067,-5.4506 3.21067,-1.9414 7.01867,-1.9414 2.38934,0 5.00267,0.7467 l -0.448,10.9013 h -3.73333 l -0.896,-7.84 0.672,1.344 q -0.52267,-0.1493 -1.12,-0.224 -0.59734,-0.075 -1.19467,-0.075 -2.98667,0 -5.824,1.792 -2.76267,1.792 -5.30134,4.6293 l 0.59733,-1.792 v 27.104 l -0.896,-1.12 8.13867,1.4187 v 3.2106 z"
             id="path567" /><path
             d="m 547.40668,1449.3609 -0.672,-0.8213 6.496,1.4187 v 3.2106 h -17.62134 v -3.2106 l 6.496,-1.4187 -0.672,0.8213 v -31.5093 l 0.59733,0.672 -6.42133,-1.344 v -3.2107 l 11.79734,-0.448 z m -3.43467,-43.904 q -1.71734,0 -2.83734,-1.12 -1.12,-1.12 -1.12,-3.0613 0,-2.016 1.12,-3.0613 1.19467,-1.12 2.91201,-1.12 1.792,0 2.912,1.0453 1.12,1.0453 1.12,3.136 0,2.016 -1.19467,3.136 -1.19467,1.0453 -2.912,1.0453 z"
             id="path569" /><path
             d="m 571.07605,1453.8409 q -3.88267,0 -6.12267,-2.3893 -2.24,-2.464 -2.24,-7.392 v -27.104 l 0.97066,0.9707 h -7.69067 v -3.2854 l 7.76534,-1.12 -1.04533,1.1947 v -9.856 l 5.97333,-0.9707 v 10.8267 l -0.82133,-0.9707 h 11.72267 l -0.224,4.1814 h -11.49867 l 0.82133,-0.9707 v 26.2827 q 0,3.136 1.19467,4.5546 1.26933,1.4187 3.50933,1.4187 1.344,0 2.91201,-0.448 1.568,-0.448 3.36,-1.2693 l 1.26933,3.4346 q -5.30134,2.912 -9.856,2.912 z"
             id="path571" /><path
             d="m 600.49469,1453.8409 q -4.928,0 -8.13867,-3.0613 -3.21067,-3.0613 -3.21067,-9.408 v -23.8187 l 0.74667,1.0454 -6.64534,-1.4187 v -3.2107 l 11.87201,-0.448 v 26.8054 q 0,4.48 2.09067,6.6453 2.09067,2.1653 5.6,2.1653 2.76267,0 5.97334,-1.4933 3.21066,-1.4933 6.34667,-4.6293 l -0.448,1.344 v -26.9547 l 0.74666,1.1947 -6.64533,-1.4187 v -3.2107 l 11.872,-0.5226 v 36.064 l -0.896,-0.9707 6.72001,1.2693 v 3.2854 l -10.45334,0.448 -0.896,-7.392 0.82133,0.2986 q -3.65867,3.808 -7.76534,5.6 -4.032,1.792 -7.69067,1.792 z"
             id="path573" /><path
             d="m 661.87079,1449.8089 -0.97066,-1.344 6.86933,1.344 v 3.2854 l -10.45334,0.448 -0.896,-7.168 0.52267,0.224 q -3.28533,3.584 -7.09334,5.4506 -3.808,1.792 -7.392,1.792 -4.33067,0 -7.31734,-2.7626 -2.98666,-2.7627 -2.98666,-8.3627 0,-4.4053 1.86666,-6.72 1.86667,-2.3893 5.15201,-3.36 3.28533,-0.9707 7.616,-0.9707 h 9.78134 l -0.672,0.7467 v -7.168 q 0,-4.1067 -2.16534,-5.824 -2.16533,-1.792 -5.97333,-1.792 -2.016,0 -4.33067,0.448 -2.24,0.3733 -4.77867,1.2693 l 0.896,-0.9706 -0.74667,6.7946 h -3.95733 l -0.59734,-9.2586 q 4.25601,-1.4187 7.98934,-2.0907 3.73334,-0.7467 6.86934,-0.7467 5.97333,0 9.33333,2.688 3.43467,2.6134 3.43467,8.4374 z m -23.66934,-7.616 q 0,3.6587 1.71733,5.376 1.792,1.7174 4.48,1.7174 2.61334,0 5.74934,-1.568 3.21067,-1.6427 6.19734,-4.4054 l -0.448,1.568 v -10.0053 l 0.672,0.672 h -8.88534 q -5.30134,0 -7.392,1.6427 -2.09067,1.568 -2.09067,5.0026 z"
             id="path575" /><path
             d="m 682.85221,1449.3609 -0.672,-0.8213 6.496,1.4187 v 3.2106 H 670.9802 v -3.2106 l 6.49601,-1.4187 -0.59734,0.8213 v -49.4293 l 0.59734,0.672 -6.49601,-1.344 v -3.2107 l 11.87201,-0.5226 z"
             id="path577" /><path
             d="m 705.10287,1449.3609 -0.672,-0.8213 6.49601,1.4187 v 3.2106 h -17.62134 v -3.2106 l 6.496,-1.4187 -0.672,0.8213 v -31.5093 l 0.59733,0.672 -6.42133,-1.344 v -3.2107 l 11.79733,-0.448 z m -3.43466,-43.904 q -1.71734,0 -2.83734,-1.12 -1.12,-1.12 -1.12,-3.0613 0,-2.016 1.12,-3.0613 1.19467,-1.12 2.912,-1.12 1.792,0 2.912,1.0453 1.12,1.0453 1.12,3.136 0,2.016 -1.19466,3.136 -1.19467,1.0453 -2.912,1.0453 z"
             id="path579" /><path
             d="m 728.77224,1453.8409 q -3.88266,0 -6.12267,-2.3893 -2.24,-2.464 -2.24,-7.392 v -27.104 l 0.97067,0.9707 h -7.69067 v -3.2854 l 7.76534,-1.12 -1.04534,1.1947 v -9.856 l 5.97334,-0.9707 v 10.8267 l -0.82133,-0.9707 h 11.72267 l -0.224,4.1814 h -11.49867 l 0.82133,-0.9707 v 26.2827 q 0,3.136 1.19467,4.5546 1.26933,1.4187 3.50933,1.4187 1.344,0 2.912,-0.448 1.568,-0.448 3.36,-1.2693 l 1.26934,3.4346 q -5.30134,2.912 -9.85601,2.912 z"
             id="path581" /><path
             d="m 772.52688,1449.8089 -0.97067,-1.344 6.86933,1.344 v 3.2854 l -10.45333,0.448 -0.896,-7.168 0.52266,0.224 q -3.28533,3.584 -7.09333,5.4506 -3.80801,1.792 -7.39201,1.792 -4.33067,0 -7.31733,-2.7626 -2.98667,-2.7627 -2.98667,-8.3627 0,-4.4053 1.86667,-6.72 1.86666,-2.3893 5.152,-3.36 3.28533,-0.9707 7.616,-0.9707 h 9.78134 l -0.672,0.7467 v -7.168 q 0,-4.1067 -2.16534,-5.824 -2.16533,-1.792 -5.97333,-1.792 -2.016,0 -4.33067,0.448 -2.24,0.3733 -4.77867,1.2693 l 0.896,-0.9706 -0.74667,6.7946 h -3.95733 l -0.59733,-9.2586 q 4.256,-1.4187 7.98933,-2.0907 3.73334,-0.7467 6.86934,-0.7467 5.97334,0 9.33334,2.688 3.43467,2.6134 3.43467,8.4374 z m -23.66935,-7.616 q 0,3.6587 1.71733,5.376 1.79201,1.7174 4.48001,1.7174 2.61333,0 5.74933,-1.568 3.21067,-1.6427 6.19734,-4.4054 l -0.448,1.568 v -10.0053 l 0.672,0.672 h -8.88534 q -5.30133,0 -7.392,1.6427 -2.09067,1.568 -2.09067,5.0026 z m 17.62134,-37.0346 q -1.64267,0 -2.61333,-1.0454 -0.896,-1.0453 -0.97067,-2.8373 0,-1.792 1.04533,-2.8373 1.04534,-1.0454 2.53867,-1.0454 1.64267,0 2.53867,1.0454 0.97067,1.0453 0.97067,2.8373 0,1.792 -1.04534,2.8373 -1.04533,1.0454 -2.464,1.0454 z m -14.85867,0 q -1.64267,0 -2.61334,-1.0454 -0.896,-1.0453 -0.896,-2.8373 0,-1.792 0.97067,-2.8373 1.04533,-1.0454 2.53867,-1.0454 1.64267,0 2.61333,1.0454 0.97067,1.0453 0.97067,2.8373 0,1.792 -1.04533,2.8373 -1.04534,1.0454 -2.53867,1.0454 z"
             id="path583" /><path
             d="m 795.97223,1453.8409 q -3.88267,0 -6.12267,-2.3893 -2.24001,-2.464 -2.24001,-7.392 v -27.104 l 0.97067,0.9707 h -7.69067 v -3.2854 l 7.76534,-1.12 -1.04534,1.1947 v -9.856 l 5.97334,-0.9707 v 10.8267 l -0.82133,-0.9707 h 11.72267 l -0.224,4.1814 h -11.49867 l 0.82133,-0.9707 v 26.2827 q 0,3.136 1.19467,4.5546 1.26933,1.4187 3.50933,1.4187 1.344,0 2.912,-0.448 1.56801,-0.448 3.36001,-1.2693 l 1.26933,3.4346 q -5.30134,2.912 -9.856,2.912 z"
             id="path585" /></g></g><g
         aria-label="Spiritualität"
         id="text38206"
         style="font-size:74.6667px;line-height:1.15;font-family:Bitter;-inkscape-font-specification:Bitter;stroke-width:2.21141"><path
           d="m 403.44937,1479.1782 q 0,2.8373 1.49333,4.6293 1.49334,1.792 3.95734,2.9867 2.53866,1.12 5.52533,2.016 2.98667,0.896 5.97334,2.016 2.98667,1.0453 5.45067,2.688 2.464,1.568 3.95733,4.1813 1.568,2.5387 1.568,6.4213 0,5.2267 -2.688,8.5867 -2.61333,3.36 -7.01867,5.0027 -4.40533,1.568 -9.632,1.568 -3.73334,0 -7.61601,-0.7467 -3.88266,-0.8213 -7.616,-2.3893 l 0.448,-12.2454 h 3.65867 l 1.26933,9.5574 -0.74666,-1.2694 q 2.61333,1.1947 5.45067,1.792 2.83733,0.5974 5.52533,0.5974 3.50934,0 6.42134,-1.0454 2.912,-1.12 4.704,-3.2106 1.792,-2.1654 1.792,-5.376 0,-2.9867 -1.568,-4.7787 -1.49333,-1.8667 -3.95733,-3.0613 -2.46401,-1.1947 -5.45067,-2.0907 -2.98667,-0.896 -5.97334,-1.8667 -2.98667,-1.0453 -5.45067,-2.6133 -2.464,-1.568 -4.032,-4.032 -1.49334,-2.5387 -1.49334,-6.4213 0,-4.7787 2.31467,-7.9147 2.38934,-3.2107 6.42134,-4.7787 4.10667,-1.568 9.10934,-1.568 3.50933,0 7.31733,0.7467 3.80801,0.7466 7.46667,2.3146 l -0.59733,11.7227 h -3.73334 l -1.12,-8.96 0.896,0.896 q -2.24,-0.9706 -4.85333,-1.4933 -2.61334,-0.5227 -5.22667,-0.5227 -3.06133,0 -5.824,0.896 -2.76267,0.8214 -4.48,2.7627 -1.64267,1.8667 -1.64267,5.0027 z"
           id="path588" /><path
           d="m 436.02889,1535.7755 v -3.2107 l 6.79467,-1.568 -0.97067,1.12 v -49.056 l 0.896,0.9707 -6.72,-1.4187 v -3.2106 l 10.45334,-0.5227 0.74667,6.496 -0.672,-0.448 q 3.43466,-3.2107 6.86933,-4.7787 3.43467,-1.6426 6.79467,-1.6426 4.18134,0 7.46667,2.3146 3.36,2.3147 5.30134,6.72 1.94133,4.3307 1.94133,10.6774 0,6.8693 -2.38933,11.5733 -2.31467,4.704 -6.57067,7.168 -4.256,2.3893 -10.00534,2.3893 -2.09067,0 -4.33067,-0.3733 -2.24,-0.3733 -4.704,-0.9707 l 0.896,-0.8213 v 14.9333 l -0.82133,-1.0453 7.69067,1.4933 v 3.2107 z m 19.26401,-20.9067 q 6.57067,0 10.00534,-4.256 3.43467,-4.256 3.43467,-11.7973 0,-4.928 -1.41867,-8.4373 -1.344,-3.5094 -3.73334,-5.376 -2.38933,-1.9414 -5.45067,-1.9414 -2.61333,0 -5.45066,1.4187 -2.76267,1.344 -5.60001,4.1813 l 0.74667,-1.8666 v 28 l -0.82133,-1.344 q 4.55466,1.4186 8.288,1.4186 z"
           id="path590" /><path
           d="m 493.14897,1514.7942 -0.672,-0.8214 6.496,1.4187 v 3.2107 h -17.62134 v -3.2107 l 6.49601,-1.4187 -0.67201,0.8214 v -31.5094 l 0.59734,0.672 -6.42134,-1.344 v -3.2106 l 11.79734,-0.448 z m -3.43467,-43.904 q -1.71733,0 -2.83733,-1.1201 -1.12,-1.12 -1.12,-3.0613 0,-2.016 1.12,-3.0613 1.19467,-1.12 2.912,-1.12 1.792,0 2.912,1.0453 1.12,1.0453 1.12,3.136 0,2.016 -1.19467,3.136 -1.19466,1.0454 -2.912,1.0454 z"
           id="path592" /><path
           d="m 503.60233,1518.6022 v -3.2107 l 6.57067,-1.4187 -0.74666,1.12 v -32.1813 l 0.82133,1.12 -6.64534,-1.4187 v -3.2106 l 10.45334,-0.5227 0.82134,7.3173 -0.82134,-0.2986 q 3.36,-3.5094 6.57067,-5.4507 3.21067,-1.9413 7.01867,-1.9413 2.38934,0 5.00267,0.7466 l -0.448,10.9014 h -3.73333 l -0.896,-7.84 0.672,1.344 q -0.52267,-0.1494 -1.12,-0.224 -0.59734,-0.075 -1.19467,-0.075 -2.98667,0 -5.824,1.792 -2.76267,1.792 -5.30134,4.6293 l 0.59733,-1.792 v 27.104 l -0.896,-1.12 8.13867,1.4187 v 3.2107 z"
           id="path594" /><path
           d="m 547.40668,1514.7942 -0.672,-0.8214 6.496,1.4187 v 3.2107 h -17.62134 v -3.2107 l 6.496,-1.4187 -0.672,0.8214 v -31.5094 l 0.59733,0.672 -6.42133,-1.344 v -3.2106 l 11.79734,-0.448 z m -3.43467,-43.904 q -1.71734,0 -2.83734,-1.1201 -1.12,-1.12 -1.12,-3.0613 0,-2.016 1.12,-3.0613 1.19467,-1.12 2.91201,-1.12 1.792,0 2.912,1.0453 1.12,1.0453 1.12,3.136 0,2.016 -1.19467,3.136 -1.19467,1.0454 -2.912,1.0454 z"
           id="path596" /><path
           d="m 571.07605,1519.2742 q -3.88267,0 -6.12267,-2.3894 -2.24,-2.464 -2.24,-7.392 v -27.104 l 0.97066,0.9707 h -7.69067 v -3.2853 l 7.76534,-1.12 -1.04533,1.1946 v -9.856 l 5.97333,-0.9707 v 10.8267 l -0.82133,-0.9706 h 11.72267 l -0.224,4.1813 h -11.49867 l 0.82133,-0.9707 v 26.2827 q 0,3.136 1.19467,4.5547 1.26933,1.4186 3.50933,1.4186 1.344,0 2.91201,-0.448 1.568,-0.448 3.36,-1.2693 l 1.26933,3.4347 q -5.30134,2.912 -9.856,2.912 z"
           id="path598" /><path
           d="m 600.49469,1519.2742 q -4.928,0 -8.13867,-3.0614 -3.21067,-3.0613 -3.21067,-9.408 v -23.8186 l 0.74667,1.0453 -6.64534,-1.4187 v -3.2106 l 11.87201,-0.448 v 26.8053 q 0,4.48 2.09067,6.6453 2.09067,2.1654 5.6,2.1654 2.76267,0 5.97334,-1.4934 3.21066,-1.4933 6.34667,-4.6293 l -0.448,1.344 v -26.9547 l 0.74666,1.1947 -6.64533,-1.4187 v -3.2106 l 11.872,-0.5227 v 36.064 l -0.896,-0.9707 6.72001,1.2694 v 3.2853 l -10.45334,0.448 -0.896,-7.392 0.82133,0.2987 q -3.65867,3.808 -7.76534,5.6 -4.032,1.792 -7.69067,1.792 z"
           id="path600" /><path
           d="m 661.87079,1515.2422 -0.97066,-1.344 6.86933,1.344 v 3.2853 l -10.45334,0.448 -0.896,-7.168 0.52267,0.224 q -3.28533,3.584 -7.09334,5.4507 -3.808,1.792 -7.392,1.792 -4.33067,0 -7.31734,-2.7627 -2.98666,-2.7627 -2.98666,-8.3627 0,-4.4053 1.86666,-6.72 1.86667,-2.3893 5.15201,-3.36 3.28533,-0.9706 7.616,-0.9706 h 9.78134 l -0.672,0.7466 v -7.168 q 0,-4.1066 -2.16534,-5.824 -2.16533,-1.792 -5.97333,-1.792 -2.016,0 -4.33067,0.448 -2.24,0.3734 -4.77867,1.2694 l 0.896,-0.9707 -0.74667,6.7947 h -3.95733 l -0.59734,-9.2587 q 4.25601,-1.4187 7.98934,-2.0907 3.73334,-0.7466 6.86934,-0.7466 5.97333,0 9.33333,2.688 3.43467,2.6133 3.43467,8.4373 z m -23.66934,-7.616 q 0,3.6586 1.71733,5.376 1.792,1.7173 4.48,1.7173 2.61334,0 5.74934,-1.568 3.21067,-1.6427 6.19734,-4.4053 l -0.448,1.568 v -10.0054 l 0.672,0.672 h -8.88534 q -5.30134,0 -7.392,1.6427 -2.09067,1.568 -2.09067,5.0027 z"
           id="path602" /><path
           d="m 682.85221,1514.7942 -0.672,-0.8214 6.496,1.4187 v 3.2107 H 670.9802 v -3.2107 l 6.49601,-1.4187 -0.59734,0.8214 v -49.4294 l 0.59734,0.672 -6.49601,-1.344 v -3.2107 l 11.87201,-0.5226 z"
           id="path604" /><path
           d="m 705.10287,1514.7942 -0.672,-0.8214 6.49601,1.4187 v 3.2107 h -17.62134 v -3.2107 l 6.496,-1.4187 -0.672,0.8214 v -31.5094 l 0.59733,0.672 -6.42133,-1.344 v -3.2106 l 11.79733,-0.448 z m -3.43466,-43.904 q -1.71734,0 -2.83734,-1.1201 -1.12,-1.12 -1.12,-3.0613 0,-2.016 1.12,-3.0613 1.19467,-1.12 2.912,-1.12 1.792,0 2.912,1.0453 1.12,1.0453 1.12,3.136 0,2.016 -1.19466,3.136 -1.19467,1.0454 -2.912,1.0454 z"
           id="path606" /><path
           d="m 728.77224,1519.2742 q -3.88266,0 -6.12267,-2.3894 -2.24,-2.464 -2.24,-7.392 v -27.104 l 0.97067,0.9707 h -7.69067 v -3.2853 l 7.76534,-1.12 -1.04534,1.1946 v -9.856 l 5.97334,-0.9707 v 10.8267 l -0.82133,-0.9706 h 11.72267 l -0.224,4.1813 h -11.49867 l 0.82133,-0.9707 v 26.2827 q 0,3.136 1.19467,4.5547 1.26933,1.4186 3.50933,1.4186 1.344,0 2.912,-0.448 1.568,-0.448 3.36,-1.2693 l 1.26934,3.4347 q -5.30134,2.912 -9.85601,2.912 z"
           id="path608" /><path
           d="m 772.52688,1515.2422 -0.97067,-1.344 6.86933,1.344 v 3.2853 l -10.45333,0.448 -0.896,-7.168 0.52266,0.224 q -3.28533,3.584 -7.09333,5.4507 -3.80801,1.792 -7.39201,1.792 -4.33067,0 -7.31733,-2.7627 -2.98667,-2.7627 -2.98667,-8.3627 0,-4.4053 1.86667,-6.72 1.86666,-2.3893 5.152,-3.36 3.28533,-0.9706 7.616,-0.9706 h 9.78134 l -0.672,0.7466 v -7.168 q 0,-4.1066 -2.16534,-5.824 -2.16533,-1.792 -5.97333,-1.792 -2.016,0 -4.33067,0.448 -2.24,0.3734 -4.77867,1.2694 l 0.896,-0.9707 -0.74667,6.7947 h -3.95733 l -0.59733,-9.2587 q 4.256,-1.4187 7.98933,-2.0907 3.73334,-0.7466 6.86934,-0.7466 5.97334,0 9.33334,2.688 3.43467,2.6133 3.43467,8.4373 z m -23.66935,-7.616 q 0,3.6586 1.71733,5.376 1.79201,1.7173 4.48001,1.7173 2.61333,0 5.74933,-1.568 3.21067,-1.6427 6.19734,-4.4053 l -0.448,1.568 v -10.0054 l 0.672,0.672 h -8.88534 q -5.30133,0 -7.392,1.6427 -2.09067,1.568 -2.09067,5.0027 z m 17.62134,-37.0347 q -1.64267,0 -2.61333,-1.0454 -0.896,-1.0453 -0.97067,-2.8373 0,-1.792 1.04533,-2.8373 1.04534,-1.0454 2.53867,-1.0454 1.64267,0 2.53867,1.0454 0.97067,1.0453 0.97067,2.8373 0,1.792 -1.04534,2.8373 -1.04533,1.0454 -2.464,1.0454 z m -14.85867,0 q -1.64267,0 -2.61334,-1.0454 -0.896,-1.0453 -0.896,-2.8373 0,-1.792 0.97067,-2.8373 1.04533,-1.0454 2.53867,-1.0454 1.64267,0 2.61333,1.0454 0.97067,1.0453 0.97067,2.8373 0,1.792 -1.04533,2.8373 -1.04534,1.0454 -2.53867,1.0454 z"
           id="path610" /><path
           d="m 795.97223,1519.2742 q -3.88267,0 -6.12267,-2.3894 -2.24001,-2.464 -2.24001,-7.392 v -27.104 l 0.97067,0.9707 h -7.69067 v -3.2853 l 7.76534,-1.12 -1.04534,1.1946 v -9.856 l 5.97334,-0.9707 v 10.8267 l -0.82133,-0.9706 h 11.72267 l -0.224,4.1813 h -11.49867 l 0.82133,-0.9707 v 26.2827 q 0,3.136 1.19467,4.5547 1.26933,1.4186 3.50933,1.4186 1.344,0 2.912,-0.448 1.56801,-0.448 3.36001,-1.2693 l 1.26933,3.4347 q -5.30134,2.912 -9.856,2.912 z"
           id="path612" /></g><g
         aria-label="Spiritualität"
         id="text38210"
         style="font-size:74.6667px;line-height:1.15;font-family:Bitter;-inkscape-font-specification:Bitter;stroke-width:2.21141"><path
           d="m 403.44937,1544.6658 q 0,2.8374 1.49333,4.6294 1.49334,1.792 3.95734,2.9866 2.53866,1.12 5.52533,2.016 2.98667,0.896 5.97334,2.016 2.98667,1.0454 5.45067,2.688 2.464,1.568 3.95733,4.1814 1.568,2.5386 1.568,6.4213 0,5.2267 -2.688,8.5867 -2.61333,3.36 -7.01867,5.0026 -4.40533,1.568 -9.632,1.568 -3.73334,0 -7.61601,-0.7466 -3.88266,-0.8214 -7.616,-2.3894 l 0.448,-12.2453 h 3.65867 l 1.26933,9.5573 -0.74666,-1.2693 q 2.61333,1.1947 5.45067,1.792 2.83733,0.5973 5.52533,0.5973 3.50934,0 6.42134,-1.0453 2.912,-1.12 4.704,-3.2107 1.792,-2.1653 1.792,-5.376 0,-2.9866 -1.568,-4.7786 -1.49333,-1.8667 -3.95733,-3.0614 -2.46401,-1.1946 -5.45067,-2.0906 -2.98667,-0.896 -5.97334,-1.8667 -2.98667,-1.0453 -5.45067,-2.6133 -2.464,-1.568 -4.032,-4.032 -1.49334,-2.5387 -1.49334,-6.4214 0,-4.7786 2.31467,-7.9146 2.38934,-3.2107 6.42134,-4.7787 4.10667,-1.568 9.10934,-1.568 3.50933,0 7.31733,0.7467 3.80801,0.7466 7.46667,2.3146 l -0.59733,11.7227 h -3.73334 l -1.12,-8.96 0.896,0.896 q -2.24,-0.9707 -4.85333,-1.4933 -2.61334,-0.5227 -5.22667,-0.5227 -3.06133,0 -5.824,0.896 -2.76267,0.8213 -4.48,2.7627 -1.64267,1.8666 -1.64267,5.0026 z"
           id="path615" /><path
           d="m 436.02889,1601.2632 v -3.2107 l 6.79467,-1.568 -0.97067,1.12 v -49.056 l 0.896,0.9707 -6.72,-1.4187 v -3.2107 l 10.45334,-0.5226 0.74667,6.496 -0.672,-0.448 q 3.43466,-3.2107 6.86933,-4.7787 3.43467,-1.6427 6.79467,-1.6427 4.18134,0 7.46667,2.3147 3.36,2.3147 5.30134,6.72 1.94133,4.3307 1.94133,10.6773 0,6.8694 -2.38933,11.5734 -2.31467,4.704 -6.57067,7.168 -4.256,2.3893 -10.00534,2.3893 -2.09067,0 -4.33067,-0.3733 -2.24,-0.3734 -4.704,-0.9707 l 0.896,-0.8213 v 14.9333 l -0.82133,-1.0453 7.69067,1.4933 v 3.2107 z m 19.26401,-20.9067 q 6.57067,0 10.00534,-4.256 3.43467,-4.256 3.43467,-11.7973 0,-4.928 -1.41867,-8.4374 -1.344,-3.5093 -3.73334,-5.376 -2.38933,-1.9413 -5.45067,-1.9413 -2.61333,0 -5.45066,1.4187 -2.76267,1.344 -5.60001,4.1813 l 0.74667,-1.8667 v 28 l -0.82133,-1.344 q 4.55466,1.4187 8.288,1.4187 z"
           id="path617" /><path
           d="m 493.14897,1580.2818 -0.672,-0.8213 6.496,1.4187 v 3.2106 h -17.62134 v -3.2106 l 6.49601,-1.4187 -0.67201,0.8213 v -31.5093 l 0.59734,0.672 -6.42134,-1.344 v -3.2107 l 11.79734,-0.448 z m -3.43467,-43.904 q -1.71733,0 -2.83733,-1.12 -1.12,-1.12 -1.12,-3.0613 0,-2.016 1.12,-3.0613 1.19467,-1.12 2.912,-1.12 1.792,0 2.912,1.0453 1.12,1.0453 1.12,3.136 0,2.016 -1.19467,3.136 -1.19466,1.0453 -2.912,1.0453 z"
           id="path619" /><path
           d="m 503.60233,1584.0898 v -3.2106 l 6.57067,-1.4187 -0.74666,1.12 v -32.1813 l 0.82133,1.12 -6.64534,-1.4187 v -3.2107 l 10.45334,-0.5226 0.82134,7.3173 -0.82134,-0.2987 q 3.36,-3.5093 6.57067,-5.4506 3.21067,-1.9414 7.01867,-1.9414 2.38934,0 5.00267,0.7467 l -0.448,10.9013 h -3.73333 l -0.896,-7.84 0.672,1.344 q -0.52267,-0.1493 -1.12,-0.224 -0.59734,-0.075 -1.19467,-0.075 -2.98667,0 -5.824,1.792 -2.76267,1.792 -5.30134,4.6293 l 0.59733,-1.792 v 27.104 l -0.896,-1.12 8.13867,1.4187 v 3.2106 z"
           id="path621" /><path
           d="m 547.40668,1580.2818 -0.672,-0.8213 6.496,1.4187 v 3.2106 h -17.62134 v -3.2106 l 6.496,-1.4187 -0.672,0.8213 v -31.5093 l 0.59733,0.672 -6.42133,-1.344 v -3.2107 l 11.79734,-0.448 z m -3.43467,-43.904 q -1.71734,0 -2.83734,-1.12 -1.12,-1.12 -1.12,-3.0613 0,-2.016 1.12,-3.0613 1.19467,-1.12 2.91201,-1.12 1.792,0 2.912,1.0453 1.12,1.0453 1.12,3.136 0,2.016 -1.19467,3.136 -1.19467,1.0453 -2.912,1.0453 z"
           id="path623" /><path
           d="m 571.07605,1584.7618 q -3.88267,0 -6.12267,-2.3893 -2.24,-2.464 -2.24,-7.392 v -27.104 l 0.97066,0.9707 h -7.69067 v -3.2854 l 7.76534,-1.12 -1.04533,1.1947 v -9.856 l 5.97333,-0.9707 v 10.8267 l -0.82133,-0.9707 h 11.72267 l -0.224,4.1814 h -11.49867 l 0.82133,-0.9707 v 26.2827 q 0,3.136 1.19467,4.5546 1.26933,1.4187 3.50933,1.4187 1.344,0 2.91201,-0.448 1.568,-0.448 3.36,-1.2693 l 1.26933,3.4346 q -5.30134,2.912 -9.856,2.912 z"
           id="path625" /><path
           d="m 600.49469,1584.7618 q -4.928,0 -8.13867,-3.0613 -3.21067,-3.0613 -3.21067,-9.408 v -23.8187 l 0.74667,1.0454 -6.64534,-1.4187 v -3.2107 l 11.87201,-0.448 v 26.8054 q 0,4.48 2.09067,6.6453 2.09067,2.1653 5.6,2.1653 2.76267,0 5.97334,-1.4933 3.21066,-1.4933 6.34667,-4.6293 l -0.448,1.344 v -26.9547 l 0.74666,1.1947 -6.64533,-1.4187 v -3.2107 l 11.872,-0.5226 v 36.064 l -0.896,-0.9707 6.72001,1.2693 v 3.2854 l -10.45334,0.448 -0.896,-7.392 0.82133,0.2986 q -3.65867,3.808 -7.76534,5.6 -4.032,1.792 -7.69067,1.792 z"
           id="path627" /><path
           d="m 661.87079,1580.7298 -0.97066,-1.344 6.86933,1.344 v 3.2854 l -10.45334,0.448 -0.896,-7.168 0.52267,0.224 q -3.28533,3.584 -7.09334,5.4506 -3.808,1.792 -7.392,1.792 -4.33067,0 -7.31734,-2.7626 -2.98666,-2.7627 -2.98666,-8.3627 0,-4.4053 1.86666,-6.72 1.86667,-2.3893 5.15201,-3.36 3.28533,-0.9707 7.616,-0.9707 h 9.78134 l -0.672,0.7467 v -7.168 q 0,-4.1067 -2.16534,-5.824 -2.16533,-1.792 -5.97333,-1.792 -2.016,0 -4.33067,0.448 -2.24,0.3733 -4.77867,1.2693 l 0.896,-0.9706 -0.74667,6.7946 h -3.95733 l -0.59734,-9.2586 q 4.25601,-1.4187 7.98934,-2.0907 3.73334,-0.7467 6.86934,-0.7467 5.97333,0 9.33333,2.688 3.43467,2.6134 3.43467,8.4374 z m -23.66934,-7.616 q 0,3.6587 1.71733,5.376 1.792,1.7174 4.48,1.7174 2.61334,0 5.74934,-1.568 3.21067,-1.6427 6.19734,-4.4054 l -0.448,1.568 v -10.0053 l 0.672,0.672 h -8.88534 q -5.30134,0 -7.392,1.6427 -2.09067,1.568 -2.09067,5.0026 z"
           id="path629" /><path
           d="m 682.85221,1580.2818 -0.672,-0.8213 6.496,1.4187 v 3.2106 H 670.9802 v -3.2106 l 6.49601,-1.4187 -0.59734,0.8213 v -49.4293 l 0.59734,0.672 -6.49601,-1.344 v -3.2107 l 11.87201,-0.5227 z"
           id="path631" /><path
           d="m 705.10287,1580.2818 -0.672,-0.8213 6.49601,1.4187 v 3.2106 h -17.62134 v -3.2106 l 6.496,-1.4187 -0.672,0.8213 v -31.5093 l 0.59733,0.672 -6.42133,-1.344 v -3.2107 l 11.79733,-0.448 z m -3.43466,-43.904 q -1.71734,0 -2.83734,-1.12 -1.12,-1.12 -1.12,-3.0613 0,-2.016 1.12,-3.0613 1.19467,-1.12 2.912,-1.12 1.792,0 2.912,1.0453 1.12,1.0453 1.12,3.136 0,2.016 -1.19466,3.136 -1.19467,1.0453 -2.912,1.0453 z"
           id="path633" /><path
           d="m 728.77224,1584.7618 q -3.88266,0 -6.12267,-2.3893 -2.24,-2.464 -2.24,-7.392 v -27.104 l 0.97067,0.9707 h -7.69067 v -3.2854 l 7.76534,-1.12 -1.04534,1.1947 v -9.856 l 5.97334,-0.9707 v 10.8267 l -0.82133,-0.9707 h 11.72267 l -0.224,4.1814 h -11.49867 l 0.82133,-0.9707 v 26.2827 q 0,3.136 1.19467,4.5546 1.26933,1.4187 3.50933,1.4187 1.344,0 2.912,-0.448 1.568,-0.448 3.36,-1.2693 l 1.26934,3.4346 q -5.30134,2.912 -9.85601,2.912 z"
           id="path635" /><path
           d="m 772.52688,1580.7298 -0.97067,-1.344 6.86933,1.344 v 3.2854 l -10.45333,0.448 -0.896,-7.168 0.52266,0.224 q -3.28533,3.584 -7.09333,5.4506 -3.80801,1.792 -7.39201,1.792 -4.33067,0 -7.31733,-2.7626 -2.98667,-2.7627 -2.98667,-8.3627 0,-4.4053 1.86667,-6.72 1.86666,-2.3893 5.152,-3.36 3.28533,-0.9707 7.616,-0.9707 h 9.78134 l -0.672,0.7467 v -7.168 q 0,-4.1067 -2.16534,-5.824 -2.16533,-1.792 -5.97333,-1.792 -2.016,0 -4.33067,0.448 -2.24,0.3733 -4.77867,1.2693 l 0.896,-0.9706 -0.74667,6.7946 h -3.95733 l -0.59733,-9.2586 q 4.256,-1.4187 7.98933,-2.0907 3.73334,-0.7467 6.86934,-0.7467 5.97334,0 9.33334,2.688 3.43467,2.6134 3.43467,8.4374 z m -23.66935,-7.616 q 0,3.6587 1.71733,5.376 1.79201,1.7174 4.48001,1.7174 2.61333,0 5.74933,-1.568 3.21067,-1.6427 6.19734,-4.4054 l -0.448,1.568 v -10.0053 l 0.672,0.672 h -8.88534 q -5.30133,0 -7.392,1.6427 -2.09067,1.568 -2.09067,5.0026 z m 17.62134,-37.0346 q -1.64267,0 -2.61333,-1.0454 -0.896,-1.0453 -0.97067,-2.8373 0,-1.792 1.04533,-2.8373 1.04534,-1.0454 2.53867,-1.0454 1.64267,0 2.53867,1.0454 0.97067,1.0453 0.97067,2.8373 0,1.792 -1.04534,2.8373 -1.04533,1.0454 -2.464,1.0454 z m -14.85867,0 q -1.64267,0 -2.61334,-1.0454 -0.896,-1.0453 -0.896,-2.8373 0,-1.792 0.97067,-2.8373 1.04533,-1.0454 2.53867,-1.0454 1.64267,0 2.61333,1.0454 0.97067,1.0453 0.97067,2.8373 0,1.792 -1.04533,2.8373 -1.04534,1.0454 -2.53867,1.0454 z"
           id="path637" /><path
           d="m 795.97223,1584.7618 q -3.88267,0 -6.12267,-2.3893 -2.24001,-2.464 -2.24001,-7.392 v -27.104 l 0.97067,0.9707 h -7.69067 v -3.2854 l 7.76534,-1.12 -1.04534,1.1947 v -9.856 l 5.97334,-0.9707 v 10.8267 l -0.82133,-0.9707 h 11.72267 l -0.224,4.1814 h -11.49867 l 0.82133,-0.9707 v 26.2827 q 0,3.136 1.19467,4.5546 1.26933,1.4187 3.50933,1.4187 1.344,0 2.912,-0.448 1.56801,-0.448 3.36001,-1.2693 l 1.26933,3.4346 q -5.30134,2.912 -9.856,2.912 z"
           id="path639" /></g><g
         aria-label="Spiritualität"
         id="text38214"
         style="font-size:74.6667px;line-height:1.15;font-family:Bitter;-inkscape-font-specification:Bitter;stroke-width:2.21141"><path
           d="m 403.44937,1608.7773 q 0,2.8373 1.49333,4.6293 1.49334,1.792 3.95734,2.9867 2.53866,1.12 5.52533,2.016 2.98667,0.896 5.97334,2.016 2.98667,1.0453 5.45067,2.688 2.464,1.568 3.95733,4.1813 1.568,2.5387 1.568,6.4214 0,5.2266 -2.688,8.5866 -2.61333,3.36 -7.01867,5.0027 -4.40533,1.568 -9.632,1.568 -3.73334,0 -7.61601,-0.7467 -3.88266,-0.8213 -7.616,-2.3893 l 0.448,-12.2453 h 3.65867 l 1.26933,9.5573 -0.74666,-1.2693 q 2.61333,1.1946 5.45067,1.792 2.83733,0.5973 5.52533,0.5973 3.50934,0 6.42134,-1.0453 2.912,-1.12 4.704,-3.2107 1.792,-2.1653 1.792,-5.376 0,-2.9867 -1.568,-4.7787 -1.49333,-1.8666 -3.95733,-3.0613 -2.46401,-1.1947 -5.45067,-2.0907 -2.98667,-0.896 -5.97334,-1.8667 -2.98667,-1.0453 -5.45067,-2.6133 -2.464,-1.568 -4.032,-4.032 -1.49334,-2.5387 -1.49334,-6.4213 0,-4.7787 2.31467,-7.9147 2.38934,-3.2107 6.42134,-4.7787 4.10667,-1.568 9.10934,-1.568 3.50933,0 7.31733,0.7467 3.80801,0.7467 7.46667,2.3147 l -0.59733,11.7226 h -3.73334 l -1.12,-8.96 0.896,0.896 q -2.24,-0.9706 -4.85333,-1.4933 -2.61334,-0.5227 -5.22667,-0.5227 -3.06133,0 -5.824,0.896 -2.76267,0.8214 -4.48,2.7627 -1.64267,1.8667 -1.64267,5.0027 z"
           id="path642" /><path
           d="m 436.02889,1665.3746 v -3.2106 l 6.79467,-1.568 -0.97067,1.12 v -49.0561 l 0.896,0.9707 -6.72,-1.4187 v -3.2106 l 10.45334,-0.5227 0.74667,6.496 -0.672,-0.448 q 3.43466,-3.2107 6.86933,-4.7787 3.43467,-1.6426 6.79467,-1.6426 4.18134,0 7.46667,2.3146 3.36,2.3147 5.30134,6.72 1.94133,4.3307 1.94133,10.6774 0,6.8693 -2.38933,11.5733 -2.31467,4.704 -6.57067,7.168 -4.256,2.3894 -10.00534,2.3894 -2.09067,0 -4.33067,-0.3734 -2.24,-0.3733 -4.704,-0.9706 l 0.896,-0.8214 v 14.9334 l -0.82133,-1.0454 7.69067,1.4934 v 3.2106 z m 19.26401,-20.9066 q 6.57067,0 10.00534,-4.256 3.43467,-4.256 3.43467,-11.7974 0,-4.928 -1.41867,-8.4373 -1.344,-3.5094 -3.73334,-5.376 -2.38933,-1.9414 -5.45067,-1.9414 -2.61333,0 -5.45066,1.4187 -2.76267,1.344 -5.60001,4.1813 l 0.74667,-1.8666 v 28 l -0.82133,-1.344 q 4.55466,1.4187 8.288,1.4187 z"
           id="path644" /><path
           d="m 493.14897,1644.3933 -0.672,-0.8213 6.496,1.4186 v 3.2107 h -17.62134 v -3.2107 l 6.49601,-1.4186 -0.67201,0.8213 v -31.5094 l 0.59734,0.672 -6.42134,-1.344 v -3.2106 l 11.79734,-0.448 z m -3.43467,-43.904 q -1.71733,0 -2.83733,-1.12 -1.12,-1.12 -1.12,-3.0614 0,-2.016 1.12,-3.0613 1.19467,-1.12 2.912,-1.12 1.792,0 2.912,1.0453 1.12,1.0454 1.12,3.136 0,2.016 -1.19467,3.136 -1.19466,1.0454 -2.912,1.0454 z"
           id="path646" /><path
           d="m 503.60233,1648.2013 v -3.2107 l 6.57067,-1.4186 -0.74666,1.12 v -32.1814 l 0.82133,1.12 -6.64534,-1.4187 v -3.2106 l 10.45334,-0.5227 0.82134,7.3173 -0.82134,-0.2986 q 3.36,-3.5094 6.57067,-5.4507 3.21067,-1.9413 7.01867,-1.9413 2.38934,0 5.00267,0.7466 l -0.448,10.9014 h -3.73333 l -0.896,-7.84 0.672,1.344 q -0.52267,-0.1494 -1.12,-0.224 -0.59734,-0.075 -1.19467,-0.075 -2.98667,0 -5.824,1.792 -2.76267,1.792 -5.30134,4.6293 l 0.59733,-1.792 v 27.1041 l -0.896,-1.12 8.13867,1.4186 v 3.2107 z"
           id="path648" /><path
           d="m 547.40668,1644.3933 -0.672,-0.8213 6.496,1.4186 v 3.2107 h -17.62134 v -3.2107 l 6.496,-1.4186 -0.672,0.8213 v -31.5094 l 0.59733,0.672 -6.42133,-1.344 v -3.2106 l 11.79734,-0.448 z m -3.43467,-43.904 q -1.71734,0 -2.83734,-1.12 -1.12,-1.12 -1.12,-3.0614 0,-2.016 1.12,-3.0613 1.19467,-1.12 2.91201,-1.12 1.792,0 2.912,1.0453 1.12,1.0454 1.12,3.136 0,2.016 -1.19467,3.136 -1.19467,1.0454 -2.912,1.0454 z"
           id="path650" /><path
           d="m 571.07605,1648.8733 q -3.88267,0 -6.12267,-2.3893 -2.24,-2.464 -2.24,-7.392 v -27.1041 l 0.97066,0.9707 h -7.69067 v -3.2853 l 7.76534,-1.12 -1.04533,1.1946 v -9.856 l 5.97333,-0.9706 v 10.8266 l -0.82133,-0.9706 h 11.72267 l -0.224,4.1813 h -11.49867 l 0.82133,-0.9707 v 26.2827 q 0,3.136 1.19467,4.5547 1.26933,1.4187 3.50933,1.4187 1.344,0 2.91201,-0.448 1.568,-0.448 3.36,-1.2694 l 1.26933,3.4347 q -5.30134,2.912 -9.856,2.912 z"
           id="path652" /><path
           d="m 600.49469,1648.8733 q -4.928,0 -8.13867,-3.0613 -3.21067,-3.0614 -3.21067,-9.408 v -23.8187 l 0.74667,1.0453 -6.64534,-1.4187 v -3.2106 l 11.87201,-0.448 v 26.8053 q 0,4.48 2.09067,6.6454 2.09067,2.1653 5.6,2.1653 2.76267,0 5.97334,-1.4933 3.21066,-1.4934 6.34667,-4.6294 l -0.448,1.344 v -26.9547 l 0.74666,1.1947 -6.64533,-1.4187 v -3.2106 l 11.872,-0.5227 v 36.064 l -0.896,-0.9706 6.72001,1.2693 v 3.2853 l -10.45334,0.448 -0.896,-7.392 0.82133,0.2987 q -3.65867,3.808 -7.76534,5.6 -4.032,1.792 -7.69067,1.792 z"
           id="path654" /><path
           d="m 661.87079,1644.8413 -0.97066,-1.344 6.86933,1.344 v 3.2853 l -10.45334,0.448 -0.896,-7.168 0.52267,0.224 q -3.28533,3.584 -7.09334,5.4507 -3.808,1.792 -7.392,1.792 -4.33067,0 -7.31734,-2.7627 -2.98666,-2.7626 -2.98666,-8.3626 0,-4.4054 1.86666,-6.72 1.86667,-2.3894 5.15201,-3.36 3.28533,-0.9707 7.616,-0.9707 h 9.78134 l -0.672,0.7467 v -7.1681 q 0,-4.1066 -2.16534,-5.824 -2.16533,-1.792 -5.97333,-1.792 -2.016,0 -4.33067,0.448 -2.24,0.3734 -4.77867,1.2694 l 0.896,-0.9707 -0.74667,6.7947 h -3.95733 l -0.59734,-9.2587 q 4.25601,-1.4187 7.98934,-2.0907 3.73334,-0.7466 6.86934,-0.7466 5.97333,0 9.33333,2.688 3.43467,2.6133 3.43467,8.4373 z m -23.66934,-7.616 q 0,3.6587 1.71733,5.376 1.792,1.7173 4.48,1.7173 2.61334,0 5.74934,-1.568 3.21067,-1.6426 6.19734,-4.4053 l -0.448,1.568 v -10.0053 l 0.672,0.672 h -8.88534 q -5.30134,0 -7.392,1.6426 -2.09067,1.568 -2.09067,5.0027 z"
           id="path656" /><path
           d="m 682.85221,1644.3933 -0.672,-0.8213 6.496,1.4186 v 3.2107 H 670.9802 v -3.2107 l 6.49601,-1.4186 -0.59734,0.8213 v -49.4294 l 0.59734,0.672 -6.49601,-1.344 v -3.2106 l 11.87201,-0.5227 z"
           id="path658" /><path
           d="m 705.10287,1644.3933 -0.672,-0.8213 6.49601,1.4186 v 3.2107 h -17.62134 v -3.2107 l 6.496,-1.4186 -0.672,0.8213 v -31.5094 l 0.59733,0.672 -6.42133,-1.344 v -3.2106 l 11.79733,-0.448 z m -3.43466,-43.904 q -1.71734,0 -2.83734,-1.12 -1.12,-1.12 -1.12,-3.0614 0,-2.016 1.12,-3.0613 1.19467,-1.12 2.912,-1.12 1.792,0 2.912,1.0453 1.12,1.0454 1.12,3.136 0,2.016 -1.19466,3.136 -1.19467,1.0454 -2.912,1.0454 z"
           id="path660" /><path
           d="m 728.77224,1648.8733 q -3.88266,0 -6.12267,-2.3893 -2.24,-2.464 -2.24,-7.392 v -27.1041 l 0.97067,0.9707 h -7.69067 v -3.2853 l 7.76534,-1.12 -1.04534,1.1946 v -9.856 l 5.97334,-0.9706 v 10.8266 l -0.82133,-0.9706 h 11.72267 l -0.224,4.1813 h -11.49867 l 0.82133,-0.9707 v 26.2827 q 0,3.136 1.19467,4.5547 1.26933,1.4187 3.50933,1.4187 1.344,0 2.912,-0.448 1.568,-0.448 3.36,-1.2694 l 1.26934,3.4347 q -5.30134,2.912 -9.85601,2.912 z"
           id="path662" /><path
           d="m 772.52688,1644.8413 -0.97067,-1.344 6.86933,1.344 v 3.2853 l -10.45333,0.448 -0.896,-7.168 0.52266,0.224 q -3.28533,3.584 -7.09333,5.4507 -3.80801,1.792 -7.39201,1.792 -4.33067,0 -7.31733,-2.7627 -2.98667,-2.7626 -2.98667,-8.3626 0,-4.4054 1.86667,-6.72 1.86666,-2.3894 5.152,-3.36 3.28533,-0.9707 7.616,-0.9707 h 9.78134 l -0.672,0.7467 v -7.1681 q 0,-4.1066 -2.16534,-5.824 -2.16533,-1.792 -5.97333,-1.792 -2.016,0 -4.33067,0.448 -2.24,0.3734 -4.77867,1.2694 l 0.896,-0.9707 -0.74667,6.7947 h -3.95733 l -0.59733,-9.2587 q 4.256,-1.4187 7.98933,-2.0907 3.73334,-0.7466 6.86934,-0.7466 5.97334,0 9.33334,2.688 3.43467,2.6133 3.43467,8.4373 z m -23.66935,-7.616 q 0,3.6587 1.71733,5.376 1.79201,1.7173 4.48001,1.7173 2.61333,0 5.74933,-1.568 3.21067,-1.6426 6.19734,-4.4053 l -0.448,1.568 v -10.0053 l 0.672,0.672 h -8.88534 q -5.30133,0 -7.392,1.6426 -2.09067,1.568 -2.09067,5.0027 z m 17.62134,-37.0347 q -1.64267,0 -2.61333,-1.0453 -0.896,-1.0454 -0.97067,-2.8374 0,-1.792 1.04533,-2.8373 1.04534,-1.0453 2.53867,-1.0453 1.64267,0 2.53867,1.0453 0.97067,1.0453 0.97067,2.8373 0,1.792 -1.04534,2.8374 -1.04533,1.0453 -2.464,1.0453 z m -14.85867,0 q -1.64267,0 -2.61334,-1.0453 -0.896,-1.0454 -0.896,-2.8374 0,-1.792 0.97067,-2.8373 1.04533,-1.0453 2.53867,-1.0453 1.64267,0 2.61333,1.0453 0.97067,1.0453 0.97067,2.8373 0,1.792 -1.04533,2.8374 -1.04534,1.0453 -2.53867,1.0453 z"
           id="path664" /><path
           d="m 795.97223,1648.8733 q -3.88267,0 -6.12267,-2.3893 -2.24001,-2.464 -2.24001,-7.392 v -27.1041 l 0.97067,0.9707 h -7.69067 v -3.2853 l 7.76534,-1.12 -1.04534,1.1946 v -9.856 l 5.97334,-0.9706 v 10.8266 l -0.82133,-0.9706 h 11.72267 l -0.224,4.1813 h -11.49867 l 0.82133,-0.9707 v 26.2827 q 0,3.136 1.19467,4.5547 1.26933,1.4187 3.50933,1.4187 1.344,0 2.912,-0.448 1.56801,-0.448 3.36001,-1.2694 l 1.26933,3.4347 q -5.30134,2.912 -9.856,2.912 z"
           id="path666" /></g></g><g
       id="g38240"
       transform="translate(-2015.5577,1311.3802)"
       style="display:inline;fill:#5e8c51;fill-opacity:1"><g
         id="g38226"
         style="fill:#5e8c51;fill-opacity:1"><g
           aria-label="Spiritualität"
           id="text38220"
           style="font-size:74.6667px;line-height:1.15;font-family:Bitter;-inkscape-font-specification:Bitter;stroke-width:2.21141"><path
             d="m 403.44937,1348.2573 q 0,2.8373 1.49333,4.6293 1.49334,1.792 3.95734,2.9867 2.53866,1.12 5.52533,2.016 2.98667,0.896 5.97334,2.016 2.98667,1.0453 5.45067,2.688 2.464,1.568 3.95733,4.1813 1.568,2.5387 1.568,6.4213 0,5.2267 -2.688,8.5867 -2.61333,3.36 -7.01867,5.0027 -4.40533,1.568 -9.632,1.568 -3.73334,0 -7.61601,-0.7467 -3.88266,-0.8213 -7.616,-2.3893 l 0.448,-12.2454 h 3.65867 l 1.26933,9.5574 -0.74666,-1.2694 q 2.61333,1.1947 5.45067,1.792 2.83733,0.5974 5.52533,0.5974 3.50934,0 6.42134,-1.0454 2.912,-1.12 4.704,-3.2106 1.792,-2.1654 1.792,-5.376 0,-2.9867 -1.568,-4.7787 -1.49333,-1.8667 -3.95733,-3.0613 -2.46401,-1.1947 -5.45067,-2.0907 -2.98667,-0.896 -5.97334,-1.8667 -2.98667,-1.0453 -5.45067,-2.6133 -2.464,-1.568 -4.032,-4.032 -1.49334,-2.5387 -1.49334,-6.4213 0,-4.7787 2.31467,-7.9147 2.38934,-3.2107 6.42134,-4.7787 4.10667,-1.568 9.10934,-1.568 3.50933,0 7.31733,0.7467 3.80801,0.7466 7.46667,2.3147 l -0.59733,11.7226 h -3.73334 l -1.12,-8.96 0.896,0.896 q -2.24,-0.9706 -4.85333,-1.4933 -2.61334,-0.5227 -5.22667,-0.5227 -3.06133,0 -5.824,0.896 -2.76267,0.8214 -4.48,2.7627 -1.64267,1.8667 -1.64267,5.0027 z"
             id="path669" /><path
             d="m 436.02889,1404.8546 v -3.2107 l 6.79467,-1.568 -0.97067,1.12 v -49.056 l 0.896,0.9707 -6.72,-1.4187 v -3.2106 l 10.45334,-0.5227 0.74667,6.496 -0.672,-0.448 q 3.43466,-3.2107 6.86933,-4.7787 3.43467,-1.6426 6.79467,-1.6426 4.18134,0 7.46667,2.3146 3.36,2.3147 5.30134,6.72 1.94133,4.3307 1.94133,10.6774 0,6.8693 -2.38933,11.5733 -2.31467,4.704 -6.57067,7.168 -4.256,2.3893 -10.00534,2.3893 -2.09067,0 -4.33067,-0.3733 -2.24,-0.3733 -4.704,-0.9707 l 0.896,-0.8213 v 14.9333 l -0.82133,-1.0453 7.69067,1.4933 v 3.2107 z m 19.26401,-20.9067 q 6.57067,0 10.00534,-4.256 3.43467,-4.256 3.43467,-11.7973 0,-4.928 -1.41867,-8.4373 -1.344,-3.5094 -3.73334,-5.376 -2.38933,-1.9414 -5.45067,-1.9414 -2.61333,0 -5.45066,1.4187 -2.76267,1.344 -5.60001,4.1813 l 0.74667,-1.8666 v 28 l -0.82133,-1.344 q 4.55466,1.4186 8.288,1.4186 z"
             id="path671" /><path
             d="m 493.14897,1383.8733 -0.672,-0.8214 6.496,1.4187 v 3.2107 h -17.62134 v -3.2107 l 6.49601,-1.4187 -0.67201,0.8214 v -31.5094 l 0.59734,0.672 -6.42134,-1.344 v -3.2106 l 11.79734,-0.448 z m -3.43467,-43.904 q -1.71733,0 -2.83733,-1.12 -1.12,-1.12 -1.12,-3.0614 0,-2.016 1.12,-3.0613 1.19467,-1.12 2.912,-1.12 1.792,0 2.912,1.0453 1.12,1.0453 1.12,3.136 0,2.016 -1.19467,3.136 -1.19466,1.0454 -2.912,1.0454 z"
             id="path673" /><path
             d="m 503.60233,1387.6813 v -3.2107 l 6.57067,-1.4187 -0.74666,1.12 v -32.1813 l 0.82133,1.12 -6.64534,-1.4187 v -3.2106 l 10.45334,-0.5227 0.82134,7.3173 -0.82134,-0.2986 q 3.36,-3.5094 6.57067,-5.4507 3.21067,-1.9413 7.01867,-1.9413 2.38934,0 5.00267,0.7466 l -0.448,10.9014 h -3.73333 l -0.896,-7.84 0.672,1.344 q -0.52267,-0.1494 -1.12,-0.224 -0.59734,-0.075 -1.19467,-0.075 -2.98667,0 -5.824,1.792 -2.76267,1.792 -5.30134,4.6293 l 0.59733,-1.792 v 27.104 l -0.896,-1.12 8.13867,1.4187 v 3.2107 z"
             id="path675" /><path
             d="m 547.40668,1383.8733 -0.672,-0.8214 6.496,1.4187 v 3.2107 h -17.62134 v -3.2107 l 6.496,-1.4187 -0.672,0.8214 v -31.5094 l 0.59733,0.672 -6.42133,-1.344 v -3.2106 l 11.79734,-0.448 z m -3.43467,-43.904 q -1.71734,0 -2.83734,-1.12 -1.12,-1.12 -1.12,-3.0614 0,-2.016 1.12,-3.0613 1.19467,-1.12 2.91201,-1.12 1.792,0 2.912,1.0453 1.12,1.0453 1.12,3.136 0,2.016 -1.19467,3.136 -1.19467,1.0454 -2.912,1.0454 z"
             id="path677" /><path
             d="m 571.07605,1388.3533 q -3.88267,0 -6.12267,-2.3894 -2.24,-2.464 -2.24,-7.392 v -27.104 l 0.97066,0.9707 h -7.69067 v -3.2853 l 7.76534,-1.12 -1.04533,1.1946 v -9.856 l 5.97333,-0.9706 v 10.8266 l -0.82133,-0.9706 h 11.72267 l -0.224,4.1813 h -11.49867 l 0.82133,-0.9707 v 26.2827 q 0,3.136 1.19467,4.5547 1.26933,1.4186 3.50933,1.4186 1.344,0 2.91201,-0.448 1.568,-0.448 3.36,-1.2693 l 1.26933,3.4347 q -5.30134,2.912 -9.856,2.912 z"
             id="path679" /><path
             d="m 600.49469,1388.3533 q -4.928,0 -8.13867,-3.0614 -3.21067,-3.0613 -3.21067,-9.408 v -23.8186 l 0.74667,1.0453 -6.64534,-1.4187 v -3.2106 l 11.87201,-0.448 v 26.8053 q 0,4.48 2.09067,6.6453 2.09067,2.1654 5.6,2.1654 2.76267,0 5.97334,-1.4934 3.21066,-1.4933 6.34667,-4.6293 l -0.448,1.344 v -26.9547 l 0.74666,1.1947 -6.64533,-1.4187 v -3.2106 l 11.872,-0.5227 v 36.064 l -0.896,-0.9707 6.72001,1.2694 v 3.2853 l -10.45334,0.448 -0.896,-7.392 0.82133,0.2987 q -3.65867,3.808 -7.76534,5.6 -4.032,1.792 -7.69067,1.792 z"
             id="path681" /><path
             d="m 661.87079,1384.3213 -0.97066,-1.344 6.86933,1.344 v 3.2853 l -10.45334,0.448 -0.896,-7.168 0.52267,0.224 q -3.28533,3.584 -7.09334,5.4507 -3.808,1.792 -7.392,1.792 -4.33067,0 -7.31734,-2.7627 -2.98666,-2.7627 -2.98666,-8.3627 0,-4.4053 1.86666,-6.72 1.86667,-2.3893 5.15201,-3.36 3.28533,-0.9706 7.616,-0.9706 h 9.78134 l -0.672,0.7466 v -7.168 q 0,-4.1066 -2.16534,-5.824 -2.16533,-1.792 -5.97333,-1.792 -2.016,0 -4.33067,0.448 -2.24,0.3734 -4.77867,1.2694 l 0.896,-0.9707 -0.74667,6.7947 h -3.95733 l -0.59734,-9.2587 q 4.25601,-1.4187 7.98934,-2.0907 3.73334,-0.7466 6.86934,-0.7466 5.97333,0 9.33333,2.688 3.43467,2.6133 3.43467,8.4373 z m -23.66934,-7.616 q 0,3.6586 1.71733,5.376 1.792,1.7173 4.48,1.7173 2.61334,0 5.74934,-1.568 3.21067,-1.6427 6.19734,-4.4053 l -0.448,1.568 v -10.0054 l 0.672,0.672 h -8.88534 q -5.30134,0 -7.392,1.6427 -2.09067,1.568 -2.09067,5.0027 z"
             id="path683" /><path
             d="m 682.85221,1383.8733 -0.672,-0.8214 6.496,1.4187 v 3.2107 H 670.9802 v -3.2107 l 6.49601,-1.4187 -0.59734,0.8214 v -49.4294 l 0.59734,0.672 -6.49601,-1.344 v -3.2107 l 11.87201,-0.5226 z"
             id="path685" /><path
             d="m 705.10287,1383.8733 -0.672,-0.8214 6.49601,1.4187 v 3.2107 h -17.62134 v -3.2107 l 6.496,-1.4187 -0.672,0.8214 v -31.5094 l 0.59733,0.672 -6.42133,-1.344 v -3.2106 l 11.79733,-0.448 z m -3.43466,-43.904 q -1.71734,0 -2.83734,-1.12 -1.12,-1.12 -1.12,-3.0614 0,-2.016 1.12,-3.0613 1.19467,-1.12 2.912,-1.12 1.792,0 2.912,1.0453 1.12,1.0453 1.12,3.136 0,2.016 -1.19466,3.136 -1.19467,1.0454 -2.912,1.0454 z"
             id="path687" /><path
             d="m 728.77224,1388.3533 q -3.88266,0 -6.12267,-2.3894 -2.24,-2.464 -2.24,-7.392 v -27.104 l 0.97067,0.9707 h -7.69067 v -3.2853 l 7.76534,-1.12 -1.04534,1.1946 v -9.856 l 5.97334,-0.9706 v 10.8266 l -0.82133,-0.9706 h 11.72267 l -0.224,4.1813 h -11.49867 l 0.82133,-0.9707 v 26.2827 q 0,3.136 1.19467,4.5547 1.26933,1.4186 3.50933,1.4186 1.344,0 2.912,-0.448 1.568,-0.448 3.36,-1.2693 l 1.26934,3.4347 q -5.30134,2.912 -9.85601,2.912 z"
             id="path689" /><path
             d="m 772.52688,1384.3213 -0.97067,-1.344 6.86933,1.344 v 3.2853 l -10.45333,0.448 -0.896,-7.168 0.52266,0.224 q -3.28533,3.584 -7.09333,5.4507 -3.80801,1.792 -7.39201,1.792 -4.33067,0 -7.31733,-2.7627 -2.98667,-2.7627 -2.98667,-8.3627 0,-4.4053 1.86667,-6.72 1.86666,-2.3893 5.152,-3.36 3.28533,-0.9706 7.616,-0.9706 h 9.78134 l -0.672,0.7466 v -7.168 q 0,-4.1066 -2.16534,-5.824 -2.16533,-1.792 -5.97333,-1.792 -2.016,0 -4.33067,0.448 -2.24,0.3734 -4.77867,1.2694 l 0.896,-0.9707 -0.74667,6.7947 h -3.95733 l -0.59733,-9.2587 q 4.256,-1.4187 7.98933,-2.0907 3.73334,-0.7466 6.86934,-0.7466 5.97334,0 9.33334,2.688 3.43467,2.6133 3.43467,8.4373 z m -23.66935,-7.616 q 0,3.6586 1.71733,5.376 1.79201,1.7173 4.48001,1.7173 2.61333,0 5.74933,-1.568 3.21067,-1.6427 6.19734,-4.4053 l -0.448,1.568 v -10.0054 l 0.672,0.672 h -8.88534 q -5.30133,0 -7.392,1.6427 -2.09067,1.568 -2.09067,5.0027 z m 17.62134,-37.0347 q -1.64267,0 -2.61333,-1.0453 -0.896,-1.0454 -0.97067,-2.8374 0,-1.792 1.04533,-2.8373 1.04534,-1.0454 2.53867,-1.0454 1.64267,0 2.53867,1.0454 0.97067,1.0453 0.97067,2.8373 0,1.792 -1.04534,2.8374 -1.04533,1.0453 -2.464,1.0453 z m -14.85867,0 q -1.64267,0 -2.61334,-1.0453 -0.896,-1.0454 -0.896,-2.8374 0,-1.792 0.97067,-2.8373 1.04533,-1.0454 2.53867,-1.0454 1.64267,0 2.61333,1.0454 0.97067,1.0453 0.97067,2.8373 0,1.792 -1.04533,2.8374 -1.04534,1.0453 -2.53867,1.0453 z"
             id="path691" /><path
             d="m 795.97223,1388.3533 q -3.88267,0 -6.12267,-2.3894 -2.24001,-2.464 -2.24001,-7.392 v -27.104 l 0.97067,0.9707 h -7.69067 v -3.2853 l 7.76534,-1.12 -1.04534,1.1946 v -9.856 l 5.97334,-0.9706 v 10.8266 l -0.82133,-0.9706 h 11.72267 l -0.224,4.1813 h -11.49867 l 0.82133,-0.9707 v 26.2827 q 0,3.136 1.19467,4.5547 1.26933,1.4186 3.50933,1.4186 1.344,0 2.912,-0.448 1.56801,-0.448 3.36001,-1.2693 l 1.26933,3.4347 q -5.30134,2.912 -9.856,2.912 z"
             id="path693" /></g><g
           aria-label="Spiritualität"
           id="text38224"
           style="font-size:74.6667px;line-height:1.15;font-family:Bitter;-inkscape-font-specification:Bitter;stroke-width:2.21141"><path
             d="m 403.44937,1413.7449 q 0,2.8374 1.49333,4.6294 1.49334,1.792 3.95734,2.9866 2.53866,1.12 5.52533,2.016 2.98667,0.896 5.97334,2.016 2.98667,1.0454 5.45067,2.688 2.464,1.568 3.95733,4.1814 1.568,2.5386 1.568,6.4213 0,5.2267 -2.688,8.5867 -2.61333,3.36 -7.01867,5.0026 -4.40533,1.568 -9.632,1.568 -3.73334,0 -7.61601,-0.7466 -3.88266,-0.8214 -7.616,-2.3894 l 0.448,-12.2453 h 3.65867 l 1.26933,9.5573 -0.74666,-1.2693 q 2.61333,1.1947 5.45067,1.792 2.83733,0.5973 5.52533,0.5973 3.50934,0 6.42134,-1.0453 2.912,-1.12 4.704,-3.2107 1.792,-2.1653 1.792,-5.376 0,-2.9866 -1.568,-4.7786 -1.49333,-1.8667 -3.95733,-3.0614 -2.46401,-1.1946 -5.45067,-2.0906 -2.98667,-0.896 -5.97334,-1.8667 -2.98667,-1.0453 -5.45067,-2.6133 -2.464,-1.568 -4.032,-4.032 -1.49334,-2.5387 -1.49334,-6.4214 0,-4.7786 2.31467,-7.9146 2.38934,-3.2107 6.42134,-4.7787 4.10667,-1.568 9.10934,-1.568 3.50933,0 7.31733,0.7467 3.80801,0.7466 7.46667,2.3146 l -0.59733,11.7227 h -3.73334 l -1.12,-8.96 0.896,0.896 q -2.24,-0.9707 -4.85333,-1.4933 -2.61334,-0.5227 -5.22667,-0.5227 -3.06133,0 -5.824,0.896 -2.76267,0.8213 -4.48,2.7627 -1.64267,1.8666 -1.64267,5.0026 z"
             id="path696" /><path
             d="m 436.02889,1470.3423 v -3.2107 l 6.79467,-1.568 -0.97067,1.12 v -49.056 l 0.896,0.9707 -6.72,-1.4187 v -3.2107 l 10.45334,-0.5226 0.74667,6.496 -0.672,-0.448 q 3.43466,-3.2107 6.86933,-4.7787 3.43467,-1.6427 6.79467,-1.6427 4.18134,0 7.46667,2.3147 3.36,2.3147 5.30134,6.72 1.94133,4.3307 1.94133,10.6773 0,6.8694 -2.38933,11.5734 -2.31467,4.704 -6.57067,7.168 -4.256,2.3893 -10.00534,2.3893 -2.09067,0 -4.33067,-0.3733 -2.24,-0.3734 -4.704,-0.9707 l 0.896,-0.8213 v 14.9333 l -0.82133,-1.0453 7.69067,1.4933 v 3.2107 z m 19.26401,-20.9067 q 6.57067,0 10.00534,-4.256 3.43467,-4.256 3.43467,-11.7973 0,-4.928 -1.41867,-8.4374 -1.344,-3.5093 -3.73334,-5.376 -2.38933,-1.9413 -5.45067,-1.9413 -2.61333,0 -5.45066,1.4187 -2.76267,1.344 -5.60001,4.1813 l 0.74667,-1.8667 v 28 l -0.82133,-1.344 q 4.55466,1.4187 8.288,1.4187 z"
             id="path698" /><path
             d="m 493.14897,1449.3609 -0.672,-0.8213 6.496,1.4187 v 3.2106 h -17.62134 v -3.2106 l 6.49601,-1.4187 -0.67201,0.8213 v -31.5093 l 0.59734,0.672 -6.42134,-1.344 v -3.2107 l 11.79734,-0.448 z m -3.43467,-43.904 q -1.71733,0 -2.83733,-1.12 -1.12,-1.12 -1.12,-3.0613 0,-2.016 1.12,-3.0613 1.19467,-1.12 2.912,-1.12 1.792,0 2.912,1.0453 1.12,1.0453 1.12,3.136 0,2.016 -1.19467,3.136 -1.19466,1.0453 -2.912,1.0453 z"
             id="path700" /><path
             d="m 503.60233,1453.1689 v -3.2106 l 6.57067,-1.4187 -0.74666,1.12 v -32.1813 l 0.82133,1.12 -6.64534,-1.4187 v -3.2107 l 10.45334,-0.5226 0.82134,7.3173 -0.82134,-0.2987 q 3.36,-3.5093 6.57067,-5.4506 3.21067,-1.9414 7.01867,-1.9414 2.38934,0 5.00267,0.7467 l -0.448,10.9013 h -3.73333 l -0.896,-7.84 0.672,1.344 q -0.52267,-0.1493 -1.12,-0.224 -0.59734,-0.075 -1.19467,-0.075 -2.98667,0 -5.824,1.792 -2.76267,1.792 -5.30134,4.6293 l 0.59733,-1.792 v 27.104 l -0.896,-1.12 8.13867,1.4187 v 3.2106 z"
             id="path702" /><path
             d="m 547.40668,1449.3609 -0.672,-0.8213 6.496,1.4187 v 3.2106 h -17.62134 v -3.2106 l 6.496,-1.4187 -0.672,0.8213 v -31.5093 l 0.59733,0.672 -6.42133,-1.344 v -3.2107 l 11.79734,-0.448 z m -3.43467,-43.904 q -1.71734,0 -2.83734,-1.12 -1.12,-1.12 -1.12,-3.0613 0,-2.016 1.12,-3.0613 1.19467,-1.12 2.91201,-1.12 1.792,0 2.912,1.0453 1.12,1.0453 1.12,3.136 0,2.016 -1.19467,3.136 -1.19467,1.0453 -2.912,1.0453 z"
             id="path704" /><path
             d="m 571.07605,1453.8409 q -3.88267,0 -6.12267,-2.3893 -2.24,-2.464 -2.24,-7.392 v -27.104 l 0.97066,0.9707 h -7.69067 v -3.2854 l 7.76534,-1.12 -1.04533,1.1947 v -9.856 l 5.97333,-0.9707 v 10.8267 l -0.82133,-0.9707 h 11.72267 l -0.224,4.1814 h -11.49867 l 0.82133,-0.9707 v 26.2827 q 0,3.136 1.19467,4.5546 1.26933,1.4187 3.50933,1.4187 1.344,0 2.91201,-0.448 1.568,-0.448 3.36,-1.2693 l 1.26933,3.4346 q -5.30134,2.912 -9.856,2.912 z"
             id="path706" /><path
             d="m 600.49469,1453.8409 q -4.928,0 -8.13867,-3.0613 -3.21067,-3.0613 -3.21067,-9.408 v -23.8187 l 0.74667,1.0454 -6.64534,-1.4187 v -3.2107 l 11.87201,-0.448 v 26.8054 q 0,4.48 2.09067,6.6453 2.09067,2.1653 5.6,2.1653 2.76267,0 5.97334,-1.4933 3.21066,-1.4933 6.34667,-4.6293 l -0.448,1.344 v -26.9547 l 0.74666,1.1947 -6.64533,-1.4187 v -3.2107 l 11.872,-0.5226 v 36.064 l -0.896,-0.9707 6.72001,1.2693 v 3.2854 l -10.45334,0.448 -0.896,-7.392 0.82133,0.2986 q -3.65867,3.808 -7.76534,5.6 -4.032,1.792 -7.69067,1.792 z"
             id="path708" /><path
             d="m 661.87079,1449.8089 -0.97066,-1.344 6.86933,1.344 v 3.2854 l -10.45334,0.448 -0.896,-7.168 0.52267,0.224 q -3.28533,3.584 -7.09334,5.4506 -3.808,1.792 -7.392,1.792 -4.33067,0 -7.31734,-2.7626 -2.98666,-2.7627 -2.98666,-8.3627 0,-4.4053 1.86666,-6.72 1.86667,-2.3893 5.15201,-3.36 3.28533,-0.9707 7.616,-0.9707 h 9.78134 l -0.672,0.7467 v -7.168 q 0,-4.1067 -2.16534,-5.824 -2.16533,-1.792 -5.97333,-1.792 -2.016,0 -4.33067,0.448 -2.24,0.3733 -4.77867,1.2693 l 0.896,-0.9706 -0.74667,6.7946 h -3.95733 l -0.59734,-9.2586 q 4.25601,-1.4187 7.98934,-2.0907 3.73334,-0.7467 6.86934,-0.7467 5.97333,0 9.33333,2.688 3.43467,2.6134 3.43467,8.4374 z m -23.66934,-7.616 q 0,3.6587 1.71733,5.376 1.792,1.7174 4.48,1.7174 2.61334,0 5.74934,-1.568 3.21067,-1.6427 6.19734,-4.4054 l -0.448,1.568 v -10.0053 l 0.672,0.672 h -8.88534 q -5.30134,0 -7.392,1.6427 -2.09067,1.568 -2.09067,5.0026 z"
             id="path710" /><path
             d="m 682.85221,1449.3609 -0.672,-0.8213 6.496,1.4187 v 3.2106 H 670.9802 v -3.2106 l 6.49601,-1.4187 -0.59734,0.8213 v -49.4293 l 0.59734,0.672 -6.49601,-1.344 v -3.2107 l 11.87201,-0.5226 z"
             id="path712" /><path
             d="m 705.10287,1449.3609 -0.672,-0.8213 6.49601,1.4187 v 3.2106 h -17.62134 v -3.2106 l 6.496,-1.4187 -0.672,0.8213 v -31.5093 l 0.59733,0.672 -6.42133,-1.344 v -3.2107 l 11.79733,-0.448 z m -3.43466,-43.904 q -1.71734,0 -2.83734,-1.12 -1.12,-1.12 -1.12,-3.0613 0,-2.016 1.12,-3.0613 1.19467,-1.12 2.912,-1.12 1.792,0 2.912,1.0453 1.12,1.0453 1.12,3.136 0,2.016 -1.19466,3.136 -1.19467,1.0453 -2.912,1.0453 z"
             id="path714" /><path
             d="m 728.77224,1453.8409 q -3.88266,0 -6.12267,-2.3893 -2.24,-2.464 -2.24,-7.392 v -27.104 l 0.97067,0.9707 h -7.69067 v -3.2854 l 7.76534,-1.12 -1.04534,1.1947 v -9.856 l 5.97334,-0.9707 v 10.8267 l -0.82133,-0.9707 h 11.72267 l -0.224,4.1814 h -11.49867 l 0.82133,-0.9707 v 26.2827 q 0,3.136 1.19467,4.5546 1.26933,1.4187 3.50933,1.4187 1.344,0 2.912,-0.448 1.568,-0.448 3.36,-1.2693 l 1.26934,3.4346 q -5.30134,2.912 -9.85601,2.912 z"
             id="path716" /><path
             d="m 772.52688,1449.8089 -0.97067,-1.344 6.86933,1.344 v 3.2854 l -10.45333,0.448 -0.896,-7.168 0.52266,0.224 q -3.28533,3.584 -7.09333,5.4506 -3.80801,1.792 -7.39201,1.792 -4.33067,0 -7.31733,-2.7626 -2.98667,-2.7627 -2.98667,-8.3627 0,-4.4053 1.86667,-6.72 1.86666,-2.3893 5.152,-3.36 3.28533,-0.9707 7.616,-0.9707 h 9.78134 l -0.672,0.7467 v -7.168 q 0,-4.1067 -2.16534,-5.824 -2.16533,-1.792 -5.97333,-1.792 -2.016,0 -4.33067,0.448 -2.24,0.3733 -4.77867,1.2693 l 0.896,-0.9706 -0.74667,6.7946 h -3.95733 l -0.59733,-9.2586 q 4.256,-1.4187 7.98933,-2.0907 3.73334,-0.7467 6.86934,-0.7467 5.97334,0 9.33334,2.688 3.43467,2.6134 3.43467,8.4374 z m -23.66935,-7.616 q 0,3.6587 1.71733,5.376 1.79201,1.7174 4.48001,1.7174 2.61333,0 5.74933,-1.568 3.21067,-1.6427 6.19734,-4.4054 l -0.448,1.568 v -10.0053 l 0.672,0.672 h -8.88534 q -5.30133,0 -7.392,1.6427 -2.09067,1.568 -2.09067,5.0026 z m 17.62134,-37.0346 q -1.64267,0 -2.61333,-1.0454 -0.896,-1.0453 -0.97067,-2.8373 0,-1.792 1.04533,-2.8373 1.04534,-1.0454 2.53867,-1.0454 1.64267,0 2.53867,1.0454 0.97067,1.0453 0.97067,2.8373 0,1.792 -1.04534,2.8373 -1.04533,1.0454 -2.464,1.0454 z m -14.85867,0 q -1.64267,0 -2.61334,-1.0454 -0.896,-1.0453 -0.896,-2.8373 0,-1.792 0.97067,-2.8373 1.04533,-1.0454 2.53867,-1.0454 1.64267,0 2.61333,1.0454 0.97067,1.0453 0.97067,2.8373 0,1.792 -1.04533,2.8373 -1.04534,1.0454 -2.53867,1.0454 z"
             id="path718" /><path
             d="m 795.97223,1453.8409 q -3.88267,0 -6.12267,-2.3893 -2.24001,-2.464 -2.24001,-7.392 v -27.104 l 0.97067,0.9707 h -7.69067 v -3.2854 l 7.76534,-1.12 -1.04534,1.1947 v -9.856 l 5.97334,-0.9707 v 10.8267 l -0.82133,-0.9707 h 11.72267 l -0.224,4.1814 h -11.49867 l 0.82133,-0.9707 v 26.2827 q 0,3.136 1.19467,4.5546 1.26933,1.4187 3.50933,1.4187 1.344,0 2.912,-0.448 1.56801,-0.448 3.36001,-1.2693 l 1.26933,3.4346 q -5.30134,2.912 -9.856,2.912 z"
             id="path720" /></g></g><g
         aria-label="Spiritualität"
         id="text38230"
         style="font-size:74.6667px;line-height:1.15;font-family:Bitter;-inkscape-font-specification:Bitter;stroke-width:2.21141"><path
           d="m 403.44937,1479.1782 q 0,2.8373 1.49333,4.6293 1.49334,1.792 3.95734,2.9867 2.53866,1.12 5.52533,2.016 2.98667,0.896 5.97334,2.016 2.98667,1.0453 5.45067,2.688 2.464,1.568 3.95733,4.1813 1.568,2.5387 1.568,6.4213 0,5.2267 -2.688,8.5867 -2.61333,3.36 -7.01867,5.0027 -4.40533,1.568 -9.632,1.568 -3.73334,0 -7.61601,-0.7467 -3.88266,-0.8213 -7.616,-2.3893 l 0.448,-12.2454 h 3.65867 l 1.26933,9.5574 -0.74666,-1.2694 q 2.61333,1.1947 5.45067,1.792 2.83733,0.5974 5.52533,0.5974 3.50934,0 6.42134,-1.0454 2.912,-1.12 4.704,-3.2106 1.792,-2.1654 1.792,-5.376 0,-2.9867 -1.568,-4.7787 -1.49333,-1.8667 -3.95733,-3.0613 -2.46401,-1.1947 -5.45067,-2.0907 -2.98667,-0.896 -5.97334,-1.8667 -2.98667,-1.0453 -5.45067,-2.6133 -2.464,-1.568 -4.032,-4.032 -1.49334,-2.5387 -1.49334,-6.4213 0,-4.7787 2.31467,-7.9147 2.38934,-3.2107 6.42134,-4.7787 4.10667,-1.568 9.10934,-1.568 3.50933,0 7.31733,0.7467 3.80801,0.7466 7.46667,2.3146 l -0.59733,11.7227 h -3.73334 l -1.12,-8.96 0.896,0.896 q -2.24,-0.9706 -4.85333,-1.4933 -2.61334,-0.5227 -5.22667,-0.5227 -3.06133,0 -5.824,0.896 -2.76267,0.8214 -4.48,2.7627 -1.64267,1.8667 -1.64267,5.0027 z"
           id="path723" /><path
           d="m 436.02889,1535.7755 v -3.2107 l 6.79467,-1.568 -0.97067,1.12 v -49.056 l 0.896,0.9707 -6.72,-1.4187 v -3.2106 l 10.45334,-0.5227 0.74667,6.496 -0.672,-0.448 q 3.43466,-3.2107 6.86933,-4.7787 3.43467,-1.6426 6.79467,-1.6426 4.18134,0 7.46667,2.3146 3.36,2.3147 5.30134,6.72 1.94133,4.3307 1.94133,10.6774 0,6.8693 -2.38933,11.5733 -2.31467,4.704 -6.57067,7.168 -4.256,2.3893 -10.00534,2.3893 -2.09067,0 -4.33067,-0.3733 -2.24,-0.3733 -4.704,-0.9707 l 0.896,-0.8213 v 14.9333 l -0.82133,-1.0453 7.69067,1.4933 v 3.2107 z m 19.26401,-20.9067 q 6.57067,0 10.00534,-4.256 3.43467,-4.256 3.43467,-11.7973 0,-4.928 -1.41867,-8.4373 -1.344,-3.5094 -3.73334,-5.376 -2.38933,-1.9414 -5.45067,-1.9414 -2.61333,0 -5.45066,1.4187 -2.76267,1.344 -5.60001,4.1813 l 0.74667,-1.8666 v 28 l -0.82133,-1.344 q 4.55466,1.4186 8.288,1.4186 z"
           id="path725" /><path
           d="m 493.14897,1514.7942 -0.672,-0.8214 6.496,1.4187 v 3.2107 h -17.62134 v -3.2107 l 6.49601,-1.4187 -0.67201,0.8214 v -31.5094 l 0.59734,0.672 -6.42134,-1.344 v -3.2106 l 11.79734,-0.448 z m -3.43467,-43.904 q -1.71733,0 -2.83733,-1.1201 -1.12,-1.12 -1.12,-3.0613 0,-2.016 1.12,-3.0613 1.19467,-1.12 2.912,-1.12 1.792,0 2.912,1.0453 1.12,1.0453 1.12,3.136 0,2.016 -1.19467,3.136 -1.19466,1.0454 -2.912,1.0454 z"
           id="path727" /><path
           d="m 503.60233,1518.6022 v -3.2107 l 6.57067,-1.4187 -0.74666,1.12 v -32.1813 l 0.82133,1.12 -6.64534,-1.4187 v -3.2106 l 10.45334,-0.5227 0.82134,7.3173 -0.82134,-0.2986 q 3.36,-3.5094 6.57067,-5.4507 3.21067,-1.9413 7.01867,-1.9413 2.38934,0 5.00267,0.7466 l -0.448,10.9014 h -3.73333 l -0.896,-7.84 0.672,1.344 q -0.52267,-0.1494 -1.12,-0.224 -0.59734,-0.075 -1.19467,-0.075 -2.98667,0 -5.824,1.792 -2.76267,1.792 -5.30134,4.6293 l 0.59733,-1.792 v 27.104 l -0.896,-1.12 8.13867,1.4187 v 3.2107 z"
           id="path729" /><path
           d="m 547.40668,1514.7942 -0.672,-0.8214 6.496,1.4187 v 3.2107 h -17.62134 v -3.2107 l 6.496,-1.4187 -0.672,0.8214 v -31.5094 l 0.59733,0.672 -6.42133,-1.344 v -3.2106 l 11.79734,-0.448 z m -3.43467,-43.904 q -1.71734,0 -2.83734,-1.1201 -1.12,-1.12 -1.12,-3.0613 0,-2.016 1.12,-3.0613 1.19467,-1.12 2.91201,-1.12 1.792,0 2.912,1.0453 1.12,1.0453 1.12,3.136 0,2.016 -1.19467,3.136 -1.19467,1.0454 -2.912,1.0454 z"
           id="path731" /><path
           d="m 571.07605,1519.2742 q -3.88267,0 -6.12267,-2.3894 -2.24,-2.464 -2.24,-7.392 v -27.104 l 0.97066,0.9707 h -7.69067 v -3.2853 l 7.76534,-1.12 -1.04533,1.1946 v -9.856 l 5.97333,-0.9707 v 10.8267 l -0.82133,-0.9706 h 11.72267 l -0.224,4.1813 h -11.49867 l 0.82133,-0.9707 v 26.2827 q 0,3.136 1.19467,4.5547 1.26933,1.4186 3.50933,1.4186 1.344,0 2.91201,-0.448 1.568,-0.448 3.36,-1.2693 l 1.26933,3.4347 q -5.30134,2.912 -9.856,2.912 z"
           id="path733" /><path
           d="m 600.49469,1519.2742 q -4.928,0 -8.13867,-3.0614 -3.21067,-3.0613 -3.21067,-9.408 v -23.8186 l 0.74667,1.0453 -6.64534,-1.4187 v -3.2106 l 11.87201,-0.448 v 26.8053 q 0,4.48 2.09067,6.6453 2.09067,2.1654 5.6,2.1654 2.76267,0 5.97334,-1.4934 3.21066,-1.4933 6.34667,-4.6293 l -0.448,1.344 v -26.9547 l 0.74666,1.1947 -6.64533,-1.4187 v -3.2106 l 11.872,-0.5227 v 36.064 l -0.896,-0.9707 6.72001,1.2694 v 3.2853 l -10.45334,0.448 -0.896,-7.392 0.82133,0.2987 q -3.65867,3.808 -7.76534,5.6 -4.032,1.792 -7.69067,1.792 z"
           id="path735" /><path
           d="m 661.87079,1515.2422 -0.97066,-1.344 6.86933,1.344 v 3.2853 l -10.45334,0.448 -0.896,-7.168 0.52267,0.224 q -3.28533,3.584 -7.09334,5.4507 -3.808,1.792 -7.392,1.792 -4.33067,0 -7.31734,-2.7627 -2.98666,-2.7627 -2.98666,-8.3627 0,-4.4053 1.86666,-6.72 1.86667,-2.3893 5.15201,-3.36 3.28533,-0.9706 7.616,-0.9706 h 9.78134 l -0.672,0.7466 v -7.168 q 0,-4.1066 -2.16534,-5.824 -2.16533,-1.792 -5.97333,-1.792 -2.016,0 -4.33067,0.448 -2.24,0.3734 -4.77867,1.2694 l 0.896,-0.9707 -0.74667,6.7947 h -3.95733 l -0.59734,-9.2587 q 4.25601,-1.4187 7.98934,-2.0907 3.73334,-0.7466 6.86934,-0.7466 5.97333,0 9.33333,2.688 3.43467,2.6133 3.43467,8.4373 z m -23.66934,-7.616 q 0,3.6586 1.71733,5.376 1.792,1.7173 4.48,1.7173 2.61334,0 5.74934,-1.568 3.21067,-1.6427 6.19734,-4.4053 l -0.448,1.568 v -10.0054 l 0.672,0.672 h -8.88534 q -5.30134,0 -7.392,1.6427 -2.09067,1.568 -2.09067,5.0027 z"
           id="path737" /><path
           d="m 682.85221,1514.7942 -0.672,-0.8214 6.496,1.4187 v 3.2107 H 670.9802 v -3.2107 l 6.49601,-1.4187 -0.59734,0.8214 v -49.4294 l 0.59734,0.672 -6.49601,-1.344 v -3.2107 l 11.87201,-0.5226 z"
           id="path739" /><path
           d="m 705.10287,1514.7942 -0.672,-0.8214 6.49601,1.4187 v 3.2107 h -17.62134 v -3.2107 l 6.496,-1.4187 -0.672,0.8214 v -31.5094 l 0.59733,0.672 -6.42133,-1.344 v -3.2106 l 11.79733,-0.448 z m -3.43466,-43.904 q -1.71734,0 -2.83734,-1.1201 -1.12,-1.12 -1.12,-3.0613 0,-2.016 1.12,-3.0613 1.19467,-1.12 2.912,-1.12 1.792,0 2.912,1.0453 1.12,1.0453 1.12,3.136 0,2.016 -1.19466,3.136 -1.19467,1.0454 -2.912,1.0454 z"
           id="path741" /><path
           d="m 728.77224,1519.2742 q -3.88266,0 -6.12267,-2.3894 -2.24,-2.464 -2.24,-7.392 v -27.104 l 0.97067,0.9707 h -7.69067 v -3.2853 l 7.76534,-1.12 -1.04534,1.1946 v -9.856 l 5.97334,-0.9707 v 10.8267 l -0.82133,-0.9706 h 11.72267 l -0.224,4.1813 h -11.49867 l 0.82133,-0.9707 v 26.2827 q 0,3.136 1.19467,4.5547 1.26933,1.4186 3.50933,1.4186 1.344,0 2.912,-0.448 1.568,-0.448 3.36,-1.2693 l 1.26934,3.4347 q -5.30134,2.912 -9.85601,2.912 z"
           id="path743" /><path
           d="m 772.52688,1515.2422 -0.97067,-1.344 6.86933,1.344 v 3.2853 l -10.45333,0.448 -0.896,-7.168 0.52266,0.224 q -3.28533,3.584 -7.09333,5.4507 -3.80801,1.792 -7.39201,1.792 -4.33067,0 -7.31733,-2.7627 -2.98667,-2.7627 -2.98667,-8.3627 0,-4.4053 1.86667,-6.72 1.86666,-2.3893 5.152,-3.36 3.28533,-0.9706 7.616,-0.9706 h 9.78134 l -0.672,0.7466 v -7.168 q 0,-4.1066 -2.16534,-5.824 -2.16533,-1.792 -5.97333,-1.792 -2.016,0 -4.33067,0.448 -2.24,0.3734 -4.77867,1.2694 l 0.896,-0.9707 -0.74667,6.7947 h -3.95733 l -0.59733,-9.2587 q 4.256,-1.4187 7.98933,-2.0907 3.73334,-0.7466 6.86934,-0.7466 5.97334,0 9.33334,2.688 3.43467,2.6133 3.43467,8.4373 z m -23.66935,-7.616 q 0,3.6586 1.71733,5.376 1.79201,1.7173 4.48001,1.7173 2.61333,0 5.74933,-1.568 3.21067,-1.6427 6.19734,-4.4053 l -0.448,1.568 v -10.0054 l 0.672,0.672 h -8.88534 q -5.30133,0 -7.392,1.6427 -2.09067,1.568 -2.09067,5.0027 z m 17.62134,-37.0347 q -1.64267,0 -2.61333,-1.0454 -0.896,-1.0453 -0.97067,-2.8373 0,-1.792 1.04533,-2.8373 1.04534,-1.0454 2.53867,-1.0454 1.64267,0 2.53867,1.0454 0.97067,1.0453 0.97067,2.8373 0,1.792 -1.04534,2.8373 -1.04533,1.0454 -2.464,1.0454 z m -14.85867,0 q -1.64267,0 -2.61334,-1.0454 -0.896,-1.0453 -0.896,-2.8373 0,-1.792 0.97067,-2.8373 1.04533,-1.0454 2.53867,-1.0454 1.64267,0 2.61333,1.0454 0.97067,1.0453 0.97067,2.8373 0,1.792 -1.04533,2.8373 -1.04534,1.0454 -2.53867,1.0454 z"
           id="path745" /><path
           d="m 795.97223,1519.2742 q -3.88267,0 -6.12267,-2.3894 -2.24001,-2.464 -2.24001,-7.392 v -27.104 l 0.97067,0.9707 h -7.69067 v -3.2853 l 7.76534,-1.12 -1.04534,1.1946 v -9.856 l 5.97334,-0.9707 v 10.8267 l -0.82133,-0.9706 h 11.72267 l -0.224,4.1813 h -11.49867 l 0.82133,-0.9707 v 26.2827 q 0,3.136 1.19467,4.5547 1.26933,1.4186 3.50933,1.4186 1.344,0 2.912,-0.448 1.56801,-0.448 3.36001,-1.2693 l 1.26933,3.4347 q -5.30134,2.912 -9.856,2.912 z"
           id="path747" /></g><g
         aria-label="Spiritualität"
         id="text38234"
         style="font-size:74.6667px;line-height:1.15;font-family:Bitter;-inkscape-font-specification:Bitter;stroke-width:2.21141"><path
           d="m 403.44937,1544.6658 q 0,2.8374 1.49333,4.6294 1.49334,1.792 3.95734,2.9866 2.53866,1.12 5.52533,2.016 2.98667,0.896 5.97334,2.016 2.98667,1.0454 5.45067,2.688 2.464,1.568 3.95733,4.1814 1.568,2.5386 1.568,6.4213 0,5.2267 -2.688,8.5867 -2.61333,3.36 -7.01867,5.0026 -4.40533,1.568 -9.632,1.568 -3.73334,0 -7.61601,-0.7466 -3.88266,-0.8214 -7.616,-2.3894 l 0.448,-12.2453 h 3.65867 l 1.26933,9.5573 -0.74666,-1.2693 q 2.61333,1.1947 5.45067,1.792 2.83733,0.5973 5.52533,0.5973 3.50934,0 6.42134,-1.0453 2.912,-1.12 4.704,-3.2107 1.792,-2.1653 1.792,-5.376 0,-2.9866 -1.568,-4.7786 -1.49333,-1.8667 -3.95733,-3.0614 -2.46401,-1.1946 -5.45067,-2.0906 -2.98667,-0.896 -5.97334,-1.8667 -2.98667,-1.0453 -5.45067,-2.6133 -2.464,-1.568 -4.032,-4.032 -1.49334,-2.5387 -1.49334,-6.4214 0,-4.7786 2.31467,-7.9146 2.38934,-3.2107 6.42134,-4.7787 4.10667,-1.568 9.10934,-1.568 3.50933,0 7.31733,0.7467 3.80801,0.7466 7.46667,2.3146 l -0.59733,11.7227 h -3.73334 l -1.12,-8.96 0.896,0.896 q -2.24,-0.9707 -4.85333,-1.4933 -2.61334,-0.5227 -5.22667,-0.5227 -3.06133,0 -5.824,0.896 -2.76267,0.8213 -4.48,2.7627 -1.64267,1.8666 -1.64267,5.0026 z"
           id="path750" /><path
           d="m 436.02889,1601.2632 v -3.2107 l 6.79467,-1.568 -0.97067,1.12 v -49.056 l 0.896,0.9707 -6.72,-1.4187 v -3.2107 l 10.45334,-0.5226 0.74667,6.496 -0.672,-0.448 q 3.43466,-3.2107 6.86933,-4.7787 3.43467,-1.6427 6.79467,-1.6427 4.18134,0 7.46667,2.3147 3.36,2.3147 5.30134,6.72 1.94133,4.3307 1.94133,10.6773 0,6.8694 -2.38933,11.5734 -2.31467,4.704 -6.57067,7.168 -4.256,2.3893 -10.00534,2.3893 -2.09067,0 -4.33067,-0.3733 -2.24,-0.3734 -4.704,-0.9707 l 0.896,-0.8213 v 14.9333 l -0.82133,-1.0453 7.69067,1.4933 v 3.2107 z m 19.26401,-20.9067 q 6.57067,0 10.00534,-4.256 3.43467,-4.256 3.43467,-11.7973 0,-4.928 -1.41867,-8.4374 -1.344,-3.5093 -3.73334,-5.376 -2.38933,-1.9413 -5.45067,-1.9413 -2.61333,0 -5.45066,1.4187 -2.76267,1.344 -5.60001,4.1813 l 0.74667,-1.8667 v 28 l -0.82133,-1.344 q 4.55466,1.4187 8.288,1.4187 z"
           id="path752" /><path
           d="m 493.14897,1580.2818 -0.672,-0.8213 6.496,1.4187 v 3.2106 h -17.62134 v -3.2106 l 6.49601,-1.4187 -0.67201,0.8213 v -31.5093 l 0.59734,0.672 -6.42134,-1.344 v -3.2107 l 11.79734,-0.448 z m -3.43467,-43.904 q -1.71733,0 -2.83733,-1.12 -1.12,-1.12 -1.12,-3.0613 0,-2.016 1.12,-3.0613 1.19467,-1.12 2.912,-1.12 1.792,0 2.912,1.0453 1.12,1.0453 1.12,3.136 0,2.016 -1.19467,3.136 -1.19466,1.0453 -2.912,1.0453 z"
           id="path754" /><path
           d="m 503.60233,1584.0898 v -3.2106 l 6.57067,-1.4187 -0.74666,1.12 v -32.1813 l 0.82133,1.12 -6.64534,-1.4187 v -3.2107 l 10.45334,-0.5226 0.82134,7.3173 -0.82134,-0.2987 q 3.36,-3.5093 6.57067,-5.4506 3.21067,-1.9414 7.01867,-1.9414 2.38934,0 5.00267,0.7467 l -0.448,10.9013 h -3.73333 l -0.896,-7.84 0.672,1.344 q -0.52267,-0.1493 -1.12,-0.224 -0.59734,-0.075 -1.19467,-0.075 -2.98667,0 -5.824,1.792 -2.76267,1.792 -5.30134,4.6293 l 0.59733,-1.792 v 27.104 l -0.896,-1.12 8.13867,1.4187 v 3.2106 z"
           id="path756" /><path
           d="m 547.40668,1580.2818 -0.672,-0.8213 6.496,1.4187 v 3.2106 h -17.62134 v -3.2106 l 6.496,-1.4187 -0.672,0.8213 v -31.5093 l 0.59733,0.672 -6.42133,-1.344 v -3.2107 l 11.79734,-0.448 z m -3.43467,-43.904 q -1.71734,0 -2.83734,-1.12 -1.12,-1.12 -1.12,-3.0613 0,-2.016 1.12,-3.0613 1.19467,-1.12 2.91201,-1.12 1.792,0 2.912,1.0453 1.12,1.0453 1.12,3.136 0,2.016 -1.19467,3.136 -1.19467,1.0453 -2.912,1.0453 z"
           id="path758" /><path
           d="m 571.07605,1584.7618 q -3.88267,0 -6.12267,-2.3893 -2.24,-2.464 -2.24,-7.392 v -27.104 l 0.97066,0.9707 h -7.69067 v -3.2854 l 7.76534,-1.12 -1.04533,1.1947 v -9.856 l 5.97333,-0.9707 v 10.8267 l -0.82133,-0.9707 h 11.72267 l -0.224,4.1814 h -11.49867 l 0.82133,-0.9707 v 26.2827 q 0,3.136 1.19467,4.5546 1.26933,1.4187 3.50933,1.4187 1.344,0 2.91201,-0.448 1.568,-0.448 3.36,-1.2693 l 1.26933,3.4346 q -5.30134,2.912 -9.856,2.912 z"
           id="path760" /><path
           d="m 600.49469,1584.7618 q -4.928,0 -8.13867,-3.0613 -3.21067,-3.0613 -3.21067,-9.408 v -23.8187 l 0.74667,1.0454 -6.64534,-1.4187 v -3.2107 l 11.87201,-0.448 v 26.8054 q 0,4.48 2.09067,6.6453 2.09067,2.1653 5.6,2.1653 2.76267,0 5.97334,-1.4933 3.21066,-1.4933 6.34667,-4.6293 l -0.448,1.344 v -26.9547 l 0.74666,1.1947 -6.64533,-1.4187 v -3.2107 l 11.872,-0.5226 v 36.064 l -0.896,-0.9707 6.72001,1.2693 v 3.2854 l -10.45334,0.448 -0.896,-7.392 0.82133,0.2986 q -3.65867,3.808 -7.76534,5.6 -4.032,1.792 -7.69067,1.792 z"
           id="path762" /><path
           d="m 661.87079,1580.7298 -0.97066,-1.344 6.86933,1.344 v 3.2854 l -10.45334,0.448 -0.896,-7.168 0.52267,0.224 q -3.28533,3.584 -7.09334,5.4506 -3.808,1.792 -7.392,1.792 -4.33067,0 -7.31734,-2.7626 -2.98666,-2.7627 -2.98666,-8.3627 0,-4.4053 1.86666,-6.72 1.86667,-2.3893 5.15201,-3.36 3.28533,-0.9707 7.616,-0.9707 h 9.78134 l -0.672,0.7467 v -7.168 q 0,-4.1067 -2.16534,-5.824 -2.16533,-1.792 -5.97333,-1.792 -2.016,0 -4.33067,0.448 -2.24,0.3733 -4.77867,1.2693 l 0.896,-0.9706 -0.74667,6.7946 h -3.95733 l -0.59734,-9.2586 q 4.25601,-1.4187 7.98934,-2.0907 3.73334,-0.7467 6.86934,-0.7467 5.97333,0 9.33333,2.688 3.43467,2.6134 3.43467,8.4374 z m -23.66934,-7.616 q 0,3.6587 1.71733,5.376 1.792,1.7174 4.48,1.7174 2.61334,0 5.74934,-1.568 3.21067,-1.6427 6.19734,-4.4054 l -0.448,1.568 v -10.0053 l 0.672,0.672 h -8.88534 q -5.30134,0 -7.392,1.6427 -2.09067,1.568 -2.09067,5.0026 z"
           id="path764" /><path
           d="m 682.85221,1580.2818 -0.672,-0.8213 6.496,1.4187 v 3.2106 H 670.9802 v -3.2106 l 6.49601,-1.4187 -0.59734,0.8213 v -49.4293 l 0.59734,0.672 -6.49601,-1.344 v -3.2107 l 11.87201,-0.5227 z"
           id="path766" /><path
           d="m 705.10287,1580.2818 -0.672,-0.8213 6.49601,1.4187 v 3.2106 h -17.62134 v -3.2106 l 6.496,-1.4187 -0.672,0.8213 v -31.5093 l 0.59733,0.672 -6.42133,-1.344 v -3.2107 l 11.79733,-0.448 z m -3.43466,-43.904 q -1.71734,0 -2.83734,-1.12 -1.12,-1.12 -1.12,-3.0613 0,-2.016 1.12,-3.0613 1.19467,-1.12 2.912,-1.12 1.792,0 2.912,1.0453 1.12,1.0453 1.12,3.136 0,2.016 -1.19466,3.136 -1.19467,1.0453 -2.912,1.0453 z"
           id="path768" /><path
           d="m 728.77224,1584.7618 q -3.88266,0 -6.12267,-2.3893 -2.24,-2.464 -2.24,-7.392 v -27.104 l 0.97067,0.9707 h -7.69067 v -3.2854 l 7.76534,-1.12 -1.04534,1.1947 v -9.856 l 5.97334,-0.9707 v 10.8267 l -0.82133,-0.9707 h 11.72267 l -0.224,4.1814 h -11.49867 l 0.82133,-0.9707 v 26.2827 q 0,3.136 1.19467,4.5546 1.26933,1.4187 3.50933,1.4187 1.344,0 2.912,-0.448 1.568,-0.448 3.36,-1.2693 l 1.26934,3.4346 q -5.30134,2.912 -9.85601,2.912 z"
           id="path770" /><path
           d="m 772.52688,1580.7298 -0.97067,-1.344 6.86933,1.344 v 3.2854 l -10.45333,0.448 -0.896,-7.168 0.52266,0.224 q -3.28533,3.584 -7.09333,5.4506 -3.80801,1.792 -7.39201,1.792 -4.33067,0 -7.31733,-2.7626 -2.98667,-2.7627 -2.98667,-8.3627 0,-4.4053 1.86667,-6.72 1.86666,-2.3893 5.152,-3.36 3.28533,-0.9707 7.616,-0.9707 h 9.78134 l -0.672,0.7467 v -7.168 q 0,-4.1067 -2.16534,-5.824 -2.16533,-1.792 -5.97333,-1.792 -2.016,0 -4.33067,0.448 -2.24,0.3733 -4.77867,1.2693 l 0.896,-0.9706 -0.74667,6.7946 h -3.95733 l -0.59733,-9.2586 q 4.256,-1.4187 7.98933,-2.0907 3.73334,-0.7467 6.86934,-0.7467 5.97334,0 9.33334,2.688 3.43467,2.6134 3.43467,8.4374 z m -23.66935,-7.616 q 0,3.6587 1.71733,5.376 1.79201,1.7174 4.48001,1.7174 2.61333,0 5.74933,-1.568 3.21067,-1.6427 6.19734,-4.4054 l -0.448,1.568 v -10.0053 l 0.672,0.672 h -8.88534 q -5.30133,0 -7.392,1.6427 -2.09067,1.568 -2.09067,5.0026 z m 17.62134,-37.0346 q -1.64267,0 -2.61333,-1.0454 -0.896,-1.0453 -0.97067,-2.8373 0,-1.792 1.04533,-2.8373 1.04534,-1.0454 2.53867,-1.0454 1.64267,0 2.53867,1.0454 0.97067,1.0453 0.97067,2.8373 0,1.792 -1.04534,2.8373 -1.04533,1.0454 -2.464,1.0454 z m -14.85867,0 q -1.64267,0 -2.61334,-1.0454 -0.896,-1.0453 -0.896,-2.8373 0,-1.792 0.97067,-2.8373 1.04533,-1.0454 2.53867,-1.0454 1.64267,0 2.61333,1.0454 0.97067,1.0453 0.97067,2.8373 0,1.792 -1.04533,2.8373 -1.04534,1.0454 -2.53867,1.0454 z"
           id="path772" /><path
           d="m 795.97223,1584.7618 q -3.88267,0 -6.12267,-2.3893 -2.24001,-2.464 -2.24001,-7.392 v -27.104 l 0.97067,0.9707 h -7.69067 v -3.2854 l 7.76534,-1.12 -1.04534,1.1947 v -9.856 l 5.97334,-0.9707 v 10.8267 l -0.82133,-0.9707 h 11.72267 l -0.224,4.1814 h -11.49867 l 0.82133,-0.9707 v 26.2827 q 0,3.136 1.19467,4.5546 1.26933,1.4187 3.50933,1.4187 1.344,0 2.912,-0.448 1.56801,-0.448 3.36001,-1.2693 l 1.26933,3.4346 q -5.30134,2.912 -9.856,2.912 z"
           id="path774" /></g><g
         aria-label="Spiritualität"
         id="text38238"
         style="font-size:74.6667px;line-height:1.15;font-family:Bitter;-inkscape-font-specification:Bitter;stroke-width:2.21141"><path
           d="m 403.44937,1608.7773 q 0,2.8373 1.49333,4.6293 1.49334,1.792 3.95734,2.9867 2.53866,1.12 5.52533,2.016 2.98667,0.896 5.97334,2.016 2.98667,1.0453 5.45067,2.688 2.464,1.568 3.95733,4.1813 1.568,2.5387 1.568,6.4214 0,5.2266 -2.688,8.5866 -2.61333,3.36 -7.01867,5.0027 -4.40533,1.568 -9.632,1.568 -3.73334,0 -7.61601,-0.7467 -3.88266,-0.8213 -7.616,-2.3893 l 0.448,-12.2453 h 3.65867 l 1.26933,9.5573 -0.74666,-1.2693 q 2.61333,1.1946 5.45067,1.792 2.83733,0.5973 5.52533,0.5973 3.50934,0 6.42134,-1.0453 2.912,-1.12 4.704,-3.2107 1.792,-2.1653 1.792,-5.376 0,-2.9867 -1.568,-4.7787 -1.49333,-1.8666 -3.95733,-3.0613 -2.46401,-1.1947 -5.45067,-2.0907 -2.98667,-0.896 -5.97334,-1.8667 -2.98667,-1.0453 -5.45067,-2.6133 -2.464,-1.568 -4.032,-4.032 -1.49334,-2.5387 -1.49334,-6.4213 0,-4.7787 2.31467,-7.9147 2.38934,-3.2107 6.42134,-4.7787 4.10667,-1.568 9.10934,-1.568 3.50933,0 7.31733,0.7467 3.80801,0.7467 7.46667,2.3147 l -0.59733,11.7226 h -3.73334 l -1.12,-8.96 0.896,0.896 q -2.24,-0.9706 -4.85333,-1.4933 -2.61334,-0.5227 -5.22667,-0.5227 -3.06133,0 -5.824,0.896 -2.76267,0.8214 -4.48,2.7627 -1.64267,1.8667 -1.64267,5.0027 z"
           id="path777" /><path
           d="m 436.02889,1665.3746 v -3.2106 l 6.79467,-1.568 -0.97067,1.12 v -49.0561 l 0.896,0.9707 -6.72,-1.4187 v -3.2106 l 10.45334,-0.5227 0.74667,6.496 -0.672,-0.448 q 3.43466,-3.2107 6.86933,-4.7787 3.43467,-1.6426 6.79467,-1.6426 4.18134,0 7.46667,2.3146 3.36,2.3147 5.30134,6.72 1.94133,4.3307 1.94133,10.6774 0,6.8693 -2.38933,11.5733 -2.31467,4.704 -6.57067,7.168 -4.256,2.3894 -10.00534,2.3894 -2.09067,0 -4.33067,-0.3734 -2.24,-0.3733 -4.704,-0.9706 l 0.896,-0.8214 v 14.9334 l -0.82133,-1.0454 7.69067,1.4934 v 3.2106 z m 19.26401,-20.9066 q 6.57067,0 10.00534,-4.256 3.43467,-4.256 3.43467,-11.7974 0,-4.928 -1.41867,-8.4373 -1.344,-3.5094 -3.73334,-5.376 -2.38933,-1.9414 -5.45067,-1.9414 -2.61333,0 -5.45066,1.4187 -2.76267,1.344 -5.60001,4.1813 l 0.74667,-1.8666 v 28 l -0.82133,-1.344 q 4.55466,1.4187 8.288,1.4187 z"
           id="path779" /><path
           d="m 493.14897,1644.3933 -0.672,-0.8213 6.496,1.4186 v 3.2107 h -17.62134 v -3.2107 l 6.49601,-1.4186 -0.67201,0.8213 v -31.5094 l 0.59734,0.672 -6.42134,-1.344 v -3.2106 l 11.79734,-0.448 z m -3.43467,-43.904 q -1.71733,0 -2.83733,-1.12 -1.12,-1.12 -1.12,-3.0614 0,-2.016 1.12,-3.0613 1.19467,-1.12 2.912,-1.12 1.792,0 2.912,1.0453 1.12,1.0454 1.12,3.136 0,2.016 -1.19467,3.136 -1.19466,1.0454 -2.912,1.0454 z"
           id="path781" /><path
           d="m 503.60233,1648.2013 v -3.2107 l 6.57067,-1.4186 -0.74666,1.12 v -32.1814 l 0.82133,1.12 -6.64534,-1.4187 v -3.2106 l 10.45334,-0.5227 0.82134,7.3173 -0.82134,-0.2986 q 3.36,-3.5094 6.57067,-5.4507 3.21067,-1.9413 7.01867,-1.9413 2.38934,0 5.00267,0.7466 l -0.448,10.9014 h -3.73333 l -0.896,-7.84 0.672,1.344 q -0.52267,-0.1494 -1.12,-0.224 -0.59734,-0.075 -1.19467,-0.075 -2.98667,0 -5.824,1.792 -2.76267,1.792 -5.30134,4.6293 l 0.59733,-1.792 v 27.1041 l -0.896,-1.12 8.13867,1.4186 v 3.2107 z"
           id="path783" /><path
           d="m 547.40668,1644.3933 -0.672,-0.8213 6.496,1.4186 v 3.2107 h -17.62134 v -3.2107 l 6.496,-1.4186 -0.672,0.8213 v -31.5094 l 0.59733,0.672 -6.42133,-1.344 v -3.2106 l 11.79734,-0.448 z m -3.43467,-43.904 q -1.71734,0 -2.83734,-1.12 -1.12,-1.12 -1.12,-3.0614 0,-2.016 1.12,-3.0613 1.19467,-1.12 2.91201,-1.12 1.792,0 2.912,1.0453 1.12,1.0454 1.12,3.136 0,2.016 -1.19467,3.136 -1.19467,1.0454 -2.912,1.0454 z"
           id="path785" /><path
           d="m 571.07605,1648.8733 q -3.88267,0 -6.12267,-2.3893 -2.24,-2.464 -2.24,-7.392 v -27.1041 l 0.97066,0.9707 h -7.69067 v -3.2853 l 7.76534,-1.12 -1.04533,1.1946 v -9.856 l 5.97333,-0.9706 v 10.8266 l -0.82133,-0.9706 h 11.72267 l -0.224,4.1813 h -11.49867 l 0.82133,-0.9707 v 26.2827 q 0,3.136 1.19467,4.5547 1.26933,1.4187 3.50933,1.4187 1.344,0 2.91201,-0.448 1.568,-0.448 3.36,-1.2694 l 1.26933,3.4347 q -5.30134,2.912 -9.856,2.912 z"
           id="path787" /><path
           d="m 600.49469,1648.8733 q -4.928,0 -8.13867,-3.0613 -3.21067,-3.0614 -3.21067,-9.408 v -23.8187 l 0.74667,1.0453 -6.64534,-1.4187 v -3.2106 l 11.87201,-0.448 v 26.8053 q 0,4.48 2.09067,6.6454 2.09067,2.1653 5.6,2.1653 2.76267,0 5.97334,-1.4933 3.21066,-1.4934 6.34667,-4.6294 l -0.448,1.344 v -26.9547 l 0.74666,1.1947 -6.64533,-1.4187 v -3.2106 l 11.872,-0.5227 v 36.064 l -0.896,-0.9706 6.72001,1.2693 v 3.2853 l -10.45334,0.448 -0.896,-7.392 0.82133,0.2987 q -3.65867,3.808 -7.76534,5.6 -4.032,1.792 -7.69067,1.792 z"
           id="path789" /><path
           d="m 661.87079,1644.8413 -0.97066,-1.344 6.86933,1.344 v 3.2853 l -10.45334,0.448 -0.896,-7.168 0.52267,0.224 q -3.28533,3.584 -7.09334,5.4507 -3.808,1.792 -7.392,1.792 -4.33067,0 -7.31734,-2.7627 -2.98666,-2.7626 -2.98666,-8.3626 0,-4.4054 1.86666,-6.72 1.86667,-2.3894 5.15201,-3.36 3.28533,-0.9707 7.616,-0.9707 h 9.78134 l -0.672,0.7467 v -7.1681 q 0,-4.1066 -2.16534,-5.824 -2.16533,-1.792 -5.97333,-1.792 -2.016,0 -4.33067,0.448 -2.24,0.3734 -4.77867,1.2694 l 0.896,-0.9707 -0.74667,6.7947 h -3.95733 l -0.59734,-9.2587 q 4.25601,-1.4187 7.98934,-2.0907 3.73334,-0.7466 6.86934,-0.7466 5.97333,0 9.33333,2.688 3.43467,2.6133 3.43467,8.4373 z m -23.66934,-7.616 q 0,3.6587 1.71733,5.376 1.792,1.7173 4.48,1.7173 2.61334,0 5.74934,-1.568 3.21067,-1.6426 6.19734,-4.4053 l -0.448,1.568 v -10.0053 l 0.672,0.672 h -8.88534 q -5.30134,0 -7.392,1.6426 -2.09067,1.568 -2.09067,5.0027 z"
           id="path791" /><path
           d="m 682.85221,1644.3933 -0.672,-0.8213 6.496,1.4186 v 3.2107 H 670.9802 v -3.2107 l 6.49601,-1.4186 -0.59734,0.8213 v -49.4294 l 0.59734,0.672 -6.49601,-1.344 v -3.2106 l 11.87201,-0.5227 z"
           id="path793" /><path
           d="m 705.10287,1644.3933 -0.672,-0.8213 6.49601,1.4186 v 3.2107 h -17.62134 v -3.2107 l 6.496,-1.4186 -0.672,0.8213 v -31.5094 l 0.59733,0.672 -6.42133,-1.344 v -3.2106 l 11.79733,-0.448 z m -3.43466,-43.904 q -1.71734,0 -2.83734,-1.12 -1.12,-1.12 -1.12,-3.0614 0,-2.016 1.12,-3.0613 1.19467,-1.12 2.912,-1.12 1.792,0 2.912,1.0453 1.12,1.0454 1.12,3.136 0,2.016 -1.19466,3.136 -1.19467,1.0454 -2.912,1.0454 z"
           id="path795" /><path
           d="m 728.77224,1648.8733 q -3.88266,0 -6.12267,-2.3893 -2.24,-2.464 -2.24,-7.392 v -27.1041 l 0.97067,0.9707 h -7.69067 v -3.2853 l 7.76534,-1.12 -1.04534,1.1946 v -9.856 l 5.97334,-0.9706 v 10.8266 l -0.82133,-0.9706 h 11.72267 l -0.224,4.1813 h -11.49867 l 0.82133,-0.9707 v 26.2827 q 0,3.136 1.19467,4.5547 1.26933,1.4187 3.50933,1.4187 1.344,0 2.912,-0.448 1.568,-0.448 3.36,-1.2694 l 1.26934,3.4347 q -5.30134,2.912 -9.85601,2.912 z"
           id="path797" /><path
           d="m 772.52688,1644.8413 -0.97067,-1.344 6.86933,1.344 v 3.2853 l -10.45333,0.448 -0.896,-7.168 0.52266,0.224 q -3.28533,3.584 -7.09333,5.4507 -3.80801,1.792 -7.39201,1.792 -4.33067,0 -7.31733,-2.7627 -2.98667,-2.7626 -2.98667,-8.3626 0,-4.4054 1.86667,-6.72 1.86666,-2.3894 5.152,-3.36 3.28533,-0.9707 7.616,-0.9707 h 9.78134 l -0.672,0.7467 v -7.1681 q 0,-4.1066 -2.16534,-5.824 -2.16533,-1.792 -5.97333,-1.792 -2.016,0 -4.33067,0.448 -2.24,0.3734 -4.77867,1.2694 l 0.896,-0.9707 -0.74667,6.7947 h -3.95733 l -0.59733,-9.2587 q 4.256,-1.4187 7.98933,-2.0907 3.73334,-0.7466 6.86934,-0.7466 5.97334,0 9.33334,2.688 3.43467,2.6133 3.43467,8.4373 z m -23.66935,-7.616 q 0,3.6587 1.71733,5.376 1.79201,1.7173 4.48001,1.7173 2.61333,0 5.74933,-1.568 3.21067,-1.6426 6.19734,-4.4053 l -0.448,1.568 v -10.0053 l 0.672,0.672 h -8.88534 q -5.30133,0 -7.392,1.6426 -2.09067,1.568 -2.09067,5.0027 z m 17.62134,-37.0347 q -1.64267,0 -2.61333,-1.0453 -0.896,-1.0454 -0.97067,-2.8374 0,-1.792 1.04533,-2.8373 1.04534,-1.0453 2.53867,-1.0453 1.64267,0 2.53867,1.0453 0.97067,1.0453 0.97067,2.8373 0,1.792 -1.04534,2.8374 -1.04533,1.0453 -2.464,1.0453 z m -14.85867,0 q -1.64267,0 -2.61334,-1.0453 -0.896,-1.0454 -0.896,-2.8374 0,-1.792 0.97067,-2.8373 1.04533,-1.0453 2.53867,-1.0453 1.64267,0 2.61333,1.0453 0.97067,1.0453 0.97067,2.8373 0,1.792 -1.04533,2.8374 -1.04534,1.0453 -2.53867,1.0453 z"
           id="path799" /><path
           d="m 795.97223,1648.8733 q -3.88267,0 -6.12267,-2.3893 -2.24001,-2.464 -2.24001,-7.392 v -27.1041 l 0.97067,0.9707 h -7.69067 v -3.2853 l 7.76534,-1.12 -1.04534,1.1946 v -9.856 l 5.97334,-0.9706 v 10.8266 l -0.82133,-0.9706 h 11.72267 l -0.224,4.1813 h -11.49867 l 0.82133,-0.9707 v 26.2827 q 0,3.136 1.19467,4.5547 1.26933,1.4187 3.50933,1.4187 1.344,0 2.912,-0.448 1.56801,-0.448 3.36001,-1.2694 l 1.26933,3.4347 q -5.30134,2.912 -9.856,2.912 z"
           id="path801" /></g></g><circle
       style="opacity:0.471743;fill:#3b2722;fill-opacity:0.84853;stroke-width:0.608414;filter:url(#filter2418)"
       id="circle38244"
       cx="-1834.2028"
       cy="2808.9077"
       r="127.60603" /><circle
       style="fill:#f2ece9;fill-opacity:1;stroke-width:0.608414"
       id="circle38246"
       cx="-1851.5007"
       cy="2800.9043"
       r="127.60603" /></g></svg>
