<?xml version="1.0" encoding="UTF-8" standalone="no"?>
<!-- Created with Inkscape (http://www.inkscape.org/) -->

<svg
   version="1.1"
   id="svg83"
   width="553.6748"
   height="332.56616"
   viewBox="0 0 553.6748 332.56616"
   sodipodi:docname="p3.svg"
   inkscape:version="1.2 (dc2aedaf03, 2022-05-15)"
   xml:space="preserve"
   xmlns:inkscape="http://www.inkscape.org/namespaces/inkscape"
   xmlns:sodipodi="http://sodipodi.sourceforge.net/DTD/sodipodi-0.dtd"
   xmlns="http://www.w3.org/2000/svg"
   xmlns:svg="http://www.w3.org/2000/svg"><defs
     id="defs87"><filter
       inkscape:collect="always"
       style="color-interpolation-filters:sRGB"
       id="filter2418-4"
       x="-0.062110244"
       y="-0.062110244"
       width="1.1242205"
       height="1.1242205"><feGaussianBlur
         inkscape:collect="always"
         stdDeviation="6.6047017"
         id="feGaussianBlur2420-9" /></filter></defs><sodipodi:namedview
     id="namedview85"
     pagecolor="#505050"
     bordercolor="#ffffff"
     borderopacity="1"
     inkscape:showpageshadow="0"
     inkscape:pageopacity="0"
     inkscape:pagecheckerboard="1"
     inkscape:deskcolor="#505050"
     showgrid="false"
     inkscape:zoom="1.7486348"
     inkscape:cx="252.76862"
     inkscape:cy="177.28116"
     inkscape:window-width="1920"
     inkscape:window-height="1057"
     inkscape:window-x="0"
     inkscape:window-y="0"
     inkscape:window-maximized="1"
     inkscape:current-layer="layer1" /><g
     inkscape:groupmode="layer"
     id="layer1"
     inkscape:label="additions"
     style="display:inline"
     transform="translate(2316.8945,-1535.5413)"><rect
       style="display:inline;fill:#ffffff;fill-opacity:1;stroke-width:0.567571"
       id="rect55930"
       width="553.6748"
       height="332.56622"
       x="-2316.8945"
       y="1535.5413" /><g
       id="g7456"
       transform="translate(-80.613181)"><g
         aria-label="Kultur"
         id="text55934"
         style="font-size:74.6667px;line-height:1.15;font-family:Bitter;-inkscape-font-specification:Bitter;fill:#6d3f86;fill-opacity:1;stroke-width:2.21141"
         transform="translate(-3298.4878,-417.41522)"><path
           d="m 1032.5932,2012.411 -1.8667,-1.2693 7.0187,1.4933 v 3.2107 h -18.592 v -3.2107 l 6.6453,-1.4933 -0.2986,1.12 -15.0827,-22.0267 1.9413,1.1947 h -11.3493 l 1.12,-1.2693 v 22.2506 l -0.9707,-1.4186 7.3174,1.6426 v 3.2107 h -18.89072 v -3.2107 l 7.31734,-1.4933 -0.896,1.2693 v -45.1733 l 0.82133,1.2693 -7.24267,-1.1947 v -3.2106 l 18.89072,-0.3734 v 3.2107 l -7.2427,1.6427 0.896,-1.4934 v 20.9067 l -1.12,-1.12 h 11.424 l -1.792,1.12 12.544,-20.6827 0.5973,1.0454 -7.168,-1.0454 v -3.2106 l 18.144,-0.3734 v 3.2107 l -7.168,1.6427 1.568,-1.1947 -13.8133,22.2507 v -1.7173 z"
           id="path3303" /><path
           d="m 1054.9435,2016.5177 q -4.928,0 -8.1387,-3.0613 -3.2107,-3.0614 -3.2107,-9.408 v -23.8187 l 0.7467,1.0453 -6.6453,-1.4186 v -3.2107 l 11.872,-0.448 v 26.8053 q 0,4.48 2.0906,6.6454 2.0907,2.1653 5.6,2.1653 2.7627,0 5.9734,-1.4933 3.2106,-1.4934 6.3466,-4.6294 l -0.448,1.344 v -26.9546 l 0.7467,1.1946 -6.6453,-1.4186 v -3.2107 l 11.872,-0.5227 v 36.064 l -0.896,-0.9706 6.72,1.2693 v 3.2853 l -10.4534,0.448 -0.896,-7.392 0.8214,0.2987 q -3.6587,3.808 -7.7654,5.6 -4.032,1.792 -7.6906,1.792 z"
           id="path3305" /><path
           d="m 1096.4582,2012.0377 -0.672,-0.8213 6.496,1.4186 v 3.2107 h -17.696 v -3.2107 l 6.496,-1.4186 -0.5973,0.8213 v -49.4294 l 0.5973,0.672 -6.496,-1.344 v -3.2106 l 11.872,-0.5227 z"
           id="path3307" /><path
           d="m 1120.1276,2016.5177 q -3.8827,0 -6.1227,-2.3893 -2.24,-2.464 -2.24,-7.392 v -27.104 l 0.9707,0.9706 h -7.6907 v -3.2853 l 7.7653,-1.12 -1.0453,1.1947 v -9.8561 l 5.9733,-0.9706 v 10.8267 l -0.8213,-0.9707 h 11.7227 l -0.224,4.1813 h -11.4987 l 0.8213,-0.9706 v 26.2826 q 0,3.136 1.1947,4.5547 1.2693,1.4187 3.5093,1.4187 1.344,0 2.912,-0.448 1.568,-0.448 3.36,-1.2694 l 1.2694,3.4347 q -5.3014,2.912 -9.856,2.912 z"
           id="path3309" /><path
           d="m 1149.5462,2016.5177 q -4.928,0 -8.1387,-3.0613 -3.2106,-3.0614 -3.2106,-9.408 v -23.8187 l 0.7466,1.0453 -6.6453,-1.4186 v -3.2107 l 11.872,-0.448 v 26.8053 q 0,4.48 2.0907,6.6454 2.0906,2.1653 5.6,2.1653 2.7626,0 5.9733,-1.4933 3.2107,-1.4934 6.3467,-4.6294 l -0.448,1.344 v -26.9546 l 0.7466,1.1946 -6.6453,-1.4186 v -3.2107 l 11.872,-0.5227 v 36.064 l -0.896,-0.9706 6.72,1.2693 v 3.2853 l -10.4533,0.448 -0.896,-7.392 0.8213,0.2987 q -3.6587,3.808 -7.7653,5.6 -4.032,1.792 -7.6907,1.792 z"
           id="path3311" /><path
           d="m 1180.2343,2015.8457 v -3.2107 l 6.5706,-1.4186 -0.7466,1.12 v -32.1814 l 0.8213,1.12 -6.6453,-1.4186 v -3.2107 l 10.4533,-0.5227 0.8213,7.3174 -0.8213,-0.2987 q 3.36,-3.5093 6.5707,-5.4507 3.2107,-1.9413 7.0187,-1.9413 2.3893,0 5.0026,0.7467 l -0.448,10.9013 h -3.7333 l -0.896,-7.84 0.672,1.344 q -0.5227,-0.1493 -1.12,-0.224 -0.5973,-0.075 -1.1947,-0.075 -2.9866,0 -5.824,1.792 -2.7626,1.792 -5.3013,4.6294 l 0.5973,-1.792 v 27.104 l -0.896,-1.12 8.1387,1.4186 v 3.2107 z"
           id="path3313" /></g><g
         aria-label="Kultur"
         id="text55942"
         style="font-size:74.6667px;line-height:1.15;font-family:Bitter;-inkscape-font-specification:Bitter;fill:#6d3f86;fill-opacity:1;stroke-width:2.21141"
         transform="translate(-3298.4878,-417.41522)"><path
           d="m 1032.5932,2077.8986 -1.8667,-1.2694 7.0187,1.4934 v 3.2107 h -18.592 v -3.2107 l 6.6453,-1.4934 -0.2986,1.1201 -15.0827,-22.0267 1.9413,1.1946 h -11.3493 l 1.12,-1.2693 v 22.2507 l -0.9707,-1.4187 7.3174,1.6427 v 3.2107 h -18.89072 v -3.2107 l 7.31734,-1.4934 -0.896,1.2694 v -45.1734 l 0.82133,1.2694 -7.24267,-1.1947 v -3.2107 l 18.89072,-0.3733 v 3.2107 l -7.2427,1.6426 0.896,-1.4933 v 20.9067 l -1.12,-1.12 h 11.424 l -1.792,1.12 12.544,-20.6827 0.5973,1.0453 -7.168,-1.0453 v -3.2107 l 18.144,-0.3733 v 3.2107 l -7.168,1.6426 1.568,-1.1946 -13.8133,22.2506 v -1.7173 z"
           id="path3329" /><path
           d="m 1054.9435,2082.0053 q -4.928,0 -8.1387,-3.0614 -3.2107,-3.0613 -3.2107,-9.408 v -23.8187 l 0.7467,1.0454 -6.6453,-1.4187 v -3.2107 l 11.872,-0.448 v 26.8054 q 0,4.48 2.0906,6.6453 2.0907,2.1654 5.6,2.1654 2.7627,0 5.9734,-1.4934 3.2106,-1.4933 6.3466,-4.6293 l -0.448,1.344 v -26.9547 l 0.7467,1.1947 -6.6453,-1.4187 v -3.2107 l 11.872,-0.5226 v 36.064 l -0.896,-0.9707 6.72,1.2694 v 3.2853 l -10.4534,0.448 -0.896,-7.392 0.8214,0.2986 q -3.6587,3.8081 -7.7654,5.6001 -4.032,1.792 -7.6906,1.792 z"
           id="path3331" /><path
           d="m 1096.4582,2077.5253 -0.672,-0.8214 6.496,1.4187 v 3.2107 h -17.696 v -3.2107 l 6.496,-1.4187 -0.5973,0.8214 v -49.4294 l 0.5973,0.672 -6.496,-1.344 v -3.2107 l 11.872,-0.5226 z"
           id="path3333" /><path
           d="m 1120.1276,2082.0053 q -3.8827,0 -6.1227,-2.3894 -2.24,-2.464 -2.24,-7.392 v -27.104 l 0.9707,0.9707 h -7.6907 v -3.2854 l 7.7653,-1.12 -1.0453,1.1947 v -9.856 l 5.9733,-0.9707 v 10.8267 l -0.8213,-0.9707 h 11.7227 l -0.224,4.1814 h -11.4987 l 0.8213,-0.9707 v 26.2827 q 0,3.136 1.1947,4.5546 1.2693,1.4187 3.5093,1.4187 1.344,0 2.912,-0.448 1.568,-0.448 3.36,-1.2693 l 1.2694,3.4347 q -5.3014,2.912 -9.856,2.912 z"
           id="path3335" /><path
           d="m 1149.5462,2082.0053 q -4.928,0 -8.1387,-3.0614 -3.2106,-3.0613 -3.2106,-9.408 v -23.8187 l 0.7466,1.0454 -6.6453,-1.4187 v -3.2107 l 11.872,-0.448 v 26.8054 q 0,4.48 2.0907,6.6453 2.0906,2.1654 5.6,2.1654 2.7626,0 5.9733,-1.4934 3.2107,-1.4933 6.3467,-4.6293 l -0.448,1.344 v -26.9547 l 0.7466,1.1947 -6.6453,-1.4187 v -3.2107 l 11.872,-0.5226 v 36.064 l -0.896,-0.9707 6.72,1.2694 v 3.2853 l -10.4533,0.448 -0.896,-7.392 0.8213,0.2986 q -3.6587,3.8081 -7.7653,5.6001 -4.032,1.792 -7.6907,1.792 z"
           id="path3337" /><path
           d="m 1180.2343,2081.3333 v -3.2107 l 6.5706,-1.4187 -0.7466,1.12 v -32.1813 l 0.8213,1.12 -6.6453,-1.4187 v -3.2107 l 10.4533,-0.5226 0.8213,7.3173 -0.8213,-0.2987 q 3.36,-3.5093 6.5707,-5.4506 3.2107,-1.9414 7.0187,-1.9414 2.3893,0 5.0026,0.7467 l -0.448,10.9013 h -3.7333 l -0.896,-7.84 0.672,1.344 q -0.5227,-0.1493 -1.12,-0.224 -0.5973,-0.075 -1.1947,-0.075 -2.9866,0 -5.824,1.792 -2.7626,1.792 -5.3013,4.6293 l 0.5973,-1.792 v 27.104 l -0.896,-1.12 8.1387,1.4187 v 3.2107 z"
           id="path3339" /></g><g
         aria-label="Kultur"
         id="text55950"
         style="font-size:74.6667px;line-height:1.15;font-family:Bitter;-inkscape-font-specification:Bitter;fill:#6d3f86;fill-opacity:1;stroke-width:2.21141"
         transform="translate(-3298.4878,-417.41522)"><path
           d="m 1032.5932,2143.3319 -1.8667,-1.2693 7.0187,1.4933 v 3.2107 h -18.592 v -3.2107 l 6.6453,-1.4933 -0.2986,1.12 -15.0827,-22.0267 1.9413,1.1947 h -11.3493 l 1.12,-1.2693 v 22.2506 l -0.9707,-1.4186 7.3174,1.6426 v 3.2107 h -18.89072 v -3.2107 l 7.31734,-1.4933 -0.896,1.2693 v -45.1733 l 0.82133,1.2693 -7.24267,-1.1947 v -3.2106 l 18.89072,-0.3734 v 3.2107 l -7.2427,1.6427 0.896,-1.4934 v 20.9067 l -1.12,-1.12 h 11.424 l -1.792,1.12 12.544,-20.6827 0.5973,1.0454 -7.168,-1.0454 v -3.2106 l 18.144,-0.3734 v 3.2107 l -7.168,1.6427 1.568,-1.1947 -13.8133,22.2507 v -1.7173 z"
           id="path3355" /><path
           d="m 1054.9435,2147.4386 q -4.928,0 -8.1387,-3.0613 -3.2107,-3.0614 -3.2107,-9.408 v -23.8187 l 0.7467,1.0453 -6.6453,-1.4186 v -3.2107 l 11.872,-0.448 v 26.8053 q 0,4.48 2.0906,6.6454 2.0907,2.1653 5.6,2.1653 2.7627,0 5.9734,-1.4933 3.2106,-1.4934 6.3466,-4.6294 l -0.448,1.344 v -26.9546 l 0.7467,1.1946 -6.6453,-1.4186 v -3.2107 l 11.872,-0.5227 v 36.064 l -0.896,-0.9706 6.72,1.2693 v 3.2853 l -10.4534,0.448 -0.896,-7.392 0.8214,0.2987 q -3.6587,3.808 -7.7654,5.6 -4.032,1.792 -7.6906,1.792 z"
           id="path3357" /><path
           d="m 1096.4582,2142.9586 -0.672,-0.8213 6.496,1.4186 v 3.2107 h -17.696 v -3.2107 l 6.496,-1.4186 -0.5973,0.8213 v -49.4294 l 0.5973,0.672 -6.496,-1.344 v -3.2106 l 11.872,-0.5227 z"
           id="path3359" /><path
           d="m 1120.1276,2147.4386 q -3.8827,0 -6.1227,-2.3893 -2.24,-2.464 -2.24,-7.392 v -27.104 l 0.9707,0.9706 h -7.6907 v -3.2853 l 7.7653,-1.12 -1.0453,1.1946 v -9.856 l 5.9733,-0.9706 v 10.8266 l -0.8213,-0.9706 h 11.7227 l -0.224,4.1813 h -11.4987 l 0.8213,-0.9706 v 26.2826 q 0,3.136 1.1947,4.5547 1.2693,1.4187 3.5093,1.4187 1.344,0 2.912,-0.448 1.568,-0.448 3.36,-1.2694 l 1.2694,3.4347 q -5.3014,2.912 -9.856,2.912 z"
           id="path3361" /><path
           d="m 1149.5462,2147.4386 q -4.928,0 -8.1387,-3.0613 -3.2106,-3.0614 -3.2106,-9.408 v -23.8187 l 0.7466,1.0453 -6.6453,-1.4186 v -3.2107 l 11.872,-0.448 v 26.8053 q 0,4.48 2.0907,6.6454 2.0906,2.1653 5.6,2.1653 2.7626,0 5.9733,-1.4933 3.2107,-1.4934 6.3467,-4.6294 l -0.448,1.344 v -26.9546 l 0.7466,1.1946 -6.6453,-1.4186 v -3.2107 l 11.872,-0.5227 v 36.064 l -0.896,-0.9706 6.72,1.2693 v 3.2853 l -10.4533,0.448 -0.896,-7.392 0.8213,0.2987 q -3.6587,3.808 -7.7653,5.6 -4.032,1.792 -7.6907,1.792 z"
           id="path3363" /><path
           d="m 1180.2343,2146.7666 v -3.2107 l 6.5706,-1.4186 -0.7466,1.12 v -32.1814 l 0.8213,1.12 -6.6453,-1.4186 v -3.2107 l 10.4533,-0.5227 0.8213,7.3174 -0.8213,-0.2987 q 3.36,-3.5093 6.5707,-5.4507 3.2107,-1.9413 7.0187,-1.9413 2.3893,0 5.0026,0.7466 l -0.448,10.9014 h -3.7333 l -0.896,-7.84 0.672,1.344 q -0.5227,-0.1493 -1.12,-0.224 -0.5973,-0.075 -1.1947,-0.075 -2.9866,0 -5.824,1.792 -2.7626,1.792 -5.3013,4.6294 l 0.5973,-1.792 v 27.104 l -0.896,-1.12 8.1387,1.4186 v 3.2107 z"
           id="path3365" /></g><g
         aria-label="Kultur"
         id="text55958"
         style="font-size:74.6667px;line-height:1.15;font-family:Bitter;-inkscape-font-specification:Bitter;fill:#6d3f86;fill-opacity:1;stroke-width:2.21141"
         transform="translate(-3298.4878,-417.41522)"><path
           d="m 1032.5932,2208.8195 -1.8667,-1.2694 7.0187,1.4934 v 3.2107 h -18.592 v -3.2107 l 6.6453,-1.4934 -0.2986,1.12 -15.0827,-22.0266 1.9413,1.1946 h -11.3493 l 1.12,-1.2693 v 22.2507 l -0.9707,-1.4187 7.3174,1.6427 v 3.2107 h -18.89072 v -3.2107 l 7.31734,-1.4934 -0.896,1.2694 v -45.1734 l 0.82133,1.2694 -7.24267,-1.1947 v -3.2107 l 18.89072,-0.3733 v 3.2107 l -7.2427,1.6426 0.896,-1.4933 v 20.9067 l -1.12,-1.12 h 11.424 l -1.792,1.12 12.544,-20.6827 0.5973,1.0453 -7.168,-1.0453 v -3.2107 l 18.144,-0.3733 v 3.2107 l -7.168,1.6426 1.568,-1.1946 -13.8133,22.2506 v -1.7173 z"
           id="path3381" /><path
           d="m 1054.9435,2212.9262 q -4.928,0 -8.1387,-3.0614 -3.2107,-3.0613 -3.2107,-9.408 v -23.8187 l 0.7467,1.0454 -6.6453,-1.4187 v -3.2107 l 11.872,-0.448 v 26.8054 q 0,4.48 2.0906,6.6453 2.0907,2.1653 5.6,2.1653 2.7627,0 5.9734,-1.4933 3.2106,-1.4933 6.3466,-4.6293 l -0.448,1.344 v -26.9547 l 0.7467,1.1947 -6.6453,-1.4187 v -3.2107 l 11.872,-0.5226 v 36.064 l -0.896,-0.9707 6.72,1.2693 v 3.2854 l -10.4534,0.448 -0.896,-7.392 0.8214,0.2986 q -3.6587,3.808 -7.7654,5.6 -4.032,1.7921 -7.6906,1.7921 z"
           id="path3383" /><path
           d="m 1096.4582,2208.4461 -0.672,-0.8213 6.496,1.4187 v 3.2107 h -17.696 v -3.2107 l 6.496,-1.4187 -0.5973,0.8213 v -49.4293 l 0.5973,0.672 -6.496,-1.344 v -3.2107 l 11.872,-0.5226 z"
           id="path3385" /><path
           d="m 1120.1276,2212.9262 q -3.8827,0 -6.1227,-2.3894 -2.24,-2.464 -2.24,-7.392 v -27.104 l 0.9707,0.9707 h -7.6907 v -3.2854 l 7.7653,-1.12 -1.0453,1.1947 v -9.856 l 5.9733,-0.9707 v 10.8267 l -0.8213,-0.9707 h 11.7227 l -0.224,4.1814 h -11.4987 l 0.8213,-0.9707 v 26.2827 q 0,3.136 1.1947,4.5546 1.2693,1.4187 3.5093,1.4187 1.344,0 2.912,-0.448 1.568,-0.448 3.36,-1.2693 l 1.2694,3.4346 q -5.3014,2.9121 -9.856,2.9121 z"
           id="path3387" /><path
           d="m 1149.5462,2212.9262 q -4.928,0 -8.1387,-3.0614 -3.2106,-3.0613 -3.2106,-9.408 v -23.8187 l 0.7466,1.0454 -6.6453,-1.4187 v -3.2107 l 11.872,-0.448 v 26.8054 q 0,4.48 2.0907,6.6453 2.0906,2.1653 5.6,2.1653 2.7626,0 5.9733,-1.4933 3.2107,-1.4933 6.3467,-4.6293 l -0.448,1.344 v -26.9547 l 0.7466,1.1947 -6.6453,-1.4187 v -3.2107 l 11.872,-0.5226 v 36.064 l -0.896,-0.9707 6.72,1.2693 v 3.2854 l -10.4533,0.448 -0.896,-7.392 0.8213,0.2986 q -3.6587,3.808 -7.7653,5.6 -4.032,1.7921 -7.6907,1.7921 z"
           id="path3389" /><path
           d="m 1180.2343,2212.2542 v -3.2107 l 6.5706,-1.4187 -0.7466,1.12 v -32.1813 l 0.8213,1.12 -6.6453,-1.4187 v -3.2107 l 10.4533,-0.5226 0.8213,7.3173 -0.8213,-0.2987 q 3.36,-3.5093 6.5707,-5.4506 3.2107,-1.9414 7.0187,-1.9414 2.3893,0 5.0026,0.7467 l -0.448,10.9013 h -3.7333 l -0.896,-7.84 0.672,1.344 q -0.5227,-0.1493 -1.12,-0.224 -0.5973,-0.075 -1.1947,-0.075 -2.9866,0 -5.824,1.792 -2.7626,1.792 -5.3013,4.6293 l 0.5973,-1.792 v 27.104 l -0.896,-1.12 8.1387,1.4187 v 3.2107 z"
           id="path3391" /></g><g
         aria-label="Kultur"
         id="text55966"
         style="font-size:74.6667px;line-height:1.15;font-family:Bitter;-inkscape-font-specification:Bitter;fill:#6d3f86;fill-opacity:1;stroke-width:2.21141"
         transform="translate(-3298.4878,-417.41522)"><path
           d="m 1032.5932,2272.9311 -1.8667,-1.2694 7.0187,1.4934 v 3.2106 h -18.592 v -3.2106 l 6.6453,-1.4934 -0.2986,1.12 -15.0827,-22.0267 1.9413,1.1947 h -11.3493 l 1.12,-1.2693 v 22.2507 l -0.9707,-1.4187 7.3174,1.6427 v 3.2106 h -18.89072 v -3.2106 l 7.31734,-1.4934 -0.896,1.2694 v -45.1734 l 0.82133,1.2693 -7.24267,-1.1946 v -3.2107 l 18.89072,-0.3733 v 3.2106 l -7.2427,1.6427 0.896,-1.4933 v 20.9066 l -1.12,-1.12 h 11.424 l -1.792,1.12 12.544,-20.6826 0.5973,1.0453 -7.168,-1.0453 v -3.2107 l 18.144,-0.3733 v 3.2106 l -7.168,1.6427 1.568,-1.1947 -13.8133,22.2507 v -1.7173 z"
           id="path3407" /><path
           d="m 1054.9435,2277.0377 q -4.928,0 -8.1387,-3.0613 -3.2107,-3.0613 -3.2107,-9.408 v -23.8187 l 0.7467,1.0453 -6.6453,-1.4186 v -3.2107 l 11.872,-0.448 v 26.8053 q 0,4.4801 2.0906,6.6454 2.0907,2.1653 5.6,2.1653 2.7627,0 5.9734,-1.4933 3.2106,-1.4933 6.3466,-4.6293 l -0.448,1.344 v -26.9547 l 0.7467,1.1946 -6.6453,-1.4186 v -3.2107 l 11.872,-0.5227 v 36.0641 l -0.896,-0.9707 6.72,1.2693 v 3.2854 l -10.4534,0.448 -0.896,-7.392 0.8214,0.2986 q -3.6587,3.808 -7.7654,5.6 -4.032,1.792 -7.6906,1.792 z"
           id="path3409" /><path
           d="m 1096.4582,2272.5577 -0.672,-0.8213 6.496,1.4187 v 3.2106 h -17.696 v -3.2106 l 6.496,-1.4187 -0.5973,0.8213 v -49.4293 l 0.5973,0.672 -6.496,-1.344 v -3.2107 l 11.872,-0.5227 z"
           id="path3411" /><path
           d="m 1120.1276,2277.0377 q -3.8827,0 -6.1227,-2.3893 -2.24,-2.464 -2.24,-7.392 v -27.104 l 0.9707,0.9706 h -7.6907 v -3.2853 l 7.7653,-1.12 -1.0453,1.1947 v -9.856 l 5.9733,-0.9707 v 10.8267 l -0.8213,-0.9707 h 11.7227 l -0.224,4.1813 h -11.4987 l 0.8213,-0.9706 v 26.2827 q 0,3.136 1.1947,4.5546 1.2693,1.4187 3.5093,1.4187 1.344,0 2.912,-0.448 1.568,-0.448 3.36,-1.2693 l 1.2694,3.4346 q -5.3014,2.912 -9.856,2.912 z"
           id="path3413" /><path
           d="m 1149.5462,2277.0377 q -4.928,0 -8.1387,-3.0613 -3.2106,-3.0613 -3.2106,-9.408 v -23.8187 l 0.7466,1.0453 -6.6453,-1.4186 v -3.2107 l 11.872,-0.448 v 26.8053 q 0,4.4801 2.0907,6.6454 2.0906,2.1653 5.6,2.1653 2.7626,0 5.9733,-1.4933 3.2107,-1.4933 6.3467,-4.6293 l -0.448,1.344 v -26.9547 l 0.7466,1.1946 -6.6453,-1.4186 v -3.2107 l 11.872,-0.5227 v 36.0641 l -0.896,-0.9707 6.72,1.2693 v 3.2854 l -10.4533,0.448 -0.896,-7.392 0.8213,0.2986 q -3.6587,3.808 -7.7653,5.6 -4.032,1.792 -7.6907,1.792 z"
           id="path3415" /><path
           d="m 1180.2343,2276.3657 v -3.2106 l 6.5706,-1.4187 -0.7466,1.12 v -32.1814 l 0.8213,1.12 -6.6453,-1.4186 v -3.2107 l 10.4533,-0.5227 0.8213,7.3174 -0.8213,-0.2987 q 3.36,-3.5093 6.5707,-5.4507 3.2107,-1.9413 7.0187,-1.9413 2.3893,0 5.0026,0.7467 l -0.448,10.9013 h -3.7333 l -0.896,-7.84 0.672,1.344 q -0.5227,-0.1493 -1.12,-0.224 -0.5973,-0.075 -1.1947,-0.075 -2.9866,0 -5.824,1.792 -2.7626,1.792 -5.3013,4.6294 l 0.5973,-1.792 v 27.104 l -0.896,-1.12 8.1387,1.4187 v 3.2106 z"
           id="path3417" /></g></g><g
       id="g7347"
       transform="translate(-99.365651)"><g
         aria-label="Kultur"
         id="text55938"
         style="font-size:74.6667px;line-height:1.15;font-family:Bitter;-inkscape-font-specification:Bitter;fill:#6d3f86;fill-opacity:1;stroke-width:2.21141"
         transform="translate(-3298.4878,-417.41522)"><path
           d="m 1278.288,2012.411 -1.8666,-1.2693 7.0186,1.4933 v 3.2107 h -18.592 v -3.2107 l 6.6454,-1.4933 -0.2987,1.12 -15.0827,-22.0267 1.9414,1.1947 h -11.3494 l 1.12,-1.2693 v 22.2506 l -0.9707,-1.4186 7.3174,1.6426 v 3.2107 H 1235.28 v -3.2107 l 7.3173,-1.4933 -0.896,1.2693 v -45.1733 l 0.8214,1.2693 -7.2427,-1.1947 v -3.2106 l 18.8907,-0.3734 v 3.2107 l -7.2427,1.6427 0.896,-1.4934 v 20.9067 l -1.12,-1.12 h 11.424 l -1.792,1.12 12.544,-20.6827 0.5974,1.0454 -7.168,-1.0454 v -3.2106 l 18.144,-0.3734 v 3.2107 l -7.168,1.6427 1.568,-1.1947 -13.8134,22.2507 v -1.7173 z"
           id="path3316" /><path
           d="m 1300.6383,2016.5177 q -4.928,0 -8.1387,-3.0613 -3.2106,-3.0614 -3.2106,-9.408 v -23.8187 l 0.7466,1.0453 -6.6453,-1.4186 v -3.2107 l 11.872,-0.448 v 26.8053 q 0,4.48 2.0907,6.6454 2.0906,2.1653 5.6,2.1653 2.7626,0 5.9733,-1.4933 3.2107,-1.4934 6.3467,-4.6294 l -0.448,1.344 v -26.9546 l 0.7466,1.1946 -6.6453,-1.4186 v -3.2107 l 11.872,-0.5227 v 36.064 l -0.896,-0.9706 6.72,1.2693 v 3.2853 l -10.4533,0.448 -0.896,-7.392 0.8213,0.2987 q -3.6587,3.808 -7.7653,5.6 -4.032,1.792 -7.6907,1.792 z"
           id="path3318" /><path
           d="m 1342.1531,2012.0377 -0.672,-0.8213 6.496,1.4186 v 3.2107 h -17.6961 v -3.2107 l 6.496,-1.4186 -0.5973,0.8213 v -49.4294 l 0.5973,0.672 -6.496,-1.344 v -3.2106 l 11.8721,-0.5227 z"
           id="path3320" /><path
           d="m 1365.8224,2016.5177 q -3.8827,0 -6.1227,-2.3893 -2.24,-2.464 -2.24,-7.392 v -27.104 l 0.9707,0.9706 h -7.6907 v -3.2853 l 7.7653,-1.12 -1.0453,1.1947 v -9.8561 l 5.9733,-0.9706 v 10.8267 l -0.8213,-0.9707 h 11.7227 l -0.224,4.1813 h -11.4987 l 0.8213,-0.9706 v 26.2826 q 0,3.136 1.1947,4.5547 1.2694,1.4187 3.5094,1.4187 1.344,0 2.912,-0.448 1.568,-0.448 3.36,-1.2694 l 1.2693,3.4347 q -5.3013,2.912 -9.856,2.912 z"
           id="path3322" /><path
           d="m 1395.241,2016.5177 q -4.928,0 -8.1386,-3.0613 -3.2107,-3.0614 -3.2107,-9.408 v -23.8187 l 0.7467,1.0453 -6.6454,-1.4186 v -3.2107 l 11.872,-0.448 v 26.8053 q 0,4.48 2.0907,6.6454 2.0907,2.1653 5.6,2.1653 2.7627,0 5.9733,-1.4933 3.2107,-1.4934 6.3467,-4.6294 l -0.448,1.344 v -26.9546 l 0.7467,1.1946 -6.6454,-1.4186 v -3.2107 l 11.872,-0.5227 v 36.064 l -0.896,-0.9706 6.72,1.2693 v 3.2853 l -10.4533,0.448 -0.896,-7.392 0.8213,0.2987 q -3.6586,3.808 -7.7653,5.6 -4.032,1.792 -7.6907,1.792 z"
           id="path3324" /><path
           d="m 1425.9291,2015.8457 v -3.2107 l 6.5707,-1.4186 -0.7467,1.12 v -32.1814 l 0.8213,1.12 -6.6453,-1.4186 v -3.2107 l 10.4533,-0.5227 0.8214,7.3174 -0.8214,-0.2987 q 3.36,-3.5093 6.5707,-5.4507 3.2107,-1.9413 7.0187,-1.9413 2.3893,0 5.0026,0.7467 l -0.448,10.9013 h -3.7333 l -0.896,-7.84 0.672,1.344 q -0.5227,-0.1493 -1.12,-0.224 -0.5973,-0.075 -1.1947,-0.075 -2.9866,0 -5.824,1.792 -2.7626,1.792 -5.3013,4.6294 l 0.5973,-1.792 v 27.104 l -0.896,-1.12 8.1387,1.4186 v 3.2107 z"
           id="path3326" /></g><g
         aria-label="Kultur"
         id="text55946"
         style="font-size:74.6667px;line-height:1.15;font-family:Bitter;-inkscape-font-specification:Bitter;fill:#6d3f86;fill-opacity:1;stroke-width:2.21141"
         transform="translate(-3298.4878,-417.41522)"><path
           d="m 1278.288,2077.8986 -1.8666,-1.2694 7.0186,1.4934 v 3.2107 h -18.592 v -3.2107 l 6.6454,-1.4934 -0.2987,1.1201 -15.0827,-22.0267 1.9414,1.1946 h -11.3494 l 1.12,-1.2693 v 22.2507 l -0.9707,-1.4187 7.3174,1.6427 v 3.2107 H 1235.28 v -3.2107 l 7.3173,-1.4934 -0.896,1.2694 v -45.1734 l 0.8214,1.2694 -7.2427,-1.1947 v -3.2107 l 18.8907,-0.3733 v 3.2107 l -7.2427,1.6426 0.896,-1.4933 v 20.9067 l -1.12,-1.12 h 11.424 l -1.792,1.12 12.544,-20.6827 0.5974,1.0453 -7.168,-1.0453 v -3.2107 l 18.144,-0.3733 v 3.2107 l -7.168,1.6426 1.568,-1.1946 -13.8134,22.2506 v -1.7173 z"
           id="path3342" /><path
           d="m 1300.6383,2082.0053 q -4.928,0 -8.1387,-3.0614 -3.2106,-3.0613 -3.2106,-9.408 v -23.8187 l 0.7466,1.0454 -6.6453,-1.4187 v -3.2107 l 11.872,-0.448 v 26.8054 q 0,4.48 2.0907,6.6453 2.0906,2.1654 5.6,2.1654 2.7626,0 5.9733,-1.4934 3.2107,-1.4933 6.3467,-4.6293 l -0.448,1.344 v -26.9547 l 0.7466,1.1947 -6.6453,-1.4187 v -3.2107 l 11.872,-0.5226 v 36.064 l -0.896,-0.9707 6.72,1.2694 v 3.2853 l -10.4533,0.448 -0.896,-7.392 0.8213,0.2986 q -3.6587,3.8081 -7.7653,5.6001 -4.032,1.792 -7.6907,1.792 z"
           id="path3344" /><path
           d="m 1342.1531,2077.5253 -0.672,-0.8214 6.496,1.4187 v 3.2107 h -17.6961 v -3.2107 l 6.496,-1.4187 -0.5973,0.8214 v -49.4294 l 0.5973,0.672 -6.496,-1.344 v -3.2107 l 11.8721,-0.5226 z"
           id="path3346" /><path
           d="m 1365.8224,2082.0053 q -3.8827,0 -6.1227,-2.3894 -2.24,-2.464 -2.24,-7.392 v -27.104 l 0.9707,0.9707 h -7.6907 v -3.2854 l 7.7653,-1.12 -1.0453,1.1947 v -9.856 l 5.9733,-0.9707 v 10.8267 l -0.8213,-0.9707 h 11.7227 l -0.224,4.1814 h -11.4987 l 0.8213,-0.9707 v 26.2827 q 0,3.136 1.1947,4.5546 1.2694,1.4187 3.5094,1.4187 1.344,0 2.912,-0.448 1.568,-0.448 3.36,-1.2693 l 1.2693,3.4347 q -5.3013,2.912 -9.856,2.912 z"
           id="path3348" /><path
           d="m 1395.241,2082.0053 q -4.928,0 -8.1386,-3.0614 -3.2107,-3.0613 -3.2107,-9.408 v -23.8187 l 0.7467,1.0454 -6.6454,-1.4187 v -3.2107 l 11.872,-0.448 v 26.8054 q 0,4.48 2.0907,6.6453 2.0907,2.1654 5.6,2.1654 2.7627,0 5.9733,-1.4934 3.2107,-1.4933 6.3467,-4.6293 l -0.448,1.344 v -26.9547 l 0.7467,1.1947 -6.6454,-1.4187 v -3.2107 l 11.872,-0.5226 v 36.064 l -0.896,-0.9707 6.72,1.2694 v 3.2853 l -10.4533,0.448 -0.896,-7.392 0.8213,0.2986 q -3.6586,3.8081 -7.7653,5.6001 -4.032,1.792 -7.6907,1.792 z"
           id="path3350" /><path
           d="m 1425.9291,2081.3333 v -3.2107 l 6.5707,-1.4187 -0.7467,1.12 v -32.1813 l 0.8213,1.12 -6.6453,-1.4187 v -3.2107 l 10.4533,-0.5226 0.8214,7.3173 -0.8214,-0.2987 q 3.36,-3.5093 6.5707,-5.4506 3.2107,-1.9414 7.0187,-1.9414 2.3893,0 5.0026,0.7467 l -0.448,10.9013 h -3.7333 l -0.896,-7.84 0.672,1.344 q -0.5227,-0.1493 -1.12,-0.224 -0.5973,-0.075 -1.1947,-0.075 -2.9866,0 -5.824,1.792 -2.7626,1.792 -5.3013,4.6293 l 0.5973,-1.792 v 27.104 l -0.896,-1.12 8.1387,1.4187 v 3.2107 z"
           id="path3352" /></g><g
         aria-label="Kultur"
         id="text55954"
         style="font-size:74.6667px;line-height:1.15;font-family:Bitter;-inkscape-font-specification:Bitter;fill:#6d3f86;fill-opacity:1;stroke-width:2.21141"
         transform="translate(-3298.4878,-417.41522)"><path
           d="m 1278.288,2143.3319 -1.8666,-1.2693 7.0186,1.4933 v 3.2107 h -18.592 v -3.2107 l 6.6454,-1.4933 -0.2987,1.12 -15.0827,-22.0267 1.9414,1.1947 h -11.3494 l 1.12,-1.2693 v 22.2506 l -0.9707,-1.4186 7.3174,1.6426 v 3.2107 H 1235.28 v -3.2107 l 7.3173,-1.4933 -0.896,1.2693 v -45.1733 l 0.8214,1.2693 -7.2427,-1.1947 v -3.2106 l 18.8907,-0.3734 v 3.2107 l -7.2427,1.6427 0.896,-1.4934 v 20.9067 l -1.12,-1.12 h 11.424 l -1.792,1.12 12.544,-20.6827 0.5974,1.0454 -7.168,-1.0454 v -3.2106 l 18.144,-0.3734 v 3.2107 l -7.168,1.6427 1.568,-1.1947 -13.8134,22.2507 v -1.7173 z"
           id="path3368" /><path
           d="m 1300.6383,2147.4386 q -4.928,0 -8.1387,-3.0613 -3.2106,-3.0614 -3.2106,-9.408 v -23.8187 l 0.7466,1.0453 -6.6453,-1.4186 v -3.2107 l 11.872,-0.448 v 26.8053 q 0,4.48 2.0907,6.6454 2.0906,2.1653 5.6,2.1653 2.7626,0 5.9733,-1.4933 3.2107,-1.4934 6.3467,-4.6294 l -0.448,1.344 v -26.9546 l 0.7466,1.1946 -6.6453,-1.4186 v -3.2107 l 11.872,-0.5227 v 36.064 l -0.896,-0.9706 6.72,1.2693 v 3.2853 l -10.4533,0.448 -0.896,-7.392 0.8213,0.2987 q -3.6587,3.808 -7.7653,5.6 -4.032,1.792 -7.6907,1.792 z"
           id="path3370" /><path
           d="m 1342.1531,2142.9586 -0.672,-0.8213 6.496,1.4186 v 3.2107 h -17.6961 v -3.2107 l 6.496,-1.4186 -0.5973,0.8213 v -49.4294 l 0.5973,0.672 -6.496,-1.344 v -3.2106 l 11.8721,-0.5227 z"
           id="path3372" /><path
           d="m 1365.8224,2147.4386 q -3.8827,0 -6.1227,-2.3893 -2.24,-2.464 -2.24,-7.392 v -27.104 l 0.9707,0.9706 h -7.6907 v -3.2853 l 7.7653,-1.12 -1.0453,1.1946 v -9.856 l 5.9733,-0.9706 v 10.8266 l -0.8213,-0.9706 h 11.7227 l -0.224,4.1813 h -11.4987 l 0.8213,-0.9706 v 26.2826 q 0,3.136 1.1947,4.5547 1.2694,1.4187 3.5094,1.4187 1.344,0 2.912,-0.448 1.568,-0.448 3.36,-1.2694 l 1.2693,3.4347 q -5.3013,2.912 -9.856,2.912 z"
           id="path3374" /><path
           d="m 1395.241,2147.4386 q -4.928,0 -8.1386,-3.0613 -3.2107,-3.0614 -3.2107,-9.408 v -23.8187 l 0.7467,1.0453 -6.6454,-1.4186 v -3.2107 l 11.872,-0.448 v 26.8053 q 0,4.48 2.0907,6.6454 2.0907,2.1653 5.6,2.1653 2.7627,0 5.9733,-1.4933 3.2107,-1.4934 6.3467,-4.6294 l -0.448,1.344 v -26.9546 l 0.7467,1.1946 -6.6454,-1.4186 v -3.2107 l 11.872,-0.5227 v 36.064 l -0.896,-0.9706 6.72,1.2693 v 3.2853 l -10.4533,0.448 -0.896,-7.392 0.8213,0.2987 q -3.6586,3.808 -7.7653,5.6 -4.032,1.792 -7.6907,1.792 z"
           id="path3376" /><path
           d="m 1425.9291,2146.7666 v -3.2107 l 6.5707,-1.4186 -0.7467,1.12 v -32.1814 l 0.8213,1.12 -6.6453,-1.4186 v -3.2107 l 10.4533,-0.5227 0.8214,7.3174 -0.8214,-0.2987 q 3.36,-3.5093 6.5707,-5.4507 3.2107,-1.9413 7.0187,-1.9413 2.3893,0 5.0026,0.7466 l -0.448,10.9014 h -3.7333 l -0.896,-7.84 0.672,1.344 q -0.5227,-0.1493 -1.12,-0.224 -0.5973,-0.075 -1.1947,-0.075 -2.9866,0 -5.824,1.792 -2.7626,1.792 -5.3013,4.6294 l 0.5973,-1.792 v 27.104 l -0.896,-1.12 8.1387,1.4186 v 3.2107 z"
           id="path3378" /></g><g
         aria-label="Kultur"
         id="text55962"
         style="font-size:74.6667px;line-height:1.15;font-family:Bitter;-inkscape-font-specification:Bitter;fill:#6d3f86;fill-opacity:1;stroke-width:2.21141"
         transform="translate(-3298.4878,-417.41522)"><path
           d="m 1278.288,2208.8195 -1.8666,-1.2694 7.0186,1.4934 v 3.2107 h -18.592 v -3.2107 l 6.6454,-1.4934 -0.2987,1.12 -15.0827,-22.0266 1.9414,1.1946 h -11.3494 l 1.12,-1.2693 v 22.2507 l -0.9707,-1.4187 7.3174,1.6427 v 3.2107 H 1235.28 v -3.2107 l 7.3173,-1.4934 -0.896,1.2694 v -45.1734 l 0.8214,1.2694 -7.2427,-1.1947 v -3.2107 l 18.8907,-0.3733 v 3.2107 l -7.2427,1.6426 0.896,-1.4933 v 20.9067 l -1.12,-1.12 h 11.424 l -1.792,1.12 12.544,-20.6827 0.5974,1.0453 -7.168,-1.0453 v -3.2107 l 18.144,-0.3733 v 3.2107 l -7.168,1.6426 1.568,-1.1946 -13.8134,22.2506 v -1.7173 z"
           id="path3394" /><path
           d="m 1300.6383,2212.9262 q -4.928,0 -8.1387,-3.0614 -3.2106,-3.0613 -3.2106,-9.408 v -23.8187 l 0.7466,1.0454 -6.6453,-1.4187 v -3.2107 l 11.872,-0.448 v 26.8054 q 0,4.48 2.0907,6.6453 2.0906,2.1653 5.6,2.1653 2.7626,0 5.9733,-1.4933 3.2107,-1.4933 6.3467,-4.6293 l -0.448,1.344 v -26.9547 l 0.7466,1.1947 -6.6453,-1.4187 v -3.2107 l 11.872,-0.5226 v 36.064 l -0.896,-0.9707 6.72,1.2693 v 3.2854 l -10.4533,0.448 -0.896,-7.392 0.8213,0.2986 q -3.6587,3.808 -7.7653,5.6 -4.032,1.7921 -7.6907,1.7921 z"
           id="path3396" /><path
           d="m 1342.1531,2208.4461 -0.672,-0.8213 6.496,1.4187 v 3.2107 h -17.6961 v -3.2107 l 6.496,-1.4187 -0.5973,0.8213 v -49.4293 l 0.5973,0.672 -6.496,-1.344 v -3.2107 l 11.8721,-0.5226 z"
           id="path3398" /><path
           d="m 1365.8224,2212.9262 q -3.8827,0 -6.1227,-2.3894 -2.24,-2.464 -2.24,-7.392 v -27.104 l 0.9707,0.9707 h -7.6907 v -3.2854 l 7.7653,-1.12 -1.0453,1.1947 v -9.856 l 5.9733,-0.9707 v 10.8267 l -0.8213,-0.9707 h 11.7227 l -0.224,4.1814 h -11.4987 l 0.8213,-0.9707 v 26.2827 q 0,3.136 1.1947,4.5546 1.2694,1.4187 3.5094,1.4187 1.344,0 2.912,-0.448 1.568,-0.448 3.36,-1.2693 l 1.2693,3.4346 q -5.3013,2.9121 -9.856,2.9121 z"
           id="path3400" /><path
           d="m 1395.241,2212.9262 q -4.928,0 -8.1386,-3.0614 -3.2107,-3.0613 -3.2107,-9.408 v -23.8187 l 0.7467,1.0454 -6.6454,-1.4187 v -3.2107 l 11.872,-0.448 v 26.8054 q 0,4.48 2.0907,6.6453 2.0907,2.1653 5.6,2.1653 2.7627,0 5.9733,-1.4933 3.2107,-1.4933 6.3467,-4.6293 l -0.448,1.344 v -26.9547 l 0.7467,1.1947 -6.6454,-1.4187 v -3.2107 l 11.872,-0.5226 v 36.064 l -0.896,-0.9707 6.72,1.2693 v 3.2854 l -10.4533,0.448 -0.896,-7.392 0.8213,0.2986 q -3.6586,3.808 -7.7653,5.6 -4.032,1.7921 -7.6907,1.7921 z"
           id="path3402" /><path
           d="m 1425.9291,2212.2542 v -3.2107 l 6.5707,-1.4187 -0.7467,1.12 v -32.1813 l 0.8213,1.12 -6.6453,-1.4187 v -3.2107 l 10.4533,-0.5226 0.8214,7.3173 -0.8214,-0.2987 q 3.36,-3.5093 6.5707,-5.4506 3.2107,-1.9414 7.0187,-1.9414 2.3893,0 5.0026,0.7467 l -0.448,10.9013 h -3.7333 l -0.896,-7.84 0.672,1.344 q -0.5227,-0.1493 -1.12,-0.224 -0.5973,-0.075 -1.1947,-0.075 -2.9866,0 -5.824,1.792 -2.7626,1.792 -5.3013,4.6293 l 0.5973,-1.792 v 27.104 l -0.896,-1.12 8.1387,1.4187 v 3.2107 z"
           id="path3404" /></g><g
         aria-label="Kultur"
         id="text55970"
         style="font-size:74.6667px;line-height:1.15;font-family:Bitter;-inkscape-font-specification:Bitter;fill:#6d3f86;fill-opacity:1;stroke-width:2.21141"
         transform="translate(-3298.4878,-417.41522)"><path
           d="m 1278.288,2272.9311 -1.8666,-1.2694 7.0186,1.4934 v 3.2106 h -18.592 v -3.2106 l 6.6454,-1.4934 -0.2987,1.12 -15.0827,-22.0267 1.9414,1.1947 h -11.3494 l 1.12,-1.2693 v 22.2507 l -0.9707,-1.4187 7.3174,1.6427 v 3.2106 H 1235.28 v -3.2106 l 7.3173,-1.4934 -0.896,1.2694 v -45.1734 l 0.8214,1.2693 -7.2427,-1.1946 v -3.2107 l 18.8907,-0.3733 v 3.2106 l -7.2427,1.6427 0.896,-1.4933 v 20.9066 l -1.12,-1.12 h 11.424 l -1.792,1.12 12.544,-20.6826 0.5974,1.0453 -7.168,-1.0453 v -3.2107 l 18.144,-0.3733 v 3.2106 l -7.168,1.6427 1.568,-1.1947 -13.8134,22.2507 v -1.7173 z"
           id="path3420" /><path
           d="m 1300.6383,2277.0377 q -4.928,0 -8.1387,-3.0613 -3.2106,-3.0613 -3.2106,-9.408 v -23.8187 l 0.7466,1.0453 -6.6453,-1.4186 v -3.2107 l 11.872,-0.448 v 26.8053 q 0,4.4801 2.0907,6.6454 2.0906,2.1653 5.6,2.1653 2.7626,0 5.9733,-1.4933 3.2107,-1.4933 6.3467,-4.6293 l -0.448,1.344 v -26.9547 l 0.7466,1.1946 -6.6453,-1.4186 v -3.2107 l 11.872,-0.5227 v 36.0641 l -0.896,-0.9707 6.72,1.2693 v 3.2854 l -10.4533,0.448 -0.896,-7.392 0.8213,0.2986 q -3.6587,3.808 -7.7653,5.6 -4.032,1.792 -7.6907,1.792 z"
           id="path3422" /><path
           d="m 1342.1531,2272.5577 -0.672,-0.8213 6.496,1.4187 v 3.2106 h -17.6961 v -3.2106 l 6.496,-1.4187 -0.5973,0.8213 v -49.4293 l 0.5973,0.672 -6.496,-1.344 v -3.2107 l 11.8721,-0.5227 z"
           id="path3424" /><path
           d="m 1365.8224,2277.0377 q -3.8827,0 -6.1227,-2.3893 -2.24,-2.464 -2.24,-7.392 v -27.104 l 0.9707,0.9706 h -7.6907 v -3.2853 l 7.7653,-1.12 -1.0453,1.1947 v -9.856 l 5.9733,-0.9707 v 10.8267 l -0.8213,-0.9707 h 11.7227 l -0.224,4.1813 h -11.4987 l 0.8213,-0.9706 v 26.2827 q 0,3.136 1.1947,4.5546 1.2694,1.4187 3.5094,1.4187 1.344,0 2.912,-0.448 1.568,-0.448 3.36,-1.2693 l 1.2693,3.4346 q -5.3013,2.912 -9.856,2.912 z"
           id="path3426" /><path
           d="m 1395.241,2277.0377 q -4.928,0 -8.1386,-3.0613 -3.2107,-3.0613 -3.2107,-9.408 v -23.8187 l 0.7467,1.0453 -6.6454,-1.4186 v -3.2107 l 11.872,-0.448 v 26.8053 q 0,4.4801 2.0907,6.6454 2.0907,2.1653 5.6,2.1653 2.7627,0 5.9733,-1.4933 3.2107,-1.4933 6.3467,-4.6293 l -0.448,1.344 v -26.9547 l 0.7467,1.1946 -6.6454,-1.4186 v -3.2107 l 11.872,-0.5227 v 36.0641 l -0.896,-0.9707 6.72,1.2693 v 3.2854 l -10.4533,0.448 -0.896,-7.392 0.8213,0.2986 q -3.6586,3.808 -7.7653,5.6 -4.032,1.792 -7.6907,1.792 z"
           id="path3428" /><path
           d="m 1425.9291,2276.3657 v -3.2106 l 6.5707,-1.4187 -0.7467,1.12 v -32.1814 l 0.8213,1.12 -6.6453,-1.4186 v -3.2107 l 10.4533,-0.5227 0.8214,7.3174 -0.8214,-0.2987 q 3.36,-3.5093 6.5707,-5.4507 3.2107,-1.9413 7.0187,-1.9413 2.3893,0 5.0026,0.7467 l -0.448,10.9013 h -3.7333 l -0.896,-7.84 0.672,1.344 q -0.5227,-0.1493 -1.12,-0.224 -0.5973,-0.075 -1.1947,-0.075 -2.9866,0 -5.824,1.792 -2.7626,1.792 -5.3013,4.6294 l 0.5973,-1.792 v 27.104 l -0.896,-1.12 8.1387,1.4187 v 3.2106 z"
           id="path3430" /></g></g><circle
       style="display:inline;opacity:0.471743;fill:#3b2722;fill-opacity:0.84853;stroke-width:0.608414;filter:url(#filter2418-4)"
       id="circle55994"
       cx="-2076.3108"
       cy="1711.0157"
       r="127.60603" /><circle
       style="display:inline;fill:#f2ece9;fill-opacity:1;stroke-width:0.608414"
       id="circle55996"
       cx="-2093.6089"
       cy="1703.0123"
       r="127.60603" /><g
       id="g7419"
       transform="translate(127.57669)"><g
         aria-label="Kultur"
         id="g7361"
         style="font-size:74.6667px;line-height:1.15;font-family:Bitter;-inkscape-font-specification:Bitter;fill:#6d3f86;fill-opacity:1;stroke-width:2.21141"
         transform="translate(-3298.4878,-417.41522)"><path
           d="m 1278.288,2012.411 -1.8666,-1.2693 7.0186,1.4933 v 3.2107 h -18.592 v -3.2107 l 6.6454,-1.4933 -0.2987,1.12 -15.0827,-22.0267 1.9414,1.1947 h -11.3494 l 1.12,-1.2693 v 22.2506 l -0.9707,-1.4186 7.3174,1.6426 v 3.2107 H 1235.28 v -3.2107 l 7.3173,-1.4933 -0.896,1.2693 v -45.1733 l 0.8214,1.2693 -7.2427,-1.1947 v -3.2106 l 18.8907,-0.3734 v 3.2107 l -7.2427,1.6427 0.896,-1.4934 v 20.9067 l -1.12,-1.12 h 11.424 l -1.792,1.12 12.544,-20.6827 0.5974,1.0454 -7.168,-1.0454 v -3.2106 l 18.144,-0.3734 v 3.2107 l -7.168,1.6427 1.568,-1.1947 -13.8134,22.2507 v -1.7173 z"
           id="path7349" /><path
           d="m 1300.6383,2016.5177 q -4.928,0 -8.1387,-3.0613 -3.2106,-3.0614 -3.2106,-9.408 v -23.8187 l 0.7466,1.0453 -6.6453,-1.4186 v -3.2107 l 11.872,-0.448 v 26.8053 q 0,4.48 2.0907,6.6454 2.0906,2.1653 5.6,2.1653 2.7626,0 5.9733,-1.4933 3.2107,-1.4934 6.3467,-4.6294 l -0.448,1.344 v -26.9546 l 0.7466,1.1946 -6.6453,-1.4186 v -3.2107 l 11.872,-0.5227 v 36.064 l -0.896,-0.9706 6.72,1.2693 v 3.2853 l -10.4533,0.448 -0.896,-7.392 0.8213,0.2987 q -3.6587,3.808 -7.7653,5.6 -4.032,1.792 -7.6907,1.792 z"
           id="path7351" /><path
           d="m 1342.1531,2012.0377 -0.672,-0.8213 6.496,1.4186 v 3.2107 h -17.6961 v -3.2107 l 6.496,-1.4186 -0.5973,0.8213 v -49.4294 l 0.5973,0.672 -6.496,-1.344 v -3.2106 l 11.8721,-0.5227 z"
           id="path7353" /><path
           d="m 1365.8224,2016.5177 q -3.8827,0 -6.1227,-2.3893 -2.24,-2.464 -2.24,-7.392 v -27.104 l 0.9707,0.9706 h -7.6907 v -3.2853 l 7.7653,-1.12 -1.0453,1.1947 v -9.8561 l 5.9733,-0.9706 v 10.8267 l -0.8213,-0.9707 h 11.7227 l -0.224,4.1813 h -11.4987 l 0.8213,-0.9706 v 26.2826 q 0,3.136 1.1947,4.5547 1.2694,1.4187 3.5094,1.4187 1.344,0 2.912,-0.448 1.568,-0.448 3.36,-1.2694 l 1.2693,3.4347 q -5.3013,2.912 -9.856,2.912 z"
           id="path7355" /><path
           d="m 1395.241,2016.5177 q -4.928,0 -8.1386,-3.0613 -3.2107,-3.0614 -3.2107,-9.408 v -23.8187 l 0.7467,1.0453 -6.6454,-1.4186 v -3.2107 l 11.872,-0.448 v 26.8053 q 0,4.48 2.0907,6.6454 2.0907,2.1653 5.6,2.1653 2.7627,0 5.9733,-1.4933 3.2107,-1.4934 6.3467,-4.6294 l -0.448,1.344 v -26.9546 l 0.7467,1.1946 -6.6454,-1.4186 v -3.2107 l 11.872,-0.5227 v 36.064 l -0.896,-0.9706 6.72,1.2693 v 3.2853 l -10.4533,0.448 -0.896,-7.392 0.8213,0.2987 q -3.6586,3.808 -7.7653,5.6 -4.032,1.792 -7.6907,1.792 z"
           id="path7357" /><path
           d="m 1425.9291,2015.8457 v -3.2107 l 6.5707,-1.4186 -0.7467,1.12 v -32.1814 l 0.8213,1.12 -6.6453,-1.4186 v -3.2107 l 10.4533,-0.5227 0.8214,7.3174 -0.8214,-0.2987 q 3.36,-3.5093 6.5707,-5.4507 3.2107,-1.9413 7.0187,-1.9413 2.3893,0 5.0026,0.7467 l -0.448,10.9013 h -3.7333 l -0.896,-7.84 0.672,1.344 q -0.5227,-0.1493 -1.12,-0.224 -0.5973,-0.075 -1.1947,-0.075 -2.9866,0 -5.824,1.792 -2.7626,1.792 -5.3013,4.6294 l 0.5973,-1.792 v 27.104 l -0.896,-1.12 8.1387,1.4186 v 3.2107 z"
           id="path7359" /></g><g
         aria-label="Kultur"
         id="g7375"
         style="font-size:74.6667px;line-height:1.15;font-family:Bitter;-inkscape-font-specification:Bitter;fill:#6d3f86;fill-opacity:1;stroke-width:2.21141"
         transform="translate(-3298.4878,-417.41522)"><path
           d="m 1278.288,2077.8986 -1.8666,-1.2694 7.0186,1.4934 v 3.2107 h -18.592 v -3.2107 l 6.6454,-1.4934 -0.2987,1.1201 -15.0827,-22.0267 1.9414,1.1946 h -11.3494 l 1.12,-1.2693 v 22.2507 l -0.9707,-1.4187 7.3174,1.6427 v 3.2107 H 1235.28 v -3.2107 l 7.3173,-1.4934 -0.896,1.2694 v -45.1734 l 0.8214,1.2694 -7.2427,-1.1947 v -3.2107 l 18.8907,-0.3733 v 3.2107 l -7.2427,1.6426 0.896,-1.4933 v 20.9067 l -1.12,-1.12 h 11.424 l -1.792,1.12 12.544,-20.6827 0.5974,1.0453 -7.168,-1.0453 v -3.2107 l 18.144,-0.3733 v 3.2107 l -7.168,1.6426 1.568,-1.1946 -13.8134,22.2506 v -1.7173 z"
           id="path7363" /><path
           d="m 1300.6383,2082.0053 q -4.928,0 -8.1387,-3.0614 -3.2106,-3.0613 -3.2106,-9.408 v -23.8187 l 0.7466,1.0454 -6.6453,-1.4187 v -3.2107 l 11.872,-0.448 v 26.8054 q 0,4.48 2.0907,6.6453 2.0906,2.1654 5.6,2.1654 2.7626,0 5.9733,-1.4934 3.2107,-1.4933 6.3467,-4.6293 l -0.448,1.344 v -26.9547 l 0.7466,1.1947 -6.6453,-1.4187 v -3.2107 l 11.872,-0.5226 v 36.064 l -0.896,-0.9707 6.72,1.2694 v 3.2853 l -10.4533,0.448 -0.896,-7.392 0.8213,0.2986 q -3.6587,3.8081 -7.7653,5.6001 -4.032,1.792 -7.6907,1.792 z"
           id="path7365" /><path
           d="m 1342.1531,2077.5253 -0.672,-0.8214 6.496,1.4187 v 3.2107 h -17.6961 v -3.2107 l 6.496,-1.4187 -0.5973,0.8214 v -49.4294 l 0.5973,0.672 -6.496,-1.344 v -3.2107 l 11.8721,-0.5226 z"
           id="path7367" /><path
           d="m 1365.8224,2082.0053 q -3.8827,0 -6.1227,-2.3894 -2.24,-2.464 -2.24,-7.392 v -27.104 l 0.9707,0.9707 h -7.6907 v -3.2854 l 7.7653,-1.12 -1.0453,1.1947 v -9.856 l 5.9733,-0.9707 v 10.8267 l -0.8213,-0.9707 h 11.7227 l -0.224,4.1814 h -11.4987 l 0.8213,-0.9707 v 26.2827 q 0,3.136 1.1947,4.5546 1.2694,1.4187 3.5094,1.4187 1.344,0 2.912,-0.448 1.568,-0.448 3.36,-1.2693 l 1.2693,3.4347 q -5.3013,2.912 -9.856,2.912 z"
           id="path7369" /><path
           d="m 1395.241,2082.0053 q -4.928,0 -8.1386,-3.0614 -3.2107,-3.0613 -3.2107,-9.408 v -23.8187 l 0.7467,1.0454 -6.6454,-1.4187 v -3.2107 l 11.872,-0.448 v 26.8054 q 0,4.48 2.0907,6.6453 2.0907,2.1654 5.6,2.1654 2.7627,0 5.9733,-1.4934 3.2107,-1.4933 6.3467,-4.6293 l -0.448,1.344 v -26.9547 l 0.7467,1.1947 -6.6454,-1.4187 v -3.2107 l 11.872,-0.5226 v 36.064 l -0.896,-0.9707 6.72,1.2694 v 3.2853 l -10.4533,0.448 -0.896,-7.392 0.8213,0.2986 q -3.6586,3.8081 -7.7653,5.6001 -4.032,1.792 -7.6907,1.792 z"
           id="path7371" /><path
           d="m 1425.9291,2081.3333 v -3.2107 l 6.5707,-1.4187 -0.7467,1.12 v -32.1813 l 0.8213,1.12 -6.6453,-1.4187 v -3.2107 l 10.4533,-0.5226 0.8214,7.3173 -0.8214,-0.2987 q 3.36,-3.5093 6.5707,-5.4506 3.2107,-1.9414 7.0187,-1.9414 2.3893,0 5.0026,0.7467 l -0.448,10.9013 h -3.7333 l -0.896,-7.84 0.672,1.344 q -0.5227,-0.1493 -1.12,-0.224 -0.5973,-0.075 -1.1947,-0.075 -2.9866,0 -5.824,1.792 -2.7626,1.792 -5.3013,4.6293 l 0.5973,-1.792 v 27.104 l -0.896,-1.12 8.1387,1.4187 v 3.2107 z"
           id="path7373" /></g><g
         aria-label="Kultur"
         id="g7389"
         style="font-size:74.6667px;line-height:1.15;font-family:Bitter;-inkscape-font-specification:Bitter;fill:#6d3f86;fill-opacity:1;stroke-width:2.21141"
         transform="translate(-3298.4878,-417.41522)"><path
           d="m 1278.288,2143.3319 -1.8666,-1.2693 7.0186,1.4933 v 3.2107 h -18.592 v -3.2107 l 6.6454,-1.4933 -0.2987,1.12 -15.0827,-22.0267 1.9414,1.1947 h -11.3494 l 1.12,-1.2693 v 22.2506 l -0.9707,-1.4186 7.3174,1.6426 v 3.2107 H 1235.28 v -3.2107 l 7.3173,-1.4933 -0.896,1.2693 v -45.1733 l 0.8214,1.2693 -7.2427,-1.1947 v -3.2106 l 18.8907,-0.3734 v 3.2107 l -7.2427,1.6427 0.896,-1.4934 v 20.9067 l -1.12,-1.12 h 11.424 l -1.792,1.12 12.544,-20.6827 0.5974,1.0454 -7.168,-1.0454 v -3.2106 l 18.144,-0.3734 v 3.2107 l -7.168,1.6427 1.568,-1.1947 -13.8134,22.2507 v -1.7173 z"
           id="path7377" /><path
           d="m 1300.6383,2147.4386 q -4.928,0 -8.1387,-3.0613 -3.2106,-3.0614 -3.2106,-9.408 v -23.8187 l 0.7466,1.0453 -6.6453,-1.4186 v -3.2107 l 11.872,-0.448 v 26.8053 q 0,4.48 2.0907,6.6454 2.0906,2.1653 5.6,2.1653 2.7626,0 5.9733,-1.4933 3.2107,-1.4934 6.3467,-4.6294 l -0.448,1.344 v -26.9546 l 0.7466,1.1946 -6.6453,-1.4186 v -3.2107 l 11.872,-0.5227 v 36.064 l -0.896,-0.9706 6.72,1.2693 v 3.2853 l -10.4533,0.448 -0.896,-7.392 0.8213,0.2987 q -3.6587,3.808 -7.7653,5.6 -4.032,1.792 -7.6907,1.792 z"
           id="path7379" /><path
           d="m 1342.1531,2142.9586 -0.672,-0.8213 6.496,1.4186 v 3.2107 h -17.6961 v -3.2107 l 6.496,-1.4186 -0.5973,0.8213 v -49.4294 l 0.5973,0.672 -6.496,-1.344 v -3.2106 l 11.8721,-0.5227 z"
           id="path7381" /><path
           d="m 1365.8224,2147.4386 q -3.8827,0 -6.1227,-2.3893 -2.24,-2.464 -2.24,-7.392 v -27.104 l 0.9707,0.9706 h -7.6907 v -3.2853 l 7.7653,-1.12 -1.0453,1.1946 v -9.856 l 5.9733,-0.9706 v 10.8266 l -0.8213,-0.9706 h 11.7227 l -0.224,4.1813 h -11.4987 l 0.8213,-0.9706 v 26.2826 q 0,3.136 1.1947,4.5547 1.2694,1.4187 3.5094,1.4187 1.344,0 2.912,-0.448 1.568,-0.448 3.36,-1.2694 l 1.2693,3.4347 q -5.3013,2.912 -9.856,2.912 z"
           id="path7383" /><path
           d="m 1395.241,2147.4386 q -4.928,0 -8.1386,-3.0613 -3.2107,-3.0614 -3.2107,-9.408 v -23.8187 l 0.7467,1.0453 -6.6454,-1.4186 v -3.2107 l 11.872,-0.448 v 26.8053 q 0,4.48 2.0907,6.6454 2.0907,2.1653 5.6,2.1653 2.7627,0 5.9733,-1.4933 3.2107,-1.4934 6.3467,-4.6294 l -0.448,1.344 v -26.9546 l 0.7467,1.1946 -6.6454,-1.4186 v -3.2107 l 11.872,-0.5227 v 36.064 l -0.896,-0.9706 6.72,1.2693 v 3.2853 l -10.4533,0.448 -0.896,-7.392 0.8213,0.2987 q -3.6586,3.808 -7.7653,5.6 -4.032,1.792 -7.6907,1.792 z"
           id="path7385" /><path
           d="m 1425.9291,2146.7666 v -3.2107 l 6.5707,-1.4186 -0.7467,1.12 v -32.1814 l 0.8213,1.12 -6.6453,-1.4186 v -3.2107 l 10.4533,-0.5227 0.8214,7.3174 -0.8214,-0.2987 q 3.36,-3.5093 6.5707,-5.4507 3.2107,-1.9413 7.0187,-1.9413 2.3893,0 5.0026,0.7466 l -0.448,10.9014 h -3.7333 l -0.896,-7.84 0.672,1.344 q -0.5227,-0.1493 -1.12,-0.224 -0.5973,-0.075 -1.1947,-0.075 -2.9866,0 -5.824,1.792 -2.7626,1.792 -5.3013,4.6294 l 0.5973,-1.792 v 27.104 l -0.896,-1.12 8.1387,1.4186 v 3.2107 z"
           id="path7387" /></g><g
         aria-label="Kultur"
         id="g7403"
         style="font-size:74.6667px;line-height:1.15;font-family:Bitter;-inkscape-font-specification:Bitter;fill:#6d3f86;fill-opacity:1;stroke-width:2.21141"
         transform="translate(-3298.4878,-417.41522)"><path
           d="m 1278.288,2208.8195 -1.8666,-1.2694 7.0186,1.4934 v 3.2107 h -18.592 v -3.2107 l 6.6454,-1.4934 -0.2987,1.12 -15.0827,-22.0266 1.9414,1.1946 h -11.3494 l 1.12,-1.2693 v 22.2507 l -0.9707,-1.4187 7.3174,1.6427 v 3.2107 H 1235.28 v -3.2107 l 7.3173,-1.4934 -0.896,1.2694 v -45.1734 l 0.8214,1.2694 -7.2427,-1.1947 v -3.2107 l 18.8907,-0.3733 v 3.2107 l -7.2427,1.6426 0.896,-1.4933 v 20.9067 l -1.12,-1.12 h 11.424 l -1.792,1.12 12.544,-20.6827 0.5974,1.0453 -7.168,-1.0453 v -3.2107 l 18.144,-0.3733 v 3.2107 l -7.168,1.6426 1.568,-1.1946 -13.8134,22.2506 v -1.7173 z"
           id="path7391" /><path
           d="m 1300.6383,2212.9262 q -4.928,0 -8.1387,-3.0614 -3.2106,-3.0613 -3.2106,-9.408 v -23.8187 l 0.7466,1.0454 -6.6453,-1.4187 v -3.2107 l 11.872,-0.448 v 26.8054 q 0,4.48 2.0907,6.6453 2.0906,2.1653 5.6,2.1653 2.7626,0 5.9733,-1.4933 3.2107,-1.4933 6.3467,-4.6293 l -0.448,1.344 v -26.9547 l 0.7466,1.1947 -6.6453,-1.4187 v -3.2107 l 11.872,-0.5226 v 36.064 l -0.896,-0.9707 6.72,1.2693 v 3.2854 l -10.4533,0.448 -0.896,-7.392 0.8213,0.2986 q -3.6587,3.808 -7.7653,5.6 -4.032,1.7921 -7.6907,1.7921 z"
           id="path7393" /><path
           d="m 1342.1531,2208.4461 -0.672,-0.8213 6.496,1.4187 v 3.2107 h -17.6961 v -3.2107 l 6.496,-1.4187 -0.5973,0.8213 v -49.4293 l 0.5973,0.672 -6.496,-1.344 v -3.2107 l 11.8721,-0.5226 z"
           id="path7395" /><path
           d="m 1365.8224,2212.9262 q -3.8827,0 -6.1227,-2.3894 -2.24,-2.464 -2.24,-7.392 v -27.104 l 0.9707,0.9707 h -7.6907 v -3.2854 l 7.7653,-1.12 -1.0453,1.1947 v -9.856 l 5.9733,-0.9707 v 10.8267 l -0.8213,-0.9707 h 11.7227 l -0.224,4.1814 h -11.4987 l 0.8213,-0.9707 v 26.2827 q 0,3.136 1.1947,4.5546 1.2694,1.4187 3.5094,1.4187 1.344,0 2.912,-0.448 1.568,-0.448 3.36,-1.2693 l 1.2693,3.4346 q -5.3013,2.9121 -9.856,2.9121 z"
           id="path7397" /><path
           d="m 1395.241,2212.9262 q -4.928,0 -8.1386,-3.0614 -3.2107,-3.0613 -3.2107,-9.408 v -23.8187 l 0.7467,1.0454 -6.6454,-1.4187 v -3.2107 l 11.872,-0.448 v 26.8054 q 0,4.48 2.0907,6.6453 2.0907,2.1653 5.6,2.1653 2.7627,0 5.9733,-1.4933 3.2107,-1.4933 6.3467,-4.6293 l -0.448,1.344 v -26.9547 l 0.7467,1.1947 -6.6454,-1.4187 v -3.2107 l 11.872,-0.5226 v 36.064 l -0.896,-0.9707 6.72,1.2693 v 3.2854 l -10.4533,0.448 -0.896,-7.392 0.8213,0.2986 q -3.6586,3.808 -7.7653,5.6 -4.032,1.7921 -7.6907,1.7921 z"
           id="path7399" /><path
           d="m 1425.9291,2212.2542 v -3.2107 l 6.5707,-1.4187 -0.7467,1.12 v -32.1813 l 0.8213,1.12 -6.6453,-1.4187 v -3.2107 l 10.4533,-0.5226 0.8214,7.3173 -0.8214,-0.2987 q 3.36,-3.5093 6.5707,-5.4506 3.2107,-1.9414 7.0187,-1.9414 2.3893,0 5.0026,0.7467 l -0.448,10.9013 h -3.7333 l -0.896,-7.84 0.672,1.344 q -0.5227,-0.1493 -1.12,-0.224 -0.5973,-0.075 -1.1947,-0.075 -2.9866,0 -5.824,1.792 -2.7626,1.792 -5.3013,4.6293 l 0.5973,-1.792 v 27.104 l -0.896,-1.12 8.1387,1.4187 v 3.2107 z"
           id="path7401" /></g><g
         aria-label="Kultur"
         id="g7417"
         style="font-size:74.6667px;line-height:1.15;font-family:Bitter;-inkscape-font-specification:Bitter;fill:#6d3f86;fill-opacity:1;stroke-width:2.21141"
         transform="translate(-3298.4878,-417.41522)"><path
           d="m 1278.288,2272.9311 -1.8666,-1.2694 7.0186,1.4934 v 3.2106 h -18.592 v -3.2106 l 6.6454,-1.4934 -0.2987,1.12 -15.0827,-22.0267 1.9414,1.1947 h -11.3494 l 1.12,-1.2693 v 22.2507 l -0.9707,-1.4187 7.3174,1.6427 v 3.2106 H 1235.28 v -3.2106 l 7.3173,-1.4934 -0.896,1.2694 v -45.1734 l 0.8214,1.2693 -7.2427,-1.1946 v -3.2107 l 18.8907,-0.3733 v 3.2106 l -7.2427,1.6427 0.896,-1.4933 v 20.9066 l -1.12,-1.12 h 11.424 l -1.792,1.12 12.544,-20.6826 0.5974,1.0453 -7.168,-1.0453 v -3.2107 l 18.144,-0.3733 v 3.2106 l -7.168,1.6427 1.568,-1.1947 -13.8134,22.2507 v -1.7173 z"
           id="path7405" /><path
           d="m 1300.6383,2277.0377 q -4.928,0 -8.1387,-3.0613 -3.2106,-3.0613 -3.2106,-9.408 v -23.8187 l 0.7466,1.0453 -6.6453,-1.4186 v -3.2107 l 11.872,-0.448 v 26.8053 q 0,4.4801 2.0907,6.6454 2.0906,2.1653 5.6,2.1653 2.7626,0 5.9733,-1.4933 3.2107,-1.4933 6.3467,-4.6293 l -0.448,1.344 v -26.9547 l 0.7466,1.1946 -6.6453,-1.4186 v -3.2107 l 11.872,-0.5227 v 36.0641 l -0.896,-0.9707 6.72,1.2693 v 3.2854 l -10.4533,0.448 -0.896,-7.392 0.8213,0.2986 q -3.6587,3.808 -7.7653,5.6 -4.032,1.792 -7.6907,1.792 z"
           id="path7407" /><path
           d="m 1342.1531,2272.5577 -0.672,-0.8213 6.496,1.4187 v 3.2106 h -17.6961 v -3.2106 l 6.496,-1.4187 -0.5973,0.8213 v -49.4293 l 0.5973,0.672 -6.496,-1.344 v -3.2107 l 11.8721,-0.5227 z"
           id="path7409" /><path
           d="m 1365.8224,2277.0377 q -3.8827,0 -6.1227,-2.3893 -2.24,-2.464 -2.24,-7.392 v -27.104 l 0.9707,0.9706 h -7.6907 v -3.2853 l 7.7653,-1.12 -1.0453,1.1947 v -9.856 l 5.9733,-0.9707 v 10.8267 l -0.8213,-0.9707 h 11.7227 l -0.224,4.1813 h -11.4987 l 0.8213,-0.9706 v 26.2827 q 0,3.136 1.1947,4.5546 1.2694,1.4187 3.5094,1.4187 1.344,0 2.912,-0.448 1.568,-0.448 3.36,-1.2693 l 1.2693,3.4346 q -5.3013,2.912 -9.856,2.912 z"
           id="path7411" /><path
           d="m 1395.241,2277.0377 q -4.928,0 -8.1386,-3.0613 -3.2107,-3.0613 -3.2107,-9.408 v -23.8187 l 0.7467,1.0453 -6.6454,-1.4186 v -3.2107 l 11.872,-0.448 v 26.8053 q 0,4.4801 2.0907,6.6454 2.0907,2.1653 5.6,2.1653 2.7627,0 5.9733,-1.4933 3.2107,-1.4933 6.3467,-4.6293 l -0.448,1.344 v -26.9547 l 0.7467,1.1946 -6.6454,-1.4186 v -3.2107 l 11.872,-0.5227 v 36.0641 l -0.896,-0.9707 6.72,1.2693 v 3.2854 l -10.4533,0.448 -0.896,-7.392 0.8213,0.2986 q -3.6586,3.808 -7.7653,5.6 -4.032,1.792 -7.6907,1.792 z"
           id="path7413" /><path
           d="m 1425.9291,2276.3657 v -3.2106 l 6.5707,-1.4187 -0.7467,1.12 v -32.1814 l 0.8213,1.12 -6.6453,-1.4186 v -3.2107 l 10.4533,-0.5227 0.8214,7.3174 -0.8214,-0.2987 q 3.36,-3.5093 6.5707,-5.4507 3.2107,-1.9413 7.0187,-1.9413 2.3893,0 5.0026,0.7467 l -0.448,10.9013 h -3.7333 l -0.896,-7.84 0.672,1.344 q -0.5227,-0.1493 -1.12,-0.224 -0.5973,-0.075 -1.1947,-0.075 -2.9866,0 -5.824,1.792 -2.7626,1.792 -5.3013,4.6294 l 0.5973,-1.792 v 27.104 l -0.896,-1.12 8.1387,1.4187 v 3.2106 z"
           id="path7415" /></g></g></g></svg>
